<svg xmlns="http://www.w3.org/2000/svg" viewBox="0 0 70 44">
    <path fill-rule="nonzero" d="M8.953 22.79c0 1.9 1.538 3.347 3.347 3.347h55.439c.633 0 1.085.18 1.537.633.453.452.634.904.634 1.537V43.05c0 .271-.272.543-.543.543H61.68c-.272 0-.543-.272-.543-.543v-4.884c0-1.808-1.538-3.346-3.346-3.346H12.119c-1.809 0-3.346 1.538-3.346 3.346v4.884c0 .271-.272.543-.543.543H.543c-.272 0-.543-.272-.543-.543V2.171C0 1.537.18 1.085.633.633 1.085.181 1.537 0 2.171 0h4.34c.634 0 1.086.18 1.538.633.452.452.633.904.633 1.538v20.62h.271zm16.28-.723c2.441-2.08 3.527-4.703 3.255-7.868-.18-1.628-.814-3.165-1.808-4.341-2.08-2.442-4.703-3.527-7.869-3.256-1.628.18-3.165.814-4.34 1.809-2.443 2.08-3.618 4.703-3.257 7.868.181 1.628.814 3.165 1.81 4.341 2.08 2.442 4.702 3.527 7.867 3.256 1.538-.09 3.075-.724 4.342-1.809zM70 22.34c0-4.16-1.718-8.14-4.884-10.763-2.351-1.899-5.064-2.894-8.23-2.894H32.92c-.633 0-1.085.181-1.538.633-.452.452-.633.905-.633 1.538v10.22a2.818 2.818 0 0 0 2.804 2.803h34.82c.903.09 1.627-.633 1.627-1.537z"/>
</svg>
