<svg xmlns="http://www.w3.org/2000/svg" xmlns:xlink="http://www.w3.org/1999/xlink" xml:space="preserve" version="1.1" style="shape-rendering:geometricPrecision;text-rendering:geometricPrecision;image-rendering:optimizeQuality;" viewBox="0 0 847 1058.75" x="0px" y="0px" fill-rule="evenodd" clip-rule="evenodd"><defs></defs><g><path class="fil0" d="M699 90l-66 -59 0 -21 -504 0 0 747 85 79 504 0 0 -746 -19 0zm-364 320c-9,-6 -18,-14 -26,-23 -15,15 -32,29 -50,40l-12 -20c17,-11 33,-25 47,-39 -13,-19 -24,-43 -30,-66l24 -6c4,18 13,39 23,54 16,-20 25,-39 27,-57l-97 0 0 -26 54 0 0 -15 25 0 0 15 53 0 0 26 -11 0c-2,25 -14,51 -36,77 3,3 6,6 9,9l0 -12c0,-9 7,-17 15,-17l70 0 0 -126c0,-2 -1,-4 -4,-4l-226 0c-2,0 -4,2 -4,4l0 231c0,2 2,4 4,4l145 0c0,-16 0,-33 0,-49zm129 24l-1 0c-5,20 -9,39 -15,60l32 0c-6,-20 -11,-40 -16,-60zm114 -71l-226 0c-2,0 -4,2 -4,4l0 231c0,2 2,4 4,4l226 0c2,0 4,-2 4,-4l0 -231c0,-2 -2,-4 -4,-4zm-82 193l-11 -37 -42 -1 -10 38 -34 0 44 -147 43 0 45 147 -35 0zm199 257l-469 0c-17,-19 -39,-38 -57,-56 155,0 309,0 464,0 0,-215 0,-495 0,-710l62 55 0 711z"></path></g><text x="0" y="862" fill="#000000" font-size="5px" font-weight="bold" font-family="'Helvetica Neue', Helvetica, Arial-Unicode, Arial, Sans-serif">Created by sumhi_icon</text><text x="0" y="867" fill="#000000" font-size="5px" font-weight="bold" font-family="'Helvetica Neue', Helvetica, Arial-Unicode, Arial, Sans-serif">from the Noun Project</text></svg>
