<svg xmlns="http://www.w3.org/2000/svg" xmlns:xlink="http://www.w3.org/1999/xlink" version="1.1" x="0px" y="0px" viewBox="0 0 100 125" style="enable-background:new 0 0 100 100;" xml:space="preserve"><rect x="18.1" y="71.1" width="13.8" height="4.5"></rect><rect x="18.1" y="82.7" width="16.4" height="4.5"></rect><rect x="48" y="44" width="27.2" height="4.2"></rect><rect x="48" y="55.1" width="14.8" height="4.5"></rect><rect x="48" y="66.7" width="19.6" height="4.5"></rect><rect x="48.1" y="31.8" width="19.4" height="4.6"></rect><path d="M81.4,11.7H44v4.8h32.2v12.9h12.9v49.7H41.4V42h-4.8v5.8H18.3v4.6h18.3V60l-18.4,0.1l0,4.2l18.4-0.1V84h22.7v9.8H11.6V42  H6.7v56.6h57.4V84H94V24.3L81.4,11.7z M80.2,25.3v-8.8l8.8,8.8H80.2z"></path><path d="M17.8,29.8c-1.5,0-2.9-0.8-3.6-2.1l-0.8-1.3c-0.2-0.2-0.3-0.3-0.3-0.3L7.8,37.4l4.6-1.1l2.4,3.6l5-10.1H17.8  z"></path><path d="M33.6,27.7c-0.7,1.3-2.1,2.1-3.6,2.1l-2.4,0.1l4.9,10l2.4-3.6l4.6,1.1l-5.2-10.8L33.6,27.7z"></path><path d="M37.6,14.2l-1.4-2.5V9c0-0.6-0.3-1.2-0.9-1.5l-2.4-1.4l-1.4-2.4c-0.3-0.5-0.9-0.9-1.5-0.9h-2.8l-2.4-1.4  c-0.5-0.3-1.2-0.3-1.7,0l-2.4,1.4h-2.8c-0.6,0-1.2,0.3-1.5,0.9l-1.4,2.4l-2.5,1.4c-0.5,0.3-0.9,0.9-0.9,1.5v2.8l-1.4,2.4  c-0.2,0.3-0.2,0.6-0.2,0.9s0.1,0.6,0.2,0.9l1.4,2.4v2.8c0,0.6,0.3,1.2,0.9,1.5l2.5,1.4l1.4,2.4c0.3,0.5,0.9,0.9,1.5,0.9h2.8l2.4,1.4  c0.3,0.2,0.6,0.2,0.9,0.2c0.3,0,0.6-0.1,0.9-0.2l2.4-1.4H30c0.6,0,1.2-0.3,1.5-0.9l1.4-2.4l2.4-1.4c0.5-0.3,0.9-0.9,0.9-1.5v-2.7  l1.4-2.5C37.9,15.4,37.9,14.8,37.6,14.2z M29.4,14.2L27,16.6l0.6,3.3c0,0.2,0,0.3-0.2,0.4c-0.1,0.1-0.2,0.1-0.3,0.1  c-0.1,0-0.1,0-0.2-0.1l-3-1.6l-3,1.6c-0.2,0.1-0.3,0.1-0.5,0c-0.1-0.1-0.2-0.3-0.2-0.4l0.6-3.3l-2.4-2.4c-0.1-0.1-0.2-0.3-0.1-0.5  c0.1-0.2,0.2-0.3,0.4-0.3L22,13l1.5-3c0.2-0.3,0.7-0.3,0.8,0l1.5,3l3.4,0.5c0.2,0,0.3,0.1,0.4,0.3C29.6,14,29.5,14.1,29.4,14.2z"></path></svg>
