<svg xmlns="http://www.w3.org/2000/svg" viewBox="0 0 71 60">
    <path fill-rule="nonzero" d="M67.217 13.718h-4.891v12.897h4.89a2.864 2.864 0 0 0 2.864-2.863v-7.171a2.864 2.864 0 0 0-2.863-2.863zM0 16.58v7.186a2.864 2.864 0 0 0 2.863 2.863h4.89V13.732h-4.89A2.841 2.841 0 0 0 0 16.582zM35.04 0C21.083 0 9.766 4.473 9.766 7.5v40.84c0 2.624 1.894 4.801 4.399 5.263v4.205c0 1.208.984 2.192 2.207 2.192h4.398a2.195 2.195 0 0 0 2.192-2.192v-4.115h24.155v4.115c0 1.208.984 2.192 2.207 2.192h4.399a2.186 2.186 0 0 0 2.192-2.192v-4.205c2.49-.462 4.398-2.639 4.398-5.263V7.5c0-3.027-11.317-7.5-25.273-7.5zm-9.066 5.189h18.34v2.863h-18.34V5.189zm-7.41 38.678a4.397 4.397 0 0 1-4.399-4.399 4.397 4.397 0 0 1 4.399-4.398 4.397 4.397 0 0 1 4.398 4.398c-.015 2.43-1.983 4.399-4.398 4.399zM33.28 24.23a2.682 2.682 0 0 1-2.684 2.684H16.85a2.682 2.682 0 0 1-2.684-2.684v-7.828a2.682 2.682 0 0 1 2.684-2.684h13.747a2.682 2.682 0 0 1 2.684 2.684v7.828zm18.236 19.637a4.397 4.397 0 0 1-4.399-4.399 4.397 4.397 0 0 1 4.399-4.398 4.397 4.397 0 0 1 4.399 4.398 4.397 4.397 0 0 1-4.4 4.399zm4.399-19.637a2.682 2.682 0 0 1-2.684 2.684H39.483a2.67 2.67 0 0 1-2.669-2.684v-7.828a2.679 2.679 0 0 1 2.67-2.684H53.23a2.682 2.682 0 0 1 2.684 2.684v7.828z"/>
</svg>
