<svg xmlns="http://www.w3.org/2000/svg" xmlns:xlink="http://www.w3.org/1999/xlink" version="1.1" x="0px" y="0px" viewBox="0 0 100 125" enable-background="new 0 0 100 100" xml:space="preserve"><path fill-rule="evenodd" clip-rule="evenodd" d="M82.444,93.192v1.295c0,0.125-0.102,0.227-0.227,0.227H24.845  c-4.211,0-7.279-2.974-7.279-7.193v-0.045C17.46,62.41,17.568,37.319,17.57,12.251c0-3.691,2.796-6.76,6.375-7.195  c0.119-0.014,0.221-0.021,0.34-0.021L82.254,5c0.125,0,0.227,0.102,0.227,0.227V75.11v2.928c0,0.124-0.102,0.226-0.227,0.226H33.881  v10.3l-3.488-1.181l-3.477,1.181v-2.411h-0.002v-1.134h0.002v-3.564h-0.002v-1.135h0.002v-2.056c-1.968,0-3.762,0.785-5.084,2.056  h2.844v1.135h-3.809c-0.712,1.031-1.169,2.25-1.276,3.564h5.085v1.134h-5.09c0.096,1.312,0.541,2.531,1.241,3.565h60.976  c0.313,0,0.567,0.253,0.567,0.566s-0.255,0.566-0.567,0.566H21.772c1.328,1.306,3.146,2.114,5.145,2.114h55.301  C82.343,92.965,82.444,93.066,82.444,93.192L82.444,93.192z M52.565,23.222c0.377-0.427,0.604-0.987,0.604-1.601  c0-1.339-1.085-2.424-2.424-2.424c-1.338,0-2.424,1.085-2.424,2.424c0,0.624,0.235,1.192,0.623,1.622  c-4.092,0.396-7.821,2.034-10.804,4.532c-0.021-1.321-1.098-2.385-2.424-2.385c-1.339,0-2.424,1.085-2.424,2.424  c0,1.325,1.063,2.401,2.383,2.423c-2.54,3.022-4.195,6.813-4.567,10.972c-0.439-0.446-1.051-0.723-1.727-0.723  c-1.339,0-2.424,1.085-2.424,2.423c0,1.339,1.085,2.424,2.424,2.424c0.668,0,1.273-0.27,1.712-0.707  c0.345,4.243,2.024,8.108,4.617,11.176c-0.015,0-0.031,0-0.045,0c-1.339,0-2.424,1.085-2.424,2.424s1.085,2.424,2.424,2.424  c1.338,0,2.424-1.085,2.424-2.424c0-0.017,0-0.032,0-0.049c3.025,2.552,6.823,4.216,10.993,4.59  c-0.44,0.438-0.712,1.046-0.712,1.716c0,1.34,1.085,2.425,2.424,2.425c1.338,0,2.424-1.085,2.424-2.425  c0-0.663-0.268-1.264-0.699-1.701c4.158-0.341,7.952-1.963,10.988-4.472c0.034,1.31,1.106,2.361,2.424,2.361  c1.339,0,2.424-1.086,2.424-2.426c0-1.307-1.035-2.372-2.33-2.421c2.572-3.036,4.251-6.855,4.623-11.049  c0.427,0.38,0.99,0.61,1.608,0.61c1.339,0,2.424-1.085,2.424-2.424c0-1.338-1.085-2.423-2.424-2.423  c-0.62,0-1.185,0.232-1.614,0.615c-0.382-4.154-2.046-7.937-4.592-10.952c1.271-0.077,2.275-1.13,2.275-2.419  c0-1.339-1.085-2.424-2.424-2.424c-1.299,0-2.358,1.021-2.421,2.305C60.46,25.18,56.692,23.57,52.565,23.222L52.565,23.222z   M41.776,30.834c0.289,0.12,0.56,0.297,0.794,0.533c0.493,0.497,0.726,1.154,0.701,1.803c0.648-0.021,1.303,0.218,1.796,0.715  c0.402,0.406,0.631,0.918,0.688,1.445c0.527,0.062,1.037,0.294,1.439,0.701c0.431,0.436,0.664,0.993,0.698,1.56  c0.344-0.189,0.707-0.348,1.087-0.47c-0.409-0.434-0.659-1.019-0.659-1.662c0-0.571,0.198-1.096,0.528-1.51  c-0.331-0.415-0.528-0.939-0.528-1.511c0-0.7,0.297-1.33,0.771-1.773c-0.474-0.442-0.771-1.073-0.771-1.773  c0-0.316,0.061-0.619,0.171-0.897C46.001,28.388,43.71,29.386,41.776,30.834L41.776,30.834z M52.981,27.955  c0.121,0.289,0.188,0.605,0.188,0.938c0,0.7-0.296,1.331-0.771,1.773c0.475,0.443,0.771,1.073,0.771,1.773  c0,0.572-0.197,1.097-0.528,1.511c0.331,0.415,0.528,0.939,0.528,1.51c0,0.613-0.227,1.173-0.602,1.599  c0.43,0.123,0.84,0.29,1.226,0.498c0.029-0.595,0.275-1.182,0.739-1.628c0.412-0.396,0.926-0.618,1.455-0.667  c0.068-0.526,0.309-1.033,0.721-1.429c0.504-0.486,1.164-0.709,1.812-0.675c-0.011-0.649,0.237-1.3,0.742-1.786  c0.228-0.219,0.487-0.385,0.764-0.499C58.009,29.35,55.603,28.318,52.981,27.955L52.981,27.955z M63.17,34.076  c-0.123,0.287-0.305,0.555-0.544,0.786c-0.504,0.486-1.165,0.71-1.813,0.675c0.011,0.648-0.236,1.3-0.741,1.786  c-0.411,0.396-0.927,0.618-1.454,0.667c-0.069,0.526-0.31,1.033-0.721,1.429c-0.442,0.425-1.003,0.65-1.571,0.676  c0.194,0.364,0.354,0.749,0.473,1.151c0.443-0.398,1.034-0.634,1.677-0.618c0.57,0.014,1.091,0.224,1.497,0.564  c0.423-0.32,0.953-0.506,1.523-0.492c0.701,0.017,1.323,0.329,1.755,0.814c0.453-0.464,1.091-0.746,1.791-0.728  c0.316,0.007,0.617,0.075,0.891,0.193C65.594,38.423,64.617,36.066,63.17,34.076L63.17,34.076z M65.867,45.468  c-0.291,0.114-0.609,0.174-0.942,0.166c-0.699-0.017-1.322-0.328-1.755-0.813c-0.453,0.463-1.09,0.745-1.791,0.728  c-0.57-0.014-1.09-0.224-1.496-0.565c-0.423,0.321-0.954,0.506-1.524,0.492c-0.612-0.015-1.166-0.255-1.584-0.64  c-0.112,0.362-0.259,0.709-0.433,1.04c0.597,0.023,1.184,0.266,1.634,0.726c0.401,0.408,0.626,0.922,0.68,1.449  c0.526,0.065,1.035,0.302,1.436,0.71c0.488,0.5,0.719,1.159,0.688,1.807c0.649-0.016,1.303,0.227,1.792,0.728  c0.222,0.226,0.389,0.484,0.504,0.76C64.489,50.152,65.469,47.908,65.867,45.468L65.867,45.468z M59.896,55.225  c-0.288-0.121-0.558-0.301-0.79-0.538c-0.49-0.5-0.719-1.157-0.689-1.807c-0.647,0.016-1.301-0.227-1.791-0.727  c-0.4-0.408-0.626-0.923-0.679-1.45c-0.527-0.065-1.036-0.302-1.436-0.71c-0.43-0.438-0.658-0.998-0.688-1.564  c-0.345,0.188-0.71,0.343-1.09,0.463c0.405,0.437,0.652,1.023,0.648,1.666c-0.004,0.571-0.205,1.095-0.538,1.508  c0.327,0.416,0.521,0.942,0.518,1.514c-0.004,0.7-0.306,1.329-0.783,1.769c0.472,0.445,0.765,1.077,0.761,1.778  c-0.002,0.316-0.065,0.619-0.178,0.896C55.658,57.645,57.954,56.661,59.896,55.225L59.896,55.225z M48.672,58.033  c-0.12-0.289-0.184-0.606-0.182-0.939c0.005-0.699,0.306-1.328,0.783-1.769c-0.471-0.445-0.764-1.077-0.76-1.777  c0.004-0.571,0.205-1.095,0.539-1.508c-0.328-0.416-0.522-0.942-0.519-1.514c0.004-0.613,0.235-1.172,0.613-1.596  c-0.407-0.118-0.796-0.277-1.163-0.472c-0.027,0.596-0.271,1.183-0.732,1.631c-0.409,0.398-0.924,0.622-1.451,0.674  c-0.067,0.526-0.305,1.034-0.715,1.433c-0.501,0.487-1.161,0.714-1.809,0.682c0.014,0.649-0.231,1.302-0.733,1.79  c-0.227,0.221-0.486,0.388-0.762,0.502C43.759,56.652,46.112,57.661,48.672,58.033L48.672,58.033z M38.621,51.979  c0.123-0.288,0.303-0.557,0.541-0.788c0.502-0.488,1.161-0.714,1.809-0.684c-0.014-0.648,0.232-1.301,0.734-1.788  c0.409-0.399,0.924-0.623,1.451-0.675c0.067-0.526,0.306-1.034,0.715-1.432c0.439-0.427,1-0.654,1.567-0.684  c-0.169-0.312-0.311-0.641-0.425-0.984c-0.43,0.413-1.013,0.668-1.656,0.673c-0.571,0.005-1.098-0.188-1.515-0.516  c-0.412,0.333-0.935,0.536-1.506,0.541c-0.7,0.006-1.333-0.286-1.779-0.757c-0.439,0.479-1.067,0.781-1.767,0.786  c-0.316,0.002-0.62-0.056-0.898-0.164C36.289,47.901,37.244,50.104,38.621,51.979L38.621,51.979z M35.813,41.021  c0.287-0.124,0.604-0.193,0.936-0.196c0.701-0.006,1.333,0.285,1.78,0.756c0.439-0.479,1.066-0.78,1.767-0.787  c0.571-0.004,1.099,0.189,1.516,0.516c0.412-0.334,0.935-0.536,1.506-0.541c0.613-0.005,1.174,0.218,1.604,0.589  c0.115-0.419,0.273-0.82,0.469-1.198c-0.596-0.02-1.185-0.259-1.638-0.715C43.35,39.04,43.121,38.527,43.064,38  c-0.527-0.061-1.037-0.294-1.439-0.701c-0.493-0.497-0.727-1.154-0.702-1.802c-0.648,0.02-1.303-0.219-1.795-0.715  c-0.224-0.225-0.393-0.482-0.51-0.757C37.143,36.037,36.15,38.426,35.813,41.021L35.813,41.021z M50.876,39.663  c-1.844,0-3.338,1.495-3.338,3.338s1.495,3.337,3.338,3.337c1.843,0,3.338-1.494,3.338-3.337S52.719,39.663,50.876,39.663  L50.876,39.663z M36.093,80.319v1.135h45.71c0.313,0,0.567-0.255,0.567-0.567s-0.255-0.567-0.567-0.567H36.093L36.093,80.319z   M36.093,85.019v1.134h45.71c0.313,0,0.567-0.254,0.567-0.567c0-0.313-0.255-0.566-0.567-0.566H36.093z"></path></svg>
