<svg xmlns="http://www.w3.org/2000/svg" xmlns:xlink="http://www.w3.org/1999/xlink" version="1.1" x="0px" y="0px" viewBox="0 0 64 80" style="enable-background:new 0 0 64 64;" xml:space="preserve"><path d="M61,5H15c-0.553,0-1,0.448-1,1v4v4v6v10H3c-0.553,0-1,0.448-1,1c0,4.287,3.013,7.883,7.032,8.783  c0.265,3.184,2.139,5.754,4.972,7.127C14.001,46.94,14,46.97,14,47c0,5.215,4.206,9,10,9l2.321,0l1.761-0.053  C34.766,55.394,40,49.707,40,43c0-2.165-0.539-4.203-1.479-6H61c0.553,0,1-0.448,1-1v-6V20v-6v-4V6C62,5.448,61.553,5,61,5z M16,15  h3.899c-0.398,1.956-1.943,3.501-3.899,3.899V15z M16,13v-2h44v2H16z M60,15v3.899c-1.956-0.398-3.501-1.943-3.899-3.899H60z M16,7  h44v2H16V7z M27.971,53.95L24,54c-4.319,0-7.444-2.42-7.933-6H24c0.553,0,1-0.448,1-1s-0.447-1-1-1h-5c-4.319,0-7.444-2.42-7.933-6  H17c0.553,0,1-0.448,1-1s-0.447-1-1-1h-6c-3.521,0-6.442-2.612-6.929-6H27c0.418,0,0.832,0.028,1.243,0.075  c0.092,0.01,0.181,0.029,0.272,0.042c0.327,0.046,0.653,0.102,0.973,0.177c0.084,0.019,0.166,0.043,0.249,0.064  c0.335,0.087,0.666,0.187,0.99,0.305c0.058,0.021,0.116,0.042,0.173,0.064c0.369,0.141,0.732,0.299,1.084,0.479  c0.01,0.005,0.019,0.009,0.029,0.014c0.761,0.392,1.478,0.872,2.133,1.433c0.006,0.005,0.011,0.01,0.016,0.015  c0.304,0.261,0.592,0.542,0.867,0.837c0.042,0.045,0.083,0.091,0.124,0.137c0.25,0.277,0.488,0.567,0.711,0.871  C37.2,38.335,38,40.573,38,43C38,48.674,33.571,53.485,27.971,53.95z M34.001,32.064c-0.039-0.025-0.079-0.047-0.118-0.072  c-0.359-0.225-0.73-0.433-1.111-0.623c-0.063-0.031-0.126-0.061-0.189-0.091c-0.362-0.173-0.732-0.329-1.11-0.468  c-0.077-0.028-0.153-0.058-0.231-0.085c-0.366-0.127-0.739-0.236-1.119-0.33c-0.09-0.023-0.179-0.049-0.27-0.07  c-0.372-0.084-0.75-0.147-1.133-0.198c-0.097-0.013-0.191-0.033-0.288-0.044C27.96,30.031,27.484,30,27,30H16v-9.08  c3.059-0.441,5.479-2.861,5.92-5.92h32.16c0.441,3.059,2.861,5.479,5.92,5.92v8.16c-3.059,0.441-5.479,2.861-5.92,5.92H37.232  c-0.014-0.018-0.031-0.034-0.046-0.052C36.292,33.819,35.216,32.844,34.001,32.064z M60,35h-3.899  c0.398-1.956,1.943-3.501,3.899-3.899V35z"></path><path d="M43,25c0-2.757-2.243-5-5-5s-5,2.243-5,5s2.243,5,5,5S43,27.757,43,25z M35,25c0-1.654,1.346-3,3-3s3,1.346,3,3  s-1.346,3-3,3S35,26.654,35,25z"></path><rect x="43" y="44" width="2" height="2"></rect><rect x="47" y="44" width="7" height="2"></rect><rect x="51" y="51" width="2" height="2"></rect><rect x="55" y="51" width="7" height="2"></rect><rect x="2" y="23" width="2" height="2"></rect><rect x="6" y="23" width="5" height="2"></rect></svg>
