<svg xmlns="http://www.w3.org/2000/svg" version="1" viewBox="0 0 100 125"><path d="M66.598 72.392l1.697 3.438 3.794.551-2.745 2.676.648 3.779-3.394-1.784-3.394 1.784.648-3.779-2.745-2.676 3.794-.551 1.697-3.438m0-1.476c-.562 0-1.074.319-1.323.822l-1.353 2.742-3.027.44a1.476 1.476 0 0 0-.818 2.516l2.19 2.135-.517 3.014a1.475 1.475 0 0 0 2.14 1.556l2.707-1.423 2.707 1.423a1.48 1.48 0 0 0 1.553-.113c.454-.33.682-.89.587-1.443l-.517-3.014 2.19-2.135a1.474 1.474 0 0 0-.818-2.516l-3.027-.44-1.353-2.742a1.47 1.47 0 0 0-1.321-.822zm-16.598 0c-.562 0-1.074.319-1.323.822l-1.353 2.742-3.027.44a1.476 1.476 0 0 0-.818 2.516l2.19 2.135-.517 3.014a1.475 1.475 0 0 0 2.14 1.556L50 82.719l2.707 1.423a1.48 1.48 0 0 0 1.553-.113c.454-.33.682-.89.587-1.443l-.517-3.014 2.19-2.135a1.474 1.474 0 0 0-.818-2.516l-3.027-.44-1.353-2.742A1.473 1.473 0 0 0 50 70.916zm-16.598 0c-.562 0-1.074.319-1.323.822l-1.353 2.742-3.027.44a1.476 1.476 0 0 0-.818 2.516l2.19 2.135-.517 3.014a1.475 1.475 0 0 0 2.14 1.556l2.707-1.423 2.707 1.423a1.48 1.48 0 0 0 1.553-.113c.454-.33.682-.89.587-1.443l-.517-3.014 2.19-2.135a1.474 1.474 0 0 0-.818-2.516l-3.027-.44-1.353-2.742a1.472 1.472 0 0 0-1.321-.822zm38.729-20.178h-25.82v-1.475h25.82v1.475zM50 52.951h-3.689v1.475H50v-1.475zm22.131 0H53.689v1.475h18.443v-1.475zm-11.065 3.688H46.311v1.475h14.754v-1.475zm11.065 0h-7.377v1.475h7.377v-1.475zm-14.754 3.689H46.311v1.475h11.066v-1.475zm3.689-33.197H46.311v1.475h14.754v-1.475zm11.065 0h-7.377v1.475h7.377v-1.475zm0 3.689h-25.82v1.475h25.82V30.82zm-14.754 3.688H46.311v1.475h11.066v-1.475zm14.754 0H61.066v1.475h11.066v-1.475zm-7.377 3.689H46.311v1.475h18.443v-1.475z"></path><path d="M75.82 12.377h-4.338c-.741-1.139-1.62-2.329-2.458-3.404l-.257-.33-.416.052c-2.313.288-8.743.858-10.692.051-.341-.141-.869-.895-1.294-1.501C55.592 6.141 54.793 5 53.689 5h-7.377c-1.104 0-1.904 1.141-2.677 2.244-.425.606-.953 1.36-1.294 1.501-1.947.807-8.379.237-10.692-.051l-.416-.052-.257.33c-.838 1.075-1.717 2.265-2.458 3.404H24.18a4.431 4.431 0 0 0-4.426 4.426v73.77a4.43 4.43 0 0 0 4.426 4.426h51.64a4.43 4.43 0 0 0 4.426-4.426v-73.77a4.431 4.431 0 0 0-4.426-4.425zm-43.934-2.169c1.891.218 8.608.899 11.02-.1.737-.305 1.32-1.137 1.937-2.017.396-.564 1.132-1.615 1.469-1.615h7.377c.337 0 1.073 1.051 1.469 1.615.617.88 1.2 1.712 1.937 2.017 2.412.999 9.129.318 11.02.1 1.698 2.219 3.397 4.834 3.684 5.857H28.201c.288-1.022 1.987-3.638 3.685-5.857zM78.77 90.574a2.955 2.955 0 0 1-2.951 2.951H24.18a2.955 2.955 0 0 1-2.951-2.951v-73.77a2.955 2.955 0 0 1 2.951-2.951h3.449c-.727 1.324-1.12 2.457-.82 3.071.192.392.578.618 1.059.618H72.13c.482 0 .867-.225 1.059-.618.3-.614-.093-1.746-.82-3.071h3.449a2.955 2.955 0 0 1 2.951 2.951v73.77zM50 13.115c-1.424 0-2.582-1.158-2.582-2.582S48.576 7.951 50 7.951s2.582 1.158 2.582 2.582-1.158 2.582-2.582 2.582zm0-3.689a1.108 1.108 0 0 0 0 2.214 1.107 1.107 0 0 0 0-2.214z"></path><path d="M33.483 38.197h-.024c-.302 0-.588-.12-.792-.343l-3.77-4.111a1.1 1.1 0 0 1 .069-1.559 1.107 1.107 0 0 1 1.563.071l2.989 3.267 7.698-7.698a1.107 1.107 0 0 1 1.565 1.565l-8.516 8.5a1.088 1.088 0 0 1-.782.308zm5.451-3.926v4.664H27.869V27.869h11.066v1.194l1.45-1.45a1.474 1.474 0 0 0-1.45-1.22H27.869c-.815 0-1.475.661-1.475 1.475v11.066c0 .815.661 1.475 1.475 1.475h11.066c.815 0 1.475-.661 1.475-1.475v-6.136l-1.476 1.473zm-5.451 26.057h-.024c-.302 0-.588-.12-.792-.343l-3.77-4.111a1.1 1.1 0 0 1 .069-1.559 1.107 1.107 0 0 1 1.563.071l2.989 3.267 7.698-7.698a1.107 1.107 0 0 1 1.565 1.565l-8.516 8.5a1.088 1.088 0 0 1-.782.308zm5.451-3.926v4.664H27.869V50h11.066v1.194l1.45-1.45a1.474 1.474 0 0 0-1.45-1.22H27.869c-.815 0-1.475.661-1.475 1.475v11.066c0 .815.661 1.475 1.475 1.475h11.066c.815 0 1.475-.661 1.475-1.475v-6.136l-1.476 1.473z"></path><text y="115" font-size="5" font-weight="bold" font-family="'Helvetica Neue', Helvetica, Arial-Unicode, Arial, Sans-serif">Created by Bastian König</text><text y="120" font-size="5" font-weight="bold" font-family="'Helvetica Neue', Helvetica, Arial-Unicode, Arial, Sans-serif">from the Noun Project</text></svg>
