<svg xmlns="http://www.w3.org/2000/svg" viewBox="0 0 14 15">
    <path fill-rule="nonzero" d="M5.385 10.374s-1.382.467-2.818.09C1.13 10.087.179 8.992.179 8.992s1.383-.466 2.818-.09c1.436.377 2.388 1.472 2.388 1.472zm-1.58-1.633s-1.418-.287-2.477-1.328C.288 6.353 0 4.936 0 4.936s1.418.287 2.477 1.328c1.04 1.06 1.328 2.477 1.328 2.477zm-.502-2.154S2.208 5.636 1.83 4.2s.09-2.818.09-2.818 1.094.951 1.471 2.387-.09 2.818-.09 2.818zm2.243-3.77c-.395 1.437-1.472 2.388-1.472 2.388s-.466-1.382-.09-2.818C4.363.951 5.457 0 5.457 0s.467 1.382.09 2.818zm5.457 6.086c1.435-.395 2.818.09 2.818.09s-.952 1.094-2.388 1.471-2.818-.09-2.818-.09.952-1.095 2.388-1.471zM14 4.936s-.287 1.418-1.328 2.477c-1.06 1.04-2.477 1.328-2.477 1.328s.27-1.418 1.328-2.477C12.583 5.224 14 4.936 14 4.936zM12.187 4.2c-.395 1.436-1.472 2.387-1.472 2.387s-.466-1.382-.09-2.818c.378-1.436 1.472-2.387 1.472-2.387s.467 1.382.09 2.818zM9.944 5.205s-1.095-.951-1.472-2.387S8.562 0 8.562 0s1.094.951 1.471 2.387-.09 2.818-.09 2.818zm-.395 5.762c1.436.377 2.423 1.454 2.423 1.454s-1.382.466-2.818.09c-.251-.073-.467-.162-.682-.252.269.377.538.682 1.095.915l-.413.988c-.987-.413-1.4-1.024-1.76-1.562-.125-.18-.25-.341-.376-.503-.144.162-.251.324-.377.503-.377.538-.79 1.149-1.759 1.562l-.413-.988c.557-.233.826-.538 1.095-.915-.215.108-.449.18-.682.251-1.436.377-2.818-.09-2.818-.09s.951-1.094 2.387-1.471c1.06-.27 2.082-.09 2.549.018.467-.108 1.49-.288 2.549 0z"/>
</svg>
