<svg xmlns="http://www.w3.org/2000/svg" xmlns:xlink="http://www.w3.org/1999/xlink" version="1.1" x="0px" y="0px" viewBox="0 0 100 125" enable-background="new 0 0 100 100" xml:space="preserve"><g><path d="M50,5C25.147,5,5,25.147,5,50s20.147,45,45,45c24.853,0,45-20.147,45-45S74.853,5,50,5z M50,9.5c2.485,0,4.5,2.015,4.5,4.5   c0,2.485-2.015,4.5-4.5,4.5s-4.5-2.015-4.5-4.5C45.5,11.515,47.515,9.5,50,9.5z M14,54.5c-2.485,0-4.5-2.015-4.5-4.5   c0-2.485,2.015-4.5,4.5-4.5s4.5,2.015,4.5,4.5C18.5,52.485,16.485,54.5,14,54.5z M50,90.899c-2.485,0-4.5-2.015-4.5-4.5   c0-2.485,2.015-4.5,4.5-4.5s4.5,2.015,4.5,4.5C54.5,88.884,52.485,90.899,50,90.899z M74.92,74.92   c-2.661,2.661-6.975,2.661-9.636,0L51.808,61.443c-0.593,0.093-1.188,0.182-1.808,0.182c-6.42,0-11.625-5.205-11.625-11.625   c0-3.866,1.908-7.267,4.812-9.381V30.288c0-3.763,3.05-6.813,6.813-6.813c3.763,0,6.813,3.05,6.813,6.813v10.331   c2.904,2.113,4.812,5.515,4.812,9.381c0,0.619-0.089,1.215-0.182,1.808L74.92,65.284C77.581,67.945,77.581,72.259,74.92,74.92z    M86,54.5c-2.485,0-4.5-2.015-4.5-4.5c0-2.485,2.015-4.5,4.5-4.5s4.5,2.015,4.5,4.5C90.5,52.485,88.485,54.5,86,54.5z"></path></g><text x="0" y="115" fill="#000000" font-size="5px" font-weight="bold" font-family="'Helvetica Neue', Helvetica, Arial-Unicode, Arial, Sans-serif">Created by Daniel Llamas Soto</text><text x="0" y="120" fill="#000000" font-size="5px" font-weight="bold" font-family="'Helvetica Neue', Helvetica, Arial-Unicode, Arial, Sans-serif">from the Noun Project</text></svg>
