<svg xmlns="http://www.w3.org/2000/svg" viewBox="0 0 91 113.75"><path d="M33.181 46.809c1.322 1.04 3.855 2.262 6.849 2.262 2.061 0 4.34-.58 6.592-2.195a2.478 2.478 0 0 0 .571-3.461 2.478 2.478 0 0 0-3.461-.569c-3.769 2.703-7.116.343-7.501.052a2.479 2.479 0 1 0-3.05 3.911z"></path><circle cx="34.356" cy="36.056" r="2.837"></circle><path d="M48.373 36.056a2.84 2.84 0 0 0-2.836-2.835 2.84 2.84 0 0 0-2.838 2.835 2.842 2.842 0 0 0 2.838 2.838 2.84 2.84 0 0 0 2.836-2.838zm16.896 7.267c1.324 1.04 3.857 2.261 6.852 2.261 2.061 0 4.342-.58 6.595-2.196a2.477 2.477 0 0 0 .569-3.46 2.478 2.478 0 0 0-3.46-.57c-3.767 2.7-7.12.344-7.506.054a2.479 2.479 0 1 0-3.05 3.911zm4.012-10.753c0-1.565-1.273-2.838-2.838-2.838s-2.836 1.273-2.836 2.838c0 1.564 1.271 2.837 2.836 2.837s2.838-1.272 2.838-2.837zm11.182 0a2.841 2.841 0 0 0-2.838-2.838 2.841 2.841 0 0 0-2.837 2.838 2.841 2.841 0 0 0 2.837 2.837 2.84 2.84 0 0 0 2.838-2.837z"></path><path d="M10.352 65.296c.164 1.53 1.114 2.739 2.542 3.234a4.89 4.89 0 0 0 1.615.248c.232 0 .47-.013.71-.037a115.157 115.157 0 0 0-1.653 3.222l-.086.17a2.481 2.481 0 0 0 4.441 2.215l.084-.17c1.908-3.829 3.884-7.756 6.98-9.907a22.746 22.746 0 0 0 5.006 1.968 2.483 2.483 0 0 0 3.025-1.776 2.48 2.48 0 0 0-1.778-3.024c-7.854-2.042-13.341-9.145-13.341-17.273 0-9.838 8.006-17.842 17.843-17.842 9.841 0 17.845 8.004 17.845 17.842a17.866 17.866 0 0 1-8.254 15.048c-.016.009-.032.022-.048.033-.727.46-1.494.874-2.297 1.23a2.48 2.48 0 0 0 2.015 4.532 21.417 21.417 0 0 0 1.528-.75c3.337 2.136 6.511 6.086 8.658 10.864a2.483 2.483 0 0 0 3.281 1.247 2.483 2.483 0 0 0 1.245-3.28c-2.188-4.871-5.377-9.065-8.882-11.838a22.87 22.87 0 0 0 2.689-2.827 22.732 22.732 0 0 0 8.564 4.327 2.483 2.483 0 0 0 3.024-1.776 2.48 2.48 0 0 0-1.778-3.025c-2.639-.687-5.055-1.997-7.114-3.773a22.76 22.76 0 0 0 2.332-10.012c0-5.357-1.872-10.279-4.975-14.175 3.361-4.498 8.56-7.154 14.256-7.154 9.841 0 17.845 8.004 17.845 17.843a17.864 17.864 0 0 1-8.254 15.047c-.017.01-.03.023-.047.032-.729.462-1.496.874-2.299 1.231a2.48 2.48 0 0 0 2.015 4.533c.502-.224.993-.464 1.474-.72 3.08 2.287 5.206 7.034 6.943 10.945l.513 1.146a2.478 2.478 0 0 0 3.279 1.247 2.48 2.48 0 0 0 1.246-3.28l-.503-1.128c-1.769-3.978-3.894-8.696-7.255-11.845a22.828 22.828 0 0 0 7.851-17.21c0-12.575-10.23-22.804-22.807-22.804-7.035 0-13.501 3.146-17.8 8.542-3.914-3.156-8.88-5.056-14.288-5.056-12.574 0-22.805 10.23-22.805 22.804 0 3.585.852 7.004 2.36 10.066-2.153 2.415-5.268 8.079-4.945 11.066zm7.775-6.666a22.732 22.732 0 0 0 2.465 2.568c-.878.755-3.441 2.051-5.071 2.488.491-1.445 1.646-3.628 2.606-5.056z"></path><path d="M8.22 51.559c.477.44 1.08.658 1.682.658a2.48 2.48 0 0 0 1.684-4.303l-3.341-3.082a2.482 2.482 0 0 0-3.365 3.646l3.34 3.081zM2.439 57.08c.922.103 3.595.43 4.845.721a2.486 2.486 0 0 0 2.98-1.854 2.482 2.482 0 0 0-1.855-2.978c-1.789-.417-5.28-.802-5.429-.819a2.48 2.48 0 1 0-.541 4.93zm4.57 7.853c.557-.327 1.084-.636 1.59-.86a2.482 2.482 0 0 0-2.018-4.533c-.759.338-1.429.731-2.081 1.113-.604.354-1.175.688-1.72.917a2.482 2.482 0 0 0-1.333 3.245 2.484 2.484 0 0 0 3.244 1.332c.857-.357 1.6-.793 2.318-1.214z"></path><text y="106" font-size="5">Created by BomSymbols</text><text y="111" font-size="5">from the Noun Project</text></svg>
