<svg xmlns="http://www.w3.org/2000/svg" xmlns:xlink="http://www.w3.org/1999/xlink" version="1.1" x="0px" y="0px" viewBox="0 0 160 200" style="enable-background:new 0 0 160 160;" xml:space="preserve"><g><path d="M73.726,92.969c-0.04-0.14-0.1-0.27-0.19-0.39c-0.01-0.02-0.03-0.04-0.04-0.06c-0.01-0.01-0.03-0.02-0.04-0.04   c-0.06-0.07-0.13-0.14-0.22-0.21c-0.01-0.01-0.02-0.03-0.04-0.04c-0.01-0.01-0.02-0.02-0.04-0.02c-0.01-0.01-0.01-0.02-0.02-0.02   l-5.19-4.71c-0.5-0.33-1.14-0.33-1.64,0l-5.2,4.71c-0.01,0-0.02,0.01-0.03,0.02s-0.02,0.01-0.03,0.02   c-0.02,0.01-0.03,0.03-0.04,0.04c-0.08,0.07-0.16,0.14-0.23,0.22c-0.01,0.01-0.02,0.02-0.03,0.03c-0.01,0.02-0.02,0.04-0.04,0.05   c-0.02,0.03-0.03,0.05-0.05,0.08c-0.02,0.04-0.05,0.08-0.07,0.12c-0.01,0.01-0.01,0.03-0.01,0.04c-0.05,0.11-0.09,0.22-0.12,0.34   c-0.01,0.09-0.02,0.18-0.02,0.27v0.16c0.02,0.12,0.04,0.25,0.08,0.36c0,0.01,0,0.01,0,0.01c0.04,0.11,0.09,0.21,0.16,0.31   c0.01,0.02,0.02,0.03,0.03,0.05c0.01,0,0.01,0.01,0.01,0.01l0.08,0.11l3.03,6.95l-4.85,17.43l1.92,3.93l6.23,12.78l6.22-12.78   l1.92-3.93l-4.85-17.43l3.03-6.96l0.08-0.1v-0.01c0.02-0.01,0.03-0.03,0.04-0.05c0.07-0.1,0.12-0.21,0.16-0.33   c0.01-0.02,0.02-0.05,0.02-0.08c0.03-0.11,0.05-0.22,0.06-0.33c0-0.03,0.01-0.05,0.01-0.08c0-0.12-0.02-0.25-0.05-0.36   C73.756,93.039,73.746,92.999,73.726,92.969z"></path><path d="M105.827,143.341v-1.36c0-8.517,5.401-16.055,13.109-19.044v-17.427c0-8.79-6.15-16.45-14.64-18.26l-20.97-5.98v-7.49   c3.11-2.61,5.38-6.16,6.43-10.14c0.4-1.49,0.69-2.62,0.91-3.47c2.8-0.46,5.02-2.62,5.45-5.46l1.26-7.86   c0.32-2.12-0.29-4.27-1.69-5.91c-0.37-0.43-0.78-0.81-1.23-1.14c0.6-2.13,0.91-4.34,0.93-6.57v-0.1   c-0.15-7.68-3.48-14.8-9.21-19.81c-0.01-1.08-0.52-2.09-1.37-2.75c-4.69-3.59-10.53-5.57-16.43-5.57h-2.51   c-4.9,0-9.42,2.27-13.38,4.98c-1.05-0.29-2.18-0.08-3.06,0.6c-6.15,4.72-10.4,13.78-10.57,22.64c0.02,2.24,0.34,4.44,0.95,6.57   c-0.45,0.34-0.87,0.72-1.24,1.15c-1.4,1.64-2.02,3.79-1.69,5.92l1.24,7.86c0.46,2.84,2.68,4.99,5.46,5.45   c0.22,0.85,0.52,1.98,0.91,3.47c1.06,3.98,3.33,7.53,6.44,10.14v7.49l-20.97,5.98c-8.49,1.81-14.64,9.47-14.64,18.26v38.992h90.391   C105.786,144.116,105.827,143.727,105.827,143.341z M67.126,143.509l-12.77-26.19l3.49-34.15l0.01-0.06l0.05-0.53   c0.01-0.11,0.02-0.23,0.02-0.35c0-0.01,0-0.01,0-0.02v-4.2c2.89,1.51,6.04,2.27,9.2,2.27c3.15,0,6.31-0.76,9.2-2.27v4.22   c0,0.12,0,0.23,0.01,0.35l0.06,0.55l3.48,34.19L67.126,143.509z M76.606,69.929l-3.4,1.82c-3.81,2.04-8.36,2.04-12.17,0l-3.4-1.82   c-3.15-1.68-5.47-4.63-6.38-8.08c-1.24-4.69-1.46-5.6-1.49-5.72c-0.3-1.66-1.75-2.87-3.44-2.87h-1.35l-1.19-7.47   c0-0.04-0.02-0.16,0.09-0.29c0.08-0.09,0.2-0.14,0.34-0.14c0.27,0,0.54-0.03,0.8-0.09c0.83-0.2,1.56-0.69,2.06-1.41   c0.66-0.93,0.82-2.13,0.43-3.2l-0.58-1.58c-0.49-1.35-0.81-2.75-0.96-4.13l1.99-4.34c0.52-1.12,1.76-1.7,2.95-1.37   c2.56,0.72,5.33,0.01,7.23-1.86l1.32-1.29c0.85-0.84,2.18-0.96,3.17-0.28l4.72,3.25c4.53,3.11,10.14,3.99,15.41,2.42   c1.07-0.32,2.22,0.11,2.82,1.06l2.49,3.9c-0.2,1.04-0.5,2.07-0.88,3.07l-0.42,1.09c-0.41,1.08-0.27,2.29,0.38,3.24   c0.5,0.72,1.24,1.22,2.07,1.43c0.27,0.06,0.54,0.09,0.82,0.09c0.14,0,0.25,0.05,0.34,0.14c0.1,0.13,0.09,0.25,0.08,0.27l-1.19,7.49   h-1.35c-1.69,0-3.12,1.16-3.43,2.82c-0.03,0.14-0.22,0.97-1.49,5.77C82.086,65.299,79.756,68.249,76.606,69.929z M104.536,126.859   c0,1.01-0.81,1.83-1.82,1.83h-13.05c-1.01,0-1.83-0.82-1.83-1.83v-2.43c0-1,0.82-1.82,1.83-1.82h13.05c1.01,0,1.82,0.82,1.82,1.82   V126.859z"></path><path d="M151.032,148.001h-6.599c-0.796-1.427-1.236-3.019-1.236-4.66v-1.36c0-8.486-6.282-15.515-14.436-16.73v-0.69   c0-1.381-1.119-2.5-2.5-2.5s-2.5,1.119-2.5,2.5v0.69c-8.154,1.215-14.435,8.244-14.435,16.73v1.36c0,1.642-0.44,3.233-1.236,4.66   H8.968c-1.933,0-3.5,1.567-3.5,3.5s1.567,3.5,3.5,3.5h142.064c1.933,0,3.5-1.567,3.5-3.5S152.965,148.001,151.032,148.001z    M126.262,130.045c6.197,0,11.306,4.747,11.882,10.796h-23.763C114.957,134.792,120.065,130.045,126.262,130.045z M113.57,147.983   c0.234-0.698,0.416-1.414,0.542-2.142h24.3c0.126,0.728,0.308,1.443,0.542,2.142H113.57z"></path></g><text x="0" y="175" fill="#000000" font-size="5px" font-weight="bold" font-family="'Helvetica Neue', Helvetica, Arial-Unicode, Arial, Sans-serif">Created by Symbolon</text><text x="0" y="180" fill="#000000" font-size="5px" font-weight="bold" font-family="'Helvetica Neue', Helvetica, Arial-Unicode, Arial, Sans-serif">from the Noun Project</text></svg>
