<svg xmlns="http://www.w3.org/2000/svg" xmlns:xlink="http://www.w3.org/1999/xlink" version="1.1" x="0px" y="0px" viewBox="0 0 200 250" enable-background="new 0 0 200 200" xml:space="preserve"><g><g><path d="M67.156,199.918l-3.86-31.305l-31.628,3.174L28.2,128.122H8.796l16.507-48.296V68.877h0.115    C27.133,30.808,58.642,0.363,97.13,0.363v6.53c-35.981,0-65.254,29.271-65.254,65.249l-0.042,8.77l-13.904,40.681h16.302    l3.419,43.032l31.345-3.146l4.642,37.64L67.156,199.918z"></path><polygon points="150.527,200 144.059,156.531 155.715,122.435 155.715,109.095 162.245,109.095 162.245,123.52     150.753,157.141 156.986,199.039   "></polygon></g><g><g><g><rect x="52.484" y="66.1" width="31.076" height="6.529"></rect><rect x="38.311" y="66.1" width="7.087" height="6.529"></rect></g><g><rect x="52.484" y="80.27" width="31.076" height="6.53"></rect><rect x="38.311" y="80.27" width="7.087" height="6.53"></rect></g><rect x="66.906" y="51.926" width="16.653" height="6.53"></rect><rect x="66.906" y="94.44" width="16.653" height="6.53"></rect></g><g><g><rect x="145.954" y="66.1" width="31.076" height="6.529"></rect><rect x="184.117" y="66.1" width="7.086" height="6.529"></rect></g><g><rect x="145.954" y="80.27" width="31.076" height="6.53"></rect><rect x="184.117" y="80.27" width="7.086" height="6.53"></rect></g><rect x="145.954" y="51.926" width="16.653" height="6.53"></rect><rect x="145.954" y="94.44" width="16.653" height="6.53"></rect></g><g><g><rect x="104.408" y="14.173" width="6.53" height="31.076"></rect><rect x="104.408" width="6.53" height="7.088"></rect></g><g><rect x="118.579" y="14.173" width="6.529" height="31.076"></rect><rect x="118.579" width="6.529" height="7.088"></rect></g><rect x="90.237" y="28.596" width="6.529" height="16.653"></rect><polygon points="139.279,45.249 132.749,45.249 132.749,14.536 162.607,14.536 162.607,21.066 139.279,21.066         "></polygon></g><g><g><rect x="118.576" y="107.644" width="6.529" height="91.875"></rect></g><g><rect x="104.405" y="107.644" width="6.53" height="77.702"></rect><rect x="104.405" y="192.434" width="6.53" height="7.085"></rect></g><rect x="132.748" y="107.644" width="6.529" height="16.653"></rect><polygon points="88.815,149.457 82.286,149.457 82.286,137.902 90.235,129.953 90.235,107.644 96.765,107.644      96.765,132.657 88.815,140.606    "></polygon></g><g><g><rect x="125.64" y="58.671" width="7.256" height="6.53"></rect><rect x="111.13" y="58.671" width="7.255" height="6.53"></rect><rect x="96.619" y="58.671" width="7.255" height="6.53"></rect></g><g><rect x="125.64" y="73.182" width="7.256" height="6.53"></rect><rect x="111.13" y="73.182" width="7.255" height="6.53"></rect><rect x="96.619" y="73.182" width="7.255" height="6.53"></rect></g><g><rect x="125.64" y="87.692" width="7.256" height="6.529"></rect><rect x="111.13" y="87.692" width="7.255" height="6.529"></rect><rect x="96.619" y="87.692" width="7.255" height="6.529"></rect></g></g><path d="M149.22,110.908H80.294V41.984h68.925V110.908z M86.824,104.379h55.865V48.514H86.824V104.379z"></path></g></g></svg>
