<svg xmlns="http://www.w3.org/2000/svg" xmlns:xlink="http://www.w3.org/1999/xlink" version="1.1" x="0px" y="0px" viewBox="0 0 64 80" enable-background="new 0 0 64 64" xml:space="preserve"><g><path d="M58.376,47.538c-0.832-1.838-2.545-3.218-4.227-4.47c-1.916-1.436-4.059-2.601-5.906-3.548l-0.489-0.255   c-0.735-0.38-1.476-0.766-2.23-1.118c-0.012-0.006-0.025-0.012-0.034-0.016c-0.785-0.364-1.585-0.692-2.408-0.941   c-0.14-0.053-0.277-0.106-0.417-0.162c-0.009,0.012-0.016,0.025-0.025,0.037c-0.875,1.343-1.766,2.62-2.669,3.856   c-1.601,2.202-3.243,4.271-4.897,6.336c-1.019,1.271-2.046,2.539-3.074,3.834c-1.028-1.296-2.053-2.564-3.071-3.834   c-1.657-2.068-3.299-4.14-4.903-6.345c-0.903-1.234-1.791-2.507-2.663-3.847c-0.009-0.012-0.016-0.025-0.025-0.037   c-0.137,0.053-0.277,0.109-0.414,0.162c-0.822,0.246-1.626,0.576-2.411,0.941c-0.012,0.003-0.022,0.009-0.034,0.016   c-0.754,0.352-1.498,0.738-2.23,1.118l-0.489,0.255c-1.85,0.947-3.99,2.112-5.909,3.548c-1.682,1.252-3.392,2.632-4.224,4.47   c-0.732,1.623-0.663,3.542-0.607,5.389l0.022,0.576c0.009,0.293,0.019,0.685,0.019,1.056c-0.009,1.037,0.773,1.508,1.536,1.965   c0.106,0.059,0.215,0.118,0.311,0.187c0.959,0.598,1.978,1.212,3.043,1.691c3.411,1.517,7.345,2.582,12.351,3.373   c1.701,0.265,3.286,0.461,4.869,0.589c1.576,0.137,3.071,0.193,4.588,0.193h0.489c1.514,0,3.012-0.056,4.585-0.193   c1.585-0.128,3.168-0.324,4.872-0.589c5.006-0.791,8.937-1.856,12.351-3.373c1.065-0.48,2.084-1.093,3.04-1.691   c0.1-0.069,0.206-0.128,0.315-0.187c0.763-0.458,1.545-0.928,1.536-1.965c0-0.371,0.009-0.763,0.019-1.056l0.019-0.576   C59.039,51.08,59.108,49.161,58.376,47.538z M53.383,51.201c0,0.43-0.352,0.782-0.782,0.782H42.166   c-0.43,0-0.782-0.352-0.782-0.782v-1.891c0-0.43,0.352-0.782,0.782-0.782h10.435c0.43,0,0.782,0.352,0.782,0.782V51.201z"></path><path d="M45.818,14.801c0,0-0.948-8.847-1.785-11.191c-0.062-0.17-0.175-0.312-0.308-0.437   c-0.773-0.738-2.141-0.951-3.166-1.134c-1.51-0.268-3.047-0.394-4.579-0.476C34.659,1.491,33.33,1.45,32,1.442   c-1.33,0.009-2.659,0.049-3.98,0.12c-1.533,0.082-3.07,0.208-4.579,0.476c-1.025,0.183-2.393,0.397-3.166,1.134   c-0.133,0.126-0.246,0.267-0.308,0.437c-0.836,2.344-1.785,11.191-1.785,11.191c-0.08,0.818-0.107,1.612-0.072,2.374   c0.488-0.359,0.975-0.694,1.456-1.003l2.016-1.299l0.003,0.061c2.97-1.924,6.234-3.054,10.417-3.146   c4.182,0.092,7.447,1.222,10.417,3.146l0.003-0.061l2.016,1.299c0.48,0.309,0.968,0.644,1.456,1.003   C45.926,16.413,45.898,15.619,45.818,14.801z"></path><path d="M46.547,20.288c-0.001-0.013-0.001-0.024-0.003-0.036c-0.022-0.015-0.048-0.031-0.073-0.048   c-1.075-0.667-2.101-1.416-3.161-2.108c-0.116,2.078-0.288,4.144-0.824,6.173c-0.036,0.143-0.076,0.283-0.116,0.423   c-0.052,0.179-0.107,0.357-0.164,0.535c-1.11-0.014-3.808-0.001-4.603-0.001c-0.07-0.471-0.118-0.9-0.198-1.323   c-0.232-1.229-0.949-1.968-2.187-2.245c-1.492-0.334-1.862-0.497-3.352-0.493c-1.49-0.004-2,0.159-3.492,0.493   c-1.237,0.276-1.955,1.016-2.187,2.245c-0.08,0.423-0.129,0.852-0.198,1.323c-0.841,0-3.247-0.015-4.233,0.004   c-0.039-0.117-0.077-0.234-0.115-0.35c-0.688-2.12-0.93-4.308-0.93-6.53v-0.006c-0.003-0.132-0.008-0.269-0.014-0.403   c-0.737,0.497-1.458,1.042-2.169,1.633c-0.41,0.339-0.813,0.729-1.104,1.168c-0.018,0.409-0.013,0.818,0.032,1.221   c0.175,1.571,0.672,3.036,1.645,4.304c0.532,0.694,0.953,0.809,1.735,0.52c0.01,0,1.161,3.04,1.282,3.316   c1.061,2.451,3.135,5.129,5.733,6.037c2.977,1.041,6.725,0.998,9.449-0.723c2.52-1.592,3.813-4.083,4.902-6.731   c0,0,0.526-0.946,0.757-1.444c0.095-0.203,0.101-0.399,0.32-0.437c0.172-0.028,0.424,0.119,0.62,0.105   c0.435-0.031,0.743-0.337,0.996-0.666c0.974-1.269,1.47-2.732,1.645-4.305C46.603,21.394,46.591,20.835,46.547,20.288z    M28.987,34.929c-3.292-1.107-5.136-4.204-6.387-7.354h3.409c0.157,1.216,0.179,1.12,0.208,2.012   c0.042,1.327,0.042,1.327,1.362,1.583c0.022,0.004,0.044,0.006,0.065,0.01c1.73,0.307,2.486,0.402,4.222,0.372   c1.737,0.031,2.352-0.065,4.083-0.372c0.021-0.004,0.043-0.006,0.065-0.01c0.368-0.064,0.982-0.103,1.208-0.456   c0.106-0.165,0.118-0.389,0.131-0.578c0.006-0.079,0.11-2.562,0.231-2.562h3.731c-0.546,1.246-1.185,2.453-1.874,3.625   C37.312,34.828,32.954,36.264,28.987,34.929z"></path></g></svg>
