<svg xmlns="http://www.w3.org/2000/svg" xmlns:xlink="http://www.w3.org/1999/xlink" version="1.1" x="0px" y="0px" viewBox="0 0 164 205" enable-background="new 0 0 164 164" xml:space="preserve"><path fill="#5c5e62" fill-rule="evenodd" clip-rule="evenodd" d="M77.218,149.549H17.456V14.771h59.762V149.549L77.218,149.549z M145.479,164  c8.604,0,15.628-8.758,15.628-17.36V17.68c0-8.603-7.024-17.36-15.628-17.36H18.201c-8.604,0-15.628,8.757-15.628,17.36v128.96  c0,8.603,7.024,17.36,15.628,17.36H145.479L145.479,164z M18.201,155.849h127.278c4.104,0,7.477-5.105,7.477-9.209V17.68  c0-4.104-3.373-9.209-7.477-9.209H18.201c-4.104,0-7.478,5.106-7.478,9.209v128.96C10.724,150.743,14.097,155.849,18.201,155.849  L18.201,155.849z M65.987,73.908V23.939H28.688v49.969H65.987L65.987,73.908z M146.225,149.549H85.269V14.771h60.956V149.549  L146.225,149.549z M134.993,73.908H96.499V23.939h38.494V73.908L134.993,73.908z M94.065,105.543c-2.278,0-4.125-1.848-4.125-4.127  c0-2.278,1.847-4.125,4.125-4.125s4.126,1.847,4.126,4.125C98.191,103.695,96.344,105.543,94.065,105.543L94.065,105.543z   M68.42,105.543c2.279,0,4.126-1.848,4.126-4.127c0-2.278-1.847-4.125-4.126-4.125s-4.126,1.847-4.126,4.125  C64.294,103.695,66.142,105.543,68.42,105.543z"/></svg>
