<svg xmlns="http://www.w3.org/2000/svg" viewBox="0 0 100 125"><path d="M39.955 28.304c3.333 1.468 4.837 5.984 3.216 9.666l-3.261 7.408a4.528 4.528 0 0 0 4.778-3.135 4.528 4.528 0 0 0 8.633-.001 4.528 4.528 0 0 0 8.632.001 4.528 4.528 0 0 0 8.845-1.371V28.176a4.529 4.529 0 0 0-8.845-1.371 4.53 4.53 0 0 0-8.632 0 4.53 4.53 0 0 0-4.317-3.159 4.53 4.53 0 0 0-4.316 3.159 4.53 4.53 0 0 0-4.316-3.159 4.526 4.526 0 0 0-4.516 4.271 5.702 5.702 0 0 1 1.462-.192c.876-.001 1.763.194 2.637.579z"></path><path d="M66.271 47.101a6.214 6.214 0 0 1-4.316-1.73 6.211 6.211 0 0 1-4.316 1.73 6.208 6.208 0 0 1-4.316-1.731 6.21 6.21 0 0 1-4.317 1.731 6.215 6.215 0 0 1-4.316-1.73 6.211 6.211 0 0 1-7.101 1.065l4.029-9.15c1.256-2.854.066-6.364-2.346-7.426-2.021-.891-4.028-.414-5.366 1.443l-.042.061a6.514 6.514 0 0 0-.195.294c-.033.054-.065.111-.097.166-.046.079-.092.157-.136.24a7.086 7.086 0 0 0-.225.462l-6.378 14.488a6.517 6.517 0 0 0-.31.877 6.54 6.54 0 0 0-.146.628l-.015.075c-.04.238-.062.477-.074.713l-.003.12c-.007.219-.003.436.014.649.001.019.001.037.003.055.021.243.057.481.108.715l.002.008a5.38 5.38 0 0 0 .203.695c.164.447.386.861.663 1.229v.002c.158.211.333.407.526.585 2.312 2.532 11.489 12.42 11.926 12.921a5.76 5.76 0 0 0 4.35 1.98h21.276c3.199 0 5.792-2.604 5.792-5.813V44.74a6.228 6.228 0 0 1-4.877 2.361zM13.966 20.182h-3.202A5.764 5.764 0 0 0 5 25.945v34.424a5.764 5.764 0 0 0 5.764 5.764h3.202a5.764 5.764 0 0 0 5.764-5.764V25.945a5.765 5.765 0 0 0-5.764-5.763zm75.27 0h-3.202a5.764 5.764 0 0 0-5.764 5.764V60.37a5.764 5.764 0 0 0 5.764 5.764h3.202A5.764 5.764 0 0 0 95 60.37V25.945a5.764 5.764 0 0 0-5.764-5.763zm-23.683 49.14H44.16a5.248 5.248 0 0 0 0 10.496h21.393a5.25 5.25 0 0 0 0-10.496zm7.674-28.246s.083 1.334-.97 2.71l.972 1.093v6.855h4.613V34.58h-4.613l-.002 6.496zM22.159 34.58v17.154h1.97c-.028-.101-.056-.201-.079-.3l-.029-.134a8.187 8.187 0 0 1-.141-.958l-.008-.105a8.765 8.765 0 0 1-.018-.89l.005-.155a8.54 8.54 0 0 1 .105-.998l.026-.137c.051-.275.115-.55.194-.827l.068-.232a9.23 9.23 0 0 1 .355-.963L29.65 34.58h-7.491z"></path><text y="115" font-size="5" font-weight="bold" font-family="'Helvetica Neue', Helvetica, Arial-Unicode, Arial, Sans-serif">Created by Yamini Ahluwalia</text><text y="120" font-size="5" font-weight="bold" font-family="'Helvetica Neue', Helvetica, Arial-Unicode, Arial, Sans-serif">from the Noun Project</text></svg>
