<svg xmlns="http://www.w3.org/2000/svg" data-name="Layer 1" viewBox="0 0 100 125" x="0px" y="0px"><title>Artboard 12</title><path d="M35.41,80.26a9.64,9.64,0,0,1,1.41-9.11,30.5,30.5,0,0,1-7.52-1.9l.19-.48a1,1,0,0,1,.26-.28c2-1.89,4-3.79,6-5.67.2-.18.56-.18.79-.34.89-.64,1.83-1.2,1.82-2.56A2.8,2.8,0,0,1,39,58.39c.65-.85,1.12-3.39.5-4.2-.46-.61-1.23-1.39-1.85-1.39H37.6A3.57,3.57,0,0,1,35,51.52c-1-1-2.08-1.94-3.15-2.86a1.88,1.88,0,0,0-1-.53h-.07l-.36,0a2.33,2.33,0,0,1-1.87-1A5.26,5.26,0,0,0,24.12,45a9.27,9.27,0,0,0-1.13.07c-2.37.29-3.31,1.1-3.12,3.51a3,3,0,0,1-1,2.75,1.84,1.84,0,0,0-.5,1c-.54,2.71,1.9,4.29,2.54,6.56,0,.14.24.24.37.35.51.47,1,1,1.53,1.39a2.32,2.32,0,0,1,.94,2c0,1.29.09,2.58.15,3.87A30.1,30.1,0,0,1,11.55,50.1a2.24,2.24,0,0,0,1.22.63h.15c.59,0,1-.19.87-1s0-1.73-.15-2.58a2.07,2.07,0,0,1,.76-2.07c.76-.58,1.5-1.18,2.3-1.69a4.13,4.13,0,0,1,1.68-.75c1.79-.18,2.58-.93,2.73-2.73a2.27,2.27,0,0,1,.48-1.07c.9-1.22,1.87-2.39,2.76-3.62a22.27,22.27,0,0,1,5.76-5.49c2-1.32,3.15-3.28,4.81-4.66a9.52,9.52,0,0,1-2.62-.94,3.15,3.15,0,0,0-1.95-.78l-.37,0c-.73.1-1.5,0-2.21.14a9.11,9.11,0,0,0-1.79.81,10.22,10.22,0,0,1-1.9.87,4.15,4.15,0,0,1-1,.08h-.4a4.58,4.58,0,0,0-.85.06,2.9,2.9,0,0,1-.54.05,3.12,3.12,0,0,1-2.46-1.62l4.87-5.29a3.31,3.31,0,0,1,2.34-1.32,3.36,3.36,0,0,1,2.24,1.12,8.67,8.67,0,0,1,1,1.4l.33-.45,1.4-.86A2.79,2.79,0,0,0,29.73,16a2.36,2.36,0,0,0-.86-.3A4.27,4.27,0,0,1,27,14.84a3.83,3.83,0,0,0-.64-.41,30,30,0,0,1,5.1-2.12,3.93,3.93,0,0,1,3.15,1.63c.11.15.47.15.71.17,2.34.16,3.38,1.23,3.5,3.59a27,27,0,0,1,.12,2.91c-.09,1.52,1,2.2,2,2.77a1.81,1.81,0,0,0,.84.25c.42,0,.84-.22,1.09-.94s1.14-2,1.73-2h.09a8,8,0,0,0,5.24-2.28c.07-.06.23,0,.3-.06,1-.86,2.13-1.52,2.08-3.14a2.62,2.62,0,0,1,.63-1.55,30,30,0,0,1,12.84,11c.41.63.78,1.27,1.13,1.91l-.82.19h-.3c-2,0-3.11-1.93-5-1.93h0c-.14,0-.28-.26-.42-.4-.53-.54-1-1.12-1.6-1.6-1.15-1-2.62-1.12-4-1.46h-.09a1.23,1.23,0,0,0-.65.27c-1.49,1.13-1.55,2.93-2,4.52-.07.24.21.67.44.9a10.83,10.83,0,0,0,1.39,1c-.3.22-.56.43-.8.62a7.13,7.13,0,0,0-2.23,3.14,6.84,6.84,0,0,0-.34,1.37s0,.05,0,.08a11.54,11.54,0,0,1,3-.4h0a11.94,11.94,0,0,1,10.81,7l3.22,7.14a11.67,11.67,0,0,1,2.1-.19,11.87,11.87,0,0,1,4.88,1,12.13,12.13,0,0,1,1.18-.38,11.71,11.71,0,0,1,3-.39c.26,0,.52,0,.78,0a39.42,39.42,0,1,0-44,33.06Z"></path><path d="M87.62,54.7A4.45,4.45,0,0,0,86,55a4.7,4.7,0,0,0-2.79,2.92L83,57.46a4.91,4.91,0,0,0-4.45-3.05,4.43,4.43,0,0,0-1.14.15,4.7,4.7,0,0,0-3.29,3.08l-.2-.47a4.89,4.89,0,0,0-4.43-3,4.41,4.41,0,0,0-.92.1A4.71,4.71,0,0,0,64.87,59L57.62,42.91a4.7,4.7,0,0,0-4.21-2.78,4.28,4.28,0,0,0-1.13.15,4.52,4.52,0,0,0-3,6l12.29,32a2.38,2.38,0,0,1-2.08,1,5.45,5.45,0,0,1-2.63-.76l-4.18-3.16a8.43,8.43,0,0,0-9.28-.53A2.54,2.54,0,0,0,43,79L59.49,92.8a8.08,8.08,0,0,0,4.14,1.79H69l.4,0a4.93,4.93,0,0,1,3.69,1.66l1.05,1.18a2.55,2.55,0,0,0,2.88.66l18.81-7.86a2.55,2.55,0,0,0,1.56-2.49l-.09-1.65a5.89,5.89,0,0,1,.42-2.5c.84-2.12,2.27-7,.25-11.8l-5.83-14A5,5,0,0,0,87.62,54.7Z"></path><text x="0" y="115" fill="#000000" font-size="5px" font-weight="bold" font-family="'Helvetica Neue', Helvetica, Arial-Unicode, Arial, Sans-serif">Created by Gregor Cresnar</text><text x="0" y="120" fill="#000000" font-size="5px" font-weight="bold" font-family="'Helvetica Neue', Helvetica, Arial-Unicode, Arial, Sans-serif">from the Noun Project</text></svg>
