<svg xmlns="http://www.w3.org/2000/svg" xmlns:xlink="http://www.w3.org/1999/xlink" version="1.1" x="0px" y="0px" viewBox="0 0 100 125" enable-background="new 0 0 100 100" xml:space="preserve"><path d="M97.2,44.9c0.9,0.7,1.4,1.8,1.4,2.9v5.3V57H73.4v-7.2v-5.6c0-2-0.8-3.9-2.2-5.4c1-0.5,1.6-0.9,2-1c0.1-0.1,0.2-0.2,0.2-0.3  v-2.8c-0.7-1.2-1.1-2.6-1.3-3.8c-0.4,0-1-0.6-1.6-2.8c-0.8-2.7,0-3.3,0.7-3.3c0,0,0.1,0,0.1,0c-0.5-1.5-0.6-3-0.2-4.4  c0.4-1.6,1.3-2.9,2.3-4c0.6-0.7,1.3-1.3,2.1-1.7c0.6-0.4,1.3-0.8,2-1v0c0.6-0.2,1.2-0.3,1.8-0.4c0.3,0,0.5,0,0.8,0  c1.6,0,2.9,0.5,3.8,1c1.6,0.9,2.3,2.1,2.3,2.1s4.1,0.3,2.3,8.9c0.6,0.2,0.9,1,0.3,3.2c-0.6,2.2-1.2,2.8-1.6,2.8  c-0.1,0-0.2,0-0.3-0.1c-0.2,1-0.5,2-0.9,3v3.2c0,0.1,0.1,0.3,0.2,0.3C87.2,38.3,92.4,40.9,97.2,44.9z M56.7,33.7  c-0.1-0.1-0.2-0.2-0.2-0.3V30c0.5-1,0.8-2.1,1-3.1c0.1,0.1,0.2,0.1,0.3,0.1c0.4,0,1-0.6,1.7-2.9c0.7-2.4,0.3-3.2-0.3-3.4  c1.9-9-2.4-9.3-2.4-9.3s-0.6-1.2-2.4-2.2c-1-0.6-2.3-1.1-4-1.1c-0.3,0-0.5,0-0.8,0c-0.7,0-1.3,0.2-1.9,0.4v0  c-0.8,0.3-1.5,0.6-2.1,1.1c-0.8,0.5-1.5,1.1-2.2,1.8c-1,1.1-2,2.4-2.4,4.1c-0.4,1.4-0.4,3,0.2,4.6c0,0-0.1,0-0.1,0  c-0.7,0-1.5,0.6-0.7,3.4c0.6,2.2,1.2,2.8,1.7,2.9c0.2,1.3,0.6,2.7,1.3,4v2.9c0,0.1-0.1,0.3-0.2,0.3c-1.1,0.5-6.5,3.3-11.6,7.4  c-0.9,0.7-1.4,1.9-1.4,3v5.6V57h17l1.7-14.4c-4-5.6,0.3-5.9,1.1-5.9h0c0.8,0,5.1,0.3,1.1,5.9L52.7,57h17v-7.2v-5.6  c0-1.2-0.5-2.3-1.4-3C63.3,37,57.8,34.2,56.7,33.7z M13.8,37.8c-1,0.5-6.3,3.1-11.1,7.1c-0.9,0.7-1.4,1.8-1.4,2.9v5.3V57h25.2v-7.2  v-5.6c0-2,0.8-3.9,2.2-5.4c-1-0.5-1.6-0.9-2-1c-0.1-0.1-0.2-0.2-0.2-0.3v-3.2c0.5-1,0.8-2.1,0.9-3c0.1,0.1,0.2,0.1,0.3,0.1  c0.4,0,1-0.6,1.6-2.8c0.6-2.3,0.3-3-0.3-3.2c1.8-8.6-2.3-8.9-2.3-8.9s-0.6-1.2-2.3-2.1c-0.9-0.6-2.2-1-3.8-1c-0.3,0-0.5,0-0.8,0  c-0.7,0-1.3,0.2-1.8,0.4v0c-0.7,0.3-1.4,0.6-2,1c-0.8,0.5-1.5,1.1-2.1,1.7c-1,1-1.9,2.3-2.3,4c-0.4,1.4-0.4,2.9,0.2,4.4  c0,0-0.1,0-0.1,0c-0.7,0-1.4,0.5-0.7,3.3c0.6,2.1,1.2,2.7,1.6,2.8c0.2,1.2,0.6,2.6,1.3,3.8v2.8C14,37.6,14,37.7,13.8,37.8z M86,72.3  c0.3-0.3,0-0.8-0.4-0.8H67.3c-0.1,0.3-0.2,0.7-0.3,1l0,0.1l0.1,0.1c1.1,1,1.7,2.4,1.7,3.8c0,1.5-0.6,2.9-1.7,3.8L67,80.3l0,0.1  c0.1,0.3,0.2,0.6,0.3,0.9h18.2c0.4,0,0.7-0.5,0.4-0.8l-3.1-3.8c-0.1-0.1-0.1-0.3,0-0.4L86,72.3z M14,80.4c-0.3,0.3,0,0.8,0.4,0.8  h18.2c0.1-0.3,0.2-0.7,0.3-1l0-0.1l-0.1-0.1c-1.1-1-1.7-2.4-1.7-3.8s0.6-2.9,1.7-3.8l0.1-0.1l0-0.1c-0.1-0.3-0.2-0.6-0.3-0.9H14.5  c-0.4,0-0.7,0.5-0.4,0.8l3.1,3.8c0.1,0.1,0.1,0.3,0,0.4L14,80.4z M35.6,74.2c0.7-0.6,0.9-1.5,0.5-2.3l-0.3-0.7  c-0.5-1.1,0.2-2.4,1.3-2.8l0.8-0.2c0.8-0.2,1.5-1,1.5-1.9l0-0.8c0.1-1.1,1-1.9,2-1.9c0.1,0,0.2,0,0.4,0l0.8,0.1c0.1,0,0.2,0,0.4,0  c0.7,0,1.4-0.4,1.8-1.1l0.4-0.7c0.4-0.7,1.1-1.1,1.8-1.1c0.4,0,0.8,0.1,1.2,0.4l0.7,0.5c0.4,0.3,0.8,0.4,1.2,0.4  c0.4,0,0.8-0.1,1.2-0.4l0.7-0.5c0.4-0.3,0.8-0.4,1.2-0.4c0.7,0,1.4,0.4,1.8,1.1l0.4,0.7c0.4,0.7,1.1,1.1,1.8,1.1c0.1,0,0.2,0,0.4,0  l0.8-0.1c0.1,0,0.2,0,0.4,0c1.1,0,2,0.8,2,2l0,0.8c0,0.9,0.6,1.6,1.5,1.9l0.8,0.2c1.2,0.3,1.8,1.6,1.3,2.8L63.9,72  c-0.3,0.8-0.1,1.7,0.5,2.3l0.6,0.5c0.9,0.8,0.9,2.3,0,3.1l-0.6,0.5c-0.7,0.6-0.9,1.5-0.5,2.3l0.3,0.7c0.5,1.1-0.2,2.4-1.3,2.8  l-0.8,0.2c-0.8,0.2-1.5,1-1.5,1.9l0,0.8c-0.1,1.1-1,1.9-2,1.9c-0.1,0-0.2,0-0.4,0l-0.8-0.1c-0.1,0-0.2,0-0.4,0  c-0.7,0-1.4,0.4-1.8,1.1l-0.4,0.7c-0.4,0.7-1.1,1.1-1.8,1.1c-0.4,0-0.8-0.1-1.2-0.4l-0.7-0.5c-0.4-0.3-0.8-0.4-1.2-0.4  c-0.4,0-0.8,0.1-1.2,0.4l-0.7,0.5c-0.4,0.3-0.8,0.4-1.2,0.4c-0.7,0-1.4-0.4-1.8-1.1L44.7,90c-0.4-0.7-1.1-1.1-1.8-1.1  c-0.1,0-0.2,0-0.4,0L41.8,89c-0.1,0-0.2,0-0.4,0c-1.1,0-2-0.8-2-2l0-0.8c0-0.9-0.6-1.6-1.5-1.9l-0.8-0.2c-1.2-0.3-1.8-1.6-1.3-2.8  l0.3-0.7c0.3-0.8,0.1-1.7-0.5-2.3l-0.6-0.5C34,77,34,75.6,35,74.8L35.6,74.2z M43.1,75.2l3.1,2.6l-1,3.9c-0.2,0.6,0.3,1.1,0.8,1.1  c0.2,0,0.3,0,0.5-0.1l3.4-2.1l3.5,2.1c0.1,0.1,0.3,0.1,0.4,0.1c0.5,0,0.9-0.5,0.8-1.1l-1-3.9l3.2-2.6c0.6-0.5,0.2-1.5-0.5-1.5  l-4-0.3l-1.5-3.7c-0.1-0.4-0.5-0.5-0.8-0.5c-0.3,0-0.6,0.2-0.8,0.5l-1.5,3.7l-4,0.3C42.9,73.8,42.5,74.7,43.1,75.2z"></path></svg>
