<svg xmlns="http://www.w3.org/2000/svg" viewBox="0 0 100 125"><path d="M97.2 44.9c.9.7 1.4 1.8 1.4 2.9V57H73.4V44.2c0-2-.8-3.9-2.2-5.4 1-.5 1.6-.9 2-1 .1-.1.2-.2.2-.3v-2.8c-.7-1.2-1.1-2.6-1.3-3.8-.4 0-1-.6-1.6-2.8-.8-2.7 0-3.3.7-3.3h.1c-.5-1.5-.6-3-.2-4.4.4-1.6 1.3-2.9 2.3-4 .6-.7 1.3-1.3 2.1-1.7.6-.4 1.3-.8 2-1 .6-.2 1.2-.3 1.8-.4h.8c1.6 0 2.9.5 3.8 1 1.6.9 2.3 2.1 2.3 2.1s4.1.3 2.3 8.9c.6.2.9 1 .3 3.2-.6 2.2-1.2 2.8-1.6 2.8-.1 0-.2 0-.3-.1-.2 1-.5 2-.9 3v3.2c0 .1.1.3.2.3 1 .6 6.2 3.2 11 7.2zM56.7 33.7c-.1-.1-.2-.2-.2-.3V30c.5-1 .8-2.1 1-3.1.1.1.2.1.3.1.4 0 1-.6 1.7-2.9.7-2.4.3-3.2-.3-3.4 1.9-9-2.4-9.3-2.4-9.3s-.6-1.2-2.4-2.2c-1-.6-2.3-1.1-4-1.1h-.8c-.7 0-1.3.2-1.9.4-.8.3-1.5.6-2.1 1.1-.8.5-1.5 1.1-2.2 1.8-1 1.1-2 2.4-2.4 4.1-.4 1.4-.4 3 .2 4.6h-.1c-.7 0-1.5.6-.7 3.4.6 2.2 1.2 2.8 1.7 2.9.2 1.3.6 2.7 1.3 4v2.9c0 .1-.1.3-.2.3-1.1.5-6.5 3.3-11.6 7.4-.9.7-1.4 1.9-1.4 3v13h17l1.7-14.4c-4-5.6.3-5.9 1.1-5.9s5.1.3 1.1 5.9L52.7 57h17V44.2c0-1.2-.5-2.3-1.4-3-5-4.2-10.5-7-11.6-7.5zm-42.9 4.1c-1 .5-6.3 3.1-11.1 7.1-.9.7-1.4 1.8-1.4 2.9V57h25.2V44.2c0-2 .8-3.9 2.2-5.4-1-.5-1.6-.9-2-1-.1-.1-.2-.2-.2-.3v-3.2c.5-1 .8-2.1.9-3 .1.1.2.1.3.1.4 0 1-.6 1.6-2.8.6-2.3.3-3-.3-3.2 1.8-8.6-2.3-8.9-2.3-8.9s-.6-1.2-2.3-2.1c-.9-.6-2.2-1-3.8-1h-.8c-.7 0-1.3.2-1.8.4-.7.3-1.4.6-2 1-.8.5-1.5 1.1-2.1 1.7-1 1-1.9 2.3-2.3 4-.4 1.4-.4 2.9.2 4.4h-.1c-.7 0-1.4.5-.7 3.3.6 2.1 1.2 2.7 1.6 2.8.2 1.2.6 2.6 1.3 3.8v2.8c.1 0 .1.1-.1.2zM86 72.3c.3-.3 0-.8-.4-.8H67.3c-.1.3-.2.7-.3 1v.1l.1.1c1.1 1 1.7 2.4 1.7 3.8 0 1.5-.6 2.9-1.7 3.8H67v.1l.3.9h18.2c.4 0 .7-.5.4-.8l-3.1-3.8c-.1-.1-.1-.3 0-.4l3.2-4zm-72 8.1c-.3.3 0 .8.4.8h18.2c.1-.3.2-.7.3-1v-.1l-.1-.1c-1.1-1-1.7-2.4-1.7-3.8s.6-2.9 1.7-3.8l.1-.1v-.1l-.3-.9H14.5c-.4 0-.7.5-.4.8l3.1 3.8c.1.1.1.3 0 .4L14 80.4zm21.6-6.2c.7-.6.9-1.5.5-2.3l-.3-.7c-.5-1.1.2-2.4 1.3-2.8l.8-.2c.8-.2 1.5-1 1.5-1.9v-.8c.1-1.1 1-1.9 2-1.9h.4l.8.1h.4c.7 0 1.4-.4 1.8-1.1l.4-.7c.4-.7 1.1-1.1 1.8-1.1.4 0 .8.1 1.2.4l.7.5c.4.3.8.4 1.2.4.4 0 .8-.1 1.2-.4l.7-.5c.4-.3.8-.4 1.2-.4.7 0 1.4.4 1.8 1.1l.4.7c.4.7 1.1 1.1 1.8 1.1h.4l.8-.1h.4c1.1 0 2 .8 2 2v.8c0 .9.6 1.6 1.5 1.9l.8.2c1.2.3 1.8 1.6 1.3 2.8l-.5.7c-.3.8-.1 1.7.5 2.3l.6.5c.9.8.9 2.3 0 3.1l-.6.5c-.7.6-.9 1.5-.5 2.3l.3.7c.5 1.1-.2 2.4-1.3 2.8l-.8.2c-.8.2-1.5 1-1.5 1.9v.8c-.1 1.1-1 1.9-2 1.9h-.4l-.8-.1H57c-.7 0-1.4.4-1.8 1.1l-.4.7c-.4.7-1.1 1.1-1.8 1.1-.4 0-.8-.1-1.2-.4l-.7-.5c-.4-.3-.8-.4-1.2-.4-.4 0-.8.1-1.2.4l-.7.5c-.4.3-.8.4-1.2.4-.7 0-1.4-.4-1.8-1.1l-.3-.7c-.4-.7-1.1-1.1-1.8-1.1h-.4l-.7.1h-.4c-1.1 0-2-.8-2-2v-.8c0-.9-.6-1.6-1.5-1.9l-.8-.2c-1.2-.3-1.8-1.6-1.3-2.8l.3-.7c.3-.8.1-1.7-.5-2.3l-.6-.5c-1-.8-1-2.2 0-3l.6-.6zm7.5 1l3.1 2.6-1 3.9c-.2.6.3 1.1.8 1.1.2 0 .3 0 .5-.1l3.4-2.1 3.5 2.1c.1.1.3.1.4.1.5 0 .9-.5.8-1.1l-1-3.9 3.2-2.6c.6-.5.2-1.5-.5-1.5l-4-.3-1.5-3.7c-.1-.4-.5-.5-.8-.5-.3 0-.6.2-.8.5l-1.5 3.7-4 .3c-.8.1-1.2 1-.6 1.5z"></path><text y="115" font-size="5" font-weight="bold" font-family="'Helvetica Neue', Helvetica, Arial-Unicode, Arial, Sans-serif">Created by Gregor Cresnar</text><text y="120" font-size="5" font-weight="bold" font-family="'Helvetica Neue', Helvetica, Arial-Unicode, Arial, Sans-serif">from the Noun Project</text></svg>
