<svg xmlns="http://www.w3.org/2000/svg" viewBox="0 0 48 60"><path d="M10.3 14c-1.3 1.8-3.5 2.8-5.5 1.1-1.4-1.3-3.5-3.9-1.9-5.9 1.4-1.8 3.7-2.6 5.8-1.6 2.4 1.2 2.7 4 1.7 6.2-.3.7.8 1.4 1.1.6 1.2-2.7 1.1-5.7-1.6-7.5-3-2-6.2-.7-8.3 1.9-1.9 2.5 1 6 2.8 7.6 2.3 2.1 5.5.4 7-1.7.5-.7-.6-1.3-1.1-.7zm1 4.1c-.8 1.1-1 2.2-1 3.5 0 1.5-.4 2.8-2.3 2.8-1.4 0-2.9-.6-4.1-1.2-.7-.4-1.4.7-.6 1.1 1.7.8 4.7 2.1 6.5 1.1 2.6-1.5.9-4.4 2.4-6.4.5-.6-.4-1.5-.9-.9z"></path><path d="M3.3 23.3c-1.4 0-2.5.9-2.5 2.4 0 1.8 1 2.3 2.6 2.8 2.7.8 5.2.8 7.9-.2 1-.3 1.7-.9 2.5-1.5.9-.7.8-2 1.6-2.8-.3 0-.7-.1-1-.1.7 1.1 1.4 2.1 2.1 3.2.4.7 1.5 0 1.1-.6-.7-1.1-1.4-2.1-2.1-3.2-.2-.3-.7-.4-1-.1-.2.2-.4.4-.5.6-.8 2.2-1.8 2.9-3.9 3.6-1.5.5-3.1.5-4.7.2-.5-.1-1.1-.3-1.6-.4-1.3-.1-1.5-1-.4-2.8.7.1.7-1.1-.1-1.1z"></path><path d="M17.1 26.5c-3.7 1.1-6.9 3.8-6.2 8 .7 4.2 7.2 6.1 10.6 6.6.8.1 1.1-1.1.3-1.2-3-.5-5.9-1.5-8.3-3.5-4.1-3.5.2-7.7 3.8-8.7.9-.2.6-1.4-.2-1.2z"></path><path d="M22 41.3c1-.1 2.8 0 3.4-1 .4-.7-.4-2.5-1-2.9-1.7-1.3-4.1-1.4-6.1-2.2-.9-.4-2.7-2.2-1.1-2.9 1.3-.6 2.3-1.5 3.6-2 .7-.3.4-1.5-.3-1.2-1.7.7-3.2 1.7-4.7 2.6-1.1.6-.7 1.8-.2 2.7.9 1.5 2.5 2.2 4.1 2.6 1.1.3 3.4.6 4 1.6.8 1.4-.6 1.4-1.7 1.5-.8 0-.8 1.2 0 1.2z"></path><path d="M20.4 29.7c2.6 7 6.8 12.9 15.1 12.4.8-.1.8-1.3 0-1.3-7.7.5-11.5-5-13.9-11.5-.3-.7-1.5-.4-1.2.4z"></path><path d="M35.9 42.2c3.9-.8 4.5-4 .5-5-6.2-1.5-7.7-6.7-10.3-11.6-1.9-3.7-5.2-5.9-8.5-8.4-.6-.5-1.5.4-.9.9 2.7 2.1 5.5 4 7.6 6.8 1.6 2.2 2.3 5.5 3.8 7.8 1 1.7 2.5 2.9 4.1 3.9.7.5 1.7.9 2.6 1.2.4.2.8.3 1.3.5 1.6.1 1.5.9-.5 2.5-.8.3-.5 1.5.3 1.4z"></path><path d="M17.9 17.3c.8-1.6 2-1.7 3.7-.2.3.6.5 1.3.8 2 .2.5.4 1.2.8 1.5 1 1 1.7 1.2 3.1 1 3.3-.5.5-6.2-.1-7.6-1.4-3.5-4-4.5-7.7-4-3.9.5-5.8 4.6-7 7.8-.3.8.9 1.1 1.2.3 1.7-4.5 4.4-7.8 9.6-6.8 2.3.4 3.2 3.9 3.8 5.7.3.7 1 2.9-.2 3.3-1.8.7-2.5-2.1-2.8-3.1-1.1-3.1-5.9-3.9-6.4 0-.1.9 1.1.9 1.2.1z"></path><path d="M24.8 12.7c4.2-1.4 9.2 3.8 13.6 3.9 3.4.1 6.6-1.9 8.6-4.4-.4-.1-.7-.3-1.1-.4-.2 11.4-13.2 3.4-16.8 10.7-.3.7.4 1.2 1 .8 3.2-2.5 7.7.5 11.4.3 2.3-.1 4.2-1.4 5.7-3.1-.3-.2-.7-.4-1-.6-1 5.3-4.7 5.7-9.1 6.1-2.2.2-3.8 1.1-5.3 2.6-.4.4 0 1.3.6 1 4.7-1.8 8.4 3 13-.5l-.9-.9c-3 6.4-10.3.9-14.2 5-.6.6.3 1.5.9.9 2.3-2.3 7.7-.9 10.7-1.7 1.8-.5 3-1.9 3.8-3.5.2-.5-.3-1.3-.9-.9-4.1 3.1-8.2-1.3-12.7.4.2.3.4.7.6 1 3.5-3.3 7-.9 10.4-3 2.4-1.5 3.8-3.4 4.4-6.2.1-.6-.6-1.1-1-.6-5.3 6-11.6-1.5-17 2.8.3.3.7.5 1 .8 2.8-5.6 9.5-.7 13.1-3.7 2.2-1.8 3.8-4.8 3.9-7.6 0-.5-.7-.9-1.1-.4-3.9 4.8-9.3 4.8-14.3 1.9-2.5-1.4-4.4-2.6-7.3-1.7-1.1 0-.8 1.2 0 1z"></path><text y="63" font-size="5" font-weight="bold" font-family="'Helvetica Neue', Helvetica, Arial-Unicode, Arial, Sans-serif">Created by Creative Stall</text><text y="68" font-size="5" font-weight="bold" font-family="'Helvetica Neue', Helvetica, Arial-Unicode, Arial, Sans-serif">from the Noun Project</text></svg>
