<svg xmlns="http://www.w3.org/2000/svg" xmlns:xlink="http://www.w3.org/1999/xlink" version="1.1" x="0px" y="0px" viewBox="0 0 64 80" enable-background="new 0 0 64 64" xml:space="preserve"><g><path fill="#5c5e62" d="M55.656,39.315c0.672,0.327,1.224,1.306,1.205,2.055c-0.014,0.423-0.221,0.744-0.519,0.97   c-0.293,0.226-0.667,0.36-1.037,0.413c-1.493,0.216-2.987,0.403-4.485,0.6v0.005c-1.431,0.192-2.867,0.394-4.302,0.571   c-0.437,0.053-0.831,0-1.162-0.144c-0.816-0.351-1.258-1.22-1.018-2.271c0.173-0.759,0.648-1.224,1.479-1.335   c2.66-0.37,5.325-0.749,8-1.056C54.427,39.055,55.089,39.036,55.656,39.315z"/><path fill="#5c5e62" d="M45.092,58.161c-0.067,0.139-0.12,0.269-0.163,0.389c-0.552,1.551-0.303,3.107,0.711,4.374   c0.053,0.067,0.11,0.134,0.163,0.197c-1.378,0.158-2.761,0.274-4.149,0.317c-2.372,0.072-4.811-0.043-7.126-0.591   c-2.132-0.499-4.101-1.599-6.285-1.868c-1.666-0.211-3.356-0.254-5.032-0.278c-1.268-0.019-2.3-1.028-2.454-2.286l-2.05-16.667   c-0.144-1.157,0.504-2.266,1.575-2.723c1.277-0.543,2.506-1.2,3.654-2.002c3.515-2.449,9.69-7.529,14.011-8.638   c4.686-1.205,8.706,1.498,13.21,2.252c1.359,0.23,4.077,0.341,4.177,2.204c0.173,3.39-4.081,3.99-6.607,4.062   c-1.599,0.048-3.232-0.077-4.807-0.37c-0.427-0.077-1.426-0.533-1.825-0.437c-0.139,0.034-0.264,0.091-0.375,0.168   c-0.965,0.653-0.898,2.199-1.239,3.188c-0.485,1.383-1.301,2.823-2.175,3.933c-1.388,1.772-3.707,4.192-6.127,4.903   c-0.058,0.019-0.091,0.082-0.067,0.134c0.014,0.043,0.058,0.072,0.106,0.067c4.619-0.37,7.87-3.928,9.853-7.836   c0.005-0.005,0.014-0.01,0.019-0.014c-0.038,0.11-0.067,0.226-0.096,0.346c-0.293,1.282-0.058,2.564,0.643,3.563   c-0.97,0.619-1.642,1.642-1.829,2.881c-0.206,1.354,0.139,2.627,0.965,3.587c0.346,0.403,0.754,0.725,1.205,0.965   c-0.158,0.298-0.283,0.619-0.37,0.96c-0.346,1.407-0.053,2.886,0.787,3.961C43.849,57.48,44.43,57.907,45.092,58.161z"/><g><g><g><g><path fill="#5c5e62" d="M55.281,4.193c0.058-1.736-1.073-2.961-2.824-3.019c-5.706-0.21-11.538-0.426-17.334-0.626       c-0.242-0.01-0.51-0.016-0.794,0.047c-1.362,0.279-2.198,1.336-2.267,2.835c-0.195,5.606-0.352,9.845-0.536,14.999l-0.105,2.84       l-0.142,2.835c-0.095,1.862-0.189,3.602-0.279,5.333c1.241-0.999,2.619-1.867,4.192-2.424c0.095-1.909,0.189-3.734,0.284-5.564       c0.116-3.292,0.237-6.563,0.368-10.318c0.105-0.026,0.189-0.053,0.295-0.089l0.147-0.047c1.998-0.51,3.292-1.772,3.771-3.781       c2.624,0.105,4.865,0.174,6.953,0.247c0.473,2.14,1.825,3.581,3.939,4.202c-0.158,4.06-0.273,7.342-0.379,10.266l-0.011,0.184       l-0.005,0.184c-0.1,1.962-0.216,4.086-0.337,6.506c0.531,0.137,1.057,0.258,1.583,0.347c0.168,0.026,0.358,0.053,0.557,0.079       c0.463,0.068,1.141,0.163,1.883,0.352l0.426-8.446l0.005-0.005l0.016-0.352l0.021-0.41l-0.005-0.005L55.281,4.193z"/></g></g><g><circle fill="#5c5e62" cx="42.95" cy="21.776" r="4.443"/></g><g><circle fill="#5c5e62" cx="42.95" cy="21.776" r="4.443"/></g><g><g><path fill="#5c5e62" d="M23.689,4.987c-0.237,0.063-0.494,0.147-0.747,0.284c-1.21,0.678-1.693,1.935-1.304,3.387       c1.504,5.406,2.635,9.493,4.013,14.463l0.763,2.74l0.71,2.751c0.326,1.231,0.631,2.409,0.936,3.566       c0.216-0.221,0.436-0.447,0.663-0.668c0.063-1.178,0.126-2.34,0.184-3.524l0.347-6.826l0.011-0.174       c-0.542-1.946-1.094-3.955-1.699-6.127c0.095-0.053,0.168-0.11,0.258-0.174l0.126-0.084c0.663-0.415,1.194-0.899,1.594-1.457       c0.116-3.103,0.226-6.158,0.358-9.787c0.005-0.032,0-0.068,0.005-0.1C27.834,3.83,25.756,4.409,23.689,4.987z"/></g></g></g></g><path fill="#5c5e62" d="M17.089,62.143l-7.104,0.874c-0.928,0.114-1.773-0.546-1.887-1.473L5.502,40.441   c-0.114-0.928,0.546-1.773,1.473-1.887l7.104-0.874c0.928-0.114,1.773,0.546,1.887,1.473l2.596,21.102   C18.677,61.184,18.017,62.029,17.089,62.143z"/><g><g><path fill="#5c5e62" d="M55.738,60.778c-0.811,0.25-1.657,0.399-2.497,0.557c-1.301,0.24-2.607,0.451-3.913,0.682     c-0.711,0.125-1.344-0.005-1.815-0.591c-0.495-0.624-0.586-1.325-0.322-2.07c0.24-0.663,0.773-0.97,1.431-1.09     c0.149-0.029,0.384-0.067,0.677-0.115c0.01,0,0.019-0.005,0.029-0.005c1.585-0.269,4.835-0.792,5.868-0.898     c0.106-0.01,0.206-0.019,0.298-0.019h0.014c0.005,0,0.01,0,0.014-0.005c0.932-0.019,1.378,0.331,1.498,0.994     C57.221,59.333,56.684,60.49,55.738,60.778z"/></g></g><g><g><path fill="#5c5e62" d="M56.42,54.623c-0.413,0.077-0.831,0.154-1.248,0.221c-1.407,0.245-2.823,0.447-4.235,0.658     c-0.643,0.096-1.292,0.182-1.94,0.269c-0.043,0.005-0.091,0.01-0.139,0.019c-0.595,0.077-1.196,0.154-1.796,0.24     c-1.805,0.259-2.415-1.32-2.122-2.506c0.144-0.581,0.499-0.936,0.989-1.124h0.005c0.173-0.072,0.36-0.115,0.557-0.144     c1.594-0.221,3.188-0.437,4.782-0.653c1.575-0.216,3.145-0.432,4.72-0.643c0.245-0.034,0.471-0.038,0.677-0.024h0.005     c0.802,0.058,1.325,0.466,1.445,1.138C58.335,53.312,57.673,54.387,56.42,54.623z"/></g></g><g><g><path fill="#5c5e62" d="M58.508,46.292c-0.067,1.455-0.571,2.031-2.007,2.242c-0.01,0-0.024,0.005-0.038,0.005     c-1.815,0.255-3.64,0.499-5.46,0.744c-1.868,0.259-3.736,0.523-5.608,0.763c-0.01,0-0.019,0.005-0.029,0.005     c-0.11,0.014-0.221,0.019-0.327,0.019c-1.248,0-2.055-0.965-1.858-2.281c0.125-0.802,0.648-1.368,1.489-1.489     c0.163-0.024,0.331-0.048,0.495-0.067c3.616-0.504,7.227-0.999,10.847-1.469c0.293-0.038,0.595-0.034,0.898,0.005     c0.187,0.019,0.375,0.053,0.557,0.091C58.191,45.01,58.542,45.538,58.508,46.292z"/></g></g></g></svg>
