<svg xmlns="http://www.w3.org/2000/svg" viewBox="0 0 512 640"><path d="M299.926 327.172l81.668-44.963A47.674 47.674 0 0 0 406.06 235.3l-10.185-95.801c10.485-5.723 16.976-17.412 15.715-29.694l-.626-6.101a30.249 30.249 0 0 0-12.598-21.598 30.22 30.22 0 0 0-24.54-4.749l-133.333 31.867-6.964 8.527a31.471 31.471 0 0 1-24.188 11.604l-.412.014c-.852.059-20.612 1.032-22.667-13.068a12.683 12.683 0 0 1 4.26-9.019l51.602-45.752c9.8-8.69 24.977-7.908 33.836 1.736l21.389 23.294 12.281-11.275-21.387-23.295c-14.967-16.302-40.614-17.614-57.182-2.941l-51.604 45.756a29.37 29.37 0 0 0-9.88 21.962l.054.948c2.737 23.95 27.26 29.044 40.057 28.313 14.317-.179 27.707-6.634 36.762-17.731l3.398-4.162 127.855-30.558c3.866-.926 7.777-.167 11.018 2.13 3.24 2.3 5.251 5.742 5.656 9.696l.625 6.101c.681 6.642-3.683 12.895-10.15 14.549l-6.986 1.785 11.612 109.227a31.032 31.032 0 0 1-15.927 30.536l-81.668 44.963a43.704 43.704 0 0 1-16.172 5.153 60.487 60.487 0 0 0-38.018 19.535l-41.618 46.016-96.593-85.285 5.045-5.784-12.568-10.965-10.493 12.032.002.001-20.782 23.538-8.67-7.654-43.341 49.085 130.15 114.913 43.341-49.084-.001-.001 20.778-23.53 47.118-52.096a43.833 43.833 0 0 1 27.543-14.155 60.21 60.21 0 0 0 22.322-7.111zm-130.26 85.856l-96.48-85.186 15.296-17.327 96.48 85.19-15.296 17.323z"></path><path d="M93.915 275.301l57.756 27.096a30.858 30.858 0 0 0 13.125 2.935c11.657 0 22.85-6.604 28.123-17.84 3.797-8.098 3.749-17.011.651-24.722.356-.113.716-.207 1.07-.334 7.79-2.814 14.019-8.495 17.535-15.993 3.52-7.501 3.907-15.921 1.092-23.711-.131-.36-.298-.699-.439-1.053 7.911-2.546 14.807-8.189 18.607-16.288 3.8-8.099 3.751-17.012.653-24.723.356-.114.716-.207 1.069-.335 7.79-2.813 14.019-8.494 17.536-15.991 3.61-7.693 3.929-16.303.893-24.24l-15.575 5.954a14.216 14.216 0 0 1-.414 11.201 14.247 14.247 0 0 1-8.105 7.394 14.22 14.22 0 0 1-10.96-.508l-57.754-27.096a14.238 14.238 0 0 1-7.394-8.104 14.235 14.235 0 0 1 .503-10.957 14.32 14.32 0 0 1 9.089-7.709l-4.527-16.052a31 31 0 0 0-19.658 16.673c-3.52 7.501-3.907 15.921-1.092 23.712.129.354.293.688.434 1.036-7.912 2.545-14.8 8.203-18.601 16.302v.003c-3.801 8.101-3.751 17.017-.651 24.729-.356.114-.718.201-1.072.328-7.789 2.814-14.019 8.495-17.536 15.992-3.519 7.501-3.906 15.921-1.091 23.712.126.35.288.678.426 1.021-.352.113-.708.199-1.058.325-7.79 2.816-14.019 8.494-17.536 15.991v.004c-7.264 15.481-.578 33.98 14.901 41.248zm38.714-116.266c3.356-7.159 11.917-10.246 19.065-6.889l57.754 27.096c7.156 3.354 10.247 11.911 6.891 19.063-3.356 7.163-11.909 10.254-19.065 6.889l-57.755-27.095c-7.156-3.355-10.248-11.908-6.89-19.064zm-19.26 41.053v-.004a14.26 14.26 0 0 1 8.105-7.394 14.404 14.404 0 0 1 4.879-.859c2.076 0 4.146.46 6.081 1.368l57.755 27.096a14.235 14.235 0 0 1 7.394 8.104 14.243 14.243 0 0 1-.504 10.96 14.248 14.248 0 0 1-8.104 7.394 14.235 14.235 0 0 1-10.96-.508l-57.757-27.096a14.248 14.248 0 0 1-7.392-8.104 14.235 14.235 0 0 1 .503-10.957zM94.11 241.136a14.235 14.235 0 0 1 8.106-7.394c3.593-1.306 7.486-1.124 10.957.505l57.757 27.096c7.155 3.354 10.246 11.91 6.89 19.063-3.354 7.163-11.916 10.251-19.065 6.889L100.999 260.2c-7.154-3.355-10.245-11.907-6.889-19.064zm2.998 100.189c4.433 0 8.038-3.606 8.038-8.038 0-4.434-3.605-8.039-8.038-8.039s-8.038 3.605-8.038 8.039c0 4.432 3.606 8.038 8.038 8.038zm362.875-32.174l-8.67 7.654-20.806-23.563.003-.002-20.025-22.771-12.522 11.016 14.529 16.521-96.495 85.197-25.405-28.753a33.068 33.068 0 0 0-13.649-9.228l-12.32-4.388-5.597 15.713 12.326 4.388a16.33 16.33 0 0 1 6.745 4.559l30.923 34.998v-.001l20.815 23.572-.001.001 43.34 49.084 130.15-114.913-43.341-49.084zm-132.946 86.555l96.479-85.19 15.298 17.327-96.48 85.186-15.297-17.323z"></path><path d="M414.891 325.34c-4.382 0-7.946 3.564-7.946 7.947 0 4.382 3.564 7.946 7.946 7.946 4.383 0 7.947-3.564 7.947-7.946 0-4.383-3.565-7.947-7.947-7.947z"></path><text y="527" font-size="5" font-weight="bold" font-family="'Helvetica Neue', Helvetica, Arial-Unicode, Arial, Sans-serif">Created by Chanut is Industries</text><text y="532" font-size="5" font-weight="bold" font-family="'Helvetica Neue', Helvetica, Arial-Unicode, Arial, Sans-serif">from the Noun Project</text></svg>
