<svg xmlns="http://www.w3.org/2000/svg" viewBox="0 0 36 51">
    <g fill-rule="nonzero">
        <path d="M30.194 4.086a4.086 4.086 0 1 1-8.171 0 4.086 4.086 0 1 1 8.171 0zM34.756 21.287l-6.663-2.373-2.99-8.208c-.743-1.434-1.938-2.432-3.346-2.691-3.304-.617-4.457 3.155-4.457 3.155l-2.46 10.337 6.98-4.072-.634-1.371a.59.59 0 0 1 .29-.787.59.59 0 0 1 .789.289l.833 1.797c.001.005.005.008.007.011.007.009.007.019.01.029l1.609 3.469.161.329c.095.185.434.532.751.662l6.471 2.469-4.133 7.105-5.419-5.088 1.085-4.983-1.318-2.847-7.863 4.587-3.043 12.777-6.442 10.079c-.238.335-.359.735-.359 1.213-.094.807.121 1.507.643 2.105.521.593 1.19.936 1.997 1.034 1.189.092 2.093-.384 2.71-1.429L16.837 38.1c.141-.288.331-.688.571-1.219l1.364-5.755 6.352 5.21-7.507 12.905a.747.747 0 0 0 .641 1.12.746.746 0 0 0 .644-.371l6.414-11.028-.009 8.743c.288 1.38 1.167 2.141 2.641 2.285.808.048 1.509-.189 2.104-.713.593-.528.914-1.168.96-1.927v-.643l-.053-10.905c0-.861-.199-1.72-.747-2.266l-1.121-1.059 4.471-7.69c1.187.071 2.041-.605 2.214-1.779.115-.773-.403-1.489-1.02-1.721z"/>
        <path d="M11.716 1.049a6.004 6.004 0 0 0-7.255 4.427L1.842 16.304l8.814 2.19-.29 1.167-8.808-2.188-.854 3.529c-.628 2.582.458 3.834 3.045 4.501a928.85 928.85 0 0 0 6.166 1.432l-.653 2.617a.75.75 0 0 0 .547.91c.063.016.26.058.322.058a.751.751 0 0 0 .722-.57l5.29-21.646a6.01 6.01 0 0 0-4.427-7.255zm.384 12.435l-6.405-1.601L6.992 6.51l1.071.258-1.041 4.311 4.279 1.069 1.075-4.266 1.068.269-1.344 5.333z"/>
    </g>
</svg>
