<svg xmlns="http://www.w3.org/2000/svg" viewBox="0 0 100 125"><path d="M79.2 29.7c-1.3-1.2-1.8-3.1-1.1-4.7l.6-1.5c1-2.3-.3-4.9-2.7-5.6l-1.6-.4c-1.7-.5-2.9-2-3-3.8l-.1-1.6c-.1-2.5-2.4-4.3-4.8-3.9l-1.5.3c-1.8.3-3.5-.5-4.3-2.1L59.9 5c-1.2-2.2-4-2.8-6-1.4l-1.3.9c-1.4 1-3.4 1-4.8 0l-1.3-1c-2-1.5-4.9-.8-6.1 1.4l-.8 1.4c-.9 1.6-2.6 2.4-4.4 2.1l-1.6-.3c-2.5-.4-4.7 1.4-4.9 3.9l-.1 1.6c-.1 1.8-1.3 3.3-3 3.8l-1.6.4c-2.4.7-3.7 3.3-2.7 5.6l.6 1.5c.7 1.6.2 3.5-1.1 4.7l-1.2 1.1c-1.9 1.6-1.9 4.6 0 6.2l1.2 1.1c1.3 1.2 1.8 3.1 1.1 4.7l-.6 1.5c-1 2.3.3 4.9 2.7 5.6l1.6.4c1.7.5 2.9 2 3 3.8l.1 1.6c.1 2.5 2.4 4.3 4.8 3.9l1.6-.3c1.8-.3 3.5.5 4.3 2.1l.8 1.4c1.2 2.2 4 2.8 6 1.4l1.3-.9c1.4-1 3.4-1 4.8 0l1.3 1c2 1.5 4.9.8 6.1-1.4l.8-1.4c.9-1.6 2.6-2.4 4.4-2.1l1.6.3c2.5.4 4.7-1.4 4.9-3.9l.1-1.6c.1-1.8 1.3-3.3 3-3.8l1.6-.4c2.4-.7 3.7-3.3 2.7-5.6l-.6-1.5c-.7-1.6-.2-3.5 1.1-4.7l1.2-1.1c1.9-1.6 1.9-4.6 0-6.2l-1.3-1.1zM50 54.1c-11.2 0-20.2-9.1-20.2-20.2 0-11.2 9.1-20.2 20.2-20.2 11.2 0 20.2 9.1 20.2 20.2s-9 20.2-20.2 20.2zm0-34.9c-8.1 0-14.6 6.6-14.6 14.6S41.9 48.5 50 48.5s14.6-6.6 14.6-14.6S58.1 19.2 50 19.2zm8.9 13.1l-4.1 3.3 1.2 5.1c.2.7-.4 1.4-1 1.4-.2 0-.4-.1-.6-.2l-4.5-2.8-4.4 2.8c-.2.1-.4.2-.6.2-.7 0-1.2-.6-1-1.4l1.2-5.1-4.1-3.3c-.8-.6-.3-1.9.6-1.9L47 30l2-4.9c.2-.5.6-.7 1-.7s.8.2 1 .7l2 4.9 5.2.4c1 0 1.5 1.2.7 1.9zM43.8 71c1 0 2.1-.2 3-.5L36.5 96.4c-.3.8-1.4.9-1.8.1l-4.9-8.6c-.2-.3-.5-.4-.8-.3l-9.2 2.9c-.8.3-1.6-.5-1.2-1.3l9.8-24.5c1.3.6 2.8 1 4.3 1 .6 0 1.2-.1 1.8-.2h.2l.1.2c1.7 3.2 5.2 5.3 9 5.3zm37.6 18.5c.3.8-.4 1.6-1.2 1.3L71 87.9c-.3-.1-.6 0-.8.3l-4.9 8.6c-.4.7-1.5.7-1.8-.1l-10.4-26c1 .3 2 .4 3 .4 3.8 0 7.2-2 9-5.3l.1-.2h.2c.6.1 1.2.2 1.8.2 1.6 0 3-.4 4.4-1l9.8 24.7z"></path><text y="115" font-size="5" font-weight="bold" font-family="'Helvetica Neue', Helvetica, Arial-Unicode, Arial, Sans-serif">Created by Gregor Cresnar</text><text y="120" font-size="5" font-weight="bold" font-family="'Helvetica Neue', Helvetica, Arial-Unicode, Arial, Sans-serif">from the Noun Project</text></svg>
