<svg xmlns="http://www.w3.org/2000/svg" viewBox="0 0 60 57">
    <g fill-rule="nonzero">
        <path d="M6.857 52.786c0 1.5 1.179 2.678 2.679 2.678h2.035c1.5 0 2.679-1.178 2.679-2.678v-3.75H6.857v3.75zM54.75 24.607h1.286c.857 0 1.607-.75 1.607-1.607v-1.286c0-.857-.75-1.607-1.607-1.607h-2.679L49.821 8.214c-.535-1.714-2.035-2.893-3.857-2.893H35.893l-.429-2.571C35.25 1.679 34.393.929 33.321.929h-6.857c-1.071 0-1.928.75-2.143 1.821l-.428 2.571H13.82C12 5.321 10.5 6.5 9.964 8.214L6.43 20.107H3.75c-.857 0-1.607.75-1.607 1.607V23c0 .857.75 1.607 1.607 1.607h1.393c-2.679 1.929-4.5 5.143-4.5 8.679l1.5 11.678c0 1.5 1.178 2.679 2.678 2.679h50.25c1.5 0 2.679-1.179 2.679-2.679l1.5-11.678c0-3.536-1.821-6.643-4.5-8.679zM13.714 9.286c0-.107.107-.107.215-.107H46.07c.108 0 .215.107.215.107l3.964 13.5c-.536-.107-1.179-.107-1.821-.107H11.464c-.643 0-1.178.107-1.821.107l4.071-13.5zm3.107 26.464c0 .857-.75 1.607-1.607 1.607H8.893c-.857 0-1.607-.75-1.607-1.607v-1.286c0-.857.75-1.607 1.607-1.607h6.321c.857 0 1.607.75 1.607 1.607v1.286zm20.25 7.393a.23.23 0 0 1-.214.214H23.036a.23.23 0 0 1-.215-.214v-.75a.23.23 0 0 1 .215-.214h13.821a.23.23 0 0 1 .214.214v.75zm0-3a.23.23 0 0 1-.214.214H23.036a.23.23 0 0 1-.215-.214v-.75a.23.23 0 0 1 .215-.214h13.821a.23.23 0 0 1 .214.214v.75zm15.643-4.393c0 .857-.75 1.607-1.607 1.607h-6.321c-.857 0-1.607-.75-1.607-1.607v-1.286c0-.857.75-1.607 1.607-1.607h6.321c.857 0 1.607.75 1.607 1.607v1.286zM45.75 52.786c0 1.5 1.179 2.678 2.679 2.678h2.035c1.5 0 2.679-1.178 2.679-2.678v-3.75H45.75v3.75z"/>
    </g>
</svg>
