<svg xmlns="http://www.w3.org/2000/svg" xmlns:xlink="http://www.w3.org/1999/xlink" version="1.1" x="0px" y="0px" viewBox="0 0 100 125" enable-background="new 0 0 100 100" xml:space="preserve"><path d="M7.7,95.9l8.3-0.6c1.8-0.1,3.2-1.2,3.8-2.7l36.6,1.6c4.1,0.4,7.9-0.1,11.5-1.9l1-0.5l27.7-16.2c1.4-0.8,2.3-2.2,2.4-3.7  c0.1-1.9-1-3.9-3.6-4.1c-1.9-0.1-5.7,2-6.8,2.5c-3.8,1.9-9,4.9-12.5,7.3c-0.2,0.2-0.6,0.4-0.8,0.5c-1.6,1-3.2,1.7-5,2.1  c-10,2.1-24.6,2.4-24.6,2.4l-0.8,0c-0.6,0-1.2-0.4-1.3-1c-0.1-0.7,0.4-1.3,1.1-1.4L66.3,78c2.4-0.3,4.3-2.5,4-5  c-0.3-2.5-2.6-4.4-5-4.1l-19.3-0.2c-1.3,0-3.4-0.3-4.7-0.7c-12.5-3.6-19.5-0.2-23.2,1.4c-0.8-1.4-2.4-2.3-4.2-2.2l-8.3,0.6  c-2.8,0.2-4.9,2.5-4.7,5.2l1.3,18.5C2.5,94.1,4.9,96.1,7.7,95.9z M10.7,86.1c1.6,0,2.8,1.2,2.8,2.7c0,1.5-1.3,2.7-2.8,2.7  c-1.6,0-2.8-1.2-2.8-2.7C7.9,87.3,9.2,86.1,10.7,86.1z M74.4,70.6C77.3,69,83,66.3,86.2,65c1.6-0.6,3.1-0.6,4.5,0.4  c-1.1,0.4-2.2,0.9-3.1,1.4c-3.3,1.6-9.1,4.8-11.9,6.8c-0.3,0.2-0.6,0.4-0.9,0.6c0-0.5,0-1,0-1.5c-0.1-0.7-0.2-1.3-0.4-1.9  C74.4,70.7,74.4,70.6,74.4,70.6z M70.6,66c1.9-1,6.2-2.4,8.1-3.2c1.5-0.6,3.1-0.6,4.5,0.3c-2.2,1-6.6,2.5-8.6,3.7l-1.4,0.8  c-0.1,0.1-0.3,0.2-0.4,0.3C72.1,67.1,71.4,66.5,70.6,66z M28.9,44.2c-0.6,2.1,0.8,4.3,3,4.6l1.4,0.2c1.6,0.2,2.8,1.4,3,3l0.2,1.4  c0.4,2.2,2.6,3.5,4.7,2.9l1.4-0.4c1.5-0.5,3.1,0.1,4,1.4l0.8,1.2c1.3,1.8,3.8,2.1,5.5,0.6l1.1-1c1.2-1.1,2.9-1.3,4.2-0.5l1.3,0.7  c1.9,1.1,4.3,0.2,5.2-1.8l0.5-1.3c0.6-1.5,2-2.4,3.6-2.3l1.4,0.1c2.2,0.1,4-1.7,3.8-3.9l-0.1-1.4c-0.1-1.6,0.8-3,2.2-3.6l1.3-0.6  c2-0.8,2.9-3.3,1.8-5.2l-0.7-1.2c-0.8-1.4-0.6-3.1,0.4-4.2l1-1.1c1.5-1.6,1.2-4.2-0.7-5.4l-1.2-0.8c-1.3-0.9-1.9-2.5-1.4-4l0.4-1.4  c0.6-2.1-0.8-4.3-3-4.6L72.7,15c-1.6-0.2-2.8-1.4-3-3l-0.2-1.4c-0.4-2.2-2.6-3.5-4.7-2.9l-1.4,0.4c-1.5,0.5-3.1-0.1-4-1.4l-0.8-1.2  c-1.3-1.8-3.8-2.1-5.5-0.6L52,6c-1.2,1.1-2.9,1.3-4.2,0.5l-1.3-0.7c-1.9-1.1-4.3-0.2-5.2,1.8L40.8,9c-0.6,1.5-2,2.4-3.6,2.3  l-1.4-0.1c-2.2-0.1-4,1.7-3.8,3.9l0.1,1.4c0.1,1.6-0.8,3-2.2,3.6l-1.3,0.6c-2,0.8-2.9,3.3-1.8,5.2l0.7,1.2c0.8,1.4,0.6,3.1-0.4,4.2  l-1,1.1c-1.5,1.6-1.2,4.2,0.7,5.4l1.2,0.8c1.3,0.9,1.9,2.5,1.4,4L28.9,44.2z M52.6,18.8c1.7,0,3.1,1.4,3.1,3.1  c0,1.7-1.4,3.1-3.1,3.1c-1.7,0-3.1-1.4-3.1-3.1C49.4,20.2,50.9,18.8,52.6,18.8z M48.7,40.2h1.6v-8.5h-1.6v-4.2h1.6H55h0.8v12.7h1.6  v4.2h-1.6h-5.5h-1.6V40.2z"></path></svg>
