<svg xmlns="http://www.w3.org/2000/svg" viewBox="0 0 48 60"><path d="M33.874 17.312c-.576-1.116-1.275-2.094-1.951-3.037-.596-.832-1.158-1.617-1.654-2.5-.67-1.197-1.035-2.704-1.387-4.162l-.205-.836c-.166-.652-.158-1.556-.154-2.43.01-1.232.02-2.508-.414-3.511a.928.928 0 0 0-.842-.56L18.448.17c-.336.007-.594.144-.77.395a.923.923 0 0 0-.111.86c.404 1.088.26 3.105.141 4.726-.041.56-.08 1.083-.094 1.537-.055 1.733-.811 3.665-2.309 5.905-1.586 2.364-2.225 4.371-2.201 6.926.016 2.264 1.707 3.67 4.412 3.67.543 0 1.098-.057 1.652-.168.463-.095.877-.211 1.273-.322.705-.198 1.313-.369 2.113-.369 1.166 0 2.018.131 3.137.482l.596.193c1.373.449 3.082 1.008 4.701 1.008.768 0 1.453-.131 2.035-.389.775-.34 1.34-.959 1.633-1.789.669-1.898-.218-4.445-.782-5.523zM32.38 29.375c-.525-1.742-2.365-1.955-3.707-2.111-.48-.057-.938-.109-1.227-.211-.404-.143-.75-.387-1.148-.666a10.82 10.82 0 0 0-.857-.559c-.533-.299-1.213-.45-2.018-.45-.285 0-.566.021-.83.054-1.27.164-2.115.844-2.863 1.443-.332.266-.646.518-.986.719-.227.137-.531.18-.885.23-.535.078-1.201.174-1.83.641-1.318.973-1.328 2.189-1.234 3.256.145 1.584 1.074 2.9 1.895 4.064.305.434.594.844.832 1.246 1.115 1.889 1.424 4.264 1.721 6.559.15 1.166.307 2.371.566 3.518a.93.93 0 0 0 .906.723h.057l7.346-.43a.93.93 0 0 0 .875-.928c0-3.41.658-6.844 2.135-11.135.143-.416.328-.83.521-1.268.602-1.353 1.284-2.886.731-4.695z"></path><text y="63" font-size="5" font-weight="bold" font-family="'Helvetica Neue', Helvetica, Arial-Unicode, Arial, Sans-serif">Created by Creative Stall</text><text y="68" font-size="5" font-weight="bold" font-family="'Helvetica Neue', Helvetica, Arial-Unicode, Arial, Sans-serif">from the Noun Project</text></svg>
