<svg xmlns="http://www.w3.org/2000/svg" xmlns:xlink="http://www.w3.org/1999/xlink" version="1.1" x="0px" y="0px" viewBox="0 0 100 125" enable-background="new 0 0 100 100" xml:space="preserve"><path d="M38.474,5c-3.184,0-5.764,2.874-5.764,6.421s2.58,6.423,5.764,6.423h23.053c3.186,0,5.764-2.876,5.764-6.423  S64.712,5,61.527,5"></path><path d="M76.686,12.412H71.2c-0.47,5.259-4.626,9.388-9.673,9.388H38.474c-5.046,0-9.204-4.129-9.673-9.388h-5.487  c-4.646,0-8.444,3.799-8.444,8.443v35.227c0.164-0.053,0.335-0.087,0.516-0.087h3.492c0.448,0,1.257-0.381,1.546-0.728  c0.119-0.145,2.889-3.399,6.672-3.399c3.779,0,6.552,3.255,6.668,3.394c0.293,0.354,1.097,0.733,1.541,0.733h5.46  c1.248,0,2.537,0.659,3.369,1.644l3.499-21.827c0.168-1.358,0.384-3.268,2.218-3.24c1.809,0.067,1.906,2.024,1.977,3.453  l1.722,28.553l1.681-5.365c0.444-1.686,2.08-2.947,3.828-2.947h5.615c0.309,0,0.854-0.336,0.992-0.611  c0.129-0.256,3.227-6.283,8.771-6.283c5.561,0,8.658,6.025,8.787,6.283c0.143,0.279,0.371,0.513,0.51,0.611h0.883  c0.181,0,0.352,0.035,0.516,0.088V20.855C85.131,16.211,81.332,12.412,76.686,12.412z M30.947,40.485  c-6.89-4.726-8.09-7.263-7.893-10.164c0.195-2.895,4.112-5.885,7.893-2.305c3.78-3.58,7.696-0.59,7.893,2.305  C39.037,33.223,37.835,35.76,30.947,40.485z"></path><path d="M83.54,59.727c-1.474,0-2.8-1.307-3.408-2.52c-0.021-0.038-2.276-4.376-5.694-4.376c-3.383,0-5.66,4.333-5.681,4.378  c-0.723,1.436-2.479,2.518-4.085,2.518h-5.615c-0.168,0-0.443,0.213-0.483,0.375c-0.009,0.034-0.019,0.067-0.028,0.103L54.68,72.545  c-0.158,0.639-0.609,2.297-2.104,2.297c-0.066,0-0.134-0.003-0.203-0.01c-1.705-0.162-1.806-2.1-1.839-2.734l-1.424-23.636  L46.9,62.236c-0.219,1.779-1.348,2.129-1.823,2.193c-0.476,0.065-1.657,0.027-2.371-1.688l-1.125-2.736  c-0.098-0.232-0.564-0.551-0.816-0.551h-5.46c-1.48,0-3.246-0.831-4.198-1.977c-0.009-0.011-1.86-2.15-4.011-2.15  c-1.805,0-3.546,1.596-4.015,2.154c-0.948,1.142-2.718,1.973-4.203,1.973h-3.492c-0.181,0-0.352-0.035-0.516-0.087v27.188  c0,4.644,3.799,8.442,8.444,8.442h53.372c4.646,0,8.445-3.8,8.445-8.442V59.639c-0.164,0.053-0.335,0.088-0.516,0.088H83.54z"></path></svg>
