<svg xmlns="http://www.w3.org/2000/svg" xmlns:xlink="http://www.w3.org/1999/xlink" version="1.1" x="0px" y="0px" viewBox="0 0 64 80" style="enable-background:new 0 0 64 64;" xml:space="preserve"><g><path d="M52.9,55.1l0-0.5c0.1-1.6,0.1-3.4-0.6-5.1c-0.8-1.8-2.5-3.2-4-4.3c-0.5-0.4-1-0.7-1.7-1.1L44.7,43   c-0.5-0.3-1.1-0.6-1.7-0.9l-0.6-0.3c-0.6-0.3-1.2-0.6-1.8-0.9c-0.8-0.4-1.6-0.7-2.3-0.9l-1.1-0.3l-0.5,0.8   c-0.4,0.6-4.4,4.4-8.2,7.9c-3.8-3.5-7.8-7.3-8.2-7.9l-0.5-0.8L18.7,40c-0.7,0.2-1.4,0.5-2.2,0.9c-0.6,0.3-1.2,0.6-1.8,0.9l-0.7,0.4   c-0.2,0.1-0.4,0.2-0.6,0.3l-2.1,1.1c-0.9,0.6-1.7,1.1-2.4,1.6c-1.5,1.1-3.2,2.4-4,4.3c-0.7,1.6-0.7,3.4-0.6,5l0,0.6   c0,0.2,0,1.5,0,4.7c0,2,1.6,3.5,3.5,3.5l41.5,0c2,0,3.5-1.6,3.5-3.5C52.8,57.9,52.9,55.3,52.9,55.1z M42.2,51.4   c0.5,0.3,0.9,0.7,1.1,1.3s0.1,1.2-0.1,1.7c-0.3,0.5-0.7,0.9-1.3,1.1s-1.2,0.1-1.7-0.1c-0.5-0.3-0.9-0.7-1.1-1.3   c-0.4-1.2,0.3-2.4,1.4-2.8c0.2-0.1,0.4-0.1,0.7-0.1C41.5,51.2,41.9,51.3,42.2,51.4z M50.4,54.5l0,0.6c0,0.2,0,4.6,0,4.8   c0,0.6-0.5,1-1,1l-41.5,0h0c-0.6,0-1.1-0.5-1.1-1c0-4.6,0-4.8,0-4.8l0-0.6c0-1.4-0.1-2.9,0.4-3.9c0.6-1.3,1.9-2.3,3.2-3.3   c0.6-0.5,1.4-1,2.2-1.5l0.9-0.5c0.1,0.7,0.3,1.4,0.6,2.1c-0.5,0.2-0.9,0.6-1.3,0.9c-0.5,0.5-0.9,1-1.2,1.6   c-0.6,1.2-0.7,2.5-0.4,3.8l1.2,5l3.6-0.8c0.7-0.2,1.1-0.8,0.9-1.5c-0.2-0.7-0.8-1.1-1.5-0.9l-1.2,0.3l-0.6-2.5   c-0.2-0.7-0.1-1.5,0.2-2.1c0.2-0.3,0.4-0.7,0.7-0.9c0.4-0.4,0.9-0.7,1.5-0.8c0.6-0.1,1.1-0.1,1.7,0.1c0.3,0.1,0.5,0.2,0.7,0.3   c0.1,0.1,0.2,0.1,0.3,0.2c0.6,0.5,1,1.1,1.1,1.8l0.6,2.5l-1.2,0.3c-0.7,0.2-1.1,0.8-0.9,1.5c0.2,0.7,0.8,1.1,1.5,0.9l3.6-0.8   l-1.2-5c-0.3-1.3-1-2.4-2-3.2c-0.2-0.1-0.3-0.3-0.5-0.4c-0.4-0.3-0.8-0.5-1.3-0.6c-0.6-0.2-1.3-0.3-2-0.2c-0.3-0.9-0.5-1.7-0.6-2.6   c0,0,0-0.1,0-0.1l0.1,0c0.6-0.3,1.1-0.6,1.7-0.9c0.5-0.2,0.9-0.4,1.4-0.6c1.9,2,7.1,6.8,8.8,8.4l0.8,0.8l0.8-0.8   c1.7-1.6,6.9-6.3,8.8-8.4c0.4,0.2,0.9,0.3,1.4,0.6c0.6,0.3,1.1,0.5,1.7,0.8l0.6,0.3c0.4,0.2,0.8,0.4,1.2,0.6   c-0.3,1.3-0.7,2.6-1.3,3.8c-0.7-0.1-1.4,0-2,0.2c-1.2,0.4-2.2,1.2-2.7,2.3s-0.7,2.4-0.3,3.6c0.6,2,2.5,3.3,4.5,3.3   c0.5,0,1-0.1,1.4-0.2c1.2-0.4,2.2-1.2,2.7-2.3s0.7-2.4,0.3-3.6c-0.3-0.9-0.8-1.7-1.6-2.3c0.5-1.1,0.9-2.3,1.2-3.5   c0.5,0.3,1,0.7,1.4,1c1.3,1,2.6,2,3.2,3.3C50.5,51.6,50.4,53,50.4,54.5z"></path><path d="M15.6,24.5L15.6,24.5c0,0.4,0,0.7,0,1c0,0.4,0.1,0.8,0.1,1.2c0,0.2,0.1,0.4,0.1,0.6c0.2,1.8,1.1,3.2,2.5,3.9l0,0   c0.8,3.2,2.4,5.6,4.9,7.3c0.3,0.2,0.6,0.4,1,0.6c0.5,0.3,1,0.5,1.7,0.7c0.5,0.2,0.9,0.3,1.4,0.4c0.4,0.1,0.8,0.1,1.2,0.1   c0.1,0,0.2,0,0.3,0c0.4,0,0.8,0,1.2-0.1c0.5-0.1,0.9-0.2,1.4-0.4l0.1,0c0.6-0.2,1.2-0.4,1.7-0.7c0.3-0.2,0.7-0.4,1-0.6   c1.3-0.9,2.4-2.1,3.3-3.4c0.4-0.6,0.7-1.3,1-2.1c0.1-0.3,0.2-0.6,0.3-0.9c0.1-0.3,0.1-0.6,0.3-0.7c0.2-0.2,0.4-0.4,0.6-0.6   c0.1-0.1,0.3-0.2,0.4-0.4c1.1-1,1.3-2.2,1.5-3.1c0-0.2,0.1-0.4,0.1-0.6c0.1-0.4,0.1-0.8,0.1-1.2c0-0.3,0-0.6,0-0.9l0,0l0,0   c0,0,0,0,0,0h0v0c0.1-1.1-0.5-2.3-1.6-2.8l0-0.4c0-0.4,0.1-0.7,0.1-1c0.3-1.1,0.4-2.1,0.5-3.2c0.1-3.6-1.7-6.6-4.9-8   c-0.3-0.2-0.7-0.3-1-0.4c-1.9-0.7-3.9-1.1-6-1.1c-0.4,0-0.9,0-1.3,0c-1.2,0.1-3,0.2-4.5,0.9c-0.2,0.1-0.3,0.2-0.5,0.3   c-0.6,0.4-1.1,0.9-1.5,1.5l-0.2,0.3c-0.2,0.3-0.2,0.3-0.4,0.5c-0.3,0.3-0.6,0.4-0.9,0.6c-0.7,0.3-1.2,0.8-1.5,1.4   c-0.5,0.8-0.7,1.9-0.8,3.1c-0.1,1.2,0,2.5,0.1,3.4c0,0.5,0.1,0.9,0.2,1.4c0,0.2,0.1,0.5,0.1,0.7C16.2,22,15.5,23.3,15.6,24.5z    M41.3,24.4L41.3,24.4l-1-0.1L41.3,24.4z M18.2,24C18.2,24,18.2,24,18.2,24c0.2,0,0.3,0,0.4,0c0.1,0,0.2,0,0.3,0l0.2,0l0.2-0.1   c0.5-0.3,0.8-0.8,0.8-1.4c0-0.7-0.1-1.4-0.2-2.1c-0.1-0.3-0.1-0.7-0.2-1c-0.1-0.9-0.1-2-0.1-3.1c0-0.9,0.2-1.5,0.5-2   c0.1-0.1,0.2-0.2,0.4-0.3c0.5-0.2,0.9-0.5,1.5-0.9c0.5-0.4,0.7-0.8,1-1.1l0.2-0.2c0.2-0.3,0.5-0.6,0.8-0.8c0.1,0,0.1-0.1,0.2-0.1   c1-0.5,2.2-0.6,3.5-0.7c0.4,0,0.8,0,1.2,0c1.8,0,3.5,0.3,5.1,0.9c0.3,0.1,0.6,0.2,0.9,0.4c2.3,1,3.5,3.1,3.4,5.6   c0,0.9-0.2,1.8-0.4,2.7c-0.1,0.5-0.2,1-0.2,1.4l-0.1,0.5c-0.1,0.4-0.2,1,0,1.5c0.3,0.6,0.8,0.9,1.5,1c0,0.1,0.1,0.2,0.1,0.3l0,0.2   l0,0.1c0,0.2,0,0.5,0,0.7c0,0.3-0.1,0.6-0.1,1c0,0.2-0.1,0.4-0.1,0.6c-0.1,0.8-0.3,1.2-0.7,1.6c-0.1,0.1-0.2,0.2-0.3,0.3   c-0.3,0.3-0.6,0.5-0.9,0.9c-0.5,0.6-0.6,1.2-0.7,1.7c0,0.2-0.1,0.4-0.2,0.5c-0.3,0.7-0.5,1.2-0.9,1.7c-0.7,1.1-1.5,2-2.5,2.7   c-0.2,0.2-0.5,0.3-0.7,0.5c-0.4,0.2-0.8,0.4-1.3,0.6c-0.1,0-0.1,0-0.2,0.1c-0.3,0.1-0.6,0.2-0.9,0.3c-0.3,0.1-0.6,0.1-0.9,0.1   c-0.3,0-0.6,0-0.8-0.1c-0.3-0.1-0.6-0.1-0.9-0.3l-0.1-0.1c-0.5-0.2-0.9-0.4-1.3-0.5c-0.3-0.2-0.5-0.3-0.8-0.5   c-1.9-1.3-3.2-3.2-3.8-5.8c-0.2-0.8-0.6-1.2-0.9-1.4l-0.2-0.1c-0.9-0.5-1.2-1.5-1.2-2.1c0-0.2-0.1-0.4-0.1-0.6c0-0.3-0.1-0.6-0.1-1   c0-0.2,0-0.5,0-0.7l0-0.2l0-0.1C18.1,24.2,18.1,24.1,18.2,24z"></path><path d="M53.6,25.7c0.6,0.5,1.3,1.3,2,2l4.2,4.1V7.9c0-2.5-1.2-4.2-2.2-5.1c-1.4-1.3-3.3-2.1-5.1-2.1c0,0-14.9,0-17.4,0   c-1.7,0-3.2,0.5-4.5,1.5c-0.7,0.5-1.3,1.1-1.7,1.8c-0.4,0.6-0.2,1.4,0.4,1.7C29.8,6.1,30.6,6,31,5.4c0.3-0.5,0.7-0.9,1.2-1.2   c0.9-0.7,1.9-1,3-1c2.5,0,17.4,0,17.4,0c1.2,0,2.5,0.5,3.4,1.4c0.6,0.6,1.4,1.7,1.4,3.4v17.9c-0.7-0.7-1.4-1.4-2-1.9l-0.2-0.2   c-0.8-0.8-1.9-1.2-2.9-1.2c-2.1,0-5.5,0-8,0c-0.7,0-1.2,0.6-1.2,1.3c0,0.7,0.6,1.2,1.3,1.2c0,0,0,0,0,0c2.5,0,5.9,0,8,0   c0.4,0,0.9,0.2,1.2,0.5L53.6,25.7z"></path></g></svg>
