<?xml version="1.0" encoding="UTF-8"?>
<svg viewBox="0 0 300 300" version="1.1" xmlns="http://www.w3.org/2000/svg" xmlns:xlink="http://www.w3.org/1999/xlink">
    <!-- Generator: Sketch 48.2 (47327) - http://www.bohemiancoding.com/sketch -->
    <title>Deep Tech</title>
    <desc>Created with Sketch.</desc>
    <defs></defs>
    <g id="10-Partner-Page-Icons" stroke="none" stroke-width="1" fill="none" fill-rule="evenodd">
        <g id="Deep-Tech" fill="#808080" fill-rule="nonzero">
            <g id="noun_Artificial-Intelligence_1201446" transform="translate(0.000000, 10.000000)">
                <path d="M178.695652,119.780518 L106.229097,119.780518 L106.229097,192.171823 L178.620401,192.171823 L178.695652,119.780518 Z M170.229933,183.743729 L114.770067,183.743729 L114.770067,128.246237 L170.192308,128.246237 L170.229933,183.743729 Z" id="Shape"></path>
                <path d="M280.303094,226.523829 L280.303094,170.537207 L197.527174,170.537207 L197.527174,160.171405 L212.125836,160.171405 L212.125836,151.705686 L197.527174,151.705686 L197.527174,141.339883 L212.125836,141.339883 L212.125836,132.874164 L197.527174,132.874164 L197.527174,122.508361 L246.534281,122.508361 L246.534281,57.3599498 C258.235968,55.1734624 266.346687,44.4344299 265.248764,32.5809592 C264.150841,20.7274884 254.205631,11.6608798 242.301421,11.6608798 C230.397212,11.6608798 220.452002,20.7274884 219.354079,32.5809592 C218.256156,44.4344299 226.366875,55.1734624 238.068562,57.3599498 L238.068562,114.061455 L197.527174,114.061455 L197.527174,100.892559 L184.358278,100.892559 L184.358278,86.3503344 L175.892559,86.3503344 L175.892559,100.948997 L165.526756,100.948997 L165.526756,86.3503344 L157.061037,86.3503344 L157.061037,100.948997 L146.695234,100.948997 L146.695234,86.3503344 L138.229515,86.3503344 L138.229515,100.948997 L127.863712,100.948997 L127.863712,86.3503344 L119.397993,86.3503344 L119.397993,100.948997 L109.126254,100.948997 L109.126254,86.3503344 L100.585284,86.3503344 L100.585284,100.948997 L87.416388,100.948997 L87.416388,114.117893 L77.1070234,114.117893 L77.1070234,46.0535117 C88.8087103,43.8670242 96.9194297,33.1279918 95.8215063,21.2745211 C94.723583,9.42105032 84.7783734,0.354441637 72.8741639,0.354441637 C60.9699544,0.354441637 51.0247448,9.42105032 49.9268214,21.2745211 C48.8288981,33.1279918 56.9396174,43.8670242 68.6413043,46.0535117 L68.6413043,122.508361 L87.416388,122.508361 L87.416388,132.874164 L72.8741639,132.874164 L72.8741639,141.339883 L87.416388,141.339883 L87.416388,151.705686 L27.6860368,151.705686 L27.6860368,115.754599 C39.3877237,113.568111 47.4984431,102.829079 46.4005197,90.975608 C45.3025964,79.1221373 35.3573868,70.0555286 23.4531773,70.0555286 C11.5489677,70.0555286 1.60375815,79.1221373 0.505834792,90.975608 C-0.592088569,102.829079 7.5186308,113.568111 19.2203177,115.754599 L19.2203177,160.171405 L87.416388,160.171405 L87.416388,170.537207 L72.8741639,170.537207 L72.8741639,179.002926 L87.416388,179.002926 L87.416388,189.368729 L19.2203177,189.368729 L19.2203177,229.30811 C7.5186308,231.494598 -0.592088569,242.23363 0.505834792,254.087101 C1.60375815,265.940572 11.5489677,275.00718 23.4531773,275.00718 C35.3573868,275.00718 45.3025964,265.940572 46.4005197,254.087101 C47.4984431,242.23363 39.3877237,231.494598 27.6860368,229.30811 L27.6860368,197.834448 L87.416388,197.834448 L87.416388,211.003344 L100.585284,211.003344 L100.585284,225.602007 L109.051003,225.602007 L109.051003,211.003344 L119.397993,211.003344 L119.397993,225.602007 L127.863712,225.602007 L127.863712,211.003344 L138.229515,211.003344 L138.229515,225.602007 L146.695234,225.602007 L146.695234,211.003344 L157.061037,211.003344 L157.061037,225.602007 L165.526756,225.602007 L165.526756,211.003344 L175.892559,211.003344 L175.892559,225.602007 L184.358278,225.602007 L184.358278,211.003344 L197.527174,211.003344 L197.527174,197.834448 L212.125836,197.834448 L212.125836,189.368729 L197.527174,189.368729 L197.527174,179.002926 L271.780936,179.002926 L271.780936,226.523829 C260.07925,228.710317 251.96853,239.449349 253.066454,251.30282 C254.164377,263.156291 264.109586,272.2229 276.013796,272.2229 C287.918006,272.2229 297.863215,263.156291 298.961138,251.30282 C300.059062,239.449349 291.948342,228.710317 280.246656,226.523829 L280.303094,226.523829 Z M227.627508,34.6341973 C227.627508,26.5819688 234.155129,20.0543478 242.207358,20.0543478 C250.259586,20.0543478 256.787207,26.5819688 256.787207,34.6341973 C256.787207,42.6864259 250.259586,49.2140468 242.207358,49.2140468 C234.232661,49.1526215 227.782997,42.7029578 227.721572,34.7282609 L227.627508,34.6341973 Z M58.2002508,23.3465719 C58.2002508,17.4495732 61.7525171,12.1332311 67.2006335,9.87654737 C72.6487498,7.61986368 78.919803,8.86725372 83.0896108,13.0370615 C87.2594185,17.2068692 88.5068086,23.4779224 86.2501249,28.9260388 C83.9934412,34.3741551 78.677099,37.9264214 72.7801003,37.9264214 C64.7981308,37.8648675 58.3455088,31.4038654 58.2943144,23.4218227 L58.2002508,23.3465719 Z M8.77926421,92.9535953 C8.86222378,84.9337556 15.4070815,78.4868027 23.4272606,78.5247189 C31.4474398,78.5626351 37.9310491,85.0711814 37.9381775,93.091447 C37.9453058,101.111713 31.4732763,107.631774 23.4531773,107.683946 C15.4052457,107.673582 8.88369214,101.152029 8.87332776,93.104097 L8.77926421,92.9535953 Z M37.9389632,251.789298 C37.9999431,257.708148 34.4763941,263.076457 29.0217809,265.375087 C23.5671676,267.673717 17.2641619,266.446418 13.0705193,262.269114 C8.87687662,258.091811 7.62498221,251.793644 9.90230139,246.330099 C12.1796206,240.866554 17.5341342,237.322076 23.4531773,237.35995 C31.5011088,237.370314 38.0226624,243.891868 38.0330268,251.939799 L37.9389632,251.789298 Z M189.005017,202.537625 L95.9385452,202.537625 L95.9385452,109.414716 L189.005017,109.414716 L189.005017,202.537625 Z M276.013796,263.735368 C267.961567,263.735368 261.433946,257.207747 261.433946,249.155518 C261.433946,241.10329 267.961567,234.575669 276.013796,234.575669 C284.066025,234.575669 290.593645,241.10329 290.593645,249.155518 C290.593752,257.188841 284.10345,263.712772 276.070234,263.754181 L276.013796,263.735368 Z" id="Shape"></path>
                <path d="M104.216137,57.6985786 C105.532815,51.0938949 110.855212,46.027455 117.516722,45.0376254 C123.781355,43.9088629 132.378763,45.9406355 138.210702,54.7826087 L138.210702,72.3536789 L146.676421,72.3536789 L146.676421,54.5568562 C149.942806,47.5658123 157.264344,43.3960793 164.943562,44.1534281 C172.639189,44.8271028 179.026192,50.3787068 180.76505,57.9055184 L181.66806,61.6680602 L185.543478,61.0660535 C189.46046,60.2097114 193.555008,61.1556694 196.699415,63.6433946 C199.818237,66.750825 201.42002,71.0680789 201.082776,75.4577759 L209.548495,75.5894649 C209.973197,68.6963823 207.304345,61.9725313 202.267977,57.2470736 C198.276596,53.8703958 193.155054,52.1296093 187.932692,52.3745819 C184.406252,43.4691183 176.367365,37.1447687 166.882053,35.8136334 C157.396741,34.4824981 147.927589,38.3498311 142.08612,45.9406355 C135.635906,38.5073701 125.763739,34.9953629 116.068144,36.6847826 C105.922153,38.2864949 97.8581926,46.0573565 95.882107,56.1371237 L104.216137,57.6985786 Z" id="Shape"></path>
                <path d="M197.282609,254.404264 C194.742893,256.699415 190.735786,257.621237 185.355351,257.113294 L182.270067,256.812291 L181.066054,259.671823 C177.792642,267.441472 170.982441,272.840719 163.739548,273.311037 C157.173913,273.781355 151.172659,270.263378 146.80811,263.434365 L146.80811,245.882107 L138.210702,245.882107 L138.210702,263.490803 C133.789716,270.282191 127.826087,273.781355 121.279264,273.311037 C114.036371,272.803094 107.226171,267.441472 103.952759,259.671823 L102.748746,256.849916 L99.6822742,257.113294 C94.6216555,257.545987 90.5204849,256.492475 87.8867057,254.046823 C84.5568562,250.999164 83.860786,246.18311 83.860786,242.759197 L75.3950669,242.759197 C75.3950669,250.284281 77.7278428,256.285535 82.1488294,260.34908 C86.3757979,264.012183 91.8351753,265.935068 97.4247492,265.729515 C101.922065,274.700246 110.678786,280.762591 120.658445,281.814381 C121.24791,281.814381 121.837375,281.814381 122.426839,281.814381 C130.236752,281.662134 137.576156,278.05101 142.462375,271.956522 C147.348593,278.05101 154.687997,281.662134 162.49791,281.814381 C163.087375,281.814381 163.676839,281.814381 164.266304,281.814381 C174.231126,280.764185 182.977751,274.718098 187.481187,265.76714 C193.965301,265.854933 199.107441,264.174331 202.907609,260.725334 C207.309783,256.73704 209.529682,250.679348 209.529682,242.740385 L201.063963,242.740385 C201.139214,248.139632 199.841137,252.090301 197.282609,254.404264 Z" id="Shape"></path>
                <polygon id="Shape" points="255.940635 155.976171 255.940635 150.802676 261.132943 150.802676 261.132943 142.336957 255.940635 142.336957 255.940635 137.144649 247.474916 137.144649 247.474916 142.336957 242.301421 142.336957 242.301421 150.802676 247.474916 150.802676 247.474916 155.976171"></polygon>
                <polygon id="Shape" points="53.2525084 212.414298 44.7867893 212.414298 44.7867893 217.606605 39.6132943 217.606605 39.6132943 226.072324 44.7867893 226.072324 44.7867893 231.245819 53.2525084 231.245819 53.2525084 226.072324 58.4448161 226.072324 58.4448161 217.606605 53.2525084 217.606605"></polygon>
                <polygon id="Shape" points="185.374164 23.4406355 193.839883 23.4406355 193.839883 18.2483278 199.032191 18.2483278 199.032191 9.7826087 193.839883 9.7826087 193.839883 4.60911371 185.374164 4.60911371 185.374164 9.7826087 180.200669 9.7826087 180.200669 18.2483278 185.374164 18.2483278"></polygon>
                <polygon id="Shape" points="5.52466555 46.2040134 13.9903846 46.2040134 13.9903846 41.0117057 19.1826923 41.0117057 19.1826923 32.5459866 13.9903846 32.5459866 13.9903846 27.3724916 5.52466555 27.3724916 5.52466555 32.5459866 0.351170569 32.5459866 0.351170569 41.0117057 5.52466555 41.0117057"></polygon>
                <polygon id="Shape" points="237.127926 212.470736 228.662207 212.470736 228.662207 217.644231 223.4699 217.644231 223.4699 226.10995 228.662207 226.10995 228.662207 231.283445 237.127926 231.283445 237.127926 226.10995 242.301421 226.10995 242.301421 217.644231 237.127926 217.644231"></polygon>
            </g>
        </g>
    </g>
</svg>
