<?xml version="1.0" encoding="UTF-8"?>
<svg viewBox="0 0 300 300" version="1.1" xmlns="http://www.w3.org/2000/svg" xmlns:xlink="http://www.w3.org/1999/xlink">
    <!-- Generator: Sketch 48.2 (47327) - http://www.bohemiancoding.com/sketch -->
    <title>You Will Be Listened To</title>
    <desc>Created with Sketch.</desc>
    <defs></defs>
    <g id="10-Partner-Page-Icons" stroke="none" stroke-width="1" fill="none" fill-rule="evenodd">
        <g id="You-Will-Be-Listened-To" fill="#808080" fill-rule="nonzero">
            <g id="noun_Listen_1417835" transform="translate(2.000000, 2.000000)">
                <g id="Group" transform="translate(92.463415, 69.512195)">
                    <path d="M55.5365854,156.718293 C40.3097561,156.718293 27.9256098,144.334146 27.9256098,129.110976 C27.9256098,106.534146 21.204878,98.752439 14.0853659,90.5170732 C7.31341463,82.6804878 0.314634146,74.5768293 0.314634146,55.4829268 C0.314634146,25.0365854 25.0865854,0.26097561 55.5365854,0.26097561 C85.9865854,0.26097561 110.758537,23.2695122 110.758537,55.4829268 L101.553659,55.4829268 C101.553659,27.8719512 80.9085366,9.46585366 55.5365854,9.46585366 C30.1646341,9.46585366 9.5195122,30.1109756 9.5195122,55.4865854 C9.5195122,71.1560976 14.8646341,77.3426829 21.0512195,84.5060976 C28.5878049,93.2243902 37.1304878,103.113415 37.1304878,129.114634 C37.1304878,139.263415 45.3878049,147.520732 55.5365854,147.520732 C65.6853659,147.520732 73.9426829,138.315854 73.9426829,129.114634 L83.147561,129.114634 C83.147561,142.910976 70.7634146,156.718293 55.5365854,156.718293 Z" id="Shape"></path>
                    <path d="M64.7414634,119.902439 C54.5926829,119.902439 46.3353659,110.697561 46.3353659,101.496341 L55.5365854,101.496341 C55.5365854,106.09878 59.6634146,110.70122 64.7414634,110.70122 C69.8195122,110.70122 73.9463415,106.57439 73.9463415,101.496341 C73.9463415,96.4182927 69.8195122,92.2914634 64.7414634,92.2914634 L55.5365854,92.2914634 C35.2390244,92.2914634 18.7207317,75.7768293 18.7207317,55.4756098 C18.7207317,35.1743902 35.2390244,18.6634146 55.5365854,18.6634146 C75.8341463,18.6634146 92.352439,37.0695122 92.352439,55.4792683 L83.147561,55.4792683 C83.147561,41.6756098 70.7634146,27.8682927 55.5365854,27.8682927 C40.3097561,27.8682927 27.9256098,40.2560976 27.9256098,55.4792683 C27.9256098,70.7060976 40.3097561,83.0902439 55.5365854,83.0902439 L64.7414634,83.0902439 C74.8902439,83.0902439 83.147561,91.347561 83.147561,101.496341 C83.147561,111.64878 74.8902439,119.902439 64.7414634,119.902439 Z" id="Shape"></path>
                </g>
                <rect id="Rectangle-path" x="60.5682927" y="97.3804878" width="9.20487805" height="9.20487805"></rect>
                <rect id="Rectangle-path" x="37.5597561" y="83.5768293" width="9.20487805" height="9.20487805"></rect>
                <rect id="Rectangle-path" x="14.547561" y="69.7695122" width="9.20487805" height="9.20487805"></rect>
                <rect id="Rectangle-path" x="97.3804878" y="60.5682927" width="9.20487805" height="9.20487805"></rect>
                <rect id="Rectangle-path" x="83.5768293" y="37.5597561" width="9.20487805" height="9.20487805"></rect>
                <rect id="Rectangle-path" x="69.7695122" y="14.547561" width="9.20487805" height="9.20487805"></rect>
                <rect id="Rectangle-path" x="143.397561" y="23.752439" width="9.20487805" height="9.20487805"></rect>
                <rect id="Rectangle-path" x="143.397561" y="46.7609756" width="9.20487805" height="9.20487805"></rect>
                <rect id="Rectangle-path" x="143.397561" y="0.743902439" width="9.20487805" height="9.20487805"></rect>
                <rect id="Rectangle-path" x="226.230488" y="97.3804878" width="9.20487805" height="9.20487805"></rect>
                <rect id="Rectangle-path" x="249.239024" y="83.5768293" width="9.20487805" height="9.20487805"></rect>
                <rect id="Rectangle-path" x="272.247561" y="69.7695122" width="9.20487805" height="9.20487805"></rect>
                <rect id="Rectangle-path" x="189.414634" y="60.5682927" width="9.20487805" height="9.20487805"></rect>
                <rect id="Rectangle-path" x="203.221951" y="37.5597561" width="9.20487805" height="9.20487805"></rect>
                <rect id="Rectangle-path" x="217.02561" y="14.547561" width="9.20487805" height="9.20487805"></rect>
                <rect id="Rectangle-path" x="23.752439" y="143.397561" width="9.20487805" height="9.20487805"></rect>
                <rect id="Rectangle-path" x="46.7609756" y="143.397561" width="9.20487805" height="9.20487805"></rect>
                <rect id="Rectangle-path" x="0.743902439" y="143.397561" width="9.20487805" height="9.20487805"></rect>
                <rect id="Rectangle-path" x="60.5682927" y="189.414634" width="9.20487805" height="9.20487805"></rect>
                <rect id="Rectangle-path" x="37.5597561" y="203.221951" width="9.20487805" height="9.20487805"></rect>
                <rect id="Rectangle-path" x="14.547561" y="217.02561" width="9.20487805" height="9.20487805"></rect>
                <rect id="Rectangle-path" x="97.3804878" y="226.230488" width="9.20487805" height="9.20487805"></rect>
                <rect id="Rectangle-path" x="83.5768293" y="249.239024" width="9.20487805" height="9.20487805"></rect>
                <rect id="Rectangle-path" x="69.7695122" y="272.247561" width="9.20487805" height="9.20487805"></rect>
                <rect id="Rectangle-path" x="143.397561" y="263.042683" width="9.20487805" height="9.20487805"></rect>
                <rect id="Rectangle-path" x="143.397561" y="240.034146" width="9.20487805" height="9.20487805"></rect>
                <rect id="Rectangle-path" x="143.397561" y="286.05122" width="9.20487805" height="9.20487805"></rect>
                <rect id="Rectangle-path" x="263.042683" y="143.397561" width="9.20487805" height="9.20487805"></rect>
                <rect id="Rectangle-path" x="240.034146" y="143.397561" width="9.20487805" height="9.20487805"></rect>
                <rect id="Rectangle-path" x="286.05122" y="143.397561" width="9.20487805" height="9.20487805"></rect>
                <rect id="Rectangle-path" x="226.230488" y="189.414634" width="9.20487805" height="9.20487805"></rect>
                <rect id="Rectangle-path" x="249.239024" y="203.221951" width="9.20487805" height="9.20487805"></rect>
                <rect id="Rectangle-path" x="272.247561" y="217.02561" width="9.20487805" height="9.20487805"></rect>
                <rect id="Rectangle-path" x="189.414634" y="226.230488" width="9.20487805" height="9.20487805"></rect>
                <rect id="Rectangle-path" x="203.221951" y="249.239024" width="9.20487805" height="9.20487805"></rect>
                <rect id="Rectangle-path" x="217.02561" y="272.247561" width="9.20487805" height="9.20487805"></rect>
            </g>
        </g>
    </g>
</svg>
