<?xml version="1.0" encoding="UTF-8"?>
<svg viewBox="0 0 300 300" version="1.1" xmlns="http://www.w3.org/2000/svg" xmlns:xlink="http://www.w3.org/1999/xlink">
    <!-- Generator: Sketch 48.2 (47327) - http://www.bohemiancoding.com/sketch -->
    <title>Pre Surgery Education</title>
    <desc>Created with Sketch.</desc>
    <defs></defs>
    <g id="10-Partner-Page-Icons" stroke="none" stroke-width="1" fill="none" fill-rule="evenodd">
        <g id="Pre-Surgery-Education" fill="#FFFFFF" fill-rule="nonzero">
            <g id="resume">
                <path d="M242.582227,87.1582031 C245.817773,87.1582031 248.441602,84.5349609 248.441602,81.2988281 L248.441602,17.578125 C248.441602,7.88554687 240.556055,0 230.863477,0 L17.5822266,0 C7.88964844,0 0.0041015625,7.88554688 0.0041015625,17.578125 L0.0041015625,282.421875 C0.0041015625,292.114453 7.88964844,300 17.5822266,300 L230.863477,300 C240.556055,300 248.441602,292.114453 248.441602,282.421875 L248.441602,239.254687 C248.441602,236.018555 245.817773,233.395312 242.582227,233.395312 C239.34668,233.395312 236.722852,236.018555 236.722852,239.254687 L236.722852,282.421875 C236.722852,285.652734 234.094336,288.28125 230.863477,288.28125 L17.5822266,288.28125 C14.3513672,288.28125 11.7228516,285.652734 11.7228516,282.421875 L11.7228516,17.578125 C11.7228516,14.3472656 14.3513672,11.71875 17.5822266,11.71875 L230.863477,11.71875 C234.094336,11.71875 236.722852,14.3472656 236.722852,17.578125 L236.722852,81.2988281 C236.722852,84.5349609 239.34668,87.1582031 242.582227,87.1582031 Z" id="Shape"></path>
                <path d="M124.222852,31.640625 C94.4988281,31.640625 70.3166016,55.8228516 70.3166016,85.546875 C70.3166016,100.966992 76.8263672,114.893555 87.2396484,124.72793 C87.4347656,124.936523 87.6421875,125.133984 87.8689453,125.313867 C97.4613281,134.090625 110.227148,139.452539 124.222266,139.452539 C138.217383,139.452539 150.983203,134.090039 160.575586,125.313867 C160.802344,125.133984 161.009766,124.935938 161.204883,124.72793 C171.619336,114.893555 178.129102,100.966992 178.129102,85.546875 C178.129102,55.8228516 153.946875,31.640625 124.222852,31.640625 Z M124.222852,127.734375 C114.655078,127.734375 105.825,124.528125 98.7398438,119.139844 C103.889648,110.008008 113.499609,104.296875 124.222852,104.296875 C134.946094,104.296875 144.556055,110.008008 149.705859,119.139844 C142.620117,124.528125 133.790625,127.734375 124.222852,127.734375 Z M114.847852,83.203125 L114.847852,79.3945313 C114.847852,74.2253906 119.053711,70.0195313 124.222852,70.0195313 C129.391992,70.0195313 133.597852,74.2253906 133.597852,79.3945313 L133.597852,83.203125 C133.597852,88.3722656 129.391992,92.578125 124.222852,92.578125 C119.053711,92.578125 114.847852,88.3722656 114.847852,83.203125 Z M158.17207,110.556445 C153.850781,104.147461 147.861914,99.1628906 140.908594,96.0855469 C143.668359,92.5189453 145.316602,88.0511719 145.316602,83.203125 L145.316602,79.3945313 C145.316602,67.7630859 135.854297,58.3007813 124.222852,58.3007813 C112.591406,58.3007813 103.129102,67.7630859 103.129102,79.3945313 L103.129102,83.203125 C103.129102,88.0511719 104.777344,92.5189453 107.537109,96.0855469 C100.583789,99.1628906 94.5949219,104.147461 90.2736328,110.556445 C85.1003906,103.552734 82.0353516,94.9025391 82.0353516,85.546875 C82.0353516,62.2845703 100.960547,43.359375 124.222852,43.359375 C147.485156,43.359375 166.410352,62.2845703 166.410352,85.546875 C166.410352,94.9025391 163.345313,103.552734 158.17207,110.556445 Z" id="Shape"></path>
                <path d="M155.863477,256.640625 L124.222852,256.640625 C120.987305,256.640625 118.363477,259.263867 118.363477,262.5 C118.363477,265.736133 120.987305,268.359375 124.222852,268.359375 L155.863477,268.359375 C159.099023,268.359375 161.722852,265.736133 161.722852,262.5 C161.722852,259.263867 159.099023,256.640625 155.863477,256.640625 Z" id="Shape"></path>
                <path d="M155.863477,223.828125 L72.6603516,223.828125 C69.4248047,223.828125 66.8009766,226.451367 66.8009766,229.6875 C66.8009766,232.923633 69.4248047,235.546875 72.6603516,235.546875 L155.863477,235.546875 C159.099023,235.546875 161.722852,232.923633 161.722852,229.6875 C161.722852,226.451367 159.099023,223.828125 155.863477,223.828125 Z" id="Shape"></path>
                <path d="M155.863477,191.015625 L72.6603516,191.015625 C69.4248047,191.015625 66.8009766,193.638867 66.8009766,196.875 C66.8009766,200.111133 69.4248047,202.734375 72.6603516,202.734375 L155.863477,202.734375 C159.099023,202.734375 161.722852,200.111133 161.722852,196.875 C161.722852,193.638867 159.099023,191.015625 155.863477,191.015625 Z" id="Shape"></path>
                <path d="M51.7769531,159.919922 C50.6876953,158.830078 49.1759766,158.203125 47.6291016,158.203125 C46.0875,158.203125 44.5757813,158.830078 43.4865234,159.919922 C42.3966797,161.009766 41.7697266,162.521484 41.7697266,164.0625 C41.7697266,165.603516 42.3960938,167.115234 43.4865234,168.205078 C44.5822266,169.294922 46.0875,169.921875 47.6291016,169.921875 C49.1759766,169.921875 50.6818359,169.294922 51.7769531,168.205078 C52.8667969,167.115234 53.4943359,165.603516 53.4943359,164.0625 C53.4943359,162.521484 52.8673828,161.009766 51.7769531,159.919922 Z" id="Shape"></path>
                <path d="M51.7769531,192.732422 C50.6818359,191.642578 49.1759766,191.015625 47.6291016,191.015625 C46.0875,191.015625 44.5822266,191.642578 43.4865234,192.732422 C42.3966797,193.822266 41.7697266,195.333984 41.7697266,196.875 C41.7697266,198.416016 42.3960938,199.927734 43.4865234,201.017578 C44.5822266,202.107422 46.0875,202.734375 47.6291016,202.734375 C49.1759766,202.734375 50.6818359,202.107422 51.7769531,201.017578 C52.8667969,199.927734 53.4943359,198.416016 53.4943359,196.875 C53.4943359,195.333984 52.8673828,193.822266 51.7769531,192.732422 Z" id="Shape"></path>
                <path d="M51.7769531,225.544922 C50.6818359,224.455078 49.1759766,223.828125 47.6291016,223.828125 C46.0875,223.828125 44.5822266,224.455078 43.4865234,225.544922 C42.3966797,226.634766 41.7697266,228.146484 41.7697266,229.6875 C41.7697266,231.228516 42.3960938,232.740234 43.4865234,233.830078 C44.5757813,234.919922 46.0875,235.546875 47.6291016,235.546875 C49.1759766,235.546875 50.6876953,234.919922 51.7769531,233.830078 C52.8667969,232.740234 53.4943359,231.228516 53.4943359,229.6875 C53.4943359,228.146484 52.8673828,226.634766 51.7769531,225.544922 Z" id="Shape"></path>
                <path d="M155.863477,158.203125 L72.6603516,158.203125 C69.4248047,158.203125 66.8009766,160.826367 66.8009766,164.0625 C66.8009766,167.298633 69.4248047,169.921875 72.6603516,169.921875 L155.863477,169.921875 C159.099023,169.921875 161.722852,167.298633 161.722852,164.0625 C161.722852,160.826367 159.099023,158.203125 155.863477,158.203125 Z" id="Shape"></path>
                <path d="M287.696484,76.359375 C282.004102,73.0728516 275.372461,72.1998047 269.02207,73.9007812 C262.672852,75.6023437 257.36543,79.6746094 254.079492,85.3669922 L180.343945,213.079687 C179.940234,213.779883 179.684766,214.55625 179.595117,215.35957 L174.404883,261.850195 C174.14707,264.163477 175.282617,266.410547 177.298242,267.574805 C178.208203,268.099805 179.218945,268.359961 180.227344,268.359961 C181.453125,268.359961 182.674219,267.976172 183.702539,267.218555 L221.368945,239.47793 C222.019922,238.998633 222.564844,238.389844 222.968555,237.689648 L296.703516,109.976953 C303.488672,98.2253906 299.448047,83.1445312 287.696484,76.359375 Z M187.536914,249.840234 L190.247461,225.563672 L207.205664,235.354687 L187.536914,249.840234 Z M215.749805,226.755469 L193.422656,213.864844 L252.593555,111.378516 L274.920703,124.269141 L215.749805,226.755469 Z M286.555078,104.116992 L280.779492,114.120703 L258.452344,101.230078 L264.22793,91.2263672 C265.949414,88.2445312 268.729102,86.1117187 272.054883,85.2205078 C275.381836,84.3287109 278.855273,84.7869141 281.836523,86.5083984 C284.818359,88.2298828 286.951172,91.0095703 287.842383,94.3353516 C288.733594,97.6611328 288.276562,101.135156 286.555078,104.116992 Z" id="Shape"></path>
            </g>
        </g>
    </g>
</svg>
