<?xml version="1.0" encoding="UTF-8"?>
<svg viewBox="0 0 300 300" version="1.1" xmlns="http://www.w3.org/2000/svg" xmlns:xlink="http://www.w3.org/1999/xlink">
    <!-- Generator: Sketch 48.2 (47327) - http://www.bohemiancoding.com/sketch -->
    <title>Post Surgery Monitoring and Care Delivery</title>
    <desc>Created with Sketch.</desc>
    <defs></defs>
    <g id="10-Partner-Page-Icons" stroke="none" stroke-width="1" fill="none" fill-rule="evenodd">
        <g id="Post-Surgery-Monitoring-and-Care-Delivery" fill="#FFFFFF" fill-rule="nonzero">
            <g id="research">
                <path d="M231.250015,0 L18.7499854,0 C8.39472,0 0,8.4171125 0,18.8 L0,169.2 C0,179.582887 8.39472,188 18.7499854,188 L100.000117,188 L100.000117,175.466863 L18.7499854,175.466863 C15.2982302,175.466863 12.4997949,172.660963 12.4997949,169.2 L12.4997949,18.8 C12.4997949,15.3390375 15.2982302,12.5331375 18.7499854,12.5331375 L231.250015,12.5331375 C234.70177,12.5331375 237.500205,15.3390375 237.500205,18.8 L237.500205,131.6 L250,131.6 L250,18.8 C250,8.4171125 241.60528,0 231.250015,0 Z" id="Shape"></path>
                <rect id="Rectangle-path" x="75" y="181" width="12" height="38"></rect>
                <path d="M43.6001163,149.600116 C40.1759511,149.600116 37.3998837,146.824049 37.3998837,143.399884 L37.3998837,131 L25,131 L25,143.399884 C25,153.672379 33.3276208,162 43.6001163,162 L56,162 L56,149.600116 L43.6001163,149.600116 Z" id="Shape"></path>
                <rect id="Rectangle-path" x="25" y="106" width="12" height="12"></rect>
                <path d="M228.08774,131.921186 C215.334224,119.165337 198.035185,111.999413 179.997433,112 C142.442154,112.00176 111.998827,142.447402 112,180.00264 C112.00176,217.557879 142.447435,248.001173 180.002714,248 C198.034598,247.999413 215.327183,240.83701 228.078939,228.087615 C254.636833,201.534443 254.64094,158.479639 228.08774,131.921186 Z M179.965162,235.488824 C149.322927,235.478262 124.490654,210.629587 124.501215,179.987385 C124.511776,149.345183 149.360479,124.512936 180.002714,124.523498 C194.73063,124.483599 208.86124,130.344014 219.237847,140.795713 C229.633816,151.203407 235.471354,165.314051 235.46666,180.024937 C235.456099,210.667138 210.607396,235.499385 179.965162,235.488824 Z" id="Shape"></path>
                <path d="M298.174504,271.945993 L259.037114,232.826433 C257.868048,231.657516 256.282211,231 254.629152,231 C252.975509,231.000584 251.390256,231.657516 250.221191,232.826433 L232.825496,250.219917 C230.391501,252.654187 230.391501,256.600451 232.825496,259.035305 L271.962886,298.173567 C273.131952,299.343069 274.717789,300 276.370848,300 C278.026829,299.99474 279.613251,299.330795 280.778809,298.154865 L298.174504,280.76138 C300.608499,278.326526 300.608499,274.380262 298.174504,271.945993 Z M276.370263,284.950778 L246.04938,254.627319 L254.628568,246.049222 L284.949451,276.372681 L276.370263,284.950778 Z" id="Shape"></path>
                <rect id="Rectangle-path" transform="translate(235.000000, 235.500000) rotate(-45.000000) translate(-235.000000, -235.500000) " x="229" y="220" width="12" height="31"></rect>
                <path d="M181,138 L181,150.571344 C198.349316,150.59197 212.40803,164.651274 212.428656,182 L225,182 C224.972893,157.711194 205.289395,138.027697 181,138 Z" id="Shape"></path>
                <rect id="Rectangle-path" x="63" y="213" width="50" height="12"></rect>
                <path d="M93.5,25 C83.2827969,25 75,33.2827969 75,43.5 C75,53.7172031 83.2827969,62 93.5,62 C103.717203,62 112,53.7172031 112,43.5 C112,33.2827969 103.717203,25 93.5,25 Z M93.5,49.6662813 C90.0942656,49.6662813 87.3331406,46.9051563 87.3331406,43.4994219 C87.3331406,40.0936875 90.0942656,37.3325625 93.5,37.3325625 C96.9057344,37.3325625 99.6668594,40.0936875 99.6668594,43.4994219 C99.6668594,46.9057344 96.9057344,49.6662813 93.5,49.6662813 Z" id="Shape"></path>
                <path d="M137.5,69 C127.282797,69 119,77.2827969 119,87.5 C119,97.7172031 127.282797,106 137.5,106 C147.717203,106 156,97.7172031 156,87.5 C156,77.2827969 147.717203,69 137.5,69 Z M137.5,93.6668594 C134.094266,93.6668594 131.333141,90.9057344 131.333141,87.5 C131.333141,84.0942656 134.094266,81.3331406 137.5,81.3331406 C140.905734,81.3331406 143.666859,84.0942656 143.666859,87.5 C143.666281,90.9057344 140.905734,93.6668594 137.5,93.6668594 Z" id="Shape"></path>
                <rect id="Rectangle-path" transform="translate(72.000000, 65.000000) rotate(-45.000000) translate(-72.000000, -65.000000) " x="50" y="59" width="44" height="12"></rect>
                <rect id="Rectangle-path" transform="translate(115.000000, 65.000000) rotate(-45.000000) translate(-115.000000, -65.000000) " x="109" y="43" width="12" height="44"></rect>
                <path d="M182,25 C171.506656,25 163,33.2827969 163,43.5 C163,53.7172031 171.506656,62 182,62 C192.493344,62 201,53.7172031 201,43.5 C201.000594,33.2827969 192.493937,25 182,25 Z M182,49.6662813 C178.502219,49.6662813 175.666469,46.9051563 175.666469,43.4994219 C175.666469,40.0936875 178.502219,37.3325625 182,37.3325625 C185.497781,37.3325625 188.333531,40.0936875 188.333531,43.4994219 C188.333531,46.9057344 185.497781,49.6662813 182,49.6662813 Z" id="Shape"></path>
                <rect id="Rectangle-path" transform="translate(159.000000, 65.000000) rotate(-45.000000) translate(-159.000000, -65.000000) " x="137" y="59" width="44" height="12"></rect>
            </g>
        </g>
    </g>
</svg>
