<?xml version="1.0" encoding="UTF-8"?>
<svg viewBox="0 0 300 300" version="1.1" xmlns="http://www.w3.org/2000/svg" xmlns:xlink="http://www.w3.org/1999/xlink">
    <!-- Generator: Sketch 48.2 (47327) - http://www.bohemiancoding.com/sketch -->
    <title>5 Star Support</title>
    <desc>Created with Sketch.</desc>
    <defs></defs>
    <g id="10-Partner-Page-Icons" stroke="none" stroke-width="1" fill="none" fill-rule="evenodd">
        <g id="5-Star-Support" fill="#808080" fill-rule="nonzero">
            <g id="noun_Five-Stars_1011206" transform="translate(2.000000, 87.000000)">
                <path d="M294.792553,46.2819149 C294.355319,44.9414894 293.557447,43.7510638 292.465957,42.8223404 C291.37766,41.912766 290.069149,41.3287234 288.674468,41.1276596 L270.639362,38.5010638 L262.561702,22.1510638 C261.310638,19.6202128 258.709574,18.05 255.76383,18.05 C252.824468,18.05 250.220213,19.6170213 248.959574,22.1510638 L242.094681,36.062766 L247.079787,36.787234 L251.289362,37.4 C251.541489,37.4351064 251.784043,37.5085106 252.032979,37.5595745 L255.76383,30.0021277 L263.168085,44.9957447 C263.870213,46.406383 265.217021,47.3861702 266.771277,47.612766 L283.315957,50.0191489 L271.341489,61.687234 C270.211702,62.7882979 269.694681,64.3712766 269.959574,65.9255319 L272.790426,82.3968085 L257.988298,74.6159574 C257.289362,74.2521277 256.526596,74.0670213 255.76383,74.0670213 C254.997872,74.0670213 254.235106,74.2521277 253.53617,74.6159574 L244.561702,79.3329787 L245.417021,84.2989362 L246.269149,89.2648936 L255.770213,84.2702128 L271.919149,92.7595745 C272.442553,93.0340426 273.001064,93.2446809 273.648936,93.4138298 C274.242553,93.5574468 274.842553,93.6244681 275.445745,93.6244681 C276.246809,93.6244681 277.028723,93.5 277.781915,93.2574468 C278.52234,93.0180851 279.224468,92.6574468 279.897872,92.1787234 C281.040426,91.3489362 281.930851,90.2191489 282.473404,88.8978723 C283.003191,87.5829787 283.162766,86.1531915 282.923404,84.7617021 L279.840426,66.7968085 L292.906383,54.062766 C293.914894,53.0702128 294.629787,51.8191489 294.968085,50.4468085 C295.280851,49.0808511 295.232979,47.6542553 294.792553,46.2819149 Z" id="Shape"></path>
                <path d="M241.804255,91.6042553 L238.523404,72.4680851 L255.202128,56.2106383 C256.303191,55.1287234 257.07234,53.7659574 257.432979,52.2723404 C257.793617,50.7819149 257.73617,49.2276596 257.267021,47.7723404 C256.794681,46.3010638 255.917021,44.9957447 254.732979,43.9968085 C253.548936,42.9978723 252.115957,42.356383 250.593617,42.1393617 L249.824468,42.0276596 L244.842553,41.3031915 L227.58617,38.7914894 L217.284043,17.9351064 C215.92766,15.1968085 213.093617,13.4925532 209.882979,13.4925532 C206.67234,13.4925532 203.831915,15.1904255 202.47234,17.9382979 L195.189362,32.6989362 L200.174468,33.4234043 L205.156383,34.1478723 L209.88617,24.5606383 L218.959574,42.9340426 L220.121277,45.2861702 C220.47234,46.0042553 220.995745,46.6074468 221.634043,47.0574468 C222.243617,47.4946809 222.958511,47.7914894 223.724468,47.9031915 L246.597872,51.2287234 L231.170213,66.2670213 L230.040426,67.3617021 C228.910638,68.4659574 228.396809,70.0457447 228.661702,71.5968085 L232.245745,92.4978723 L232.568085,94.3744681 L212.104255,83.612766 C211.405319,83.2457447 210.642553,83.0606383 209.879787,83.0606383 C209.11383,83.0606383 208.351064,83.2457447 207.652128,83.612766 L194.611702,90.4744681 L195.460638,95.437234 L196.315957,100.4 L209.88617,93.2638298 L230.474468,104.092553 C231.07766,104.411702 231.725532,104.654255 232.319149,104.797872 C232.960638,104.960638 233.637234,105.040426 234.320213,105.040426 C235.17234,105.040426 236.011702,104.909574 236.838298,104.654255 C237.668085,104.38617 238.443617,103.993617 239.203191,103.451064 C240.444681,102.541489 241.402128,101.3 241.967021,99.8925532 C242.551064,98.4659574 242.720213,96.9021277 242.458511,95.3861702 L241.804255,91.6042553 Z" id="Shape"></path>
                <path d="M38.0180851,74.6223404 L23.212766,82.4031915 L26.043617,65.9287234 C26.3085106,64.3744681 25.7946809,62.7914894 24.6648936,61.6904255 L12.6904255,50.0223404 L29.2319149,47.6159574 C30.7893617,47.3893617 32.1361702,46.412766 32.8351064,44.9989362 L40.2457447,30.0021277 L44.0117021,37.6361702 C44.3755319,37.5531915 53.937234,36.1138298 53.937234,36.1138298 L47.043617,22.1414894 C45.7893617,19.6202128 43.1851064,18.0531915 40.2457447,18.0531915 C37.3,18.0531915 34.6957447,19.6234043 33.4478723,22.1510638 L25.3670213,38.5042553 L7.33510638,41.1276596 C5.93085106,41.3319149 4.60957447,41.9223404 3.5212766,42.8446809 C2.44893617,43.7542553 1.65106383,44.9446809 1.20744681,46.2914894 C0.767021277,47.6446809 0.722340426,49.0904255 1.05744681,50.443617 C1.39255319,51.812766 2.10425532,53.0606383 3.12553191,54.0691489 L16.1819149,66.793617 L13.0989362,84.7553191 C12.8531915,86.1659574 13.0159574,87.6148936 13.5521277,88.9042553 C14.0882979,90.2191489 14.9755319,91.3553191 16.1819149,92.2265957 C16.8425532,92.6893617 17.5478723,93.0404255 18.237234,93.2542553 C18.9968085,93.5031915 19.7819149,93.6276596 20.5734043,93.6276596 C21.1734043,93.6276596 21.7797872,93.5574468 22.4180851,93.4010638 C23.0148936,93.2478723 23.5893617,93.0276596 24.112766,92.7531915 L40.2489362,84.2702128 L50.1106383,89.4531915 L51.8148936,79.537234 L42.4765957,74.6255319 C41.0787234,73.8946809 39.412766,73.8946809 38.0180851,74.6223404 Z" id="Shape"></path>
                <path d="M84.2946809,83.6191489 L63.837234,94.3776596 L67.75,71.6 C68.0148936,70.0457447 67.5010638,68.4659574 66.3680851,67.3617021 L49.8170213,51.2287234 L72.6904255,47.9031915 C73.3351064,47.8106383 73.9255319,47.5617021 74.4648936,47.2329787 C75.2340426,46.7670213 75.8851064,46.112766 76.293617,45.2861702 L86.5223404,24.5606383 L91.2553191,34.1478723 L101.215957,32.6989362 L93.9265957,17.9255319 C92.5638298,15.193617 89.7297872,13.4925532 86.5191489,13.4925532 C83.3085106,13.4925532 80.4680851,15.193617 79.1117021,17.9382979 L68.8223404,38.7882979 L46.2074468,42.0787234 L45.8053191,42.1393617 C44.2765957,42.362766 42.8468085,43.0042553 41.6787234,43.9904255 C40.4914894,44.9861702 39.6170213,46.2946809 39.1382979,47.7755319 C38.6723404,49.2308511 38.6148936,50.7851064 38.9787234,52.2946809 C39.3457447,53.7851064 40.1180851,55.1414894 41.2287234,56.2329787 L57.8851064,72.4648936 L53.95,95.3989362 C53.6946809,96.9212766 53.8670213,98.4723404 54.4382979,99.8734043 C55.0159574,101.306383 55.9829787,102.547872 57.2180851,103.444681 C57.9234043,103.961702 58.7053191,104.360638 59.5893617,104.654255 C60.406383,104.909574 61.2489362,105.040426 62.0946809,105.040426 C62.7489362,105.040426 63.406383,104.96383 64.0861702,104.797872 C64.737234,104.635106 65.3595745,104.398936 65.9468085,104.08617 L86.5255319,93.2606383 L100.095745,100.4 L101.8,90.4776596 L88.756383,83.6159574 C87.3553191,82.8787234 85.6861702,82.8787234 84.2946809,83.6191489 Z" id="Shape"></path>
                <path d="M120.208511,117.742553 C120.138298,117.602128 120.03617,117.480851 119.946809,117.35 C118.603191,115.307447 115.858511,114.515957 113.659574,115.671277 L119.806383,79.8723404 C120.071277,78.3212766 119.557447,76.7382979 118.42766,75.6340426 L92.4712766,50.0957447 L94.2553191,49.837234 L120.591489,46.0106383 L128.420213,44.8744681 C129.355319,44.7404255 130.194681,44.306383 130.884043,43.6968085 C131.343617,43.2914894 131.745745,42.8191489 132.020213,42.2542553 L147.923404,9.8893617 L148.290426,9.6787234 L164.375532,42.2542553 C164.656383,42.8159574 165.058511,43.2851064 165.508511,43.6904255 C166.197872,44.3031915 167.037234,44.737234 167.975532,44.8744681 L201.987234,49.9744681 L203.969149,50.2808511 L191.506383,62.4276596 L190.96383,62.9574468 C189.744681,64.1446809 189.384043,65.8074468 189.703191,67.3553191 C189.82766,67.9553191 190.070213,68.5106383 190.434043,69.037234 C190.590426,69.2606383 190.676596,69.5223404 190.880851,69.7265957 C190.925532,69.7744681 190.98617,69.787234 191.030851,69.8287234 C192.368085,71.0925532 194.241489,71.45 195.885106,70.8691489 C196.523404,70.6489362 197.132979,70.3106383 197.65,69.8095745 L210.655319,57.1297872 C211.951064,55.8659574 212.860638,54.2702128 213.294681,52.5212766 C213.731915,50.7691489 213.664894,48.9340426 213.103191,47.1946809 C212.538298,45.4776596 211.517021,43.9553191 210.138298,42.7968085 C209.225532,42.0244681 208.17234,41.456383 207.052128,41.0670213 C206.47766,40.8691489 205.896809,40.706383 205.287234,40.6170213 L171.837234,35.756383 L156.87234,5.44361702 C155.302128,2.24893617 151.973404,0.260638298 148.191489,0.260638298 C144.412766,0.260638298 141.084043,2.24255319 139.501064,5.43723404 L124.539362,35.756383 L120.578723,36.3308511 L94.2074468,40.1638298 L91.0829787,40.6170213 C90.4797872,40.7031915 89.8861702,40.8723404 89.3117021,41.0702128 C88.1946809,41.456383 87.1478723,42.0276596 86.2351064,42.7968085 C84.843617,43.9680851 83.8223404,45.493617 83.2574468,47.2170213 C82.7021277,48.9404255 82.6414894,50.7723404 83.0691489,52.5212766 C83.5,54.2734043 84.412766,55.8659574 85.7117021,57.1361702 L109.919149,80.737234 L104.196809,114.056383 C103.896809,115.837234 104.094681,117.656383 104.780851,119.347872 C105.470213,121.020213 106.596809,122.469149 108.058511,123.528723 C109.529787,124.594681 111.259574,125.220213 113.046809,125.344681 C113.279787,125.360638 113.512766,125.373404 113.752128,125.373404 C115.315957,125.373404 116.860638,124.993617 118.252128,124.259574 C120.569149,123.043617 121.382979,120.145745 120.211702,117.815957 C120.22766,117.796809 120.221277,117.768085 120.208511,117.742553 Z" id="Shape"></path>
                <path d="M186.032979,78.2510638 C185.92766,77.6414894 185.701064,77.0734043 185.397872,76.5755319 C185.206383,76.262766 184.989362,75.9787234 184.743617,75.7234043 C184.143617,75.1170213 183.384043,74.6734043 182.547872,74.456383 C182.030851,74.312766 181.485106,74.2712766 180.926596,74.3191489 C180.78617,74.3319149 180.645745,74.3191489 180.502128,74.3446809 C178.344681,74.7180851 176.803191,76.4765957 176.576596,78.5446809 C176.528723,78.9819149 176.515957,79.4191489 176.595745,79.8723404 L176.95,81.943617 L182.573404,115.78617 L150.926596,99.1425532 L150.431915,98.8808511 C149.551064,98.4148936 148.561702,98.2808511 147.601064,98.4053191 C147.039362,98.4723404 146.484043,98.6095745 145.970213,98.8808511 L129.897872,107.328723 C128.056383,108.298936 127.12766,110.293617 127.405319,112.240426 C127.478723,112.770213 127.625532,113.293617 127.890426,113.791489 C129.12234,116.130851 132.020213,117.040426 134.356383,115.798936 L148.201064,108.519149 L178.134043,124.265957 C178.83617,124.629787 179.573404,124.910638 180.304255,125.089362 C181.06383,125.284043 181.848936,125.376596 182.634043,125.376596 C183.632979,125.376596 184.631915,125.220213 185.621277,124.907447 C186.594681,124.585106 187.504255,124.125532 188.337234,123.525532 C189.795745,122.459574 190.931915,121.01383 191.608511,119.335106 C192.281915,117.669149 192.476596,115.840426 192.176596,114.056383 L186.032979,78.2510638 Z" id="Shape"></path>
            </g>
        </g>
    </g>
</svg>
