<?xml version="1.0" encoding="UTF-8"?>
<svg viewBox="0 0 300 300" version="1.1" xmlns="http://www.w3.org/2000/svg" xmlns:xlink="http://www.w3.org/1999/xlink">
    <!-- Generator: Sketch 48.2 (47327) - http://www.bohemiancoding.com/sketch -->
    <title>Win</title>
    <desc>Created with Sketch.</desc>
    <defs></defs>
    <g id="10-Partner-Page-Icons" stroke="none" stroke-width="1" fill="none" fill-rule="evenodd">
        <g id="Win" fill="#808080" fill-rule="nonzero">
            <g id="noun_win-win-deal_1431075" transform="translate(0.000000, 30.000000)">
                <path d="M298.558181,82.9911648 C296.635756,81.0696333 293.522478,81.0696333 291.600052,82.9911648 L231.286428,143.276756 L200.645729,112.653577 C198.723304,110.732046 195.610025,110.732046 193.6876,112.653577 C191.765175,114.575109 191.765175,117.690219 193.6876,119.608472 L227.802443,153.704179 C227.805724,153.707458 227.805724,153.710737 227.809004,153.714016 C227.812285,153.717295 227.815565,153.717295 227.818846,153.720574 L232.405109,158.304706 C235.800518,161.701816 235.800518,167.227039 232.405109,170.62087 C229.01298,174.01798 223.478627,174.01798 220.079937,170.62087 L202.391002,152.940157 C200.468577,151.018626 197.355299,151.018626 195.432874,152.940157 C194.471661,153.897644 193.992695,155.160083 193.992695,156.419244 C193.992695,157.678404 194.471661,158.937565 195.432874,159.898331 L213.121808,177.579044 C216.517218,180.976154 216.517218,186.501377 213.121808,189.895208 C209.847781,193.167714 204.070664,193.167714 200.796636,189.895208 L183.107702,172.214495 C181.185277,170.292963 178.071998,170.292963 176.149573,172.214495 C175.18836,173.175261 174.709395,174.434421 174.709395,175.693582 C174.709395,176.952742 175.18836,178.211903 176.149573,179.172669 L193.838508,196.853381 C197.233917,200.250492 197.233917,205.775714 193.838508,209.172825 C190.567761,212.442051 184.790644,212.445331 181.513336,209.172825 L163.824401,191.492112 C161.901976,189.57058 158.788697,189.57058 156.866272,191.492112 C155.90506,192.452878 155.426094,193.712038 155.426094,194.971199 C155.426094,196.230359 155.90506,197.48952 156.866272,198.450286 L174.555207,216.130998 C177.950616,219.528109 177.950616,225.053331 174.555207,228.450442 C171.156517,231.847552 165.622164,231.844273 162.230035,228.450442 L143.527398,209.756498 L148.963334,204.323089 C156.197032,197.089474 156.197032,185.324193 148.963334,178.093857 C145.134887,174.267189 140.046694,172.526006 135.027393,172.745703 C135.247192,167.728735 133.501919,162.642907 129.680033,158.819519 C125.854867,154.99613 120.760112,153.254947 115.737531,153.474644 C115.750653,153.199203 115.816265,152.936878 115.816265,152.658157 C115.816265,147.693655 113.89056,143.034105 110.396733,139.541902 C106.571566,135.718513 101.476812,133.97733 96.4542303,134.197027 C96.4673527,133.921586 96.5329644,133.659261 96.5329644,133.38382 C96.5329644,128.416038 94.6072588,123.759767 91.1134318,120.267564 C87.6228854,116.775361 82.9611688,114.85055 77.9943574,114.85055 C73.027546,114.85055 68.3658294,116.772082 64.875283,120.267564 L59.4360668,125.704252 L8.39994751,74.6852958 C6.4775225,72.7637643 3.36424377,72.7637643 1.44181876,74.6852958 C-0.480606253,76.6035482 -0.480606253,79.7186589 1.44181876,81.6401904 L52.4746575,132.652588 L42.6886612,142.434036 C39.1948342,145.926239 37.2691286,150.58251 37.2691286,155.550292 C37.2691286,160.514795 39.1948342,165.171066 42.6886612,168.663269 C46.1824882,172.155472 50.8409243,174.077003 55.8077356,174.077003 C56.0833051,174.077003 56.3457522,174.008143 56.6213216,173.998306 C56.3982416,179.018553 58.1402342,184.110939 61.9686813,187.934327 C61.9686813,187.934327 61.9686813,187.934327 61.9686813,187.934327 C65.4625083,191.426531 70.124225,193.348062 75.0910363,193.348062 C75.3666058,193.348062 75.6290529,193.279202 75.9046223,193.269365 C75.6815423,198.289611 77.4235349,203.381998 81.251982,207.205386 C84.873752,210.818915 89.6240445,212.625679 94.374337,212.625679 C94.6466259,212.625679 94.9156342,212.560098 95.1879231,212.546982 C94.9681236,217.563949 96.7101162,222.653057 100.535283,226.476445 C104.153772,230.093253 108.904065,231.900017 113.657638,231.900017 C118.40793,231.900017 123.158223,230.093253 126.776712,226.476445 L136.562708,216.694997 L155.265345,235.388941 C158.755891,238.881144 163.417608,240.802676 168.384419,240.802676 C173.354511,240.802676 178.016228,238.881144 181.506774,235.388941 C185.315538,231.581948 187.119862,226.515794 186.916465,221.5185 C192.142443,221.73164 197.119096,219.787155 200.790075,216.117882 C204.598839,212.310889 206.403162,207.244735 206.199766,202.247442 C211.399499,202.444185 216.399116,200.516096 220.073376,196.846823 C223.882139,193.03983 225.686463,187.976955 225.483067,182.979662 C230.489245,183.215754 235.547913,181.379479 239.356677,177.572485 C246.590375,170.33887 246.590375,158.573589 239.356677,151.343253 L238.244557,150.23165 L298.558181,89.9460594 C300.480606,88.027807 300.480606,84.9126962 298.558181,82.9911648 Z M49.6467899,161.705095 C48.0097762,160.068842 47.1108948,157.881706 47.1108948,155.547013 C47.1108948,153.20904 48.0097762,151.021905 49.6467899,149.388931 L71.8301311,127.2159 C73.4671449,125.579647 75.652017,124.681184 77.9910768,124.681184 C80.3301366,124.681184 82.5150087,125.579647 84.1520225,127.2159 C85.7890363,128.848874 86.6879176,131.03601 86.6879176,133.373982 C86.6879176,135.708676 85.7890363,137.895812 84.1520225,139.532064 L61.9686813,161.705095 C58.6946537,164.974322 52.9208175,164.974322 49.6467899,161.705095 Z M68.9268101,180.979433 C65.5314007,177.582323 65.5314007,172.0571 68.9268101,168.65999 L91.1101512,146.490238 C94.50228,143.093128 100.036633,143.089849 103.435323,146.490238 C105.072337,148.126491 105.971218,150.313627 105.971218,152.64832 C105.971218,154.986293 105.072337,157.173429 103.435323,158.806402 L81.251982,180.979433 C77.9779544,184.24866 72.2008376,184.24866 68.9268101,180.979433 Z M88.2101108,200.253771 C84.8147014,196.85994 84.8147014,191.331438 88.2101108,187.937607 L110.393452,165.767855 C113.785581,162.374024 119.319934,162.367466 122.718624,165.767855 C126.114033,169.164965 126.114033,174.690188 122.718624,178.087298 L100.535283,200.260329 C97.1365928,203.650881 91.6022395,203.647602 88.2101108,200.253771 Z M119.818583,219.528109 C116.423174,222.925219 110.888821,222.92194 107.493411,219.528109 C104.098002,216.130998 104.098002,210.605776 107.493411,207.208665 L129.676753,185.035635 C133.072162,181.641804 138.606515,181.638525 142.001925,185.035635 C145.397334,188.432745 145.397334,193.957968 142.001925,197.355078 L119.818583,219.528109 Z" id="Shape"></path>
                <path d="M105.569469,38.8958219 C106.515415,39.8346809 107.784367,40.32693 109.066503,40.32693 C109.785027,40.32693 110.506846,40.1737134 111.185818,39.8542405 C116.957079,37.1485009 131.749436,31.9391372 141.752735,34.3025844 C123.967628,51.4530616 97.21416,79.2504612 86.9307031,89.9886616 C85.2563454,91.7359826 85.1179143,94.4221626 86.5978092,96.3292201 C87.1779016,97.0724835 99.2840353,112.374582 115.964989,112.374582 C118.400718,112.374582 120.935326,112.048589 123.545742,111.302066 C135.635396,107.846543 152.197694,92.4140474 159.44885,85.2063483 C173.202974,96.8051694 200.200344,109.297211 224.926784,89.4638133 C227.049395,87.7621313 227.369105,84.6815 225.6519,82.5853668 C223.928102,80.4892336 220.816697,80.1697607 218.697382,81.8681828 C191.739564,103.50758 163.97423,76.1209311 162.810749,74.9506172 C161.868099,73.9987184 160.464012,73.4477907 159.224723,73.4771301 C157.876668,73.4901698 156.591235,74.0476173 155.668361,75.0223356 C149.541135,81.4802515 131.324255,98.9013026 120.806783,101.910215 C110.803485,104.769172 101.70658,97.7244689 97.2701917,93.421365 C126.014431,63.4789332 157.761308,31.5316463 162.30976,28.9367442 C166.591238,26.7623727 187.982147,25.0183116 201.805486,24.4771637 C203.04807,24.4282648 204.224735,23.9197161 205.104762,23.0493156 L218.700678,9.60211569 C220.632122,7.69505826 220.632122,4.59812738 218.700678,2.68781001 C216.769234,0.777492647 213.641349,0.777492647 211.709905,2.68781001 L199.475228,14.7854 C190.688146,15.1765913 164.910288,16.6174791 157.790972,20.2327384 C156.396773,20.9401426 153.522678,23.3264094 149.679566,26.8308312 C136.653854,20.2425182 117.896433,26.4917987 110.180544,29.618069 L81.6835033,1.43273802 C79.7520592,-0.477579341 76.6241744,-0.477579341 74.6927303,1.43273802 C72.7612861,3.33979546 72.7612861,6.43998627 74.6927303,8.3470437 L105.569469,38.8958219 Z" id="Shape"></path>
            </g>
        </g>
    </g>
</svg>
