<?xml version="1.0" encoding="UTF-8"?>
<svg viewBox="0 0 300 300" version="1.1" xmlns="http://www.w3.org/2000/svg" xmlns:xlink="http://www.w3.org/1999/xlink">
    <!-- Generator: Sketch 48.2 (47327) - http://www.bohemiancoding.com/sketch -->
    <title>Power Marketing</title>
    <desc>Created with Sketch.</desc>
    <defs></defs>
    <g id="10-Partner-Page-Icons" stroke="none" stroke-width="1" fill="none" fill-rule="evenodd">
        <g id="Power-Marketing" fill="#FFFFFF" fill-rule="nonzero">
            <g id="connection" transform="translate(1.000000, 0.000000)">
                <path d="M231.745432,160.049562 L199.411278,118.752554 C210.892742,106.942699 217.826204,91.4288329 218.978148,74.9716277 L269.046025,74.9716277 L269.046025,80.4692326 C257.456216,82.8588165 249.133571,93.0874853 249.120494,104.958563 C249.123608,118.759426 260.276923,129.945178 274.032389,129.942679 C287.787854,129.94018 298.936811,118.74943 298.93432,104.948568 C298.93183,93.0756154 290.603581,82.8438231 279.00879,80.4692326 L279.00879,69.9738051 C279.00879,67.2137575 276.778376,64.9759825 274.027407,64.9759825 L218.978148,64.9759825 C218.004288,51.1288901 212.920787,37.8909075 204.382698,26.9675414 L211.331726,19.9955788 L269.962599,19.9955788 C272.713568,27.8028025 281.25228,31.894145 289.0332,29.1334728 C296.814742,26.3734252 300.892626,17.8065325 298.141035,9.99993357 C295.389444,2.19333463 286.851977,-1.89863264 279.071057,0.861414903 C274.815088,2.37075734 271.467599,5.72991887 269.963222,9.99930885 L209.270056,9.99930885 C207.948745,9.99930885 206.682228,10.5265791 205.748219,11.4636709 L197.703286,19.5351544 C170.020498,-7.21319228 125.966396,-6.38167954 99.3054134,21.3924702 C87.9740134,33.1973273 81.1426698,48.6256057 80.00816,64.9753577 L38.1645463,64.9753577 L21.879784,28.2269927 C29.1594519,24.3830424 31.9552529,15.3469791 28.1245697,8.04328602 C24.2938865,0.739592977 15.2869241,-2.06481024 8.00725616,1.77851535 C0.728210867,5.62184095 -2.06759011,14.6579043 1.7630931,21.9615973 C3.77619433,25.7999251 7.35282702,28.5718425 11.5633406,29.5557888 L30.3680599,72.0072942 C31.1688171,73.8108834 32.9533974,74.9722524 34.9210436,74.971003 L80.0075373,74.971003 C81.1545006,91.2389156 87.9540878,106.587229 99.2207299,118.342108 L57.1678982,160.533726 C29.9763987,156.446132 4.63050144,175.247941 0.556353168,202.52918 C-3.51779511,229.81042 15.2221662,255.239966 42.4136656,259.32756 C43.2343484,259.451256 44.0581446,259.553712 44.8838087,259.635551 L44.8838087,284.879553 C44.8838087,287.639601 47.1142228,289.877376 49.8651913,289.877376 L95.6142089,289.877376 C98.3651774,297.6846 106.90389,301.775942 114.684809,299.01527 C122.465729,296.254598 126.544236,287.68833 123.792645,279.881731 C121.041054,272.075132 112.502964,267.983164 104.722044,270.743837 C100.466076,272.253179 97.1185864,275.612341 95.6142089,279.881731 L54.8465739,279.881731 L54.8465739,259.635551 C82.2055723,256.899243 102.174067,232.428654 99.4467601,204.978738 C97.6011579,186.40433 85.5860631,170.411923 68.2963068,163.517426 L106.652953,125.034192 C131.632096,144.766845 166.791939,144.908659 191.929241,125.379042 L219.565952,160.673665 C181.405448,166.014464 154.785562,201.380931 160.108792,239.666751 C165.432022,277.953196 200.682153,304.660935 238.842034,299.320137 C277.002538,293.979339 303.622424,258.612872 298.299194,220.327051 C293.624166,186.697952 265.565906,161.285899 231.745432,160.049562 Z M288.971555,104.958563 C288.971555,113.239331 282.280936,119.952031 274.027407,119.952031 C265.773879,119.952031 259.08326,113.239331 259.08326,104.958563 C259.08326,96.6777961 265.773879,89.9650956 274.027407,89.9650956 C282.280936,89.9650956 288.971555,96.6777961 288.971555,104.958563 Z M283.990172,9.99993357 C286.741141,9.99993357 288.971555,12.2377087 288.971555,14.9977562 C288.971555,17.7578037 286.741141,19.9955788 283.990172,19.9955788 C281.239204,19.9955788 279.00879,17.7578037 279.00879,14.9977562 C279.00879,12.2377087 281.239204,9.99993357 283.990172,9.99993357 Z M14.9955132,19.9955788 C12.2445447,19.9955788 10.0141307,17.7578037 10.0141307,14.9977562 C10.0141307,12.2377087 12.2445447,9.99993357 14.9955132,9.99993357 C17.7464818,9.99993357 19.9768958,12.2377087 19.9768958,14.9977562 C19.9768958,17.7578037 17.7464818,19.9955788 14.9955132,19.9955788 Z M109.641782,279.882355 C112.392751,279.882355 114.623165,282.12013 114.623165,284.880178 C114.623165,287.640226 112.392751,289.878001 109.641782,289.878001 C106.890814,289.878001 104.6604,287.640226 104.6604,284.880178 C104.6604,282.12013 106.890814,279.882355 109.641782,279.882355 Z M69.7907216,244.487776 C57.4798572,251.700883 42.2505254,251.700883 29.939661,244.487776 L29.939661,234.901952 C29.939661,223.861137 38.8606945,214.910661 49.8651913,214.910661 C60.8696881,214.910661 69.7907216,223.861137 69.7907216,234.901952 L69.7907216,244.487776 Z M39.9024261,194.919371 C39.9024261,189.398651 44.3626316,184.923725 49.8651913,184.923725 C55.367751,184.923725 59.8279565,189.398651 59.8279565,194.919371 C59.8279565,200.440091 55.367751,204.915016 49.8651913,204.915016 C44.3626316,204.915016 39.9024261,200.439466 39.9024261,194.919371 Z M79.7534868,183.379398 C86.1931691,190.705582 89.7374228,200.14397 89.7162519,209.912839 C89.7143839,219.624857 86.1707529,229.000148 79.7534868,236.271355 L79.7534868,234.901952 C79.74726,223.975462 73.8175468,213.916719 64.2763311,208.648389 C71.8748075,200.661869 71.580906,188.007382 63.6206566,180.383828 C55.6604073,172.760899 43.0475466,173.055146 35.4490701,181.041667 C28.0996628,188.766426 28.0996628,200.923005 35.4490701,208.647765 C25.9097225,213.917344 19.9824999,223.975462 19.9768958,234.901327 L19.9768958,236.27073 C5.41942791,219.709196 6.99977153,194.443328 23.5062054,179.837816 C40.0132619,165.232304 65.1960189,166.817864 79.7534868,183.379398 Z M184.362521,118.572632 C163.567117,133.719783 135.418569,133.719783 114.623165,118.572632 L114.623165,106.45791 C114.623165,97.3493785 121.983158,89.9650956 131.061727,89.9650956 L142.120397,89.9650956 L134.892411,108.097196 C134.152053,109.954512 134.587301,112.076712 135.998277,113.489847 L145.961043,123.485492 C147.906273,125.436517 151.059488,125.436517 153.004718,123.485492 L162.967483,113.489847 C164.378459,112.076088 164.813708,109.954512 164.07335,108.097196 L156.850345,89.9650956 L167.923958,89.9650956 C177.002528,89.9650956 184.362521,97.3493785 184.362521,106.45791 L184.362521,118.572632 Z M150.205803,37.4129907 C150.019001,37.7253546 149.867069,38.0564603 149.752497,38.4019348 C147.231918,45.9836317 133.623403,48.8573798 124.861151,49.6920161 C126.197407,32.9430631 134.053048,24.9927767 149.493466,24.9927767 C163.630629,24.9927767 171.411549,31.6998547 173.638227,45.693758 L157.04026,35.6981128 C154.68033,34.2787312 151.620516,35.0465217 150.205803,37.4129907 Z M156.362169,46.9538341 L174.165631,57.6741636 C172.168096,69.9088334 157.139265,79.9694503 149.492843,79.9694503 C138.382492,78.0709025 129.140159,70.341145 125.278342,59.7182731 C133.806469,59.0135801 149.203923,56.4197101 156.362169,46.9538341 Z M153.607465,108.751911 L149.492843,112.88511 L145.378221,108.751911 L149.492843,98.4214115 L153.607465,108.751911 Z M171.226615,80.1993502 C178.997572,74.0638982 183.779076,64.8841475 184.362521,54.9803372 C184.362521,21.934734 165.398397,14.9977562 149.492843,14.9977562 C133.587288,14.9977562 114.623165,21.934734 114.623165,54.9803372 C115.202251,64.88977 119.984378,74.075768 127.759071,80.2143436 C114.554671,81.8467575 104.641097,93.1093507 104.6604,106.45791 L104.6604,109.496586 C82.8238865,84.654909 85.1937792,46.7557953 109.954364,24.8472151 C134.714949,2.93863493 172.488773,5.31634905 194.325286,30.1580264 C214.250816,52.8262757 214.250816,86.8277124 194.325286,109.495962 L194.325286,106.457286 C194.352061,93.1037282 184.436619,81.831764 171.226615,80.1993502 Z M264.064642,278.502956 C243.269238,293.650107 215.12069,293.650107 194.325286,278.502956 L194.325286,266.388234 C194.325286,257.279703 201.685279,249.89542 210.763849,249.89542 L221.822518,249.89542 L214.594532,268.02752 C213.854174,269.884836 214.289422,272.006412 215.700399,273.420171 L225.663164,283.415816 C227.608394,285.366841 230.761609,285.366841 232.706839,283.415816 L242.669604,273.420171 C244.080581,272.006412 244.515829,269.884836 243.775471,268.02752 L236.552466,249.89542 L247.62608,249.89542 C256.704649,249.89542 264.064642,257.279703 264.064642,266.388234 L264.064642,278.502956 Z M236.064291,206.884158 L236.064291,206.87916 L253.867752,217.59949 C251.870218,229.839157 236.841386,239.899774 229.194964,239.899774 C218.084613,238.001226 208.84228,230.271469 204.980463,219.648597 C213.50859,218.943904 228.906044,216.349409 236.064291,206.884158 Z M204.562027,209.622965 C205.897038,192.875261 213.752678,184.923725 229.194964,184.923725 C243.332128,184.923725 251.113047,191.630803 253.339725,205.624707 L236.741759,195.629062 C234.382451,194.209055 231.322637,194.976846 229.907302,197.343939 C229.7205,197.656303 229.568568,197.987409 229.453996,198.332884 C226.933416,205.91458 213.324279,208.788329 204.562027,209.622965 Z M233.309586,268.682235 L229.194964,272.815434 L225.080342,268.682235 L229.194964,258.351735 L233.309586,268.682235 Z M274.027407,269.441279 L274.027407,266.38761 C274.054182,253.033427 264.13874,241.762088 250.928736,240.129049 C258.699693,233.993597 263.481198,224.813847 264.064642,214.910036 C264.064642,181.864433 245.100519,174.927455 229.194964,174.927455 C213.28941,174.927455 194.325286,181.864433 194.325286,214.910036 C194.904372,224.819469 199.686499,234.005467 207.461192,240.144043 C194.256792,241.776457 184.343218,253.03905 184.362521,266.38761 L184.362521,269.426286 C162.577067,244.565242 165.004246,206.691742 189.783511,184.834389 C214.562775,162.977037 252.311693,165.412226 274.097147,190.27327 C283.696271,201.227248 288.984631,215.317359 288.971555,229.90288 C288.968442,244.471533 283.653306,258.534781 274.027407,269.441279 Z" id="Shape"></path>
            </g>
        </g>
    </g>
</svg>
