<?xml version="1.0" encoding="UTF-8"?>
<svg viewBox="0 0 300 300" version="1.1" xmlns="http://www.w3.org/2000/svg" xmlns:xlink="http://www.w3.org/1999/xlink">
    <!-- Generator: Sketch 48.2 (47327) - http://www.bohemiancoding.com/sketch -->
    <title>Smart Patient Intake</title>
    <desc>Created with Sketch.</desc>
    <defs></defs>
    <g id="10-Partner-Page-Icons" stroke="none" stroke-width="1" fill="none" fill-rule="evenodd">
        <g id="Smart-Patient-Intake" fill="#FFFFFF" fill-rule="nonzero">
            <g id="woman" transform="translate(0.000000, 16.000000)">
                <path d="M229.5,0 C206.617034,0 188,18.9287764 188,42.1949187 C188,58.7944889 197.479722,73.1797227 211.221321,80.0642529 L211.221321,94.1378656 C211.221321,99.1779991 215.254345,103.277967 220.211472,103.277967 L225.154693,103.277967 L225.154693,103.581931 C225.154693,106.021883 227.099652,108 229.5,108 C231.900348,108 233.845307,106.021883 233.845307,103.581931 L233.845307,103.277967 L238.788528,103.277967 C243.745655,103.277967 247.7781,99.1779991 247.7781,94.1378656 L247.7781,80.064842 C261.519699,73.1803118 271,58.7944889 271,42.1949187 C271,18.9287764 252.382966,0 229.5,0 Z M239.086906,94.1378656 C239.086906,94.3057522 238.953071,94.4418288 238.787949,94.4418288 L220.210892,94.4418288 C220.045771,94.4418288 219.911356,94.3057522 219.911356,94.1378656 L219.911356,83.2405502 C222.991309,83.983964 226.198725,84.3898373 229.499421,84.3898373 C232.799537,84.3898373 236.006952,83.9845531 239.086906,83.2405502 L239.086906,94.1378656 Z M222.345886,51.3356096 L236.652375,51.3356096 L230.577636,75.5260121 C230.219003,75.5377936 229.86095,75.5536986 229.499421,75.5536986 C229.137312,75.5536986 228.779838,75.5377936 228.420626,75.5260121 L222.345886,51.3356096 Z M239.980881,73.7976633 L247.642526,43.2876545 C248.236385,40.9231038 246.83314,38.5173177 244.507532,37.9135149 C242.183082,37.3120684 239.815759,38.736454 239.22248,41.1015938 L238.8708,42.5030054 C238.84299,42.5024163 238.816338,42.4988818 238.788528,42.4988818 L220.211472,42.4988818 C220.183662,42.4988818 220.156431,42.5024163 220.128621,42.5030054 L219.776941,41.1015938 C219.184241,38.7376321 216.816338,37.3120684 214.491889,37.9135149 C212.16628,38.5173177 210.762457,40.9231038 211.356895,43.2876545 L219.01854,73.7970743 C206.053882,69.3395368 196.691194,56.8617308 196.691194,42.1943296 C196.690614,23.8004342 211.408459,8.83613872 229.499421,8.83613872 C247.590962,8.83613872 262.308806,23.8010232 262.308806,42.1949187 C262.308806,56.8629089 252.946118,69.340715 239.980881,73.7976633 Z" id="Shape"></path>
                <path d="M155.140883,211.374777 L115.453066,193.901269 C113.637587,193.101559 112.46449,191.307046 112.46449,189.32857 L112.46449,174.221967 C122.508103,167.726451 130.150276,157.842274 133.747734,146.205767 C144.33029,134.247618 150.154634,118.903153 150.154634,102.929467 C150.154634,78.5462326 136.706924,57.2376331 116.818348,45.9784248 C117.051674,44.6238983 117.175684,43.2506241 117.175684,41.8761781 C117.175684,26.5053492 102.517851,14 84.5,14 C66.4821492,14 51.823728,26.5053492 51.823728,41.8761781 C51.823728,43.2517958 51.9553782,44.6203831 52.1887046,45.9743237 C32.2960146,57.2323603 18.8447783,78.5433033 18.8447783,102.929467 C18.8447783,118.923073 24.6650078,134.245861 35.2522657,146.207525 C38.8497235,157.843446 46.4918971,167.726451 56.5349226,174.221967 L56.5349226,189.32857 C56.5349226,191.307046 55.3618258,193.101559 53.5463467,193.901269 L13.858529,211.374777 C5.43938445,215.080977 0,223.403816 0,232.57792 L0,262.605991 C0,265.032656 1.97357677,267 4.40792906,267 C6.84228134,267 8.81585811,265.032656 8.81585811,262.605991 L8.81585811,232.57792 C8.81585811,226.882113 12.1935072,221.714759 17.4201356,219.41347 L42.6217354,208.317719 C50.518981,224.082251 66.6567032,234.125197 84.5,234.125197 C102.409122,234.125197 118.492773,224.104514 126.38473,208.320648 L151.579277,219.412884 C156.806493,221.714173 160.184142,226.881527 160.184142,232.577335 L160.184142,262.605405 C160.184142,265.03207 162.157131,266.999414 164.592071,266.999414 C167.027011,266.999414 169,265.03207 169,262.605405 L169,232.577335 C168.999412,223.403816 163.55944,215.080977 155.140883,211.374777 Z M84.4994123,22.7880177 C97.6556112,22.7880177 108.359238,31.3510622 108.359238,41.8761781 C108.359238,41.9025422 108.356887,41.9294921 108.356887,41.9558561 C100.958619,39.0692852 92.9115041,37.4821692 84.4994123,37.4821692 C76.0873205,37.4821692 68.0407929,39.0692852 60.6425248,41.9558561 C60.6425248,41.9289062 60.6395862,41.9025422 60.6395862,41.8761781 C60.6395862,31.3510622 71.3432134,22.7880177 84.4994123,22.7880177 Z M41.7948079,131.107367 L41.7948079,127.432218 C41.7948079,125.743746 42.7339906,124.19647 44.3067397,123.293647 C49.8178265,120.130547 57.0862076,114.270696 60.4139002,104.318559 C61.1838185,102.016099 59.935493,99.5279179 57.6257381,98.760431 C55.3153956,97.9929441 52.8193323,99.2373274 52.0500017,101.539788 C49.5986055,108.87251 44.0933959,113.275307 39.9076265,115.677951 C35.7947348,118.038413 33.1881794,122.299429 32.9971692,126.892633 C29.5125543,119.459728 27.6606364,111.303276 27.6606364,102.929467 C27.6606364,71.6874777 53.158449,46.2707728 84.4994123,46.2707728 C115.840376,46.2707728 141.3376,71.6880636 141.3376,102.929467 C141.3376,111.27574 139.488621,119.418131 136.019875,126.842835 L136.019875,122.868307 C136.019875,117.513475 133.73598,112.462122 129.753563,109.010189 C120.895976,101.331805 100.84754,87.9324214 66.0924883,84.467599 C63.6704782,84.2227062 61.5100052,85.987926 61.267863,88.4028733 C61.0257207,90.8178206 62.7930064,92.9708849 65.2156042,93.2122625 C97.5421805,96.4345356 115.902087,108.648123 123.968597,115.641627 C126.025043,117.423837 127.204017,120.058485 127.204017,122.868307 L127.204017,131.107367 C127.204017,154.580162 108.046569,173.67711 84.4988246,173.67711 C60.9516675,173.677696 41.7948079,154.580748 41.7948079,131.107367 Z M84.4994123,225.337766 C70.1571866,225.337766 57.1690767,217.346528 50.6917719,204.765016 L57.1079534,201.939961 C62.1153608,199.735341 65.350193,194.785343 65.350193,189.32857 L65.350193,178.784706 C71.2732742,181.156885 77.7352982,182.465128 84.4988246,182.465128 C91.2623509,182.465128 97.7243749,181.156885 103.647456,178.784706 L103.647456,189.32857 C103.647456,194.784757 106.882876,199.735341 111.889696,201.939961 L118.304702,204.76443 C111.833274,217.360003 98.8945331,225.337766 84.4994123,225.337766 Z" id="Shape"></path>
                <path d="M37.5,240 C35.0148,240 33,241.99779 33,244.462009 L33,263.537991 C33,266.00221 35.0148,268 37.5,268 C39.9852,268 42,266.00221 42,263.537991 L42,244.462009 C42,241.99779 39.9852,240 37.5,240 Z" id="Shape"></path>
                <path d="M131.5,240 C129.0148,240 127,241.99779 127,244.462009 L127,263.537991 C127,266.00221 129.0148,268 131.5,268 C133.9852,268 136,266.00221 136,263.537991 L136,244.462009 C136,241.99779 133.9852,240 131.5,240 Z" id="Shape"></path>
                <path d="M281.553714,14 C279.131433,14 277.168702,15.9761877 277.168702,18.4137605 C277.168702,20.8513333 279.131433,22.827521 281.553714,22.827521 C286.888813,22.827521 291.22939,27.195967 291.22939,32.5660423 L291.22939,108.046055 C291.22939,113.416131 286.888813,117.784576 281.553714,117.784576 L234.686117,117.784576 C233.759417,117.784576 232.856105,118.080004 232.107145,118.629076 L190.313299,149.224087 L196.759852,123.268821 C197.087266,121.950578 196.793178,120.553476 195.961779,119.481815 C195.130966,118.410742 193.855804,117.784576 192.505805,117.784576 L178.445116,117.784576 C173.110018,117.784576 168.770025,113.416131 168.770025,108.046055 L168.770025,32.5666308 C168.770025,27.1965555 173.110018,22.8281095 178.445116,22.8281095 C180.867397,22.8281095 182.830129,20.8519218 182.830129,18.414349 C182.830129,15.9767762 180.867397,14.0005885 178.445116,14.0005885 C168.274226,14.0005885 160,22.3290604 160,32.5666308 L160,108.046644 C160,118.284214 168.274226,126.612686 178.445116,126.612686 L186.889481,126.612686 L180.441759,152.570306 C179.747173,155.366276 180.832317,158.215211 183.206655,159.827117 C184.359621,160.609824 185.66694,161 186.971919,161 C188.35466,161 189.735646,160.562155 190.9272,159.689996 L236.112123,126.612098 L281.554299,126.612098 C291.725189,126.612098 300,118.283626 300,108.046055 L300,32.5666308 C299.999415,22.3290604 291.725189,14 281.553714,14 Z" id="Shape"></path>
            </g>
        </g>
    </g>
</svg>
