<?xml version="1.0" encoding="UTF-8"?>
<svg viewBox="0 0 300 300" version="1.1" xmlns="http://www.w3.org/2000/svg" xmlns:xlink="http://www.w3.org/1999/xlink">
    <!-- Generator: Sketch 48.2 (47327) - http://www.bohemiancoding.com/sketch -->
    <title>Your Contagious Referral Engine</title>
    <desc>Created with Sketch.</desc>
    <defs></defs>
    <g id="10-Partner-Page-Icons" stroke="none" stroke-width="1" fill="none" fill-rule="evenodd">
        <g id="Your-Contagious-Referral-Engine" fill="#FFFFFF" fill-rule="nonzero">
            <g id="megaphone" transform="translate(18.000000, 0.000000)">
                <path d="M243.308673,118.18931 L144.108355,18.7132892 C133.85335,8.42919677 117.164922,8.42861045 106.908747,18.7132892 C97.6892413,27.9578322 96.8952224,42.0571236 103.703437,52.1248631 L103.565449,52.8173096 C96.4134319,88.6797106 79.0017328,121.305026 53.2113223,147.166528 L7.71076794,192.79354 C-2.56937891,203.102845 -2.57113301,219.787231 7.71076794,230.096535 L32.5101166,254.964807 C42.7896788,265.273525 59.4289928,265.274111 69.7097243,254.964807 L75.9098538,248.747446 L119.309591,292.267802 C129.589738,302.577106 146.227883,302.577693 156.508614,292.267802 C166.764788,281.98371 166.764788,265.249486 156.508614,254.965394 L137.90881,236.313896 L144.10894,230.096535 C154.389087,219.788403 154.390256,203.104017 144.10894,192.794127 L139.895611,188.568502 C160.622544,174.01657 184.16187,163.885508 209.299758,158.843723 L209.999056,158.703592 C220.262247,165.652097 234.289718,164.535153 243.308673,155.491132 L243.309258,155.491132 C253.563678,145.207626 253.563678,128.473989 243.308673,118.18931 Z M57.31005,242.530671 C53.8837242,245.965933 48.3361168,245.96652 44.909791,242.530085 L20.1104423,217.661813 C16.6835318,214.224791 16.6835318,208.664111 20.1104423,205.227676 L63.5095948,161.70732 L100.709203,199.010315 C96.4631312,203.268187 61.6607821,238.167261 57.31005,242.530671 Z M144.108355,267.398943 C147.526495,270.826583 147.526495,276.404853 144.108355,279.833079 C140.690215,283.260719 135.126821,283.260719 131.708681,279.833079 L88.3089435,236.312724 L100.709203,223.878587 L144.108355,267.398943 Z M113.108877,211.444451 C115.744692,208.801311 119.690229,204.752755 125.917255,199.419568 L131.708681,205.227676 C135.135591,208.664111 135.135591,214.224791 131.708681,217.661813 L125.508551,223.879174 L113.108877,211.444451 Z M113.481329,186.950253 L75.5356476,148.899111 C95.8708329,125.352995 110.433302,97.5583885 118.224393,67.3627922 L194.791666,144.142865 C164.679758,151.955022 136.96277,166.557964 113.481329,186.950253 Z M230.907245,143.056409 C227.480334,146.492258 221.934481,146.492258 218.50757,143.056409 L119.308422,43.5815614 C115.881511,40.1445404 115.881511,34.5838601 119.308422,31.1474253 C122.735332,27.7109906 128.28177,27.7109906 131.708681,31.1474253 L230.907245,130.621687 C234.325385,134.049913 234.325385,139.627597 230.907245,143.056409 Z" id="Shape"></path>
                <path d="M69.426462,192.573538 C65.9956639,189.142154 60.431384,189.142154 57,192.573538 L44.573538,205 C41.142154,208.431384 41.142154,213.995078 44.573538,217.426462 C48.0043361,220.857846 53.5692019,220.857846 57,217.426462 L69.426462,205 C72.857846,201.568616 72.857846,196.004922 69.426462,192.573538 Z" id="Shape"></path>
                <path d="M185,0 C180.029475,0 176,3.91754468 176,8.75 L176,26.25 C176,31.0824553 180.029475,35 185,35 C189.970525,35 194,31.0824553 194,26.25 L194,8.75 C194,3.91754468 189.970525,0 185,0 Z" id="Shape"></path>
                <path d="M255.25,71 L237.75,71 C232.917545,71 229,75.0294745 229,80 C229,84.9705255 232.917545,89 237.75,89 L255.25,89 C260.082455,89 264,84.9705255 264,80 C264,75.0294745 260.081872,71 255.25,71 Z" id="Shape"></path>
                <path d="M243.437274,20.5627101 C240.020889,17.1457633 234.479986,17.1457633 231.063018,20.5627101 L213.562726,38.0628924 C210.145758,41.4798392 210.145758,47.0201243 213.562726,50.4370711 C216.979111,53.8540179 222.520014,53.8546014 225.936982,50.4370711 L243.437274,32.9368888 C246.854242,29.519942 246.854242,23.9802404 243.437274,20.5627101 Z" id="Shape"></path>
            </g>
        </g>
    </g>
</svg>
