<?xml version="1.0" encoding="UTF-8"?>
<svg viewBox="0 0 584 584" version="1.1" xmlns="http://www.w3.org/2000/svg" xmlns:xlink="http://www.w3.org/1999/xlink">
    <!-- Generator: Sketch 48.2 (47327) - http://www.bohemiancoding.com/sketch -->
    <title>Seamless Patient Care Interaction</title>
    <desc>Created with Sketch.</desc>
    <defs>
        <circle id="path-1" cx="292" cy="292" r="292"></circle>
    </defs>
    <g id="10-Partner-Page-Icons" stroke="none" stroke-width="1" fill="none" fill-rule="evenodd">
        <g id="Seamless-Patient-Care-Interaction">
            <g id="patient">
                <mask id="mask-2" fill="white">
                    <use xlink:href="#path-1"></use>
                </mask>
                <use id="Mask" fill="#FF6F34" fill-rule="nonzero" xlink:href="#path-1"></use>
                <g mask="url(#mask-2)">
                    <g transform="translate(68.000000, 185.000000)">
                        <path d="M251.713,364.999 L251.713,319.775 C240.834,314.688 231.333,306.886 223.298,296.395 C217.094,288.296 212.876,280.034 210.189,273.724 C210.804,276.72 211.127,279.821 211.127,282.995 L211.127,344.428 C223.216,354.009 236.836,360.899 251.713,364.999 Z" id="Shape" fill="#C5CCD3" fill-rule="nonzero"></path>
                        <path d="M6.114,398 C3.136,398 0.721,395.593 0.721,392.626 L0.721,282.996 C0.721,257.511 21.527,236.779 47.103,236.779 L165.755,236.779 C191.33,236.779 212.136,257.51 212.136,282.996 L212.136,392.626 C212.136,395.593 209.723,398 206.743,398 L6.114,398 Z" id="Shape" fill="#E6E9ED" fill-rule="nonzero"></path>
                        <path d="M170.642074,358 C169.322368,358 168.248474,356.926923 168.248474,355.610484 L168.248474,340.99491 L153.605951,340.99491 C152.284613,340.99491 151.212352,339.922649 151.212352,338.604577 L151.212352,326.236423 C151.212352,324.918351 152.284613,323.847723 153.605951,323.847723 L168.248474,323.847723 L168.248474,309.229699 C168.248474,307.913261 169.322368,306.841 170.642074,306.841 L183.033911,306.841 C184.353617,306.841 185.425877,307.913261 185.425877,309.229699 L185.425877,323.847723 L200.070034,323.847723 C201.390556,323.847723 202.462,324.918351 202.462,326.236423 L202.462,338.604577 C202.462,339.921833 201.389739,340.99491 200.070034,340.99491 L185.425877,340.99491 L185.425877,355.610484 C185.425877,356.926106 184.3528,358 183.033911,358 L170.642074,358 Z" id="Shape" fill="#FB8276" fill-rule="nonzero"></path>
                        <path d="M49.407,240.826 L51.581,236.779 L47.103,236.779 C21.527,236.779 0.721,257.51 0.721,282.996 L0.721,392.626 C0.721,395.593 3.135,398 6.114,398 L27.361,398 C24.383,398 21.968,395.593 21.968,392.626 L21.968,282.996 C21.968,264.233 33.252,248.06 49.407,240.826 Z" id="Shape" fill="#000000" fill-rule="nonzero" opacity="0.1"></path>
                        <g id="Group" stroke-width="1" fill="none" fill-rule="evenodd" transform="translate(37.000000, 222.000000)">
                            <path d="M119.998,4.7 C118.707,2.299 115.466,0.339 112.707,0.247 C105.422,4.345 97.441,7.322 88.99,8.959 L88.99,125.909 C89.939,125.794 90.862,125.236 91.582,124.234 L129.747,71.135 C131.375,68.866 130.676,65.961 128.19,64.679 L116.091,58.436 C113.605,57.154 113.647,55.14 116.184,53.96 L135.802,44.846 C138.34,43.668 139.334,40.693 138.014,38.233 L119.998,4.7 Z" id="Shape" fill="#FFFFFF" fill-rule="nonzero"></path>
                            <path d="M35.03,0.229 L26.352,0.229 C23.554,0.229 20.181,2.241 18.861,4.7 L0.843,38.233 C-0.479,40.693 0.516,43.669 3.053,44.846 L22.672,53.96 C25.21,55.14 25.252,57.153 22.766,58.436 L10.667,64.679 C8.18,65.961 7.48,68.867 9.111,71.135 L47.273,124.234 C47.995,125.236 48.919,125.794 49.866,125.909 L49.866,6.7 C44.672,5.047 39.711,2.864 35.03,0.229 Z" id="Shape" fill="#FFFFFF" fill-rule="nonzero"></path>
                        </g>
                        <rect id="Rectangle-path" fill="#046699" fill-rule="nonzero" x="86.211" y="235.7" width="40.44" height="162.3"></rect>
                        <g id="Group" stroke-width="1" fill="none" fill-rule="evenodd" transform="translate(4.000000, 112.000000)">
                            <path d="M106.884,120.422 C98.276,120.422 89.988,119.026 82.212,116.477 L82.212,142.686 L122.647,142.686 L122.647,118.841 C117.548,119.873 112.279,120.422 106.884,120.422 Z" id="Shape" fill="#FFB98A" fill-rule="nonzero"></path>
                            <path d="M26.894,39.734 L26.894,0.548 L14.22,0.548 C6.776,0.548 0.741,6.562 0.741,13.978 L0.741,43.078 C0.741,50.495 6.776,56.509 14.22,56.509 L28.644,56.509 C27.504,51.095 26.894,45.486 26.894,39.734 Z" id="Shape" fill="#FFB98A" fill-rule="nonzero"></path>
                            <path d="M199.547,0.549 L186.872,0.549 L186.872,39.735 C186.872,45.487 186.261,51.095 185.121,56.509 L199.546,56.509 C206.989,56.509 213.024,50.495 213.024,43.078 L213.024,13.978 C213.025,6.563 206.99,0.549 199.547,0.549 Z" id="Shape" fill="#FFB98A" fill-rule="nonzero"></path>
                        </g>
                        <path d="M184.047,0.196 L112.314,0.196 C100.503,0.196 90.13,6.516 84.337,15.977 L62.754,15.977 C44.609,15.977 29.893,30.816 29.893,49.12 L29.893,109.094 L30.893,109.094 L30.893,103.112 C30.893,82.428 38.717,67.001 54.148,57.261 C67.507,48.829 86.596,44.554 110.883,44.554 C135.169,44.554 154.257,48.829 167.616,57.261 C183.047,67 190.871,82.427 190.871,103.112 L190.871,109.094 L191.871001,109.094 L191.871,8.087 C191.873,3.73 188.37,0.196 184.047,0.196 Z" id="Shape" fill="#C6A07D" fill-rule="nonzero"></path>
                        <path d="M191.873,151.734 C191.873,196.849 155.612,233.422 110.885,233.422 C66.155,233.422 29.894,196.85 29.894,151.734 L29.894,103.111 C29.894,57.999 66.154,43.553 110.885,43.553 C155.612,43.553 191.873,57.998 191.873,103.111 L191.873,151.734 Z" id="Shape" fill="#FFD5B3" fill-rule="nonzero"></path>
                        <g id="Group" stroke-width="1" fill="none" fill-rule="evenodd" transform="translate(61.000000, 117.000000)"></g>
                        <path d="M404.143,247.681 L370.659,247.681 C362.124,251.177 353.055,253.019 343.772,253.019 C334.489,253.019 325.419,251.177 316.884,247.681 L293.789,247.681 C270.001,247.681 250.65,267.012 250.65,290.773 L250.65,392.99 C250.65,395.758 252.894,398.001 255.666,398.001 L442.266,398.001 C445.038,398.001 447.281,395.758 447.281,392.99 L447.281,290.772 C447.28,267.012 427.929,247.681 404.143,247.681 Z" id="Shape" fill="#A2DFF9" fill-rule="nonzero"></path>
                        <g id="Group" stroke-width="1" fill="none" fill-rule="evenodd" transform="translate(242.000000, 154.000000)">
                            <path d="M24.058,16.002 L24.058,0.197 L21.657,0.197 C10.171,0.197 0.859,9.502 0.859,20.976 C0.859,32.454 10.17,41.754 21.657,41.754 L28.183,41.754 C25.497,33.417 24.058,24.709 24.058,16.002 Z" id="Shape" fill="#FFB98A" fill-rule="nonzero"></path>
                            <path d="M181.878,0.197 L179.483,0.197 L179.483,16.002 C179.483,24.709 178.044,33.417 175.358,41.755 L181.878,41.755 C193.368,41.755 202.684,32.454 202.684,20.977 C202.685,9.502 193.368,0.197 181.878,0.197 Z" id="Shape" fill="#FFB98A" fill-rule="nonzero"></path>
                            <path d="M106.445,140.164 L130.108,93.681 L128.658,93.681 C120.123,97.177 111.054,99.019 101.771,99.019 C92.488,99.019 83.418,97.177 74.883,93.681 L73.435,93.681 L97.097,140.164 C99.669,145.214 103.875,145.214 106.445,140.164 Z" id="Shape" fill="#FFB98A" fill-rule="nonzero"></path>
                        </g>
                        <path d="M323.153,35.645 C329.757,33.787 336.662,32.793 343.771,32.793 C350.88,32.793 357.784,33.786 364.388,35.645 C371.117,29.149 375.39,19.547 375.39,8.842 C375.39,6.64 373.603,4.855 371.401,4.855 L316.141,4.855 C313.936,4.855 312.151,6.64 312.151,8.842 C312.151,19.548 316.423,29.15 323.153,35.645 Z" id="Shape" fill="#89C947" fill-rule="nonzero"></path>
                        <path d="M265.058,149.317 L265.058,170.002 C265.058,214.233 300.298,254.019 343.771,254.019 C387.242,254.019 422.483,214.234 422.483,170.002 L422.483,149.317 L265.058,149.317 Z" id="Shape" fill="#FFD5B3" fill-rule="nonzero"></path>
                        <g id="Group" stroke-width="1" fill="none" fill-rule="evenodd" transform="translate(296.000000, 165.000000)"></g>
                        <path d="M262.566,116.683 L424.975,116.683 C426.258,116.683 427.498,116.859 428.692,117.157 C423.754,68.809 387.622,31.282 343.771,31.282 C299.919,31.282 263.786,68.809 258.849,117.157 C260.043,116.858 261.284,116.683 262.566,116.683 Z" id="Shape" fill="#368C0E" fill-rule="nonzero"></path>
                        <path d="M440.437,135.411 C440.437,143.91 433.479,150.864 424.975,150.864 L262.566,150.864 C254.062,150.864 247.105,143.91 247.105,135.411 L247.105,131 C247.105,122.501 254.062,115.547 262.566,115.547 L424.975,115.547 C433.479,115.547 440.437,122.501 440.437,131 L440.437,135.411 Z" id="Shape" fill="#89C947" fill-rule="nonzero"></path>
                        <path d="M72.03,222.229 L63.352,222.229 C60.554,222.229 57.181,224.241 55.861,226.7 L37.843,260.233 C36.521,262.693 37.516,265.669 40.053,266.846 L59.672,275.96 C62.21,277.14 62.252,279.153 59.766,280.436 L47.667,286.679 C45.18,287.961 44.48,290.867 46.111,293.135 L84.273,346.234 C84.995,347.236 85.919,347.794 86.866,347.909 L86.866,228.7 C81.672,227.047 76.711,224.864 72.03,222.229 Z" id="Shape" fill="#FFFFFF" fill-rule="nonzero"></path>
                    </g>
                </g>
            </g>
            <g id="Group-2" transform="translate(62.000000, 44.000000)" fill-rule="nonzero">
                <path d="M230,6.60907127 C230,2.97414623 227.008564,0 223.351505,0 L6.64849494,0 C2.9927257,0 0,2.97414623 0,6.60907127 L0,90.9590916 C0,94.5940166 2.99143573,97.5668798 6.64849494,97.5668798 L84.4013146,97.5668798 C88.0583739,97.5668798 93.167937,99.6672583 95.7581927,102.23339 L111.739606,118.075401 C114.329862,120.641533 118.566116,120.641533 121.156372,118.075401 L137.137785,102.23339 C139.726751,99.6672583 144.837604,97.5668798 148.494663,97.5668798 L223.350215,97.5668798 C227.007274,97.5668798 229.99871,94.5940166 229.99871,90.9590916 L230,6.60907127 Z" id="Shape" fill="#00BAED"></path>
                <g id="Group" transform="translate(28.000000, 23.000000)" fill="#A2DFF9">
                    <path d="M29.162406,20.1093 L10.2786165,20.1093 C4.92204511,20.1093 0.579368421,15.829125 0.579368421,10.5468 C0.579368421,5.264475 4.92204511,0.9843 10.2786165,0.9843 L29.162406,0.9843 C34.5189774,0.9843 38.8616541,5.264475 38.8616541,10.5468 C38.8616541,15.829125 34.5189774,20.1093 29.162406,20.1093 Z" id="Shape"></path>
                    <path d="M161.343759,20.1093 L57.2074586,20.1093 C51.8508872,20.1093 47.5082105,15.829125 47.5082105,10.5468 C47.5082105,5.264475 51.8508872,0.9843 57.2074586,0.9843 L161.343759,0.9843 C166.700331,0.9843 171.043008,5.264475 171.043008,10.5468 C171.043008,15.829125 166.700331,20.1093 161.343759,20.1093 Z" id="Shape"></path>
                    <path d="M114.414917,50.075625 L10.2786165,50.075625 C4.92204511,50.075625 0.579368421,45.79545 0.579368421,40.513125 C0.579368421,35.2308 4.92204511,30.950625 10.2786165,30.950625 L114.414917,30.950625 C119.771489,30.950625 124.114165,35.2308 124.114165,40.513125 C124.114165,45.79545 119.771489,50.075625 114.414917,50.075625 Z" id="Shape"></path>
                </g>
            </g>
        </g>
    </g>
</svg>