<?xml version="1.0" encoding="UTF-8"?>
<svg viewBox="0 0 300 300" version="1.1" xmlns="http://www.w3.org/2000/svg" xmlns:xlink="http://www.w3.org/1999/xlink">
    <!-- Generator: Sketch 48.2 (47327) - http://www.bohemiancoding.com/sketch -->
    <title>Growing ROI</title>
    <desc>Created with Sketch.</desc>
    <defs></defs>
    <g id="10-Partner-Page-Icons" stroke="none" stroke-width="1" fill="none" fill-rule="evenodd">
        <g id="Growing-ROI" fill="#808080" fill-rule="nonzero">
            <g id="noun_Revenue-chart_1327060">
                <g id="Group">
                    <path d="M295.522388,258.636364 L287.014925,258.636364 L287.014925,61.8181818 C287.014925,59.0909091 285.223881,57.2727273 282.537313,57.2727273 L254.328358,57.2727273 C251.641791,57.2727273 249.850746,59.0909091 249.850746,61.8181818 L249.850746,258.636364 L234.626866,258.636364 L234.626866,98.1818182 C234.626866,95.4545455 232.835821,93.6363636 230.149254,93.6363636 L201.940299,93.6363636 C199.253731,93.6363636 197.462687,95.4545455 197.462687,98.1818182 L197.462687,258.636364 L182.686567,258.636364 L182.686567,134.090909 C182.686567,131.363636 180.895522,129.545455 178.208955,129.545455 L150,129.545455 C147.313433,129.545455 145.522388,131.363636 145.522388,134.090909 L145.522388,258.636364 L131.19403,258.636364 L131.19403,166.363636 C131.19403,163.636364 129.402985,161.818182 126.716418,161.818182 L101.19403,161.818182 C98.5074627,161.818182 96.7164179,163.636364 96.7164179,166.363636 L96.7164179,200 C80.5970149,186.363636 58.2089552,183.181818 38.5074627,191.818182 L38.5074627,17.2727273 L55.5223881,38.6363636 C56.8656716,40.4545455 60,40.9090909 61.7910448,39.0909091 C63.5820896,37.7272727 64.0298507,34.5454545 62.238806,32.7272727 L37.1641791,1.81818182 C37.1641791,1.81818182 37.1641791,1.81818182 37.1641791,1.81818182 C36.2686567,0.454545455 35.3731343,0 34.0298507,0 C32.6865672,0 31.3432836,0.454545455 30.4477612,1.36363636 C30.4477612,1.36363636 30.4477612,1.36363636 30.4477612,1.36363636 L5.37313433,32.7272727 C4.02985075,34.5454545 4.02985075,37.7272727 6.26865672,39.0909091 C8.05970149,40.9090909 10.7462687,40.4545455 12.5373134,38.6363636 L29.5522388,17.2727273 L29.5522388,196.818182 C14.7761194,206.818182 5.37313433,224.090909 5.37313433,243.636364 C5.37313433,274.545455 30,300 60.8955224,300 C82.8358209,300 102.089552,286.818182 111.044776,267.727273 L295.522388,267.727273 C298.208955,267.727273 300,265.909091 300,263.181818 C300,260.909091 298.208955,258.636364 295.522388,258.636364 Z M258.80597,66.3636364 L278.059701,66.3636364 L278.059701,258.636364 L258.80597,258.636364 L258.80597,66.3636364 Z M206.41791,102.727273 L225.671642,102.727273 L225.671642,258.636364 L206.41791,258.636364 L206.41791,102.727273 Z M154.477612,138.636364 L173.731343,138.636364 L173.731343,258.636364 L154.477612,258.636364 L154.477612,138.636364 Z M122.238806,170.909091 L122.238806,258.636364 L114.626866,258.636364 C115.970149,253.636364 116.865672,248.636364 116.865672,243.636364 C116.865672,230.909091 112.835821,219.090909 105.671642,209.545455 L105.671642,170.909091 L122.238806,170.909091 Z M60.8955224,290.909091 C34.9253731,290.909091 14.3283582,269.545455 14.3283582,243.181818 C14.3283582,216.818182 35.3731343,195.454545 60.8955224,195.454545 C86.8656716,195.454545 107.462687,216.818182 107.462687,243.181818 C107.462687,269.545455 86.4179104,290.909091 60.8955224,290.909091 Z" id="Shape"></path>
                    <path d="M89.5522388,125.909091 L240,27.2727273 L231.492537,53.1818182 C230.597015,55.4545455 231.940299,58.1818182 234.179104,59.0909091 C236.41791,60 239.104478,58.6363636 240,56.3636364 L252.089552,18.1818182 C252.537313,16.8181818 252.537313,15.4545455 251.641791,14.0909091 C250.746269,12.7272727 249.850746,12.2727273 248.507463,11.8181818 L209.104478,7.27272727 C206.865672,6.81818182 204.626866,8.63636364 204.179104,11.3636364 C203.731343,13.6363636 205.522388,15.9090909 208.208955,16.3636364 L235.074627,19.5454545 L84.6268657,118.181818 C82.3880597,119.545455 81.9402985,122.272727 83.2835821,124.545455 C85.0746269,126.363636 87.761194,127.272727 89.5522388,125.909091 Z" id="Shape"></path>
                    <path d="M64.9253731,237.272727 L64.4776119,219.545455 C69.4029851,220.454545 73.4328358,222.272727 77.4626866,225 L83.2835821,216.363636 C77.4626866,212.272727 70.7462687,210 64.0298507,209.090909 L64.0298507,204.545455 L58.2089552,204.545455 L58.2089552,209.090909 C52.3880597,209.545455 47.4626866,211.363636 43.880597,214.545455 C40.7462687,218.181818 38.9552239,222.727273 38.9552239,228.181818 C38.9552239,233.636364 40.7462687,237.727273 43.880597,240.454545 C47.0149254,243.181818 52.3880597,245.454545 59.1044776,247.272727 L59.1044776,265.454545 C53.7313433,264.545455 48.358209,261.818182 42.9850746,257.272727 L36.2686567,265.454545 C42.9850746,271.363636 50.5970149,275 59.1044776,275.909091 L59.1044776,282.727273 L64.9253731,282.727273 L64.9253731,275.909091 C71.1940299,275.454545 76.119403,273.636364 80.1492537,270.454545 C84.1791045,266.818182 85.9701493,262.727273 85.9701493,257.272727 C85.9701493,251.818182 84.1791045,247.727273 81.0447761,244.545455 C77.4626866,240.909091 72.0895522,238.636364 64.9253731,237.272727 Z M58.6567164,235.454545 C55.0746269,234.545455 52.8358209,233.181818 51.4925373,231.818182 C50.1492537,230.454545 49.7014925,229.090909 49.7014925,226.818182 C49.7014925,224.545455 50.5970149,223.181818 51.9402985,221.363636 C53.7313433,220 55.5223881,219.090909 58.6567164,219.090909 L58.6567164,235.454545 Z M71.641791,262.727273 C69.8507463,264.090909 67.6119403,265 64.4776119,265.454545 L64.4776119,248.636364 C68.0597015,249.545455 70.7462687,250.909091 72.0895522,252.272727 C73.4328358,253.636364 74.3283582,255.454545 74.3283582,257.272727 C74.3283582,259.545455 73.4328358,261.363636 71.641791,262.727273 Z" id="Shape"></path>
                </g>
            </g>
        </g>
    </g>
</svg>
