<?xml version="1.0" encoding="UTF-8"?>
<svg viewBox="0 0 300 300" version="1.1" xmlns="http://www.w3.org/2000/svg" xmlns:xlink="http://www.w3.org/1999/xlink">
    <!-- Generator: Sketch 48.2 (47327) - http://www.bohemiancoding.com/sketch -->
    <title>Sharing Best Practices</title>
    <desc>Created with Sketch.</desc>
    <defs></defs>
    <g id="10-Partner-Page-Icons" stroke="none" stroke-width="1" fill="none" fill-rule="evenodd">
        <g id="Sharing-Best-Practices" fill="#808080" fill-rule="nonzero">
            <g id="noun_Award_927007" transform="translate(20.000000, 0.000000)">
                <path d="M16.9155902,0 C7.78515543,0 0.611242391,7.17391304 0.611242391,16.3043478 L0.611242391,283.695652 C0.611242391,292.826087 7.78515543,300 16.9155902,300 L193.002547,300 L186.149627,293.478261 L16.9155902,293.478261 C11.372112,293.478261 7.13298152,289.23913 7.13298152,283.695652 L7.13298152,16.3043478 C7.13298152,10.7608696 11.372112,6.52173913 16.9155902,6.52173913 L202.785155,6.52173913 C208.328634,6.52173913 212.567764,10.7608696 212.567764,16.3043478 L212.567764,119.346551 C214.850373,120.324812 217.132982,121.301801 219.089503,122.932236 L219.089503,16.3043478 C219.089503,7.17391304 211.91559,0 202.785155,0 L16.9155902,0 Z M36.4808076,32.6086957 C34.5242859,32.6086957 33.219938,33.9130435 33.219938,35.8695652 C33.219938,37.826087 34.5242859,39.1304348 36.4808076,39.1304348 L183.219938,39.1304348 C185.17646,39.1304348 186.480808,37.826087 186.480808,35.8695652 C186.480808,33.9130435 184.850373,32.6086957 183.219938,32.6086957 L36.4808076,32.6086957 Z M36.4808076,65.2173913 C34.5242859,65.2173913 33.219938,66.5217391 33.219938,68.4782609 C33.219938,70.4347826 34.5242859,71.7391304 36.4808076,71.7391304 L183.219938,71.7391304 C185.17646,71.7391304 186.480808,70.4347826 186.480808,68.4782609 C186.480808,66.5217391 184.850373,65.2173913 183.219938,65.2173913 L36.4808076,65.2173913 Z M36.4808076,97.826087 C34.5242859,97.826087 33.219938,99.1304348 33.219938,101.086957 C33.219938,103.043478 34.5242859,104.347826 36.4808076,104.347826 L183.219938,104.347826 C185.17646,104.347826 186.480808,103.043478 186.480808,101.086957 C186.480808,99.1304348 184.850373,97.826087 183.219938,97.826087 L36.4808076,97.826087 Z M201.804348,130.109971 C196.913043,130.109971 192.671366,132.063942 189.410497,135.650899 C186.801801,138.585682 183.214845,139.563942 179.627888,138.911768 C178.32354,138.585682 177.346551,138.586957 176.042203,138.586957 C167.237855,138.586957 160.391304,145.107421 159.413043,153.585682 C159.086957,157.172638 156.801801,160.433508 153.540932,161.737855 C149.301801,163.694377 145.718666,167.280062 144.414318,171.845279 C142.783884,176.08441 143.437329,180.980808 145.719938,185.219938 C147.67646,188.154721 147.67646,192.066492 145.719938,195.327362 C143.437329,199.240405 143.109971,204.130435 144.414318,208.695652 C146.044753,213.26087 149.301801,216.846551 153.540932,218.803073 C156.801801,220.107421 159.086957,223.36829 159.413043,226.955247 C159.78685,230.194914 161.07581,233.139633 162.985988,235.553243 L154.846551,270.002543 C154.520464,271.306891 154.849101,272.611239 155.827362,273.263413 C156.805623,273.915587 158.109971,274.23913 159.088232,273.913043 L178.328634,267.71612 L193.002547,281.740402 C193.654721,282.392576 194.304348,282.714848 195.282609,282.714848 C196.26087,282.714848 196.911768,282.392576 197.237855,281.740402 C198.542203,280.436054 198.542203,278.478261 197.237855,277.173913 L181.258323,261.850373 C180.280062,261.198199 178.975714,260.86829 177.997453,261.194377 L162.349101,266.085682 L168.507811,240.049676 C170.791264,241.232879 173.332649,241.953975 176.042203,241.953975 C177.346551,241.953975 178.32354,241.955247 179.627888,241.62916 C183.214845,240.976986 187.127888,242.281334 189.410497,244.890029 C191.297637,246.965886 193.628008,248.478685 196.13604,249.399202 L206.695652,297.719935 C207.021739,298.698196 207.997453,299.673913 208.975714,300 L209.956522,300 C210.608696,300 211.58441,299.676457 212.236584,299.35037 L226.910497,285.326087 L246.150902,291.523011 C247.45525,291.849098 248.433511,291.519196 249.411772,290.867022 C250.390033,289.888761 250.718663,288.584413 250.392576,287.606152 L239.278874,237.126359 C241.936457,234.477907 243.734738,230.949825 244.195652,226.955247 C244.521739,223.36829 246.806891,220.107421 250.067761,218.803073 C254.306891,216.846551 257.890033,213.26087 259.19438,208.695652 C260.824815,204.456522 260.17137,199.566492 257.888761,195.327362 C255.932239,192.392579 255.932239,188.480808 257.888761,185.219938 C260.17137,181.306895 260.498728,176.410497 259.19438,171.845279 C257.563946,167.280062 254.306891,163.694377 250.067761,161.737855 C246.806891,160.433508 244.521739,157.172638 244.195652,153.585682 C243.217391,145.107421 236.044753,138.586957 227.566492,138.586957 C226.262145,138.586957 225.285155,138.585682 223.980808,138.911768 C220.393851,139.563942 216.480808,138.259595 214.198199,135.650899 C210.937329,132.063942 206.369565,130.109971 201.804348,130.109971 Z M36.4808076,130.434783 C34.5242859,130.434783 33.219938,131.73913 33.219938,133.695652 C33.219938,135.652174 34.5242859,136.956522 36.4808076,136.956522 L153.216116,136.956522 C155.172638,134.347826 157.785155,132.065217 160.393851,130.434783 L36.4808076,130.434783 Z M201.804348,136.956522 C204.73913,136.956522 207.350373,137.934783 209.306895,140.217391 C213.219938,144.782609 219.410497,146.736584 225.280062,145.758323 C231.149627,144.453975 236.696927,148.696927 237.349101,154.566492 C238.001275,160.436058 241.588232,165.652174 247.131707,167.934783 C249.740402,169.23913 251.69438,171.523014 252.672641,174.13171 C253.324815,176.740405 253.002543,179.675188 251.698196,182.283884 C248.763413,187.501275 248.763413,193.695652 251.698196,198.913043 C253.32863,201.195652 253.650902,204.456522 252.672641,207.065217 C251.69438,210 249.740402,211.957797 247.131707,213.262145 C241.588232,215.544753 238.001275,220.76087 237.349101,226.630435 C236.696927,232.5 231.149627,236.736584 225.280062,235.432236 C219.410497,234.127888 213.219938,236.41559 209.306895,240.654721 C207.350373,242.611242 204.73913,243.91559 201.804348,243.91559 C198.869565,243.91559 196.258323,242.937329 194.301801,240.654721 C191.040932,237.067764 186.479536,235.107421 181.914318,235.107421 C180.609971,235.107421 179.632982,235.433508 178.328634,235.107421 C177.350373,235.433508 176.694377,235.432236 176.042203,235.432236 C170.824812,235.432236 166.586957,231.523014 165.934783,226.305623 C165.282609,220.436058 161.695652,215.219938 156.152174,212.937329 C153.543478,211.632982 151.589503,209.349101 150.611242,206.740405 C149.959068,204.13171 150.281334,201.196927 151.585682,198.588232 C154.520464,193.37084 154.520464,187.17646 151.585682,181.959068 C149.955247,179.67646 149.632982,176.41559 150.611242,173.806895 C151.589503,170.872112 153.543478,168.914318 156.152174,167.609971 C161.695652,165.327362 165.282609,160.111242 165.934783,154.241677 C166.586957,149.024286 170.824812,145.108696 176.042203,145.108696 C177.020464,145.108696 177.67646,145.433508 178.328634,145.433508 C179.632982,145.759595 180.609971,145.758323 181.914318,145.758323 C186.479536,145.758323 191.040932,143.804348 194.301801,140.217391 C196.258323,138.26087 198.869565,136.956522 201.804348,136.956522 Z M201.479536,154.566492 C181.588232,154.566492 165.609971,170.544753 165.609971,190.436058 C165.609971,210.327362 181.588232,226.305623 201.479536,226.305623 C221.37084,226.305623 237.349101,210.327362 237.349101,190.436058 C237.349101,170.544753 221.37084,154.566492 201.479536,154.566492 Z M201.479536,161.088232 C217.783884,161.088232 230.827362,174.13171 230.827362,190.436058 C230.827362,206.740405 217.783884,219.783884 201.479536,219.783884 C185.175188,219.783884 172.13171,206.740405 172.13171,190.436058 C172.13171,174.13171 185.175188,161.088232 201.479536,161.088232 Z M233.304857,240.934953 L242.565217,283.370837 L226.910497,278.479533 C225.606149,278.153446 224.627888,278.150902 223.649627,279.129163 L211.911768,290.542207 L203.148182,250.360904 C207.252703,250.016537 211.258261,248.123961 214.198199,244.890029 C216.806895,241.955247 220.393851,240.976986 223.980808,241.62916 C225.285155,241.955247 226.262145,241.953975 227.566492,241.953975 C229.606704,241.953975 231.523457,241.578551 233.304857,240.934953 Z" id="Shape"></path>
            </g>
        </g>
    </g>
</svg>
