<?xml version="1.0" encoding="UTF-8"?>
<svg viewBox="0 0 300 300" version="1.1" xmlns="http://www.w3.org/2000/svg" xmlns:xlink="http://www.w3.org/1999/xlink">
    <!-- Generator: Sketch 48.2 (47327) - http://www.bohemiancoding.com/sketch -->
    <title>Instant Appointments</title>
    <desc>Created with Sketch.</desc>
    <defs></defs>
    <g id="10-Partner-Page-Icons" stroke="none" stroke-width="1" fill="none" fill-rule="evenodd">
        <g id="Instant-Appointments" fill="#FFFFFF" fill-rule="nonzero">
            <g id="appointment">
                <path d="M270.703125,25.78125 L242.773242,25.78125 L242.773242,17.578125 C242.773242,7.88554687 234.887695,0 225.195117,0 C215.502539,0 207.616992,7.88554688 207.616992,17.578125 L207.616992,25.78125 L109.179492,25.78125 L109.179492,17.578125 C109.179492,7.88554687 101.293945,0 91.6013672,0 C81.9087891,0 74.0232422,7.88554688 74.0232422,17.578125 L74.0232422,25.9980469 C73.5251953,25.8603516 73.003125,25.78125 72.4611328,25.78125 L49.1150391,25.78125 C32.9607422,25.78125 19.8181641,38.9238281 19.8181641,55.078125 L19.8181641,154.882617 C19.8181641,158.11875 22.4419922,160.741992 25.6775391,160.741992 C28.9130859,160.741992 31.5369141,158.11875 31.5369141,154.882617 L31.5369141,86.1328125 L242.773242,86.1328125 C246.008789,86.1328125 248.632617,83.5095703 248.632617,80.2734375 C248.632617,77.0373047 246.008789,74.4140625 242.773242,74.4140625 L31.5369141,74.4140625 L31.5369141,55.078125 C31.5369141,45.3855469 39.4224609,37.5 49.1150391,37.5 L72.4611328,37.5 C73.003125,37.5 73.5251953,37.4203125 74.0232422,37.2832031 L74.0232422,44.8242188 C74.0232422,54.5167969 81.9087891,62.4023438 91.6013672,62.4023438 C101.293945,62.4023438 109.179492,54.5167969 109.179492,44.8242188 L109.179492,37.5 L207.616992,37.5 L207.616992,44.8242188 C207.616992,54.5167969 215.502539,62.4023438 225.195117,62.4023438 C234.887695,62.4023438 242.773242,54.5167969 242.773242,44.8242188 L242.773242,37.5 L270.703125,37.5 C280.395703,37.5 288.28125,45.3855469 288.28125,55.078125 L288.28125,277.730859 C288.28125,283.548047 283.548633,288.28125 277.730859,288.28125 C271.913086,288.28125 267.180469,283.548047 267.180469,277.730859 L267.180469,262.573242 C267.180469,259.337109 264.556641,256.713867 261.321094,256.713867 L193.164258,256.713867 C189.928711,256.713867 187.304883,259.337109 187.304883,262.573242 C187.304883,265.809375 189.928711,268.432617 193.164258,268.432617 L255.461719,268.432617 L255.461719,277.730859 C255.461719,281.545898 256.427344,285.138867 258.124805,288.28125 L22.265625,288.28125 C16.4501953,288.28125 11.71875,283.549805 11.71875,277.734375 L11.71875,268.432617 L142.866211,268.432617 C146.101758,268.432617 148.725586,265.809375 148.725586,262.573242 C148.725586,259.337109 146.101758,256.713867 142.866211,256.713867 L84.3216797,256.713867 C94.5603516,247.896094 101.061914,234.853125 101.061914,220.3125 C101.061914,193.819336 79.5082031,172.265625 53.0150391,172.265625 C26.521875,172.265625 4.96816406,193.819336 4.96816406,220.3125 C4.96816406,234.853125 11.4697266,247.896094 21.7083984,256.713867 L5.859375,256.713867 C2.62382812,256.713867 0,259.337109 0,262.573242 L0,277.734375 C0,290.011523 9.98847656,300 22.265625,300 L277.730859,300 C290.009766,300 300,290.010352 300,277.730859 L300,55.078125 C300,38.9238281 286.857422,25.78125 270.703125,25.78125 Z M97.4607422,44.8242188 C97.4607422,48.0550781 94.8322266,50.6835938 91.6013672,50.6835938 C88.3705078,50.6835938 85.7419922,48.0550781 85.7419922,44.8242188 L85.7419922,17.578125 C85.7419922,14.3472656 88.3705078,11.71875 91.6013672,11.71875 C94.8322266,11.71875 97.4607422,14.3472656 97.4607422,17.578125 L97.4607422,44.8242188 Z M231.054492,44.8242188 C231.054492,48.0550781 228.425977,50.6835938 225.195117,50.6835938 C221.964258,50.6835938 219.335742,48.0550781 219.335742,44.8242188 L219.335742,17.578125 C219.335742,14.3472656 221.964258,11.71875 225.195117,11.71875 C228.425977,11.71875 231.054492,14.3472656 231.054492,17.578125 L231.054492,44.8242188 Z M16.6869141,220.3125 C16.6869141,200.281055 32.9835938,183.984375 53.0150391,183.984375 C73.0464844,183.984375 89.3431641,200.281055 89.3431641,220.3125 C89.3431641,240.343945 73.0464844,256.640625 53.0150391,256.640625 C32.9835937,256.640625 16.6869141,240.343945 16.6869141,220.3125 Z" id="Shape"></path>
                <path d="M274.399805,76.1308594 C273.310547,75.0410156 271.798828,74.4140625 270.257812,74.4140625 C268.716211,74.4140625 267.205078,75.0410156 266.115234,76.1308594 C265.025391,77.2207031 264.398438,78.7324219 264.398438,80.2734375 C264.398438,81.8144531 265.024805,83.3261719 266.115234,84.4160156 C267.205664,85.5058594 268.716211,86.1328125 270.257812,86.1328125 C271.798828,86.1328125 273.310547,85.5058594 274.399805,84.4160156 C275.489648,83.3261719 276.117188,81.8144531 276.117188,80.2734375 C276.117188,78.7324219 275.490234,77.2207031 274.399805,76.1308594 Z" id="Shape"></path>
                <path d="M174.989648,258.427734 C173.900391,257.337891 172.388672,256.716797 170.847656,256.716797 C169.306641,256.716797 167.794922,257.337891 166.705078,258.427734 C165.615234,259.523438 164.988281,261.029297 164.988281,262.570312 C164.988281,264.117188 165.614648,265.623047 166.705078,266.71875 C167.794922,267.808594 169.306641,268.429688 170.847656,268.429688 C172.388672,268.429688 173.900391,267.808594 174.989648,266.71875 C176.079492,265.623047 176.707031,264.111328 176.707031,262.570312 C176.707031,261.029297 176.080078,259.523438 174.989648,258.427734 Z" id="Shape"></path>
                <path d="M132.56543,178.125 C120.288281,178.125 110.299805,188.113477 110.299805,200.390625 C110.299805,212.667773 120.288281,222.65625 132.56543,222.65625 C144.842578,222.65625 154.831055,212.667773 154.831055,200.390625 C154.831055,188.113477 144.842578,178.125 132.56543,178.125 Z M132.56543,210.9375 C126.75,210.9375 122.018555,206.206055 122.018555,200.390625 C122.018555,194.575195 126.75,189.84375 132.56543,189.84375 C138.380859,189.84375 143.112305,194.575195 143.112305,200.390625 C143.112305,206.206055 138.380859,210.9375 132.56543,210.9375 Z" id="Shape"></path>
                <path d="M187.252734,178.125 C174.975586,178.125 164.987109,188.113477 164.987109,200.390625 C164.987109,212.667773 174.975586,222.65625 187.252734,222.65625 C199.529883,222.65625 209.518359,212.667773 209.518359,200.390625 C209.518359,188.113477 199.529883,178.125 187.252734,178.125 Z M187.252734,210.9375 C181.437305,210.9375 176.705859,206.206055 176.705859,200.390625 C176.705859,194.575195 181.437305,189.84375 187.252734,189.84375 C193.068164,189.84375 197.799609,194.575195 197.799609,200.390625 C197.799609,206.206055 193.068164,210.9375 187.252734,210.9375 Z" id="Shape"></path>
                <path d="M241.940625,178.125 C229.663477,178.125 219.675,188.113477 219.675,200.390625 C219.675,212.667773 229.663477,222.65625 241.940625,222.65625 C254.217773,222.65625 264.20625,212.667773 264.20625,200.390625 C264.20625,188.113477 254.217773,178.125 241.940625,178.125 Z M241.940625,210.9375 C236.125195,210.9375 231.39375,206.206055 231.39375,200.390625 C231.39375,194.575195 236.125195,189.84375 241.940625,189.84375 C247.756055,189.84375 252.4875,194.575195 252.4875,200.390625 C252.4875,206.206055 247.756055,210.9375 241.940625,210.9375 Z" id="Shape"></path>
                <path d="M77.878125,117.1875 C65.6009766,117.1875 55.6125,127.175977 55.6125,139.453125 C55.6125,151.730273 65.6009766,161.71875 77.878125,161.71875 C90.1552734,161.71875 100.14375,151.730273 100.14375,139.453125 C100.14375,127.175977 90.1552734,117.1875 77.878125,117.1875 Z M77.878125,150 C72.0626953,150 67.33125,145.268555 67.33125,139.453125 C67.33125,133.637695 72.0626953,128.90625 77.878125,128.90625 C83.6935547,128.90625 88.425,133.637695 88.425,139.453125 C88.425,145.268555 83.6935547,150 77.878125,150 Z" id="Shape"></path>
                <path d="M187.252734,117.1875 C174.975586,117.1875 164.987109,127.175977 164.987109,139.453125 C164.987109,151.730273 174.975586,161.71875 187.252734,161.71875 C199.529883,161.71875 209.518359,151.730273 209.518359,139.453125 C209.518359,127.175977 199.529883,117.1875 187.252734,117.1875 Z M187.252734,150 C181.437305,150 176.705859,145.268555 176.705859,139.453125 C176.705859,133.637695 181.437305,128.90625 187.252734,128.90625 C193.068164,128.90625 197.799609,133.637695 197.799609,139.453125 C197.799609,145.268555 193.068164,150 187.252734,150 Z" id="Shape"></path>
                <path d="M241.940625,117.1875 C229.663477,117.1875 219.675,127.175977 219.675,139.453125 C219.675,151.730273 229.663477,161.71875 241.940625,161.71875 C254.217773,161.71875 264.20625,151.730273 264.20625,139.453125 C264.20625,127.175977 254.217773,117.1875 241.940625,117.1875 Z M241.940625,150 C236.125195,150 231.39375,145.268555 231.39375,139.453125 C231.39375,133.637695 236.125195,128.90625 241.940625,128.90625 C247.756055,128.90625 252.4875,133.637695 252.4875,139.453125 C252.4875,145.268555 247.756055,150 241.940625,150 Z" id="Shape"></path>
                <path d="M132.56543,117.1875 C120.288281,117.1875 110.299805,127.175977 110.299805,139.453125 C110.299805,151.730273 120.288281,161.71875 132.56543,161.71875 C144.842578,161.71875 154.831055,151.730273 154.831055,139.453125 C154.831055,127.175977 144.842578,117.1875 132.56543,117.1875 Z M132.56543,150 C126.75,150 122.018555,145.268555 122.018555,139.453125 C122.018555,133.637695 126.75,128.90625 132.56543,128.90625 C138.380859,128.90625 143.112305,133.637695 143.112305,139.453125 C143.112305,145.268555 138.380859,150 132.56543,150 Z" id="Shape"></path>
                <path d="M73.8890625,206.032617 C71.6003906,203.744531 67.8914062,203.744531 65.6021484,206.032617 L46.5205078,225.114844 L39.9996094,218.593945 C37.7109375,216.305859 34.0019531,216.305859 31.7126953,218.593945 C29.4246094,220.882031 29.4246094,224.592188 31.7126953,226.880859 L42.3773437,237.544336 C43.4765625,238.642969 44.9666016,239.260547 46.5205078,239.260547 C48.0744141,239.260547 49.5644531,238.642969 50.6636719,237.544336 L73.8890625,214.318945 C76.1771484,212.030859 76.1771484,208.320703 73.8890625,206.032617 Z" id="Shape"></path>
            </g>
        </g>
    </g>
</svg>
