<?xml version="1.0" encoding="UTF-8"?>
<svg viewBox="0 0 300 300" version="1.1" xmlns="http://www.w3.org/2000/svg" xmlns:xlink="http://www.w3.org/1999/xlink">
    <!-- Generator: Sketch 48.2 (47327) - http://www.bohemiancoding.com/sketch -->
    <title>Elite Team</title>
    <desc>Created with Sketch.</desc>
    <defs></defs>
    <g id="10-Partner-Page-Icons" stroke="none" stroke-width="1" fill="none" fill-rule="evenodd">
        <g id="Elite-Team" fill="#808080" fill-rule="nonzero">
            <g id="noun_business-team_421810" transform="translate(0.000000, 21.000000)">
                <path d="M298.77551,149.693878 L221.632653,149.693878 L221.632653,127.653061 L221.632653,110.510204 C221.632653,104.387755 219.183673,98.5714286 214.897959,93.9795918 C217.959184,92.4489796 219.795918,91.2244898 221.020408,90.9183673 C221.326531,90.6122449 221.632653,90.3061224 221.632653,90 L221.632653,81.4285714 C219.489796,77.755102 218.265306,73.4693878 217.653061,69.7959184 C216.428571,69.7959184 214.591837,67.9591837 212.755102,61.2244898 C210.306122,52.9591837 212.755102,51.122449 214.897959,51.122449 C214.897959,51.122449 215.204082,51.122449 215.204082,51.122449 C213.673469,46.5306122 213.367347,41.9387755 214.591837,37.6530612 C215.816327,32.755102 218.571429,28.7755102 221.632653,25.4081633 C223.469388,23.2653061 225.612245,21.7346939 228.061224,20.2040816 C229.897959,18.9795918 232.040816,17.755102 234.183673,17.1428571 C236.020408,16.5306122 237.857143,16.2244898 239.693878,15.9183673 C240.612245,15.9183673 241.22449,15.9183673 242.142857,15.9183673 C247.040816,15.9183673 251.020408,17.4489796 253.77551,18.9795918 C258.673469,21.7346939 260.816327,25.4081633 260.816327,25.4081633 C260.816327,25.4081633 273.367347,26.3265306 267.857143,52.6530612 C269.693878,53.2653061 270.612245,55.7142857 268.77551,62.4489796 C266.938776,69.1836735 265.102041,71.0204082 263.877551,71.0204082 C263.571429,71.0204082 263.265306,71.0204082 262.959184,70.7142857 C262.346939,73.7755102 261.428571,76.8367347 260.204082,79.8979592 L260.204082,89.6938776 C260.204082,90 260.510204,90.6122449 260.816327,90.6122449 C263.877551,92.1428571 280.102041,100.102041 294.795918,112.346939 C297.55102,114.489796 299.081633,117.857143 299.081633,121.22449 L299.081633,137.44898 L299.081633,149.693878 L298.77551,149.693878 Z M146.632653,105.918367 C134.387755,88.7755102 147.55102,87.8571429 150,87.8571429 C152.44898,87.8571429 165.612245,88.7755102 153.367347,105.918367 L158.571429,150 L210.612245,150 L210.612245,127.959184 L210.612245,110.816327 C210.612245,107.142857 209.081633,103.77551 206.326531,101.632653 C191.020408,89.0816327 174.183673,80.5102041 170.816327,78.9795918 C170.510204,78.6734694 170.204082,78.3673469 170.204082,78.0612245 L170.204082,67.3469388 C171.734694,64.2857143 172.653061,60.9183673 173.265306,57.8571429 C173.571429,58.1632653 173.877551,58.1632653 174.183673,58.1632653 C175.408163,58.1632653 177.244898,56.3265306 179.387755,49.2857143 C181.530612,41.9387755 180.306122,39.4897959 178.469388,38.877551 C184.285714,11.3265306 171.122449,10.4081633 171.122449,10.4081633 C171.122449,10.4081633 169.285714,6.73469388 163.77551,3.67346939 C160.714286,1.83673469 156.734694,0.306122449 151.530612,0.306122449 C150.612245,0.306122449 150,0.306122449 149.081633,0.306122449 C146.938776,0.306122449 145.102041,0.918367347 143.265306,1.53061224 C140.816327,2.44897959 138.673469,3.36734694 136.836735,4.89795918 C134.387755,6.42857143 132.244898,8.26530612 130.102041,10.4081633 C127.040816,13.7755102 123.979592,17.755102 122.755102,22.9591837 C121.530612,27.244898 121.530612,32.1428571 123.367347,37.0408163 C123.367347,37.0408163 123.061224,37.0408163 123.061224,37.0408163 C120.918367,37.0408163 118.469388,38.877551 120.918367,47.4489796 C122.755102,54.1836735 124.591837,56.0204082 126.122449,56.3265306 C126.734694,60.3061224 127.959184,64.5918367 130.102041,68.5714286 L130.102041,77.4489796 C130.102041,77.755102 129.795918,78.3673469 129.489796,78.3673469 C126.122449,79.8979592 109.591837,88.4693878 93.9795918,101.020408 C91.2244898,103.163265 89.6938776,106.836735 89.6938776,110.204082 L89.6938776,127.346939 L89.6938776,149.387755 L141.734694,149.387755 L146.632653,105.918367 Z M78.3673469,127.653061 L78.3673469,110.510204 C78.3673469,104.387755 80.8163265,98.5714286 85.1020408,93.9795918 C82.0408163,92.4489796 80.2040816,91.2244898 78.9795918,90.9183673 C78.6734694,90.6122449 78.3673469,90.3061224 78.3673469,90 L78.3673469,80.2040816 C79.8979592,77.1428571 80.8163265,73.7755102 81.122449,71.0204082 C81.4285714,71.3265306 81.7346939,71.3265306 82.0408163,71.3265306 C83.2653061,71.3265306 85.1020408,69.4897959 86.9387755,62.755102 C88.7755102,55.7142857 87.8571429,53.5714286 86.0204082,52.9591837 C91.5306122,26.6326531 78.9795918,25.7142857 78.9795918,25.7142857 C78.9795918,25.7142857 77.1428571,22.0408163 71.9387755,19.2857143 C69.1836735,17.4489796 65.2040816,16.2244898 60.3061224,16.2244898 C59.3877551,16.2244898 58.7755102,16.2244898 57.8571429,16.2244898 C55.7142857,16.2244898 53.877551,16.8367347 52.3469388,17.4489796 C50.2040816,18.3673469 48.0612245,19.2857143 46.2244898,20.5102041 C43.7755102,22.0408163 41.6326531,23.877551 39.7959184,25.7142857 C36.7346939,28.7755102 33.9795918,32.755102 32.755102,37.9591837 C31.5306122,42.244898 31.5306122,46.8367347 33.3673469,51.4285714 C33.3673469,51.4285714 33.0612245,51.4285714 33.0612245,51.4285714 C30.9183673,51.4285714 28.7755102,52.9591837 30.9183673,61.5306122 C32.755102,67.9591837 34.5918367,69.7959184 35.8163265,70.1020408 C36.4285714,73.7755102 37.6530612,78.0612245 39.7959184,81.7346939 L39.7959184,90.3061224 C39.7959184,90.6122449 39.4897959,91.2244898 39.1836735,91.2244898 C36.122449,92.755102 19.8979592,100.714286 5.20408163,112.959184 C2.44897959,115.102041 0.918367347,118.469388 0.918367347,121.836735 L0.918367347,138.061224 L0.918367347,149.693878 L78.0612245,149.693878 L78.0612245,127.653061 L78.3673469,127.653061 Z M260.204082,196.530612 C261.122449,195.612245 260.204082,194.081633 258.979592,194.081633 L202.959184,194.081633 C202.653061,195 202.346939,196.22449 202.040816,197.142857 L202.040816,197.44898 L202.346939,197.755102 C205.714286,200.816327 207.55102,205.102041 207.55102,209.387755 C207.55102,213.979592 205.714286,218.265306 202.346939,221.020408 L202.040816,221.020408 L202.040816,221.326531 C202.346939,222.244898 202.653061,223.163265 202.959184,224.081633 L258.673469,224.081633 C259.897959,224.081633 260.816327,222.55102 259.897959,221.632653 L250.408163,210 C250.102041,209.693878 250.102041,209.081633 250.408163,208.77551 L260.204082,196.530612 Z M39.7959184,221.632653 C38.877551,222.55102 39.7959184,224.081633 41.0204082,224.081633 L96.7346939,224.081633 C97.0408163,223.163265 97.3469388,221.938776 97.6530612,221.020408 L97.6530612,220.714286 L97.3469388,220.408163 C93.9795918,217.346939 92.1428571,213.061224 92.1428571,208.77551 C92.1428571,204.489796 93.9795918,199.897959 97.3469388,197.142857 L97.6530612,196.836735 L97.6530612,196.530612 C97.3469388,195.612245 97.0408163,194.693878 96.7346939,193.77551 L41.3265306,193.77551 C40.1020408,193.77551 39.1836735,195.306122 40.1020408,196.22449 L49.5918367,207.857143 C49.8979592,208.163265 49.8979592,208.77551 49.5918367,209.081633 L39.7959184,221.632653 Z M194.387755,215.510204 C192.244898,217.346939 191.632653,220.102041 192.857143,222.55102 L193.77551,224.693878 C195.306122,228.061224 193.163265,232.040816 189.795918,233.265306 L187.346939,233.877551 C184.591837,234.489796 182.755102,236.938776 182.755102,239.693878 L182.755102,242.142857 C182.44898,245.816327 179.081633,248.571429 175.408163,247.959184 L172.653061,247.959184 C169.897959,247.346939 167.44898,248.877551 165.918367,251.020408 L164.693878,253.163265 C162.857143,256.530612 158.571429,257.44898 155.510204,255.306122 L153.367347,253.77551 C151.22449,252.244898 148.163265,252.244898 146.020408,253.77551 L143.877551,255.306122 C140.816327,257.44898 136.530612,256.530612 134.693878,253.163265 L133.77551,251.020408 C132.55102,248.571429 129.795918,247.346939 127.040816,247.959184 L124.591837,248.265306 C120.918367,248.877551 117.55102,246.122449 117.244898,242.44898 L117.244898,240 C117.244898,237.244898 115.408163,235.102041 112.653061,234.183673 L110.204082,233.265306 C106.530612,232.346939 104.693878,228.367347 106.22449,224.693878 L107.142857,222.55102 C108.061224,220.102041 107.44898,217.040816 105.612245,215.510204 L103.77551,213.979592 C101.020408,211.530612 101.020408,206.938776 103.77551,204.489796 L105.612245,202.959184 C107.755102,201.122449 108.367347,198.367347 107.142857,195.918367 L106.22449,193.77551 C104.693878,190.408163 106.836735,186.428571 110.204082,185.204082 L112.653061,184.591837 C115.408163,183.979592 117.244898,181.530612 117.244898,178.77551 L117.244898,176.326531 C117.55102,172.653061 120.918367,169.897959 124.591837,170.510204 L127.040816,170.816327 C129.795918,171.428571 132.244898,169.897959 133.77551,167.755102 L135,165.612245 C136.836735,162.244898 141.122449,161.326531 144.183673,163.469388 L146.326531,165 C148.469388,166.530612 151.530612,166.530612 153.673469,165 L155.816327,163.469388 C158.877551,161.326531 163.163265,162.244898 165,165.612245 L166.22449,167.755102 C167.44898,170.204082 170.204082,171.428571 172.959184,170.816327 L175.408163,170.510204 C179.081633,169.897959 182.44898,172.653061 182.755102,176.326531 L182.755102,178.77551 C182.755102,181.530612 184.591837,183.673469 187.346939,184.591837 L189.795918,185.204082 C193.469388,186.122449 195.306122,190.102041 193.77551,193.77551 L192.857143,195.612245 C191.938776,198.061224 192.55102,201.122449 194.387755,202.653061 L196.22449,204.183673 C198.979592,206.632653 198.979592,211.22449 196.22449,213.673469 L194.387755,215.510204 Z M178.77551,209.081633 C178.77551,193.163265 165.918367,180.306122 150,180.306122 C134.081633,180.306122 121.22449,193.163265 121.22449,209.081633 C121.22449,225 134.081633,237.857143 150,237.857143 C165.918367,237.857143 178.77551,225 178.77551,209.081633 Z M165.918367,202.040816 L155.816327,201.428571 L151.836735,191.938776 C151.530612,191.020408 150.612245,190.714286 150,190.714286 C149.387755,190.714286 148.469388,191.020408 148.163265,191.938776 L144.183673,201.428571 L134.081633,202.040816 C132.244898,202.040816 131.326531,204.489796 132.857143,205.714286 L140.816327,212.142857 L138.367347,221.938776 C138.061224,223.469388 138.979592,224.693878 140.510204,224.693878 C140.816327,224.693878 141.428571,224.693878 141.734694,224.387755 L150.306122,219.183673 L158.877551,224.387755 C159.183673,224.693878 159.489796,224.693878 160.102041,224.693878 C161.326531,224.693878 162.55102,223.469388 162.244898,221.938776 L159.183673,212.44898 L167.142857,206.020408 C168.673469,204.489796 167.755102,202.346939 165.918367,202.040816 Z" id="Shape"></path>
            </g>
        </g>
    </g>
</svg>
