<?xml version="1.0" encoding="UTF-8"?>
<svg viewBox="0 0 300 300" version="1.1" xmlns="http://www.w3.org/2000/svg" xmlns:xlink="http://www.w3.org/1999/xlink">
    <!-- Generator: Sketch 48.2 (47327) - http://www.bohemiancoding.com/sketch -->
    <title>Drivers Seat Intelligence</title>
    <desc>Created with Sketch.</desc>
    <defs></defs>
    <g id="10-Partner-Page-Icons" stroke="none" stroke-width="1" fill="none" fill-rule="evenodd">
        <g id="Drivers-Seat-Intelligence" fill="#808080" fill-rule="nonzero">
            <g id="noun_intelligence_1355060" transform="translate(21.000000, 0.000000)">
                <g id="Group">
                    <g id="Shape">
                        <path d="M142.223692,127.267471 C140.061183,127.267471 138.301506,125.502765 138.301506,123.333353 C138.301506,121.163353 140.061183,119.398647 142.223692,119.398647 C144.386201,119.398647 146.145292,121.163353 146.145292,123.333353 C146.145292,125.502765 144.386201,127.267471 142.223692,127.267471 Z M142.223692,107.633941 C133.594179,107.633941 126.574233,114.676883 126.574233,123.333353 C126.574233,131.989235 133.594179,139.032176 142.223692,139.032176 C150.85262,139.032176 157.872565,131.989235 157.872565,123.333353 C157.872565,114.676883 150.85262,107.633941 142.223692,107.633941 Z M202.505216,222.603529 C201.623326,223.662353 201.140162,224.997647 201.140162,226.377059 L201.140162,288.235294 L97.2148302,288.235294 L97.2148302,237.323529 C97.2148302,235.615882 96.4748394,233.991765 95.1871848,232.874706 C93.8995302,231.757647 92.1926256,231.255882 90.5062437,231.502941 L57.9302256,236.258824 C54.2777664,236.618824 50.7654483,235.451176 48.0394437,232.970588 C45.2888121,230.466471 43.7900664,227.034706 43.819971,223.308235 C43.8223164,223.004118 43.8012075,222.7 43.7566437,222.398824 L37.7200302,181.527647 C37.2937437,178.643529 34.8263256,176.507647 31.919721,176.507647 L20.4598302,176.507647 C17.3268894,176.507647 14.5152756,174.885882 12.9397164,172.17 C11.3629848,169.453529 11.3459802,166.2 12.8933937,163.467059 L36.6135621,121.568235 C37.4379894,120.498235 37.8812802,119.159412 37.834371,117.77 C37.7880483,116.401765 37.7663529,115.272941 37.7663529,114.216471 C37.7663529,57.7247058 83.5801164,11.7647059 139.892135,11.7647059 C197.410303,11.7647059 246.002844,58.6817646 246.002844,114.216471 C246.002844,147.306471 228.115821,191.877647 202.505216,222.603529 Z M222.286194,33.3511764 C200.081189,12.1558823 170.049989,0 139.892135,0 C77.1131121,0 26.0390802,51.2376471 26.0390802,114.216471 C26.0390802,114.904706 26.0467029,115.614706 26.0637075,116.381176 L2.69594382,157.657059 C-0.93657891,164.073529 -0.89611983,171.711176 2.80442109,178.088235 C6.50437563,184.465294 13.1044848,188.272353 20.4598302,188.272353 L26.8605756,188.272353 L32.093871,223.702353 C32.1747894,230.545294 35.0972256,237.075294 40.1593029,241.683529 C45.3415848,246.400588 52.3075848,248.685882 59.2642029,247.948235 C59.3416029,247.939412 59.4178302,247.930588 59.4940575,247.918823 L85.4875575,244.124118 L85.4875575,294.117647 C85.4875575,297.366471 88.1127075,300 91.3511937,300 L207.003798,300 C210.241698,300 212.867435,297.366471 212.867435,294.117647 L212.867435,228.491176 C239.355239,195.895882 257.730116,149.22353 257.730116,114.216471 C257.730116,83.8870587 245.142648,55.1682354 222.286194,33.3511764 Z M214.562319,159.584235 C212.929296,162.867765 204.377769,165.121883 188.961096,162.757177 C184.009841,161.997765 178.714391,160.828941 173.186741,159.303059 C173.89976,154.242471 174.455632,149.016588 174.856705,143.703647 C181.903623,139.485412 188.489073,135.084824 194.452391,130.609529 C197.052328,132.794235 199.473423,134.981882 201.69281,137.157176 C212.848964,148.092471 216.195341,156.300706 214.562319,159.584235 Z M155.962896,183.236 C151.18931,198.132471 145.361441,204.800706 141.703705,204.800706 C138.045969,204.800706 132.218101,198.132471 127.445101,183.236 C125.91176,178.450706 124.58951,173.174824 123.483041,167.530117 C129.425837,165.543059 135.52871,163.220118 141.703705,160.584235 C147.878701,163.220118 153.982746,165.543647 159.924955,167.530706 C158.818487,173.174824 157.496823,178.450706 155.962896,183.236 Z M94.4463144,162.757177 C79.0267098,165.121294 70.4775279,162.867176 68.8450914,159.584235 C67.2126552,156.300706 70.558446,148.093059 81.7151871,137.157176 C83.9345733,134.981882 86.3550825,132.795412 88.953846,130.611294 C94.9810779,135.123647 101.591741,139.524235 108.547773,143.691882 C108.951191,149.057176 109.512928,154.276 110.224773,159.30247 C104.695364,160.828353 99.3993279,161.997176 94.4463144,162.757177 Z M81.7151871,109.080118 C70.558446,98.1442353 67.2120687,89.9360001 68.8450914,86.6524707 C70.0078506,84.3154119 74.6723733,82.5001176 82.8245871,82.5001176 C86.1269871,82.5001176 90.0016779,82.7977647 94.4463144,83.4795294 C99.3987414,84.2389413 104.693019,85.4071764 110.221255,86.9336472 C109.508823,91.9942353 108.952951,97.2195294 108.551291,102.532471 C101.504373,106.751294 94.9183371,111.15247 88.9550187,115.627177 C86.3556687,113.443059 83.9351598,111.255412 81.7151871,109.080118 Z M127.445101,63.0012942 C132.218687,48.103647 138.045969,41.4354117 141.703705,41.4354117 C145.361441,41.4354117 151.18931,48.103647 155.962896,63.0012942 C157.496823,67.7859999 158.818487,73.0618824 159.924955,78.7059999 C153.982746,80.6930589 147.878701,83.0165883 141.703705,85.6518825 C135.52871,83.0165883 129.425837,80.6936472 123.483041,78.7065882 C124.58951,73.0618824 125.91176,67.7859999 127.445101,63.0012942 Z M175.548614,116.791883 C178.777719,118.873059 181.874891,120.986588 184.820196,123.118353 C181.876651,125.248941 178.781237,127.360706 175.555064,129.441294 C175.603146,127.335412 175.627773,125.226 175.627773,123.118353 C175.627773,120.996 175.595523,118.889529 175.548614,116.791883 Z M156.375696,92.4342354 C158.211014,91.746 160.03871,91.0801176 161.845296,90.4571766 C162.066355,92.1301176 162.264546,93.8336472 162.450423,95.5501176 C160.604551,94.573647 158.736982,93.6112941 156.848305,92.6660001 C156.690573,92.5871766 156.532841,92.5130589 156.375696,92.4342354 Z M120.957573,95.5501176 C121.144623,93.8336472 121.342228,92.1301176 121.563287,90.4571766 C123.369873,91.0801176 125.196396,91.746 127.032887,92.4342354 C126.875155,92.5130589 126.717423,92.5871766 126.559691,92.6660001 C124.671014,93.6112941 122.804032,94.5730587 120.957573,95.5501176 Z M107.859382,129.446 C104.631451,127.364235 101.533105,125.250706 98.5878006,123.118353 C101.53076,120.987765 104.62676,118.876 107.853519,116.796 C107.805437,118.901294 107.78081,121.010706 107.78081,123.118353 C107.78081,125.240706 107.812473,127.347176 107.859382,129.446 Z M127.032301,153.802471 C125.196396,154.490706 123.369873,155.156588 121.563287,155.778941 C121.342228,154.106 121.144623,152.40247 120.957573,150.685412 C122.812828,151.667765 124.680982,152.630706 126.559105,153.570118 C126.717423,153.648941 126.874569,153.723647 127.032301,153.802471 Z M151.613251,143.043059 L151.612664,143.043059 C148.302641,144.69953 144.995551,146.262471 141.703705,147.744824 C138.41186,146.262471 135.104769,144.69953 131.795332,143.043059 L131.794746,143.043059 C127.700755,140.993647 123.712896,138.867765 119.852278,136.684235 C119.628287,132.241294 119.508082,127.710706 119.508082,123.118353 C119.508082,118.525412 119.628287,113.996 119.852278,109.552471 C123.712896,107.368941 127.700755,105.242471 131.795332,103.193647 C135.104769,101.536588 138.412446,99.9742353 141.703705,98.4918825 C144.996137,99.9742353 148.303228,101.536588 151.613251,103.193647 C155.706655,105.242471 159.695101,107.368941 163.555719,109.552471 C163.780882,113.996 163.900501,118.525412 163.900501,123.118353 C163.900501,127.710706 163.780882,132.240706 163.555719,136.683647 C159.695101,138.867176 155.706655,140.993647 151.613251,143.043059 Z M156.847719,153.570118 C158.736396,152.625412 160.603964,151.662471 162.450423,150.686 C162.264546,152.403059 162.066355,154.106 161.845296,155.778941 C160.03871,155.156588 158.211014,154.490706 156.375696,153.802471 C156.532841,153.723647 156.690573,153.648941 156.848305,153.570118 L156.847719,153.570118 Z M188.961096,83.4795294 C193.406905,82.7977647 197.280423,82.5001176 200.582823,82.5001176 C208.734451,82.5001176 213.400732,84.3159999 214.562319,86.6524707 C216.195341,89.9360001 212.848964,98.1442353 201.69281,109.080118 C199.473423,111.255412 197.052328,113.443059 194.452391,115.627177 C188.490246,111.153059 181.905382,106.753059 174.859637,102.534823 C174.456805,97.1730588 173.895069,91.9577646 173.18381,86.9342352 C178.712046,85.4077647 184.008669,84.2395293 188.961096,83.4795294 Z M209.888414,128.741882 C207.978628,126.870706 205.932805,124.993059 203.767364,123.118353 C205.932805,121.243059 207.978628,119.366 209.888414,117.494235 C228.290264,99.4571766 228.293782,87.9101175 225.055882,81.4007058 C221.819155,74.8901175 212.621455,67.9501176 187.188519,71.8507059 C182.140514,72.6248235 176.773528,73.7918823 171.194864,75.2954118 C170.045005,69.6165882 168.690505,64.2777648 167.127846,59.4007059 C159.253569,34.8289413 148.955851,29.6707059 141.703705,29.6707059 C127.390569,29.6707059 117.464605,49.0883529 112.197887,75.291294 C106.624501,73.7895294 101.262205,72.6242352 96.2188914,71.8507059 C70.7888871,67.9477647 61.5888414,74.8907058 58.3515279,81.4007058 C52.6221687,92.9212941 62.392746,108.245412 79.6265598,123.130117 C77.4658098,125.001294 75.4246779,126.874823 73.5195825,128.741882 C55.1177325,146.779529 55.1136279,158.326 58.3515279,164.836 C60.9385644,170.038353 67.3311006,175.516 82.7741598,175.516 C86.6558871,175.516 91.1104914,175.169529 96.2188914,174.386 C101.266896,173.611882 106.634469,172.444235 112.212546,170.941294 C113.362405,176.620117 114.717491,181.958941 116.280737,186.836588 C124.153841,211.407765 134.45156,216.565412 141.703705,216.565412 C156.016841,216.565412 165.942805,197.147765 171.209523,170.945412 C176.783496,172.446588 182.145205,173.612471 187.188519,174.386 C192.298091,175.170118 196.750937,175.516 200.633251,175.516 C216.073964,175.515412 222.468846,170.037765 225.055882,164.836588 C228.293782,158.326 228.290264,146.779529 209.888414,128.741882 Z"></path>
                    </g>
                </g>
            </g>
        </g>
    </g>
</svg>
