<?xml version="1.0" encoding="UTF-8"?>
<svg viewBox="0 0 584 585" version="1.1" xmlns="http://www.w3.org/2000/svg" xmlns:xlink="http://www.w3.org/1999/xlink">
    <!-- Generator: Sketch 48.2 (47327) - http://www.bohemiancoding.com/sketch -->
    <title>Smarter Marketing with Measurable ROIs  Smarter Marketing with Measurable ROIs</title>
    <desc>Created with Sketch.</desc>
    <defs></defs>
    <g id="10-Partner-Page-Icons" stroke="none" stroke-width="1" fill="none" fill-rule="evenodd">
        <g id="Smarter-Marketing-with-Measurable-ROIs--Smarter-Marketing-with-Measurable-ROIs" fill-rule="nonzero">
            <g id="statistics">
                <circle id="Oval" fill="#FF6F34" cx="292" cy="292" r="292"></circle>
                <rect id="Rectangle-path" fill="#3F5F80" transform="translate(378.405261, 378.292940) rotate(135.000000) translate(-378.405261, -378.292940) " x="349.479789" y="362.179847" width="57.8509432" height="32.2261851"></rect>
                <circle id="Oval" fill="#43484D" cx="228.69211" cy="228.69211" r="202.677773"></circle>
                <circle id="Oval" fill="#DDDDDD" cx="228.69211" cy="228.69211" r="175.110682"></circle>
                <circle id="Oval" fill="#FAFAFA" cx="228.69211" cy="228.69211" r="155.308502"></circle>
                <g id="Group" transform="translate(365.286275, 365.286275)" fill="#43484D">
                    <path d="M106.852533,175.964925 L118.500471,189.554949 C121.607122,193.049788 127.042902,193.437976 130.536596,189.943137 L189.553804,130.925929 C193.048643,127.43109 192.660455,121.99531 189.165616,118.889804 L175.575592,107.241867 L106.852533,175.964925 Z" id="Shape"></path>
                    <path d="M57.1529882,2.40699608 C54.0463373,-0.311466667 48.9987451,-0.311466667 45.8932392,2.79518431 L2.79518431,45.8932392 C-0.311466667,48.9998902 -0.311466667,53.658149 2.40699608,57.1529882 L6.29002353,61.4242039 L61.4242039,6.29002353 L57.1529882,2.40699608 Z" id="Shape"></path>
                </g>
                <polygon id="Shape" fill="#00BAED" points="371.576298 426.710478 472.138808 541.2512 541.2512 472.138808 426.710478 371.576298"></polygon>
                <rect id="Rectangle-path" fill="#646B79" x="115.705286" y="300.52182" width="225.585459" height="13.9782118"></rect>
                <rect id="Rectangle-path" fill="#43484D" x="131.624439" y="229.856675" width="34.5556235" height="58.2408314"></rect>
                <rect id="Rectangle-path" fill="#3F5F80" x="184.817678" y="165.791875" width="34.5556235" height="122.69382"></rect>
                <rect id="Rectangle-path" fill="#E5632C" x="238.010918" y="209.278118" width="34.5556235" height="78.8193882"></rect>
                <rect id="Rectangle-path" fill="#6AAA43" x="291.204157" y="130.070541" width="34.5556235" height="158.026965"></rect>
            </g>
        </g>
    </g>
</svg>