<?xml version="1.0" encoding="UTF-8"?>
<svg viewBox="0 0 584 584" version="1.1" xmlns="http://www.w3.org/2000/svg" xmlns:xlink="http://www.w3.org/1999/xlink">
    <!-- Generator: Sketch 48.2 (47327) - http://www.bohemiancoding.com/sketch -->
    <title>We Put You In The Spotlight</title>
    <desc>Created with Sketch.</desc>
    <defs></defs>
    <g id="10-Partner-Page-Icons" stroke="none" stroke-width="1" fill="none" fill-rule="evenodd">
        <g id="We-Put-You-In-The-Spotlight" fill-rule="nonzero">
            <g id="spotlight">
                <circle id="Oval" fill="#FF6F34" cx="292" cy="292" r="292"></circle>
                <g id="Group" fill="#00BAED">
                    <path d="M177.542368,129.232544 L107.813333,168.287281 L66.9488596,191.177544 L3.2545614,77.4651754 C-5.69719298,61.4911404 4.42114035,38.1846491 26.1687719,21.0314912 C30.1805263,17.8533333 34.5959649,14.8895614 39.3580702,12.2234211 C69.8898246,-4.88184211 103.242807,-3.40508772 113.849211,15.5201754 L177.542368,129.232544 Z" id="Shape"></path>
                    <path d="M406.315,129.229123 L470.010439,15.5190351 C480.61114,-3.40736842 513.962982,-4.88184211 544.50386,12.2257018 C575.043596,29.3332456 591.20693,58.5433333 580.605088,77.4697368 L516.909649,191.179825" id="Shape"></path>
                </g>
                <g id="Group" transform="translate(95.789474, 144.824561)" fill="#FFE461">
                    <path d="M391.716228,30.5009649 L293.275439,422.167018 C262.898772,432.903421 230.211754,438.736316 196.144912,438.736316 C162.07807,438.736316 129.379649,432.892018 98.9904386,422.167018 C71.1841228,412.346316 45.3186842,398.431754 22.119386,381.136053 L340.853158,0.802807018 L391.716228,30.5009649 Z" id="Shape"></path>
                    <path d="M370.159035,381.15886 C321.581228,417.33307 261.375263,438.735175 196.144912,438.735175 C162.07807,438.735175 129.379649,432.890877 98.9904386,422.165877 L0.550789474,30.4998246 L51.4138596,0.801666667 L370.159035,381.15886 Z" id="Shape"></path>
                </g>
                <path d="M414.741053,464.873158 L389.066053,566.991579 C358.689386,577.727982 326.002368,583.560877 291.935526,583.560877 C257.868684,583.560877 225.170263,577.716579 194.781053,566.991579 L169.117456,464.873158 L291.924123,318.319825 L414.741053,464.873158 Z" id="Shape" fill="#FCEBA7"></path>
                <g id="Group" transform="translate(0.000000, 20.526316)" fill="#3F5F80">
                    <path d="M107.813333,147.760965 L66.9488596,170.651228 L3.2545614,56.9388596 C-5.69719298,40.9648246 4.42114035,17.6583333 26.1687719,0.505175439 L107.813333,147.760965 Z" id="Shape"></path>
                    <path d="M476.046316,147.760965 L516.910789,170.651228 L580.605088,56.9388596 C589.556842,40.9648246 579.438509,17.6583333 557.690877,0.505175439 L476.046316,147.760965 Z" id="Shape"></path>
                </g>
                <g id="Group" transform="translate(62.719298, 94.649123)" fill="#FFE461">
                    <path d="M117.561053,53.2235965 C114.763772,69.5192105 100.348596,87.707807 78.7207018,99.8251754 C57.8899123,111.489825 35.7614035,114.514035 20.4179825,109.265 C13.2645614,106.813246 7.59815789,102.551754 4.2295614,96.5284211 C-6.37570175,77.6020175 9.78877193,48.3919298 40.3319298,31.2866667 C70.8636842,14.1814035 104.216667,15.6581579 114.82307,34.5834211 C117.917982,40.1061404 118.727632,46.4989474 117.561053,53.2235965 Z" id="Shape"></path>
                    <ellipse id="Oval" transform="translate(398.882392, 65.508954) rotate(29.256625) translate(-398.882392, -65.508954) " cx="398.882392" cy="65.5089543" rx="63.3789724" ry="39.275327"></ellipse>
                </g>
                <g id="Group" transform="translate(83.105263, 144.824561)" fill="#FCEBA7">
                    <path d="M97.1750877,3.04815789 C94.377807,19.3437719 79.9626316,37.5323684 58.3347368,49.6497368 C37.5039474,61.314386 15.3754386,64.3385965 0.0320175439,59.0895614 C2.82929825,42.7939474 17.2444737,24.6053509 38.8723684,12.4879825 C59.7031579,0.822192982 81.8316667,-2.20087719 97.1750877,3.04815789 Z" id="Shape"></path>
                    <path d="M320.471754,3.04815789 C323.269035,19.3437719 337.684211,37.5323684 359.312105,49.6497368 C380.142895,61.314386 402.271404,64.3385965 417.614825,59.0895614 C414.817544,42.7939474 400.402368,24.6053509 378.774474,12.4879825 C357.942544,0.822192982 335.815175,-2.20087719 320.471754,3.04815789 Z" id="Shape"></path>
                </g>
                <path d="M432.393684,545.972632 L432.393684,547.553158 C418.597719,555.170702 404.111842,561.682105 389.066053,566.991579 C358.689386,577.727982 326.002368,583.560877 291.935526,583.560877 C257.868684,583.560877 225.170263,577.716579 194.781053,566.991579 C179.735263,561.683246 165.260789,555.171842 151.477368,547.565702 L151.477368,545.972632 C151.477368,535.353684 160.085877,526.746316 170.703684,526.746316 L413.167368,526.746316 C423.785175,526.746316 432.393684,535.353684 432.393684,545.972632 Z" id="Shape" fill="#43484D"></path>
            </g>
        </g>
    </g>
</svg>