<svg xmlns="http://www.w3.org/2000/svg" viewBox="0 0 90 73">
    <path fill-rule="evenodd" d="M8.336.455c1.804.004 3.476.23 4.97.688 2.987.917 5.484 3.146 5.655 6.25.008.111-.02.233-.03.344.006.069.03.15.03.218v42.97c0 2.525 2.038 4.593 4.563 4.593H81.18c1.715 0 2.984-.028 3.813-.031-.011-.74-.063-1.481-.063-2.281 0-.267.029-.509.031-.72-1.184-.048-3.945-.061-8.437-.061H26.868c-2.913 0-5.344-2.392-5.344-5.313V17.206c0-2.92 2.43-5.344 5.344-5.344h10.156v-6.75a2.877 2.877 0 0 1 2.875-2.875H66.43c1.566 0 2.844 1.31 2.844 2.875v6.75h10.187c2.913 0 5.313 2.424 5.313 5.344v29.906c0 .444-.052.87-.156 1.282.757.04 1.397.126 2 .28.491.127 1.054.337 1.531.813.477.477.707 1.155.781 1.625.15.94 0 1.42 0 2.094 0 .93.063 1.91.063 2.969 0 .308.125.522-.063 1.344-.094.41-.426 1.02-.875 1.375s-.88.465-1.219.53c-1.355.263-2.505.095-5.656.095h-1.812a8.222 8.222 0 0 1 1.312 4.437c0 4.57-3.742 8.313-8.312 8.313-4.578 0-8.344-3.742-8.344-8.313 0-1.633.49-3.147 1.312-4.437H37.024a8.19 8.19 0 0 1 1.281 4.437c0 4.57-3.735 8.313-8.312 8.313-4.57 0-8.313-3.742-8.313-8.313 0-1.641.483-3.174 1.313-4.468-4.455-.29-8.032-4.04-8.032-8.563V7.956c0-.074-.007-.175 0-.25-.003-.032.002-.06 0-.093-.07-1.268-.775-2.031-2.812-2.657-2.037-.625-5.207-.706-8.75.032a1.98 1.98 0 0 1-.781.031c-.26-.047-.497-.17-.719-.313a1.94 1.94 0 0 1-.875-1.25C.97 3.198.943 2.903.993 2.644c.05-.26.166-.499.312-.719.146-.22.343-.416.563-.562.22-.147.46-.231.718-.282C4.603.661 6.533.452 8.336.456zm56.97 5.782H41.023v5.625h24.281V6.237z"/>
</svg>
