<svg xmlns="http://www.w3.org/2000/svg" data-name="Layer 1" viewBox="0 0 100 125"><path d="M49 72.08h12.68A6.45 6.45 0 0 0 68.22 66a6.27 6.27 0 0 0-6.27-6.47H45.23a26.17 26.17 0 0 0-28.14 5.66L3.68 78.4a.22.22 0 0 0 0 .32L27.15 98l5.37-5.37h30.83A15.5 15.5 0 0 0 75 87.28l19.75-23a6.51 6.51 0 0 0-9.75-8.6L69.2 73.75a7.39 7.39 0 0 1-5.52 2.48H49.11a2.15 2.15 0 0 1-2.18-1.87A2.08 2.08 0 0 1 49 72.08zM70.22 2H39.73a8.84 8.84 0 0 0-8.84 8.84v30.54a8.84 8.84 0 0 0 8.84 8.84h30.49a8.84 8.84 0 0 0 8.84-8.84v-30.5A8.84 8.84 0 0 0 70.22 2zm-1.61 26.15a2.29 2.29 0 0 1-2.29 2.29h-7v7A2.29 2.29 0 0 1 57 39.77h-4a2.29 2.29 0 0 1-2.29-2.29v-7h-7a2.29 2.29 0 0 1-2.29-2.29v-4a2.29 2.29 0 0 1 2.29-2.29h7v-7A2.29 2.29 0 0 1 53 12.5h4a2.29 2.29 0 0 1 2.29 2.29v7h7a2.29 2.29 0 0 1 2.29 2.29z"></path><text y="115" font-size="5" font-weight="bold" font-family="'Helvetica Neue', Helvetica, Arial-Unicode, Arial, Sans-serif">Created by Gregor Cresnar</text><text y="120" font-size="5" font-weight="bold" font-family="'Helvetica Neue', Helvetica, Arial-Unicode, Arial, Sans-serif">from the Noun Project</text></svg>
