<svg xmlns="http://www.w3.org/2000/svg" xmlns:xlink="http://www.w3.org/1999/xlink" version="1.1" x="0px" y="0px" viewBox="0 0 68 85" style="enable-background:new 0 0 68 68;" xml:space="preserve"><g><g><path class="st0" d="M66,28.5H48.5c-0.6,0-1,0.4-1,1c0,9.7,0,7.6,0,17.3H30.9c-0.6,0-1,0.4-1,1v8.1H13.4c-0.6,0-1,0.4-1,1V65H2.1    c-0.6,0-1,0.4-1,1c0,0.6,0.4,1,1,1c5.1,0,41.5,0,46.4,0H66c0.6,0,1-0.4,1-1c0-13.4,0-23.2,0-36.5C67,28.9,66.6,28.5,66,28.5z     M49.5,39.6H65v7.1H49.5V39.6z M49.5,48.8H65v7.1H49.5V48.8z M49.5,30.5H65v7.1H49.5V30.5z M31.9,48.8h15.5v7.1H31.9V48.8z     M14.4,57.9h15.5V65H14.4V57.9z M31.9,57.9h15.5V65H31.9V57.9z M65,65H49.5v-7.1H65V65z"></path></g><g><path class="st0" d="M24.2,36.6c7.8,0,14.1-6.3,14.1-14.1S31.9,8.5,24.2,8.5s-14.1,6.3-14.1,14.1S16.4,36.6,24.2,36.6z M24.2,10.5    c6.7,0,12.1,5.4,12.1,12.1c0,6.7-5.4,12.1-12.1,12.1c-6.7,0-12.1-5.4-12.1-12.1C12.1,15.9,17.5,10.5,24.2,10.5z"></path></g><g><path class="st0" d="M19.1,26.3l-1.9,2.2c1.9,1.6,4,2.6,6.3,2.8v1.9h1.6v-1.8c1.8-0.1,3.2-0.6,4.2-1.5c1.1-0.9,1.6-2.2,1.6-3.7    c0-1.5-0.5-2.6-1.4-3.4c-0.9-0.8-2.4-1.4-4.4-1.9h-0.1V16c1.3,0.2,2.5,0.7,3.7,1.5l1.7-2.4c-1.7-1.1-3.5-1.8-5.4-1.9v-1.3h-1.6    v1.3c-1.7,0.1-3,0.6-4.1,1.5c-1,0.9-1.6,2.2-1.6,3.6c0,1.5,0.5,2.6,1.4,3.4c0.9,0.8,2.3,1.4,4.3,1.8v5    C22.1,28.3,20.6,27.6,19.1,26.3z M25.2,24c1,0.3,1.7,0.6,2.1,1c0.4,0.4,0.6,0.8,0.6,1.4c0,0.6-0.2,1.1-0.7,1.5    c-0.5,0.4-1.1,0.6-2,0.7V24z M21.6,19.4c-0.3-0.3-0.5-0.8-0.5-1.4c0-0.6,0.2-1.1,0.7-1.4c0.4-0.4,1-0.6,1.8-0.7v4.4    C22.6,20.1,22,19.8,21.6,19.4z"></path></g><g><path class="st0" d="M38.9,16.5c0.5,0.1,1.1-0.2,1.2-0.7l0.8-3.4c5.2,8.4,3.3,19.6-4.8,25.7c-6.9,5.3-16.2,5.3-23,0.6    c-0.5-0.3-1.1-0.2-1.4,0.3c-0.3,0.5-0.2,1.1,0.3,1.4c7.4,5.1,17.7,5.3,25.4-0.6c8.6-6.6,11-18.6,5.5-27.9l3.2,1    c0.5,0.2,1.1-0.1,1.3-0.6c0.2-0.5-0.1-1.1-0.6-1.3L40.7,9c-0.5-0.2-1.2,0.2-1.3,0.7l-1.3,5.6C38,15.8,38.3,16.4,38.9,16.5z"></path></g><g><path class="st0" d="M1.7,34.1L7.5,36c0.6,0.2,1.2-0.2,1.3-0.7l1.3-5.8c0.1-0.5-0.2-1.1-0.8-1.2c-0.5-0.1-1.1,0.2-1.2,0.8    l-0.8,3.6C5.1,28.8,4.2,24.4,4.7,20c0.7-5.2,3.3-9.8,7.5-13c4.1-3.2,9.3-4.6,14.5-3.9c3.1,0.4,6.1,1.6,8.7,3.4    c0.5,0.3,1.1,0.2,1.4-0.2c0.3-0.5,0.2-1.1-0.2-1.4c-2.8-2-6.1-3.3-9.6-3.7C21.2,0.4,15.6,2,11,5.5C6.4,9,3.5,14,2.7,19.7    c-0.6,4.7,0.3,9.4,2.7,13.5l-3.1-1c-0.5-0.2-1.1,0.1-1.3,0.6C0.9,33.4,1.2,33.9,1.7,34.1z"></path></g></g></svg>
