<?xml version="1.0" encoding="UTF-8"?>
<svg viewBox="0 0 300 300" version="1.1" xmlns="http://www.w3.org/2000/svg" xmlns:xlink="http://www.w3.org/1999/xlink">
    <!-- Generator: Sketch 48.2 (47327) - http://www.bohemiancoding.com/sketch -->
    <title>50% Cost Savings</title>
    <desc>Created with Sketch.</desc>
    <defs>
        <polygon id="path-1" points="0.173672772 0.618012422 298.955901 0.618012422 298.955901 298.720497 0.173672772 298.720497"></polygon>
        <polygon id="path-3" points="0.0372670807 0.447204969 299 0.447204969 299 151.10559 0.0372670807 151.10559"></polygon>
    </defs>
    <g id="09-Service-Page-Icons" stroke="none" stroke-width="1" fill="none" fill-rule="evenodd">
        <g id="50%-Cost-Savings">
            <g id="bank">
                <g id="Group-3" transform="translate(0.621118, 0.000000)">
                    <mask id="mask-2" fill="white">
                        <use xlink:href="#path-1"></use>
                    </mask>
                    <g id="Clip-2"></g>
                    <path d="M10.1118012,206.832298 L23.7763975,196.546584 L78.4347826,278.236025 L67.7018634,288.819876 L10.1118012,288.819876 L10.1118012,206.832298 Z M65.0186335,174.534161 C72.6565217,165.052174 84.1975155,159.565217 96.3726708,159.627329 L173.590062,159.627329 C171.228571,171.196894 161.050311,179.50559 149.242236,179.503106 L109.490683,179.503106 C101.257764,179.503106 94.5838509,186.177019 94.5838509,194.409938 C94.5838509,202.642857 101.257764,209.31677 109.490683,209.31677 L196.89441,209.31677 C198.909317,209.319876 200.903727,208.914286 202.757764,208.124224 L273.714286,177.813665 C278.448447,175.000621 284.565839,176.558385 287.378882,181.291925 C290.191925,186.026087 288.634783,192.143478 283.900621,194.956522 L214.63354,230.583851 C209.654658,233.127329 204.380745,235.046584 198.931677,236.298137 L80.4223602,263.57764 L41.1180124,204.596273 L65.0186335,174.534161 Z M74.7080745,104.968944 C74.7080745,72.0378882 101.404348,45.3416149 134.335404,45.3416149 L164.149068,45.3416149 C197.080124,45.3416149 223.776398,72.0378882 223.776398,104.968944 L223.776398,159.925466 C223.784472,163.773292 224.685714,167.56646 226.409938,171.006211 L233.068323,184.47205 L198.931677,198.981366 C198.318634,199.242236 197.659627,199.37764 196.993789,199.378882 L109.490683,199.378882 C106.746584,199.378882 104.521739,197.154037 104.521739,194.409938 C104.521739,191.665839 106.746584,189.440994 109.490683,189.440994 L149.242236,189.440994 C168.452174,189.440994 184.024845,173.868323 184.024845,154.658385 C184.024845,151.914286 181.8,149.689441 179.055901,149.689441 L144.273292,149.689441 L96.3726708,149.689441 C88.868323,149.68882 81.4614907,151.387578 74.7080745,154.658385 L74.7080745,104.968944 Z M179.354037,10.5590062 L161.614907,35.4037267 L136.770186,35.4037267 L119.130435,10.5590062 L179.354037,10.5590062 Z M69.7391304,298.757764 C71.0596273,298.765217 72.3291925,298.247205 73.2670807,297.31677 L88.173913,282.409938 C89.8360248,280.730435 90.0857143,278.112422 88.7701863,276.149068 L86.2857143,272.42236 L201.217391,245.987578 C207.443478,244.547205 213.468323,242.344099 219.15528,239.428571 L288.720497,203.602484 C298.325466,198.265217 301.785093,186.151553 296.447205,176.546584 C291.109317,166.941615 278.996273,163.482609 269.391304,168.819876 L242.26087,180.496894 L235.304348,166.583851 C234.265217,164.518012 233.720497,162.238509 233.714286,159.925466 L233.714286,104.968944 C233.671429,70.1347826 207.870186,40.7024845 173.341615,36.0993789 L193.217391,8.47204969 C194.810559,6.2378882 194.291304,3.13478261 192.057143,1.54161491 C191.165217,0.905590062 190.088199,0.581987578 188.993789,0.621118012 L109.490683,0.621118012 C106.746584,0.634161491 104.532298,2.8689441 104.54472,5.61304348 C104.549689,6.63850932 104.871429,7.63726708 105.465839,8.47204969 L125.341615,36.0993789 C90.7341615,40.6118012 64.826087,70.068323 64.7701863,104.968944 L64.7701863,160.968944 C62.0149068,163.202484 59.5006211,165.71677 57.2670807,168.47205 L35.3043478,195.950311 L29.1428571,186.708075 C28.4080745,185.539752 27.2198758,184.729814 25.863354,184.47205 C24.5136646,184.280124 23.142236,184.618012 22.0372671,185.416149 L2.16149068,200.322981 C0.896273292,201.27205 0.158385093,202.76646 0.173913043,204.347826 L0.173913043,293.78882 C0.173913043,296.532919 2.39875776,298.757764 5.14285714,298.757764 L69.7391304,298.757764 Z" id="Fill-1" fill="#FFFFFF" mask="url(#mask-2)"></path>
                </g>
                <path d="M50.484472,273.913043 C47.7403727,273.913043 45.515528,271.688199 45.515528,268.944099 C45.515528,266.2 47.7403727,263.975155 50.484472,263.975155 C53.2285714,263.975155 55.4534161,266.2 55.4534161,268.944099 C55.4534161,271.688199 53.2285714,273.913043 50.484472,273.913043 Z M50.484472,254.037267 C42.2515528,254.037267 35.5776398,260.71118 35.5776398,268.944099 C35.5776398,277.177019 42.2515528,283.850932 50.484472,283.850932 C58.7173913,283.850932 65.3913043,277.177019 65.3913043,268.944099 C65.3913043,260.71118 58.7173913,254.037267 50.484472,254.037267 Z" id="Fill-4" fill="#FFFFFF"></path>
                <g id="Group-8" transform="translate(0.000000, 9.316770)">
                    <mask id="mask-4" fill="white">
                        <use xlink:href="#path-3"></use>
                    </mask>
                    <g id="Clip-6"></g>
                    <path d="M256.347826,26.0869565 C253.575776,28.0149068 251.170186,30.421118 249.242236,33.1925466 C247.314286,30.421118 244.908696,28.0149068 242.136646,26.0869565 C244.908696,24.1590062 247.314286,21.7534161 249.242236,18.9813665 C251.170186,21.7534161 253.575776,24.1590062 256.347826,26.0869565 Z M244.273292,5.41614907 C242.895652,13.4484472 236.603727,19.7403727 228.571429,21.1180124 C225.827329,21.1180124 223.602484,23.3428571 223.602484,26.0869565 C223.602484,28.8310559 225.827329,31.0559006 228.571429,31.0559006 C236.603727,32.4341615 242.895652,38.7254658 244.273292,46.757764 C244.273292,49.5018634 246.498137,51.7267081 249.242236,51.7267081 C251.986335,51.7267081 254.21118,49.5018634 254.21118,46.757764 C255.58882,38.7254658 261.880745,32.4341615 269.913043,31.0559006 C272.657143,31.0559006 274.881988,28.8310559 274.881988,26.0869565 C274.881988,23.3428571 272.657143,21.1180124 269.913043,21.1180124 C261.880745,19.7403727 255.58882,13.4484472 254.21118,5.41614907 C254.21118,2.67204969 251.986335,0.447204969 249.242236,0.447204969 C246.498137,0.447204969 244.273292,2.67204969 244.273292,5.41614907 Z" id="Fill-5" fill="#FFFFFF" mask="url(#mask-4)"></path>
                    <path d="M25.6397516,118.360248 C27.5677019,121.132298 29.9732919,123.538509 32.7453416,125.465839 C29.9732919,127.393789 27.5677019,129.8 25.6397516,132.571429 C23.7118012,129.8 21.3062112,127.393789 18.5341615,125.465839 C21.3062112,123.538509 23.7118012,121.132298 25.6397516,118.360248 Z M4.9689441,130.434783 C13.0012422,131.812422 19.2931677,138.104348 20.6708075,146.136646 C20.6708075,148.880745 22.8956522,151.10559 25.6397516,151.10559 C28.3838509,151.10559 30.6086957,148.880745 30.6086957,146.136646 C31.9863354,138.104348 38.2782609,131.812422 46.310559,130.434783 C49.0546584,130.434783 51.2795031,128.209938 51.2795031,125.465839 C51.2795031,122.721739 49.0546584,120.496894 46.310559,120.496894 C38.2782609,119.119255 31.9863354,112.827329 30.6086957,104.795031 C30.6086957,102.050932 28.3838509,99.826087 25.6397516,99.826087 C22.8956522,99.826087 20.6708075,102.050932 20.6708075,104.795031 C19.2931677,112.827329 13.0012422,119.119255 4.9689441,120.496894 C2.22484472,120.496894 0,122.721739 0,125.465839 C0,128.209938 2.22484472,130.434783 4.9689441,130.434783 Z" id="Fill-7" fill="#FFFFFF" mask="url(#mask-4)"></path>
                </g>
            </g>
            <text id="$" font-family="CircularStd-Bold, Circular Std" font-size="86" font-weight="bold" fill="#FFFFFF">
                <tspan x="126" y="125">$</tspan>
            </text>
        </g>
    </g>
</svg>
