<?xml version="1.0" encoding="UTF-8"?>
<svg viewBox="0 0 584 625" version="1.1" xmlns="http://www.w3.org/2000/svg" xmlns:xlink="http://www.w3.org/1999/xlink">
    <!-- Generator: Sketch 48.2 (47327) - http://www.bohemiancoding.com/sketch -->
    <title>Top Doctors</title>
    <desc>Created with Sketch.</desc>
    <defs>
        <circle id="path-1" cx="292" cy="333" r="292"></circle>
    </defs>
    <g id="Service-Page-Icons" stroke="none" stroke-width="1" fill="none" fill-rule="evenodd">
        <g id="Top-Doctors">
            <g id="doctor-(1)">
                <mask id="mask-2" fill="white">
                    <use xlink:href="#path-1"></use>
                </mask>
                <use id="Mask" fill="#FF6F34" xlink:href="#path-1"></use>
                <g mask="url(#mask-2)">
                    <g transform="translate(-24.000000, 32.000000)">
                        <path d="M623,499.328907 L623,593.808773 L0,593.808773 L0,499.328907 C0,474.335227 15.185625,451.813557 38.2755625,442.797773 L169.637303,390.716258 L272.173125,504.314639 L304.348885,438.230381 L304.348885,438.099113 L311.5,423.300175 L318.781312,438.10034 L350.96924,504.314639 L453.36148,390.716258 L584.853418,442.797773 C607.814375,451.95832 623,474.335227 623,499.328907" id="Shape" fill="#F2F2F2" fill-rule="nonzero"></path>
                        <path d="M403.3925,371.087392 L403.522697,371.087392 L403.522697,317.304299 C396.708635,327.721093 388.790937,338.293691 379.58952,348.867515 L366.870342,363.000299 C355.189092,375.811814 338.576164,383.283052 321.313467,383.283052 L301.844717,383.283052 C284.58202,383.283052 267.955707,375.824082 256.287842,363.000299 L243.568664,348.867515 C234.262602,338.202907 226.254861,327.485546 219.414029,316.964474 L219.414029,370.996608 L219.622102,371.100887 L299.703154,416.639856 L311.514602,423.31367 L323.326049,416.639856 L403.3925,371.087392 Z" id="Shape" fill="#EEBBA7" fill-rule="nonzero"></path>
                        <g id="Group" opacity="0.1" stroke-width="1" fill="none" fill-rule="evenodd" transform="translate(277.429687, 317.515464)">
                            <g transform="translate(0.000000, 0.000000)" fill="#40596B" fill-rule="nonzero" id="Shape">
                                <path d="M1.246,60.9781443 C1.168125,60.9523814 1.09025,60.9253918 1.012375,60.8996289 C0.882177734,60.8468763 0.7398125,60.8076186 0.609615234,60.7683608 C0.479417969,60.7033402 0.337052734,60.6898454 0.15575,60.6248247 L49.1001875,97.2780515 L125.962812,53.570701 L126.040687,53.570701 L126.09301,0.0624123711 C125.962812,0.258701031 107.844707,24.1924227 102.159832,31.3250619 L89.4406543,45.4713402 C77.7594043,58.2828557 61.1464766,65.7540928 43.8837793,65.7540928 L24.4150293,65.7540928 C20.4823418,65.7540928 16.6275293,65.3222577 12.8505918,64.5113402 C8.85219727,63.7396804 4.99738477,62.5349588 1.246,60.9781443"></path>
                            </g>
                        </g>
                        <g id="Group" stroke-width="1" fill="none" fill-rule="evenodd" transform="translate(161.833984, 166.845361)">
                            <path d="M58.5778184,40.8636186 C60.6025684,64.3532371 49.2973086,84.5439794 33.3329336,85.9314948 C17.3430059,87.3447732 2.74144336,69.4297526 0.677755859,45.9413608 C-1.34699414,22.4517423 9.95826563,2.28676289 25.9481934,0.873484536 C41.9259531,-0.539793814 56.5530684,17.361732 58.5778184,40.8636186" id="Shape" fill="#EEBBA7" fill-rule="nonzero"></path>
                            <path d="M298.771088,45.9671237 C296.746338,69.4567423 282.119223,87.358268 266.141463,85.9449897 C250.151535,84.5317113 238.832891,64.366732 240.896578,40.8771134 C242.921328,17.3874948 257.548443,-0.526298969 273.526203,0.886979381 C289.516131,2.27326804 300.821391,22.4652371 298.771088,45.9671237" id="Shape" fill="#EEBBA7" fill-rule="nonzero"></path>
                        </g>
                        <path d="M443.95199,207.787495 C441.498928,234.090175 429.142355,292.048082 379.588303,348.840526 L366.869125,362.973309 C355.187875,375.797093 338.574947,383.269557 321.31225,383.269557 L301.8435,383.269557 C284.580803,383.269557 267.95449,375.810588 256.286625,362.973309 L243.567447,348.840526 C193.986625,292.048082 181.78702,234.07668 179.178207,207.787495 C175.673832,171.539113 177.101135,125.477526 179.178207,113.568938 C190.989654,43.8214433 250.186822,0.506670103 311.579092,0.506670103 C372.957977,0.506670103 432.142977,43.8214433 443.953207,113.568938 C446.029062,125.477526 447.456365,171.552608 443.95199,207.787495" id="Shape" fill="#FCCCB9" fill-rule="nonzero"></path>
                        <g id="Group" stroke-width="1" fill="none" fill-rule="evenodd" transform="translate(169.134766, 370.494845)">
                            <polygon id="Shape" fill="#CDD6E0" fill-rule="nonzero" points="284.227932 20.2214124 188.45385 146.892619 142.365234 52.8053299 154.176682 46.1315155 234.257734 0.592546392 234.387932 0.592546392 234.516912 0.461278351"></polygon>
                            <polygon id="Shape" fill="#CDD6E0" fill-rule="nonzero" points="0.502537109 20.2214124 96.4323691 146.892619 142.365234 52.8053299 130.553787 46.1315155 50.4727344 0.592546392 50.2135566 0.461278351"></polygon>
                        </g>
                        <polygon id="Shape" fill="#43484D" fill-rule="nonzero" points="265.567135 593.808773 291.772072 533.614402 280.466812 516.863619 272.18651 504.301144 304.348885 438.10034 311.5 423.300175 318.781312 438.10034 318.781312 438.230381 350.96924 504.301144 342.533187 516.745845 331.227928 533.614402 357.588615 593.808773"></polygon>
                    </g>
                </g>
                <path d="M186.049232,65.5626878 C186.049232,65.5626878 186.957691,-22.6181447 313.942506,5.5529663 C313.942506,5.5529663 376.948456,25.5381988 417.48616,84.6577505 C417.48616,84.6577505 455.52104,140.424125 434.842957,187.336686 C428.123765,202.567798 420.910819,220.000392 421.741445,234 C421.741445,234 414.697543,204.283063 410.494552,179.517926 C406.978682,158.772673 398.132456,139.337504 384.550568,123.385661 L384.148025,122.900672 C362.160154,97.191341 327.744516,85.1685238 295.19809,93.6429401 C279.670373,97.6898361 262.002243,105.587177 242.56949,119.588013 C242.56949,119.588013 189.668474,83.7417965 163.516529,146.48833 C163.516529,146.48833 151.867093,192.35356 153.514967,228.579173 C153.514967,228.564439 80.7020377,74.6522421 186.049232,65.5626878" id="Shape" fill="#43484D" fill-rule="nonzero"></path>
            </g>
        </g>
    </g>
</svg>
