<?xml version="1.0" encoding="UTF-8"?>
<svg viewBox="0 0 642 594" version="1.1" xmlns="http://www.w3.org/2000/svg" xmlns:xlink="http://www.w3.org/1999/xlink">
    <!-- Generator: Sketch 48.2 (47327) - http://www.bohemiancoding.com/sketch -->
    <title>Instant Appointments</title>
    <desc>Created with Sketch.</desc>
    <defs></defs>
    <g id="Service-Page-Icons" stroke="none" stroke-width="1" fill="none" fill-rule="evenodd">
        <g id="Instant-Appointments" fill-rule="nonzero">
            <g id="test" transform="translate(58.000000, 10.000000)" fill="#FF6F34">
                <path d="M584,292 C584,359.529562 561.081422,421.707313 522.584187,471.169375 C516.422531,479.083031 509.867359,486.675031 502.942625,493.897469 C449.787219,549.424234 374.928,584 292,584 C269.033516,584 246.674984,581.342344 225.233516,576.324734 C178.370937,565.371313 135.857563,543.132547 100.698938,512.609422 C93.8574687,506.673609 87.3022969,500.428688 81.057375,493.886062 C78.4236719,491.145141 75.8492813,488.356312 73.3342031,485.519578 C27.6977969,433.995266 0,366.227313 0,292 C0,217.760141 27.7103437,149.992188 73.3342031,98.4815625 C75.8492813,95.6334219 78.4236719,92.8445938 81.057375,90.1025312 C88.375625,82.4512187 96.1102031,75.2048281 104.214344,68.3873125 C115.608047,58.8049219 127.753422,50.0802813 140.529562,42.3103438 C140.601422,42.2624375 140.672141,42.2270781 140.744,42.1791719 C144.140781,40.1169219 147.585469,38.1265313 151.076922,36.208 C192.851172,13.12175 240.894297,0 292,0 C343.105703,0 391.137422,13.1342969 432.923078,36.208 C436.403125,38.115125 439.835266,40.1055156 443.232047,42.166625 C465.209609,55.4914063 485.280047,71.6289687 502.942625,90.0899844 C509.867359,97.3249688 516.433937,104.916969 522.584187,112.830625 C561.081422,162.292687 584,224.470438 584,292 Z" id="Shape"></path>
            </g>
            <path d="M179.032174,202.275757 L99.1230718,202.275757 C94.0848359,202.275757 90,198.184291 90,193.137879 C90,188.091466 94.0848359,184 99.1230718,184 L179.032174,184 C184.07041,184 188.155246,188.091466 188.155246,193.137879 C188.155246,198.184291 184.07041,202.275757 179.032174,202.275757 Z" id="Shape" fill="#374266"></path>
            <path d="M152.032174,281.275757 L52.1230718,281.275757 C47.0848359,281.275757 43,277.184291 43,272.137879 C43,267.091466 47.0848359,263 52.1230718,263 L152.032174,263 C157.07041,263 161.155246,267.091466 161.155246,272.137879 C161.155246,277.184291 157.07041,281.275757 152.032174,281.275757 Z" id="Shape-Copy" fill="#374266"></path>
            <path d="M139.032174,360.275757 L9.12307179,360.275757 C4.0848359,360.275757 0,356.184291 0,351.137879 C0,346.091466 4.0848359,342 9.12307179,342 L139.032174,342 C144.07041,342 148.155246,346.091466 148.155246,351.137879 C148.155246,356.184291 144.07041,360.275757 139.032174,360.275757 Z" id="Shape-Copy-2" fill="#374266"></path>
            <g id="racing" transform="translate(204.000000, 0.000000)">
                <polygon id="Shape" fill="#C7CFE2" points="315.396 150.354 300.5 140.879 326.677 99.737 341.574 109.212"></polygon>
                <path d="M350.025,119.829 L354.769,112.377 C357.387,108.264 356.176,102.808 352.063,100.189 L330.422,86.411 C326.309,83.793 320.853,85.004 318.234,89.117 L313.49,96.569 C310.872,100.682 312.083,106.138 316.196,108.757 L337.837,122.535 C341.95,125.153 347.406,123.942 350.025,119.829 Z" id="Shape" fill="#D7DEED"></path>
                <polygon id="Shape" fill="#C7CFE2" points="92.604 150.354 66.426 109.212 81.323 99.737 107.5 140.879"></polygon>
                <path d="M204,105.931 C174.793,105.931 151.034,82.173 151.034,52.965 C151.034,23.757 174.793,0 204,0 C233.207,0 256.966,23.758 256.966,52.966 C256.966,82.174 233.207,105.931 204,105.931 Z M204,17.655 C184.526,17.655 168.69,33.492 168.69,52.965 C168.69,72.438 184.527,88.275 204,88.275 C223.473,88.275 239.31,72.438 239.31,52.965 C239.31,33.492 223.474,17.655 204,17.655 Z" id="Shape" fill="#D7DEED"></path>
                <rect id="Rectangle-path" fill="#C7CFE2" x="195.172" y="61.793" width="17.655" height="52.966"></rect>
                <g id="Group" transform="translate(0.000000, 44.000000)" fill="#D7DEED">
                    <circle id="Oval" cx="204" cy="264.966" r="203.034"></circle>
                    <path d="M217.241,26.621 L190.758,26.621 C185.883,26.621 181.93,22.668 181.93,17.793 L181.93,8.965 C181.93,4.09 185.883,0.137 190.758,0.137 L217.241,0.137 C222.116,0.137 226.069,4.09 226.069,8.965 L226.069,17.793 C226.069,22.668 222.116,26.621 217.241,26.621 Z" id="Shape"></path>
                </g>
                <circle id="Oval" fill="#C7CFE2" cx="204" cy="308.966" r="185.379"></circle>
                <circle id="Oval" fill="#FFFFFF" cx="204" cy="308.966" r="167.724"></circle>
                <path d="M57.975,119.829 L53.231,112.377 C50.613,108.264 51.824,102.808 55.937,100.189 L77.578,86.411 C81.691,83.793 87.147,85.004 89.766,89.117 L94.51,96.569 C97.128,100.682 95.917,106.138 91.804,108.757 L70.163,122.535 C66.049,125.153 60.593,123.942 57.975,119.829 Z" id="Shape" fill="#D7DEED"></path>
                <g id="Group" transform="translate(53.000000, 158.000000)" fill="#43484D">
                    <path d="M151,0.897 C146.125,0.897 142.172,4.85 142.172,9.725 L142.172,27.38 C142.172,32.255 146.125,36.208 151,36.208 C155.875,36.208 159.828,32.255 159.828,27.38 L159.828,9.725 C159.828,4.849 155.875,0.897 151,0.897 Z" id="Shape"></path>
                    <path d="M151,265.724 C146.125,265.724 142.172,269.677 142.172,274.552 L142.172,292.207 C142.172,297.082 146.125,301.035 151,301.035 C155.875,301.035 159.828,297.082 159.828,292.207 L159.828,274.552 C159.828,269.677 155.875,265.724 151,265.724 Z" id="Shape"></path>
                    <path d="M301.069,150.966 C301.069,146.091 297.116,142.138 292.241,142.138 L274.586,142.138 C269.711,142.138 265.758,146.091 265.758,150.966 C265.758,155.841 269.711,159.794 274.586,159.794 L292.241,159.794 C297.116,159.793 301.069,155.841 301.069,150.966 Z" id="Shape"></path>
                    <path d="M36.241,150.966 C36.241,146.091 32.288,142.138 27.413,142.138 L9.758,142.138 C4.883,142.138 0.93,146.091 0.93,150.966 C0.93,155.841 4.883,159.794 9.758,159.794 L27.413,159.794 C32.289,159.793 36.241,155.841 36.241,150.966 Z" id="Shape"></path>
                </g>
                <g id="Group" transform="translate(72.000000, 177.000000)" fill="#8F96AC">
                    <path d="M56.966,261.929 C61.188,264.367 66.587,262.92 69.024,258.698 L77.852,243.409 C80.29,239.187 78.843,233.788 74.621,231.35 C70.399,228.912 65,230.359 62.563,234.581 L53.735,249.87 C51.297,254.092 52.744,259.491 56.966,261.929 Z" id="Shape"></path>
                    <path d="M189.379,32.581 C193.601,35.019 199,33.572 201.438,29.35 L210.266,14.061 C212.704,9.839 211.257,4.44 207.035,2.003 C202.813,-0.435 197.414,1.012 194.976,5.234 L186.148,20.523 C183.711,24.745 185.158,30.144 189.379,32.581 Z" id="Shape"></path>
                    <path d="M2.037,56.931 C-0.401,61.153 1.046,66.552 5.268,68.989 L20.557,77.817 C24.779,80.255 30.178,78.808 32.615,74.586 C35.053,70.364 33.606,64.965 29.384,62.528 L14.095,53.7 C9.873,51.263 4.474,52.709 2.037,56.931 Z" id="Shape"></path>
                    <path d="M231.384,189.345 C228.946,193.567 230.393,198.966 234.615,201.404 L249.904,210.232 C254.126,212.67 259.525,211.223 261.962,207.001 C264.4,202.779 262.953,197.38 258.731,194.942 L243.442,186.114 C239.22,183.676 233.822,185.123 231.384,189.345 Z" id="Shape"></path>
                    <path d="M207.034,261.929 C202.812,264.367 197.413,262.92 194.975,258.698 L186.147,243.409 C183.709,239.187 185.156,233.788 189.378,231.35 C193.6,228.912 198.999,230.359 201.437,234.581 L210.265,249.87 C212.703,254.092 211.256,259.491 207.034,261.929 Z" id="Shape"></path>
                    <path d="M74.621,32.581 C70.399,35.019 65,33.572 62.563,29.35 L53.735,14.061 C51.297,9.839 52.744,4.44 56.966,2.003 C61.188,-0.435 66.587,1.012 69.024,5.234 L77.852,20.523 C80.289,24.745 78.842,30.144 74.621,32.581 Z" id="Shape"></path>
                    <path d="M261.963,56.931 C264.401,61.153 262.954,66.552 258.732,68.989 L243.443,77.817 C239.221,80.255 233.822,78.808 231.384,74.586 C228.946,70.364 230.393,64.965 234.615,62.528 L249.904,53.7 C254.126,51.263 259.526,52.709 261.963,56.931 Z" id="Shape"></path>
                    <path d="M32.616,189.345 C35.054,193.567 33.607,198.966 29.385,201.404 L14.096,210.232 C9.874,212.67 4.475,211.223 2.038,207.001 C-0.4,202.779 1.047,197.38 5.269,194.942 L20.558,186.114 C24.779,183.676 30.178,185.123 32.616,189.345 Z" id="Shape"></path>
                </g>
                <path d="M301.103,414.897 C298.844,414.897 296.585,414.035 294.862,412.311 L180.104,297.551 C176.656,294.103 176.656,288.516 180.104,285.068 C183.552,281.62 189.139,281.62 192.587,285.068 L307.346,399.827 C310.794,403.275 310.794,408.862 307.346,412.31 C305.621,414.035 303.362,414.897 301.103,414.897 Z" id="Shape" fill="#FF6464"></path>
                <circle id="Oval" fill="#C7CFE2" cx="204" cy="308.966" r="17.655"></circle>
            </g>
        </g>
    </g>
</svg>
