<?xml version="1.0" encoding="UTF-8"?>
<svg viewBox="0 0 300 300" version="1.1" xmlns="http://www.w3.org/2000/svg" xmlns:xlink="http://www.w3.org/1999/xlink">
    <!-- Generator: Sketch 48.2 (47327) - http://www.bohemiancoding.com/sketch -->
    <title>Problem Oriented Explanations Problem Oriented Explanations</title>
    <desc>Created with Sketch.</desc>
    <defs></defs>
    <g id="09-Service-Page-Icons" stroke="none" stroke-width="1" fill="none" fill-rule="evenodd">
        <g id="Problem-Oriented-Explanations-Problem-Oriented-Explanations" fill="#FFFFFF" fill-rule="nonzero">
            <g id="noun_Giving-advice_1170517" transform="translate(1.000000, 0.000000)">
                <g id="Group">
                    <path d="M10.875,91.25 L22.125,91.25 L22.125,121.5625 C22.125,122.8125 22.75,124.0625 24,124.375 C24.3125,124.6875 24.9375,124.6875 25.25,124.6875 C26.1875,124.6875 26.8125,124.375 27.4375,123.75 L59.9375,91.25 L152.75,91.25 C154.625,91.25 155.875,90 155.875,88.125 L155.875,3.125 C155.875,1.25 154.625,0 152.75,0 L10.875,0 C9,0 7.75,1.25 7.75,3.125 L7.75,88.125 C7.75,89.6875 9.3125,91.25 10.875,91.25 Z M14,6.25 L149.625,6.25 L149.625,85 L58.6875,85 C57.75,85 57.125,85.3125 56.5,85.9375 L28.375,114.0625 L28.375,88.125 C28.375,86.25 27.125,85 25.25,85 L14,85 L14,6.25 Z" id="Shape"></path>
                    <path d="M52.75,29.375 L128.375,29.375 C130.25,29.375 131.5,28.125 131.5,26.25 C131.5,24.375 130.25,23.125 128.375,23.125 L52.75,23.125 C50.875,23.125 49.625,24.375 49.625,26.25 C49.625,28.125 50.875,29.375 52.75,29.375 Z" id="Shape"></path>
                    <path d="M52.75,50 L128.375,50 C130.25,50 131.5,48.75 131.5,46.875 C131.5,45 130.25,43.75 128.375,43.75 L52.75,43.75 C50.875,43.75 49.625,45 49.625,46.875 C49.625,48.75 50.875,50 52.75,50 Z" id="Shape"></path>
                    <path d="M52.75,70.9375 L98.375,70.9375 C100.25,70.9375 101.5,69.6875 101.5,67.8125 C101.5,65.9375 100.25,64.6875 98.375,64.6875 L52.75,64.6875 C50.875,64.6875 49.625,65.9375 49.625,67.8125 C49.625,69.6875 50.875,70.9375 52.75,70.9375 Z" id="Shape"></path>
                    <path d="M287.4375,47.8125 L177.4375,47.8125 C175.5625,47.8125 174.3125,49.0625 174.3125,50.9375 L174.3125,116.875 C174.3125,118.75 175.5625,120 177.4375,120 L249.3125,120 L274.3125,145 C274.9375,145.625 275.5625,145.9375 276.5,145.9375 C276.8125,145.9375 277.4375,145.9375 277.75,145.625 C279,145 279.625,144.0625 279.625,142.8125 L279.625,120 L287.75,120 C289.625,120 290.875,118.75 290.875,116.875 L290.875,50.9375 C290.5625,49.375 289.3125,47.8125 287.4375,47.8125 Z M284.3125,113.75 L276.1875,113.75 C274.3125,113.75 273.0625,115 273.0625,116.875 L273.0625,135.3125 L252.4375,114.6875 C251.8125,114.0625 251.1875,113.75 250.25,113.75 L180.5625,113.75 L180.5625,54.0625 L284.625,54.0625 L284.625,113.75 L284.3125,113.75 Z" id="Shape"></path>
                    <path d="M44,148.4375 C44,172.5 63.6875,192.1875 87.75,192.1875 C111.8125,192.1875 131.5,172.5 131.5,148.4375 C131.5,124.375 111.8125,104.6875 87.75,104.6875 C63.375,104.6875 44,124.0625 44,148.4375 Z M125.25,148.4375 C125.25,169.0625 108.375,185.9375 87.75,185.9375 C67.125,185.9375 50.25,169.0625 50.25,148.4375 C50.25,127.8125 67.125,110.9375 87.75,110.9375 C108.375,110.9375 125.25,127.5 125.25,148.4375 Z" id="Shape"></path>
                    <path d="M246.8125,171.25 C246.8125,150.3125 229.9375,133.4375 209,133.4375 C188.0625,133.4375 171.1875,150.3125 171.1875,171.25 C171.1875,192.1875 188.0625,209.0625 209,209.0625 C229.625,209.0625 246.8125,192.1875 246.8125,171.25 Z M177.125,171.25 C177.125,153.75 191.1875,139.6875 208.6875,139.6875 C226.1875,139.6875 240.25,153.75 240.25,171.25 C240.25,188.75 225.875,202.8125 208.6875,202.8125 C191.1875,202.8125 177.125,188.75 177.125,171.25 Z" id="Shape"></path>
                    <path d="M208.6875,218.75 C189.9375,218.75 172.4375,224.0625 159.3125,232.5 C143.6875,215.625 117.4375,204.375 87.4375,204.375 C39.9375,204.375 1.5,232.5 1.1875,267.1875 C0.875,268.75 0.25,273.125 4,278.125 C13.375,290.9375 41.5,297.8125 87.75,297.8125 C113.6875,297.8125 134,295.625 148.375,291.5625 C160.875,297.1875 180.875,300 208.6875,300 C248.375,300 272.75,294.375 280.875,283.125 C284,278.75 283.6875,274.6875 283.375,273.4375 C283.0625,243.125 249.625,218.75 208.6875,218.75 Z M87.75,291.5625 C30.5625,291.5625 14,281.25 9.3125,275 C6.5,271.5625 7.4375,268.75 7.4375,268.75 C7.4375,268.4375 7.75,268.125 7.75,267.8125 C7.75,236.25 43.6875,210.625 87.75,210.625 C115.5625,210.625 140.25,220.9375 154.3125,236.25 C141.8125,245.9375 134.3125,259.0625 134.3125,273.125 C134,274.6875 133.6875,278.4375 136.8125,282.8125 C137.75,284.375 139.3125,285.625 140.875,286.875 C129,289.6875 111.8125,291.5625 87.75,291.5625 Z M275.5625,279.6875 C271.5,285 257.4375,293.75 208.6875,293.75 C159.9375,293.75 145.875,285 141.8125,279.6875 C139.625,276.875 140.25,274.6875 140.25,274.6875 C140.25,274.375 140.5625,274.0625 140.5625,273.75 C140.5625,246.875 171.1875,225 208.6875,225 C246.1875,225 276.8125,246.875 276.8125,273.4375 C276.8125,273.75 276.8125,274.0625 276.8125,274.375 C277.125,274.6875 277.75,276.875 275.5625,279.6875 Z" id="Shape"></path>
                    <path d="M232.125,65.625 L232.125,88.125" id="Shape" stroke="#FFFFFF" stroke-width="5" stroke-linecap="round"></path>
                    <circle id="Oval" cx="232.125" cy="99.0625" r="3.125"></circle>
                </g>
            </g>
        </g>
    </g>
</svg>
