<?xml version="1.0" encoding="UTF-8"?>
<svg viewBox="0 0 300 300" version="1.1" xmlns="http://www.w3.org/2000/svg" xmlns:xlink="http://www.w3.org/1999/xlink">
    <!-- Generator: Sketch 48.2 (47327) - http://www.bohemiancoding.com/sketch -->
    <title>Flexible Financing Options</title>
    <desc>Created with Sketch.</desc>
    <defs></defs>
    <g id="09-Service-Page-Icons" stroke="none" stroke-width="1" fill="none" fill-rule="evenodd">
        <g id="Flexible-Financing-Options" fill="#808080">
            <g id="Group-2" transform="translate(42.000000, 0.000000)" fill-rule="nonzero">
                <g id="noun_options_1796199">
                    <path d="M0,21.5 C0,24.467 2.38933333,26.875 5.33333333,26.875 L22.0346667,26.875 C24.4133333,36.1334375 32.7466667,43 42.6666667,43 C52.5866667,43 60.92,36.1334375 63.2986667,26.875 L170.666667,26.875 C173.610667,26.875 176,24.467 176,21.5 C176,18.533 173.610667,16.125 170.666667,16.125 L63.2986667,16.125 C60.92,6.8665625 52.5866667,0 42.6666667,0 C32.7466667,0 24.4133333,6.8665625 22.0346667,16.125 L5.33333333,16.125 C2.38933333,16.125 0,18.533 0,21.5 Z M42.6666667,10.75 C48.5493333,10.75 53.3333333,15.571375 53.3333333,21.5 C53.3333333,27.428625 48.5493333,32.25 42.6666667,32.25 C36.784,32.25 32,27.428625 32,21.5 C32,15.571375 36.784,10.75 42.6666667,10.75 Z" id="Shape"></path>
                    <path d="M5.33333333,74.875 L67.368,74.875 C69.7466667,84.1334375 78.08,91 88,91 C97.92,91 106.253333,84.1334375 108.632,74.875 L154.666667,74.875 C157.610667,74.875 160,72.467 160,69.5 C160,66.533 157.610667,64.125 154.666667,64.125 L108.632,64.125 C106.253333,54.8665625 97.92,48 88,48 C78.08,48 69.7466667,54.8665625 67.368,64.125 L5.33333333,64.125 C2.38933333,64.125 0,66.533 0,69.5 C0,72.467 2.38933333,74.875 5.33333333,74.875 Z M88,58.75 C93.8826667,58.75 98.6666667,63.571375 98.6666667,69.5 C98.6666667,75.428625 93.8826667,80.25 88,80.25 C82.1173333,80.25 77.3333333,75.428625 77.3333333,69.5 C77.3333333,63.571375 82.1173333,58.75 88,58.75 Z" id="Shape"></path>
                    <path d="M170.666667,122.875 C173.610667,122.875 176,120.467 176,117.5 C176,114.533 173.610667,112.125 170.666667,112.125 L153.965333,112.125 C151.586667,102.866563 143.253333,96 133.333333,96 C123.413333,96 115.08,102.866563 112.701333,112.125 L21.3333333,112.125 C18.3893333,112.125 16,114.533 16,117.5 C16,120.467 18.3893333,122.875 21.3333333,122.875 L112.701333,122.875 C115.08,132.133438 123.413333,139 133.333333,139 C143.253333,139 151.586667,132.133438 153.965333,122.875 L170.666667,122.875 Z M133.333333,128.25 C127.450667,128.25 122.666667,123.428625 122.666667,117.5 C122.666667,111.571375 127.450667,106.75 133.333333,106.75 C139.216,106.75 144,111.571375 144,117.5 C144,123.428625 139.216,128.25 133.333333,128.25 Z" id="Shape"></path>
                    <circle id="Oval" cx="5.5" cy="117.5" r="5.5"></circle>
                    <circle id="Oval" cx="170.5" cy="69.5" r="5.5"></circle>
                </g>
            </g>
            <g id="noun_pointer-hand_692985" transform="translate(140.000000, 131.000000)">
                <g id="Group" transform="translate(59.000000, 84.500000) scale(-1, 1) rotate(-180.000000) translate(-59.000000, -84.500000) ">
                    <g id="Shape">
                        <g>
                            <path d="M91.745,0.354782609 L34.3920833,0.611014493 C31.9657083,0.620869565 29.9621667,2.51797101 29.8122083,4.94478261 C28.6420417,23.9971014 17.2107917,38.5013043 6.70879167,54.5453623 C1.76016667,62.1042029 -0.87025,71.6931884 1.13820833,80.0478261 C3.02129167,87.8949275 8.791,93.807971 18.3367083,95.7617391 L19.9100417,95.976087 L19.9100417,151.891304 L19.883,153.514928 C20.008375,157.885652 21.5595833,161.61087 24.4677917,164.306232 C27.6808333,167.284928 31.9755417,168.457681 36.1915833,168.457681 C40.791125,168.457681 45.5750417,167.80971 48.8175833,164.311159 C51.9962083,160.884058 52.5517917,155.922029 52.369875,150.780145 L52.3059583,127.694638 L54.0857917,128.19971 C55.3002083,128.416522 56.53675,128.517536 57.7634583,128.517536 C60.1775417,128.517536 62.49575,128.332754 64.5877917,127.756232 C66.7412917,127.162464 68.7645,126.125217 70.3894583,124.371014 C71.1835,123.511159 71.8152917,122.557681 72.311875,121.53029 L73.0174167,119.445942 L76.2747083,120.367391 C77.489125,120.584203 78.7232083,120.685217 79.9499167,120.685217 C82.364,120.685217 84.6822083,120.500435 86.77425,119.923913 C88.9252917,119.330145 90.9485,118.292899 92.5734583,116.538696 C94.164,114.821449 95.0981667,112.724783 95.6095,110.413768 L95.646375,110.142754 L96.354375,110.263478 C97.1410417,110.34971 97.9350833,110.391594 98.729125,110.391594 C103.97275,110.391594 108.48625,109.073478 111.689458,104.845652 C114.46,101.186957 115.753083,95.8775362 116.844583,89.5998551 C121.675208,58.0315942 99.2773333,24.9924638 96.3297917,4.31898551 C96.0028333,2.03753623 94.046,0.342463768 91.745,0.354782609 Z M87.9419583,9.60623188 L88.0230833,10.0398551 C93.0921667,32.5488406 111.839417,61.3650725 107.746292,88.1043478 C106.640042,94.4682609 105.590333,97.6169565 104.346417,99.2578261 C103.535167,100.329565 102.362542,101.152464 98.729125,101.152464 C97.7507083,101.152464 96.8829167,101.048986 96.1159167,100.866667 L95.9757917,86.966087 C95.9536667,84.416087 93.869,82.3662319 91.324625,82.3908696 C88.78025,82.4130435 86.7349167,84.5023188 86.7595,87.0523188 L86.9094583,103.199855 C87.084,108.216087 86.2899583,109.743623 85.8204167,110.251159 C85.4049583,110.697101 84.2200417,111.446087 79.9499167,111.446087 C76.8647083,111.446087 74.9595,110.455652 73.9614167,109.191739 L73.7893333,94.795942 C73.7672083,92.245942 71.6825417,90.196087 69.1381667,90.2207246 C66.5937917,90.2428986 64.5484583,92.3321739 64.5730417,94.8821739 L64.7254583,111.027246 C64.9,116.043478 64.1059583,117.573478 63.6364167,118.083478 C63.2209583,118.52942 62.031125,119.278406 57.7634583,119.278406 C55.4477083,119.278406 53.7981667,118.71913 52.7140417,117.92087 L52.2789167,117.502029 L52.2174583,94.3549275 C52.2125417,91.8049275 50.1401667,89.7427536 47.5957917,89.7501449 C45.0514167,89.7550725 42.9937917,91.832029 43.0011667,94.382029 L43.1535833,150.955072 C43.328125,155.986087 42.539,157.508696 42.0645417,158.023623 C41.6490833,158.469565 40.4617083,159.218551 36.1915833,159.218551 C33.5587083,159.218551 31.764125,158.484348 30.7267083,157.523478 C29.7925417,156.656232 28.9345833,155.126232 29.1189583,152.177101 L29.1287917,151.891304 L29.1287917,69.9365217 C29.1287917,67.3865217 27.0613333,65.3169565 24.5194167,65.3169565 C21.9750417,65.3169565 19.9100417,67.3865217 19.9100417,69.9365217 L19.9100417,86.6334783 L17.759,86.0618841 C13.075875,84.4407246 10.922375,81.3068116 10.1012917,77.8846377 C8.857375,72.7082609 10.4135,65.7284058 14.4156667,59.6133333 C22.987875,46.5184058 34.3478333,31.8589855 37.9665,13.5753623 L38.5835417,9.82797101 L87.9419583,9.60623188 Z"></path>
                        </g>
                    </g>
                </g>
            </g>
        </g>
    </g>
</svg>
