<?xml version="1.0" encoding="UTF-8"?>
<svg viewBox="0 0 300 300" version="1.1" xmlns="http://www.w3.org/2000/svg" xmlns:xlink="http://www.w3.org/1999/xlink">
    <!-- Generator: Sketch 48.2 (47327) - http://www.bohemiancoding.com/sketch -->
    <title>Know Where You Are</title>
    <desc>Created with Sketch.</desc>
    <defs></defs>
    <g id="09-Service-Page-Icons" stroke="none" stroke-width="1" fill="none" fill-rule="evenodd">
        <g id="Know-Where-You-Are" fill="#808080" fill-rule="nonzero">
            <g id="map-location" transform="translate(0.000000, 5.000000)">
                <path d="M281.847429,120.38835 L222.416708,120.38835 C219.401276,120.38835 216.963848,122.83824 216.963848,125.869089 C216.963848,128.899937 219.401276,131.349828 222.416708,131.349828 L272.04864,131.349828 L287.856481,279.329784 L12.3670865,279.329784 L30.9231692,131.349828 L80.6423469,131.349828 C83.6577785,131.349828 86.0952069,128.899937 86.0952069,125.869089 C86.0952069,122.83824 83.6577785,120.38835 80.6423469,120.38835 L21.3043241,120.38835 L0,290.291262 L300,290.291262 L281.847429,120.38835 Z" id="Shape"></path>
                <path d="M95.9533508,241.308575 C92.6927396,242.841108 89.3709224,244.262184 86.0824903,245.538366 C83.2169361,246.64179 81.7925052,249.868468 82.8997776,252.744057 C83.7510976,254.950905 85.8543588,256.31068 88.0911603,256.31068 C88.7588623,256.31068 89.4376926,256.19365 90.0942662,255.937299 C93.6275223,254.571951 97.1885994,253.044991 100.682906,251.406574 C103.464998,250.102528 104.661297,246.781111 103.353714,243.994687 C102.051695,241.202691 98.757699,239.993383 95.9533508,241.308575 Z" id="Shape"></path>
                <path d="M200.004719,200.466048 C200.116913,203.472562 202.489016,205.825243 205.336608,205.825243 C205.411404,205.825243 205.4862,205.825243 205.560996,205.819654 L216.256829,205.361412 C219.20593,205.221705 221.48721,202.606373 221.353645,199.527211 C221.220081,196.436872 218.660988,193.916541 215.770655,194.195957 L205.122905,194.654199 C202.173804,194.777142 199.88184,197.381297 200.004719,200.466048 Z" id="Shape"></path>
                <path d="M171.244621,198.020566 C168.340849,198.638247 166.491039,201.520756 167.109435,204.452029 C167.64717,206.998606 169.878773,208.737864 172.363111,208.737864 C172.734148,208.737864 173.11594,208.699936 173.492355,208.618663 C176.643485,207.9468 180.058105,207.377883 183.634046,206.92275 C186.580837,206.559728 188.678005,203.850603 188.306968,200.881402 C187.941308,197.906783 185.284894,195.734065 182.311217,196.172943 C178.42339,196.655167 174.696883,197.278266 171.244621,198.020566 Z" id="Shape"></path>
                <path d="M122.51554,225.384672 C119.771921,227.539732 116.937558,229.611477 114.081845,231.533257 C111.610452,233.205094 110.905865,236.643192 112.512537,239.220377 C113.532053,240.858888 115.250819,241.747573 116.996274,241.747573 C117.994439,241.747573 118.997942,241.45875 119.900027,240.853334 C122.958576,238.787143 126.00645,236.565432 128.947568,234.254853 C131.296192,232.405279 131.765917,228.922747 129.993773,226.47331 C128.216292,224.046091 124.880178,223.540652 122.51554,225.384672 Z" id="Shape"></path>
                <path d="M54.5042309,261.204836 C55.6616367,261.515198 56.840476,261.738441 58.0032401,261.88001 C59.3749803,262.048803 60.7467205,262.135922 62.1238191,262.135922 C63.7956274,262.135922 65.4781525,262.016133 67.1553193,261.798335 C70.0917006,261.422634 72.1761027,258.700158 71.8010175,255.716325 C71.436649,252.732492 68.7681857,250.636186 65.8157292,250.995553 C63.6563101,251.27869 61.4700991,251.34403 59.3053216,251.077227 C58.5926597,250.984663 57.8853562,250.848539 57.183411,250.668856 C54.327405,249.890228 51.396382,251.665282 50.6569283,254.578331 C49.9174746,257.485934 51.6375082,260.458877 54.5042309,261.204836 Z" id="Shape"></path>
                <path d="M254.856553,173.592893 C253.985201,176.435127 255.557884,179.460732 258.357899,180.339829 C258.883897,180.501626 259.409896,180.582524 259.930582,180.582524 C262.199284,180.582524 264.297967,179.099385 265.004612,176.785688 C265.53061,175.076032 265.854711,173.334018 265.976913,171.58661 C266.003478,171.138971 266.019417,170.691333 266.019417,170.238301 C266.019417,167.719661 265.562489,165.195628 264.664572,162.741706 C263.644453,159.942618 260.568156,158.52959 257.837213,159.559698 C255.079704,160.595199 253.682353,163.701702 254.702472,166.490004 C255.1594,167.741234 255.393178,169.003251 255.393178,170.232908 L255.371925,170.858523 C255.313481,171.7538 255.138148,172.67065 254.856553,173.592893 Z" id="Shape"></path>
                <path d="M55.9321706,219.417476 C56.8078407,219.417476 57.6943886,219.198561 58.5211082,218.738279 C60.0984021,217.857008 61.768158,217.306915 63.4868645,217.116066 C64.221122,217.026255 64.9716963,217.026255 65.6950759,217.127292 C68.7572017,217.520216 71.4059677,215.364749 71.7975717,212.299945 C72.1891757,209.223915 70.095182,206.406091 67.1200794,206.001941 C65.4992739,205.777414 63.8512738,205.7718 62.2739799,205.957036 C59.1629036,206.310667 56.1497284,207.292976 53.3323551,208.875897 C50.6944671,210.35778 49.7100181,213.759376 51.1458995,216.481775 C52.1303484,218.356582 54.0013453,219.417476 55.9321706,219.417476 Z" id="Shape"></path>
                <path d="M236.310469,191.366025 C233.414397,191.958907 231.551489,194.789782 232.151045,197.679411 C232.675657,200.205834 234.902582,201.941748 237.391812,201.941748 C237.745122,201.941748 238.114492,201.904359 238.478509,201.829581 C242.996596,200.900199 246.658174,199.420666 249.570306,197.369617 C249.886144,197.161308 250.180569,196.942315 250.474994,196.717982 C252.808982,194.90729 253.039169,191.691843 251.22444,189.357706 C249.420417,187.034252 245.860549,186.740482 243.526561,188.561857 C241.695772,189.838421 239.40461,190.730414 236.310469,191.366025 Z" id="Shape"></path>
                <path d="M48.3570281,232.011757 C49.125523,229.153776 47.4507341,226.210001 44.6258528,225.437863 C41.8221713,224.644277 38.8912907,226.344052 38.1280957,229.212758 C37.4603001,231.700757 37.0628028,234.242377 36.9356036,236.751825 C36.9091038,237.368462 36.8932039,237.990462 36.8932039,238.612462 C36.8932039,239.668789 36.9409036,240.730478 37.0416029,241.786806 C37.322501,244.54827 39.6226858,246.601942 42.3097681,246.601942 C42.4846669,246.601942 42.6648657,246.591218 42.8556645,246.575131 C45.7653453,246.269494 47.8853312,243.642081 47.5938332,240.692944 C47.5196337,240.001237 47.4931338,239.298806 47.4931338,238.6071 C47.4931338,238.162048 47.5090337,237.716997 47.5302336,237.277307 C47.615033,235.534635 47.8906312,233.759791 48.3570281,232.011757 Z" id="Shape"></path>
                <path d="M243.895983,146.865271 C239.662158,146.301761 235.272716,146.652626 231.092551,147.822175 C228.237804,148.614279 226.57969,151.5541 227.389966,154.376966 C228.055358,156.721381 230.20715,158.252427 232.546755,158.252427 C233.035067,158.252427 233.523379,158.188634 234.006324,158.050414 C236.78058,157.279575 239.667524,157.040349 242.457878,157.407162 C245.473607,157.79524 248.102979,155.753845 248.494701,152.851236 C248.89179,149.93268 246.831221,147.258665 243.895983,146.865271 Z" id="Shape"></path>
                <path d="M145.914918,207.657935 C145.109783,208.133788 144.233445,208.560415 143.46665,209.058146 C142.267163,209.834826 141.100539,210.644323 139.955823,211.470229 C137.513032,213.247842 136.970798,216.671796 138.750858,219.111227 C139.824372,220.582543 141.49489,221.359223 143.187317,221.359223 C144.304648,221.359223 145.432932,221.01464 146.407858,220.314534 C147.393738,219.59255 148.396049,218.897914 149.431223,218.225156 C151.161989,217.103893 153.024207,216.042795 154.963103,215.069211 C157.537345,213.778391 158.583473,210.737306 157.504482,208.117379 C157.548299,208.073622 157.60307,208.040805 157.646887,207.991579 C167.554979,197.511871 200.94344,158.240313 214.767665,92.8132406 C217.571946,79.5440484 218.201813,66.8108748 216.640837,54.9747116 C211.930523,19.0122473 189.556529,0 151.939739,0 C114.333903,0 91.9599093,19.0122473 87.2386407,54.9747116 C85.6831415,66.8218139 86.3130091,79.549518 89.1172894,92.8132406 C102.804587,157.62772 135.689154,196.757069 145.914918,207.657935 Z M151.939739,23.1417774 C174.127511,23.1417774 192.174588,41.1640314 192.174588,63.3212851 C192.174588,85.4785387 174.127511,103.500793 151.939739,103.500793 C129.751967,103.500793 111.70489,85.4785387 111.70489,63.3212851 C111.70489,41.1640314 129.751967,23.1417774 151.939739,23.1417774 Z" id="Shape"></path>
            </g>
        </g>
    </g>
</svg>
