<?xml version="1.0" encoding="UTF-8"?>
<svg viewBox="0 0 300 300" version="1.1" xmlns="http://www.w3.org/2000/svg" xmlns:xlink="http://www.w3.org/1999/xlink">
    <!-- Generator: Sketch 48.2 (47327) - http://www.bohemiancoding.com/sketch -->
    <title>Long Term Follow Up</title>
    <desc>Created with Sketch.</desc>
    <defs></defs>
    <g id="09-Service-Page-Icons" stroke="none" stroke-width="1" fill="none" fill-rule="evenodd">
        <g id="Long-Term-Follow-Up" fill="#808080" fill-rule="nonzero">
            <g id="noun_Phone-Clocks_635745" transform="translate(61.000000, 1.000000)">
                <g id="Group">
                    <path d="M151.330994,0.5625 L25.9190063,0.5625 C11.7100219,0.5625 0.149963125,12.1225588 0.149963125,26.3315431 L0.149963125,271.668457 C0.149963125,285.877442 11.7100219,297.4375 25.9190063,297.4375 L151.330994,297.4375 C165.539978,297.4375 177.100037,285.877442 177.100037,271.668457 L177.100037,26.3315431 C177.100037,12.1225587 165.539978,0.5625 151.330994,0.5625 Z M167.725037,271.668457 C167.725037,280.707763 160.3703,288.0625 151.330993,288.0625 L25.9190063,288.0625 C16.8796997,288.0625 9.52496312,280.707764 9.52496312,271.668457 L9.52496312,244.703125 L167.725037,244.703125 L167.725036,271.668457 L167.725037,271.668457 Z M167.725037,235.328125 L9.52496344,235.328125 L9.52496344,62.671875 L167.725037,62.671875 L167.725037,235.328125 Z M167.725037,53.296875 L9.52496344,53.296875 L9.52496344,26.3315431 C9.52496344,17.2922363 16.8796997,9.9375 25.9190063,9.9375 L151.330994,9.9375 C160.3703,9.9375 167.725037,17.2922363 167.725037,26.3315431 L167.725037,53.296875 Z" id="Shape"></path>
                    <path d="M102.545593,26.9296875 L74.7044066,26.9296875 C72.11499,26.9296875 70.0169066,29.0292969 70.0169066,31.6171875 C70.0169066,34.2050781 72.11499,36.3046875 74.7044066,36.3046875 L102.545593,36.3046875 C105.13501,36.3046875 107.233093,34.2050781 107.233093,31.6171875 C107.233093,29.0292969 105.13501,26.9296875 102.545593,26.9296875 Z" id="Shape"></path>
                    <path d="M88.625,282.358765 C97.3972778,282.358765 104.535339,275.220703 104.535339,266.449951 C104.535339,257.676148 97.3972778,250.538086 88.625,250.538086 C79.8527222,250.538086 72.7146606,257.676148 72.7146606,266.449951 C72.7146606,275.220703 79.8527222,282.358765 88.625,282.358765 Z M88.625,259.913086 C92.2291259,259.913086 95.1603394,262.845825 95.1603394,266.449951 C95.1603394,270.054077 92.2291259,272.983765 88.625,272.983765 C85.0208741,272.983765 82.0896606,270.054077 82.0896606,266.449951 C82.0896606,262.845825 85.0208741,259.913086 88.625,259.913086 Z" id="Shape"></path>
                    <path d="M89.1407472,217.756103 C126.044128,217.756103 156.067322,187.73291 156.067322,150.831055 C156.067322,113.926147 126.044128,83.9029541 89.1407472,83.9029541 C52.23584,83.9029541 22.2126466,113.926147 22.2126466,150.831055 C22.2126466,187.73291 52.23584,217.756103 89.1407472,217.756103 Z M42.1131591,146.143555 L31.8251113,146.143555 C34.09848,118.148254 56.4579466,95.7887878 84.4532469,93.5154191 L84.4532469,103.803467 C84.4532469,106.391357 86.5513303,108.490967 89.1407469,108.490967 C91.7301634,108.490967 93.8282469,106.391357 93.8282469,103.803467 L93.8282469,93.5154191 C121.822021,95.7887878 144.181488,118.148445 146.454857,146.143555 L136.166809,146.143555 C133.577392,146.143555 131.479309,148.243164 131.479309,150.831055 C131.479309,153.418945 133.577392,155.518555 136.166809,155.518555 L146.454857,155.518555 C144.181678,183.510994 121.82183,205.87027 93.8282469,208.143639 L93.8282469,197.855591 C93.8282469,195.2677 91.7301634,193.168091 89.1407469,193.168091 C86.5513303,193.168091 84.4532469,195.2677 84.4532469,197.855591 L84.4532469,208.143639 C56.4581372,205.87027 34.0982894,183.510994 31.8251112,155.518555 L42.1131591,155.518555 C44.7025756,155.518555 46.8006591,153.418945 46.8006591,150.831055 C46.8006591,148.243164 44.7025756,146.143555 42.1131591,146.143555 Z" id="Shape"></path>
                    <path d="M51.3737181,167.435669 C51.0624387,167.469238 50.7801512,167.560791 50.4993894,167.685913 C50.2186275,167.811035 49.93634,167.936157 49.6876219,168.125366 C49.4373778,168.281006 49.1871337,168.500733 48.9689328,168.717407 C48.0930784,169.562744 47.59259,170.780395 47.59259,172.031616 C47.59259,173.279785 48.0930781,174.436401 48.9689328,175.342773 C49.8737791,176.218628 51.0303953,176.719116 52.28009,176.719116 C52.9057003,176.719116 53.5313106,176.593994 54.0928341,176.34375 C54.6558834,176.124023 55.1563716,175.779175 55.5927731,175.342773 C56.4991453,174.436401 56.96759,173.279785 56.96759,172.031616 C56.96759,170.780396 56.4686275,169.562744 55.5927731,168.717407 C54.4987181,167.624878 52.9057006,167.12439 51.3737181,167.435669 Z" id="Shape"></path>
                    <path d="M124.15509,133.841919 C124.71814,134.061646 125.311707,134.186768 125.937317,134.186768 C127.187012,134.186768 128.374146,133.68628 129.25,132.810425 C130.156372,131.937622 130.624817,130.750488 130.624817,129.499268 C130.624817,128.281617 130.124329,127.060913 129.25,126.188111 C129.030273,125.968384 128.812073,125.779175 128.531311,125.593018 C128.281067,125.437378 128.030823,125.281738 127.750061,125.156617 C127.437256,125.062012 127.154968,124.967408 126.843689,124.906373 C126.250122,124.78125 125.624512,124.78125 125.030945,124.906373 C124.718139,124.967408 124.437378,125.062012 124.15509,125.156617 C123.874328,125.281739 123.593567,125.437378 123.343323,125.593018 C123.093079,125.779175 122.842835,125.968384 122.624634,126.188111 C121.748779,127.060913 121.249817,128.281617 121.249817,129.499268 C121.249817,130.750488 121.748779,131.937622 122.624634,132.810425 C123.062561,133.249878 123.593567,133.591675 124.15509,133.841919 Z" id="Shape"></path>
                    <path d="M65.7490234,117.875122 C66.3120728,118.091797 66.9056397,118.216919 67.53125,118.216919 C68.1553344,118.216919 68.7489012,118.091797 69.3119506,117.875122 C69.875,117.624878 70.4060059,117.280029 70.8439331,116.843628 C71.7182619,115.967773 72.21875,114.78064 72.21875,113.529419 C72.21875,112.311768 71.7182619,111.094116 70.8439331,110.218262 C70.6242066,109.998535 70.3739625,109.812378 70.1237181,109.623169 C69.875,109.467529 69.5927125,109.31189 69.3119506,109.217285 C69.0311888,109.092163 68.7489012,109.00061 68.4376219,108.936523 C67.8425291,108.811401 67.2184447,108.811401 66.6248778,108.936523 C66.3120725,109.00061 66.0313109,109.092163 65.7490234,109.217285 C65.4362181,109.31189 65.1875,109.467529 64.9372559,109.623169 C64.6549684,109.812378 64.4367678,109.998535 64.2185669,110.218262 C63.9988403,110.437988 63.8126831,110.688233 63.625,110.935425 C63.4678344,111.185669 63.3121947,111.469482 63.1870728,111.750244 C63.0924684,112.031006 62.9993897,112.311768 62.9368287,112.623047 C62.8742675,112.90686 62.84375,113.21814 62.84375,113.529419 C62.84375,114.78064 63.3427125,115.967773 64.2185669,116.843628 C64.6549681,117.280029 65.1554566,117.624878 65.7490234,117.875122 Z" id="Shape"></path>
                    <path d="M107.030151,184.372925 C106.155822,185.248779 105.655334,186.469482 105.655334,187.687134 C105.655334,188.938354 106.155822,190.125488 107.030151,190.998291 C107.906006,191.904663 109.093139,192.374634 110.342834,192.374634 C111.592529,192.374634 112.781189,191.904663 113.655517,190.998291 C114.531372,190.125488 115.030334,188.938354 115.030334,187.687134 C115.030334,186.469483 114.531372,185.248779 113.655517,184.372925 C111.905334,182.624268 108.749817,182.654785 107.030151,184.372925 Z" id="Shape"></path>
                    <path d="M70.2488403,183.967041 C70.0001222,183.811401 69.7178344,183.655762 69.4370728,183.53064 C69.1563109,183.436035 68.8435059,183.344483 68.5612184,183.280396 C67.0307619,182.969116 65.4362184,183.469605 64.3116456,184.562134 C63.4678347,185.437988 62.9688722,186.625122 62.9688722,187.873291 C62.9688722,189.124512 63.4373169,190.311645 64.3116456,191.1875 C64.7800903,191.623901 65.2805787,191.96875 65.8436281,192.185425 C66.4051516,192.435669 67.0307619,192.560791 67.6563722,192.560791 C68.9060669,192.560791 70.0626831,192.063354 70.9675294,191.1875 C71.8433837,190.311646 72.3118287,189.124512 72.3118287,187.873291 C72.3118287,186.625122 71.8113406,185.437988 70.9675294,184.562134 C70.7493287,184.342407 70.4990844,184.15625 70.2488403,183.967041 Z" id="Shape"></path>
                    <path d="M108.562134,118.250488 C109.125183,118.467163 109.71875,118.592285 110.342834,118.592285 C110.968445,118.592285 111.562012,118.467163 112.125061,118.250488 C112.718628,118.000244 113.21759,117.655395 113.655518,117.218994 C114.531372,116.34314 115.030334,115.156006 115.030334,113.904785 C115.030334,112.656616 114.531372,111.469482 113.655518,110.593628 C112.561462,109.498047 110.968445,109.00061 109.436462,109.31189 C109.125183,109.372925 108.842895,109.467529 108.562133,109.562134 C108.281372,109.687256 107.999084,109.842896 107.74884,109.998535 C107.500122,110.187744 107.249877,110.373901 107.030151,110.593628 C106.81195,110.813354 106.624267,111.030029 106.436584,111.310791 C106.280944,111.561035 106.123779,111.811279 106.0307,112.092041 C105.905579,112.406372 105.8125,112.687134 105.749939,112.998413 C105.687378,113.279175 105.655335,113.593506 105.655335,113.904785 C105.655335,115.156006 106.155823,116.34314 107.030152,117.218994 C107.468079,117.655396 107.999084,118.000244 108.562134,118.250488 Z" id="Shape"></path>
                    <path d="M48.1876831,132.43811 C48.6561278,132.874512 49.1550903,133.21936 49.7181397,133.469604 C50.2811891,133.686279 50.9052734,133.811401 51.5308838,133.811401 C52.7805784,133.811401 53.9371947,133.344482 54.8435669,132.43811 C55.2799681,131.998657 55.6248169,131.498169 55.8430175,130.936645 C56.0932616,130.375122 56.2183838,129.749512 56.2183838,129.123901 C56.2183838,127.90625 55.6873778,126.685547 54.8435669,125.812744 C53.7495116,124.717163 52.1244506,124.250244 50.5924681,124.531006 C50.3117063,124.592041 49.9989012,124.686646 49.7181394,124.811768 C49.4373775,124.93689 49.15509,125.062012 48.9063719,125.248169 C48.6561278,125.40686 48.4058837,125.593018 48.1876828,125.812744 C47.3438722,126.685547 46.8113403,127.90625 46.8113403,129.123901 C46.8113403,129.749512 46.9364625,130.375122 47.1867066,130.936645 C47.4064331,131.498169 47.7497559,131.998657 48.1876831,132.43811 Z" id="Shape"></path>
                    <path d="M124.15509,176.438354 C124.71814,176.655029 125.311707,176.780151 125.937317,176.780151 C126.561401,176.780151 127.154968,176.655029 127.750061,176.438354 C128.311584,176.18811 128.812073,175.843262 129.25,175.40686 C130.156372,174.531006 130.624817,173.343872 130.624817,172.092651 C130.624817,171.811889 130.592773,171.50061 130.530213,171.186279 C130.467651,170.875 130.374573,170.594238 130.279968,170.310425 C130.156372,170.029663 129.999206,169.748901 129.843567,169.498657 C129.655884,169.248413 129.468201,168.998169 129.25,168.781494 C127.499817,167.029785 124.374817,167.029785 122.624634,168.781494 C122.406433,168.998169 122.21875,169.248413 122.031067,169.498657 C121.873901,169.748901 121.718262,170.029663 121.625183,170.310425 C121.500061,170.594238 121.405457,170.875 121.342896,171.186279 C121.280335,171.50061 121.249817,171.781372 121.249817,172.092652 C121.249817,173.343872 121.748779,174.531006 122.624634,175.406861 C123.062561,175.843262 123.593567,176.18811 124.15509,176.438354 Z" id="Shape"></path>
                    <path d="M99.5396119,167.890381 C100.455139,168.805908 101.65448,169.263672 102.853821,169.263672 C104.053162,169.263672 105.252502,168.805908 106.16803,167.890381 C107.999085,166.059326 107.999085,163.093018 106.16803,161.261963 L93.7824709,148.874878 L93.7824709,124.62561 C93.7824709,122.03772 91.6843875,119.93811 89.0949709,119.93811 C86.5055544,119.93811 84.4074709,122.03772 84.4074709,124.62561 L84.4074709,150.815796 C84.4074709,152.057861 84.9018556,153.251099 85.7807619,154.130005 L99.5396119,167.890381 Z" id="Shape"></path>
                </g>
            </g>
        </g>
    </g>
</svg>
