<?xml version="1.0" encoding="UTF-8"?>
<svg viewBox="0 0 300 300" version="1.1" xmlns="http://www.w3.org/2000/svg" xmlns:xlink="http://www.w3.org/1999/xlink">
    <!-- Generator: Sketch 48.2 (47327) - http://www.bohemiancoding.com/sketch -->
    <title>Continue Your Active Lifestyle</title>
    <desc>Created with Sketch.</desc>
    <defs></defs>
    <g id="09-Service-Page-Icons" stroke="none" stroke-width="1" fill="none" fill-rule="evenodd">
        <g id="Continue-Your-Active-Lifestyle" fill="#808080" fill-rule="nonzero">
            <g id="noun_heart-rate-monitor_691748" transform="translate(0.000000, 19.000000)">
                <path d="M144.975,260.895894 C102.459375,233.939618 66.80625,202.776403 39,168.240139 C35.746875,164.201851 36.39375,158.308386 40.425,155.066512 C44.446875,151.824639 50.353125,152.46177 53.60625,156.490688 C79.021875,188.056796 111.43125,216.746443 150,241.838172 C201.365625,208.426258 241.66875,168.633661 269.8875,123.500405 C277.74375,110.926431 281.25,98.9614806 281.25,84.729092 L281.25,77.1116252 C281.25,62.0172354 275.334375,47.7848467 264.590625,37.037941 C263.090625,35.529439 261.54375,34.1146327 259.940625,32.7654135 C246.159375,21.1846154 230.521875,18.7485252 219.84375,18.7485252 C195.825,18.7485252 172.425,33.6461538 161.634375,55.8333141 L158.428125,62.4013881 C155.2875,68.8476576 144.7125,68.8476576 141.571875,62.4013881 L138.375,55.8333141 C127.40625,33.2994795 104.175,18.7391556 79.2,18.7391556 C64.51875,18.7391556 50.98125,23.5925969 40.059375,32.7747831 C38.465625,34.1146327 36.91875,35.5388086 35.41875,37.037941 C24.665625,47.7754772 18.75,62.0078658 18.75,77.1116252 L18.75,84.729092 C18.75,98.3243493 21.946875,109.83956 29.08125,121.804511 L79.359375,121.804511 L95.325,97.86524 C97.125,95.157432 100.153125,93.4240602 103.44375,93.6957779 C106.696875,93.8082128 109.65,95.5978022 111.2625,98.4086755 L140.5125,149.557201 L179.30625,79.7632157 C180.9375,76.8399075 183.99375,75.0034702 187.340625,74.9472527 C190.603125,74.9004049 193.809375,76.6244072 195.534375,79.491498 L220.93125,121.804511 L234.375,121.804511 C239.559375,121.804511 243.75,126.002082 243.75,131.174089 C243.75,136.346096 239.559375,140.543667 234.375,140.543667 L215.625,140.543667 C212.325,140.543667 209.278125,138.819665 207.590625,135.999422 L187.81875,103.055986 L148.828125,173.196645 C147.1875,176.148062 144.075,178.003239 140.690625,178.021978 C137.26875,178.021978 134.165625,176.223019 132.496875,173.299711 L102.525,120.876923 L92.184375,136.374205 C90.43125,138.978947 87.50625,140.543667 84.375,140.543667 L23.990625,140.543667 C20.86875,140.543667 17.953125,138.988317 16.209375,136.411683 L14.390625,133.703875 C4.51875,117.916136 0,102.437594 0,84.729092 L0,77.1116252 C0,57.0045113 7.865625,38.0685946 22.153125,23.789358 C24.028125,21.9060729 25.96875,20.1258531 27.975,18.4393291 C42.3375,6.3713129 60.046875,0 79.2,0 C107.746875,0 134.5125,14.7851938 149.990625,38.4152689 C165.403125,14.7945633 191.803125,0.00936957779 219.834375,0.00936957779 C239.634375,0.00936957779 257.671875,6.38068248 272.00625,18.4299595 C274.021875,20.1258531 275.971875,21.9154425 277.846875,23.789358 C292.134375,38.0685946 300,57.0138809 300,77.1116252 L300,84.729092 C300,102.437594 295.490625,117.916136 285.7875,133.432157 C255.159375,182.42568 211.1625,225.310237 155.015625,260.895894 C153.4875,261.86096 151.74375,262.348178 150,262.348178 C148.25625,262.348178 146.5125,261.86096 144.975,260.895894 Z" id="Shape"></path>
            </g>
        </g>
    </g>
</svg>
