<?xml version="1.0" encoding="UTF-8"?>
<svg viewBox="0 0 300 300" version="1.1" xmlns="http://www.w3.org/2000/svg" xmlns:xlink="http://www.w3.org/1999/xlink">
    <!-- Generator: Sketch 48.2 (47327) - http://www.bohemiancoding.com/sketch -->
    <title>Preserve Your Joints</title>
    <desc>Created with Sketch.</desc>
    <defs></defs>
    <g id="09-Service-Page-Icons" stroke="none" stroke-width="1" fill="none" fill-rule="evenodd">
        <g id="Preserve-Your-Joints" fill="#808080" fill-rule="nonzero">
            <g id="noun_joint_257832" transform="translate(2.000000, 0.000000)">
                <path d="M23.5501303,164.665527 C22.157308,143.022054 29.0127767,123.481445 42.853109,109.641927 C55.608236,96.8851723 72.7288007,90.1416013 92.3656417,90.1416013 C96.852743,90.1416013 101.481242,90.5493163 106.122762,91.265055 C101.84725,86.2622067 98.8178713,80.4650877 97.919027,73.2116697 C96.56425,62.2082517 100.737224,51.7700193 110.321167,42.1830237 C122.877116,29.6228023 140.549846,23.6808263 160.084147,23.6808263 C160.084147,23.6808263 158.415243,16.6666663 146.090007,16.6666663 L144.549276,16.6666663 C76.0924483,16.6666663 19.7112227,67.358805 12.2716473,133.817545 C12.271647,133.817546 10.345581,156.765951 23.5501303,164.665527 Z" id="Shape"></path>
                <path d="M272.506836,150.009766 C270.073975,163.977458 263.82133,176.395671 254.173503,186.044108 C245.783203,194.428304 236.680217,198.680827 227.121704,198.680827 C225.779948,198.680827 224.431885,198.597412 223.142008,198.434245 C215.881673,197.537435 210.078654,194.509277 205.077637,190.227051 C208.942179,215.297445 202.484253,237.737223 186.718058,253.492838 C174.162109,266.05306 156.482666,272.969564 136.922526,272.969564 C135.138672,272.969564 133.34078,272.91097 131.762004,272.8125 C130.901408,272.773437 130.002767,272.751058 129.071981,272.751058 C129.071981,272.751058 126.677979,283.371582 143.522461,283.577474 C208.31311,284.366862 263.173136,234.616699 275.22229,173.321126 C278.938924,154.409993 272.506836,150.009766 272.506836,150.009766 Z" id="Shape"></path>
                <path d="M132.3396,259.678548 C133.886231,259.774577 135.40804,259.821778 136.922526,259.821778 C153.009969,259.821778 167.241333,254.383138 177.416504,244.200847 C190.351685,231.271973 195.519124,212.447103 191.96932,191.203207 C188.63151,171.17391 177.808146,151.161296 161.496297,134.856771 C145.191366,118.548177 125.181804,107.724203 105.153117,104.383545 C100.775269,103.651123 96.50647,103.289388 92.3656413,103.289388 C76.4073893,103.289388 62.4197593,108.665365 52.154663,118.936361 C41.023885,130.063477 35.528483,146.074219 36.671468,163.819987 C37.2551677,176.820475 33.0252277,190.746663 24.4935303,205.039063 C18.555827,214.996745 10.5958253,225.122884 0.459513333,235.255534 L14.402588,249.198405 C22.754232,240.843913 29.731771,232.501628 35.6057943,224.175619 C50.2035727,203.489177 57.2714437,182.937826 56.359782,162.744955 C55.8076173,154.117432 57.046631,141.933187 66.0975343,132.879232 C72.5751953,126.402995 81.7351483,123.022054 92.4748943,123.022054 C95.498576,123.022054 98.650635,123.29183 101.905233,123.833822 C117.914754,126.50472 134.124268,135.373536 147.553223,148.799642 C160.982992,162.228597 169.847738,178.437094 172.518636,194.447836 C174.990153,209.237468 171.773804,221.954753 163.47343,230.257976 C155.590739,238.138021 145.345174,240.105795 137.019165,240.105795 C135.773641,240.105795 134.566773,240.064291 133.417684,239.987386 C132.050293,239.923503 130.330119,239.845378 128.275879,239.845378 C117.607137,239.845378 97.9381513,242.02474 72.5041917,259.654948 C64.4351407,265.244141 55.8076177,272.350261 46.678793,281.479086 L60.6218677,295.421957 C72.394939,283.647461 82.942221,275.669759 92.314576,270.279134 C107.663494,261.453858 119.854045,259.604492 129.071982,259.604492 C130.208659,259.604492 131.293254,259.632568 132.3396,259.678548 Z" id="Shape"></path>
                <path d="M119.616211,51.4778647 C112.953206,58.1449383 110.121989,64.7273763 110.969157,71.6031903 C112.445801,83.5050457 124.026205,90.440674 138.688273,99.2220053 C149.620687,105.770671 162.010213,113.188477 172.588827,123.76709 C183.168457,134.348145 190.589111,146.738688 197.136963,157.670899 C205.912394,172.332357 212.851278,183.916423 224.753133,185.386963 C225.542725,185.48584 226.332316,185.534668 227.121704,185.534668 C233.149536,185.534668 238.97819,182.642415 244.877849,176.745199 C256.00944,165.617676 261.504232,149.61141 260.361654,131.858724 C259.886394,121.302083 262.595337,110.128988 268.167644,98.6507163 C274.233724,86.151937 283.708619,73.2910157 296.573609,60.4231773 L282.630534,46.4803063 C272.282024,56.8249517 263.92448,67.1573897 257.389242,77.451986 C245.520142,96.12793 239.8514,114.676921 240.672933,132.933757 C241.225098,141.561686 239.986491,153.748373 230.934978,162.797038 C228.540162,165.194499 227.250489,165.707194 227.243978,165.817058 C224.316936,164.677735 218.391439,154.778646 214.051636,147.538249 C207.273275,136.217041 198.838217,122.126465 186.531902,109.824219 C174.2323,97.521566 160.141928,89.0828453 148.824382,82.3046877 C141.519491,77.932129 131.517863,71.9433597 130.541708,69.4563803 C130.548422,69.4421387 130.831015,68.1526693 133.559083,65.4207357 C141.422852,57.552897 151.636068,55.5704753 159.981609,55.5704753 C161.239747,55.5704753 162.452719,55.6148277 163.614828,55.6925457 C164.956584,55.7499187 166.638713,55.8235677 168.641073,55.8235677 C178.719198,55.8235677 196.96993,53.8757323 220.567953,38.643392 C229.747234,32.7168783 239.710613,24.84375 250.353516,14.2000327 L236.410645,0.257975333 C223.064494,13.606771 211.297933,22.0800783 201.033651,27.4283853 C187.456177,34.4995117 176.504639,36.081136 168.043946,36.081136 C166.875937,36.081136 165.759197,36.0489907 164.686809,36.0001627 C163.139568,35.9016927 161.605347,35.8528643 160.084148,35.8528643 C144.080526,35.8528647 129.784668,41.3102213 119.616211,51.4778647 Z" id="Shape"></path>
            </g>
        </g>
    </g>
</svg>
