<?xml version="1.0" encoding="UTF-8"?>
<svg viewBox="0 0 300 300" version="1.1" xmlns="http://www.w3.org/2000/svg" xmlns:xlink="http://www.w3.org/1999/xlink">
    <!-- Generator: Sketch 48.2 (47327) - http://www.bohemiancoding.com/sketch -->
    <title>Experienced Doctors</title>
    <desc>Created with Sketch.</desc>
    <defs></defs>
    <g id="09-Service-Page-Icons" stroke="none" stroke-width="1" fill="none" fill-rule="evenodd">
        <g id="Experienced-Doctors" fill="#808080" fill-rule="nonzero">
            <g id="noun_Award_1550253" transform="translate(51.000000, 0.000000)">
                <path d="M99.5600766,0 C44.8906081,0 0.380952381,44.5096558 0.380952381,99.1791242 C0.380952381,153.848593 44.8906081,198.358248 99.5600766,198.358248 C154.229545,198.358248 198.739201,153.848593 198.739201,99.1791242 C198.739201,44.5096558 154.229545,0 99.5600766,0 Z M99.5600766,188.682236 C50.2124148,188.682236 10.0569645,148.526786 10.0569645,99.1791242 C10.0569645,49.8314624 50.2124148,9.67601212 99.5600766,9.67601212 C148.907738,9.67601212 189.063189,49.8314624 189.063189,99.1791242 C189.063189,148.526786 148.907738,188.682236 99.5600766,188.682236 Z M158.583751,190.617439 C161.970355,188.682236 165.356959,186.263233 168.259763,183.84423 L168.259763,295.11837 C168.259763,297.053572 167.292161,298.504974 165.356959,299.472575 C163.905557,300.440176 161.970355,299.956376 160.518953,298.988775 L99.5600766,253.027717 L38.6012003,298.988775 C38.1173996,299.472575 36.6659978,299.956376 35.6983966,299.956376 C34.7307954,299.956376 34.2469948,299.956376 33.7631942,299.472575 C32.3117924,298.504974 30.8603906,297.053572 30.8603906,295.11837 L30.8603906,183.84423 C33.7631942,186.263233 37.1497984,188.682236 40.5364027,190.617439 L40.5364027,285.442358 L96.657273,242.867904 C97.6248742,242.384104 98.5924754,241.900303 99.5600766,241.900303 C100.527678,241.900303 101.495279,242.384104 102.46288,242.867904 L158.583751,285.442358 L158.583751,190.617439 Z M152.294343,76.4404957 L118.912101,71.6024897 L103.914282,41.1230515 C102.46288,37.7364473 96.657273,37.7364473 95.2058712,41.1230515 L80.2080524,71.6024897 L46.8258106,76.4404957 C44.8906081,76.9242964 43.4392063,77.8918976 42.9554057,79.8271 C42.4716051,81.7623024 42.9554057,83.6975048 44.4068075,84.6651061 L68.5968378,108.371336 L62.7912306,141.753578 C62.30743,143.68878 63.2750312,145.623982 64.726433,146.591584 C65.6940342,147.075384 66.6616354,147.559185 67.6292366,147.559185 C68.5968378,147.559185 69.0806384,147.559185 70.0482396,147.075384 L100.043877,131.109964 L130.039515,147.075384 C131.490917,148.042985 133.426119,147.559185 135.361321,146.591584 C136.812723,145.623982 137.780324,143.68878 137.296524,141.753578 L131.490917,108.371336 L155.680947,84.6651061 C157.132349,83.2137042 157.616149,81.2785018 157.132349,79.8271 C155.680947,78.3756982 154.229545,76.9242964 152.294343,76.4404957 Z M122.298705,103.53333 C121.331104,104.500931 120.847303,106.436133 120.847303,107.887535 L125.201509,134.012768 L101.495279,121.433952 C101.011478,120.950152 100.527678,120.950152 99.5600766,120.950152 C98.5924754,120.950152 98.1086748,120.950152 97.1410736,121.433952 L73.4348439,134.012768 L77.7890493,107.887535 C78.2728499,106.436133 77.3052487,104.500931 76.3376475,103.53333 L57.4694239,85.1489067 L83.5946566,81.2785018 C85.0460584,81.2785018 86.4974603,79.8271 87.4650615,78.8594988 L99.076276,55.1532691 L110.687491,78.8594988 C111.171291,80.3109006 112.622693,81.2785018 114.557895,81.2785018 L140.683128,85.1489067 L122.298705,103.53333 Z" id="Shape"></path>
            </g>
        </g>
    </g>
</svg>
