<?xml version="1.0" encoding="UTF-8"?>
<svg viewBox="0 0 300 300" version="1.1" xmlns="http://www.w3.org/2000/svg" xmlns:xlink="http://www.w3.org/1999/xlink">
    <!-- Generator: Sketch 48.2 (47327) - http://www.bohemiancoding.com/sketch -->
    <title>Patient Advocate</title>
    <desc>Created with Sketch.</desc>
    <defs></defs>
    <g id="09-Service-Page-Icons" stroke="none" stroke-width="1" fill="none" fill-rule="evenodd">
        <g id="Patient-Advocate" fill="#FFFFFF" fill-rule="nonzero">
            <g id="noun_Community-Health-Advocate_3746_000000">
                <path d="M183.333,208.332 L116.667,208.332 C102.861,208.332 91.668,219.522 91.668,233.331 L91.668,300 L116.667,300 L183.336,300 L208.335,300 L208.335,233.331 C208.332,219.525 197.136,208.332 183.333,208.332 Z" id="Shape"></path>
                <circle id="Oval" cx="58.335" cy="183.333" r="24.999"></circle>
                <circle id="Oval" cx="150" cy="166.668" r="29.166"></circle>
                <path d="M75,233.331 C75,228.978 75.675,224.778 76.92,220.833 L20.832,220.833 C9.327,220.833 0,230.16 0,241.668 L0,300 L75,300 L75,233.331 Z" id="Shape"></path>
                <circle id="Oval" cx="241.668" cy="183.333" r="24.999"></circle>
                <path d="M225,233.331 C225,228.978 224.322,224.778 223.077,220.833 L279.165,220.833 C290.673,220.833 299.997,230.157 299.997,241.665 L299.997,300 L225,300 L225,233.331 Z" id="Shape"></path>
                <path d="M201.668,0 L98.332,0 C89.128,0 81.664,7.461 81.664,16.668 L81.664,91.668 C81.664,100.872 89.128,108.336 98.332,108.336 C98.341,108.336 58.344,108.336 58.353,108.336 L133.332,108.336 L150,129.168 L166.668,108.336 L241.647,108.336 C241.656,108.336 201.659,108.336 201.668,108.336 C210.872,108.336 218.336,100.872 218.336,91.668 L218.336,16.668 C218.333,7.461 210.872,0 201.668,0 Z M175.227498,58.4809856 L150.000701,83.5932962 L124.773903,58.4765823 C118.913043,52.7214026 116.363503,46.4114006 116.363503,40.770708 C116.363503,31.1493861 122.787992,24.7337038 132.514994,24.7337038 C141.5903,24.7337038 144.690259,28.938904 149.996297,35.0155283 C155.311142,28.9345006 158.406698,24.7337038 167.477601,24.7337038 C177.222216,24.7337038 183.633495,31.1493861 183.633495,40.770708 C183.637899,46.415804 181.088359,52.7302093 175.227498,58.4809856 Z" id="Shape"></path>
            </g>
        </g>
    </g>
</svg>
