<?xml version="1.0" encoding="UTF-8"?>
<svg viewBox="0 0 300 300" version="1.1" xmlns="http://www.w3.org/2000/svg" xmlns:xlink="http://www.w3.org/1999/xlink">
    <!-- Generator: Sketch 48.2 (47327) - http://www.bohemiancoding.com/sketch -->
    <title>Travel &amp; Lodging Service</title>
    <desc>Created with Sketch.</desc>
    <defs></defs>
    <g id="09-Service-Page-Icons" stroke="none" stroke-width="1" fill="none" fill-rule="evenodd">
        <g id="Travel-&amp;-Lodging-Service" fill="#FFFFFF" fill-rule="nonzero">
            <g id="airplane-around-earth" transform="translate(0.000000, 7.000000)">
                <path d="M300,138.07451 C300,206.972549 249.180882,264.223529 183.058824,274.318137 C183.616667,271.260294 183.773039,268.093627 183.397549,264.884804 C183.397549,264.884804 183.002451,261.508333 182.485784,257.089216 C205.961765,253.089706 227.156863,242.317647 243.956373,226.82598 C242.948039,225.987255 241.943627,224.89951 240.953431,223.455392 C236.491667,216.945098 242.32598,210.485294 242.32598,204.792157 C242.32598,199.207843 231.067647,199.667157 230.655392,195.968627 C229.232843,183.159804 238.515686,182.985294 243.464706,178.036275 C248.413725,173.087255 238.573039,161.835784 232.216667,162.561765 C225.817157,163.245098 207.803922,159.606373 209.45,145.82451 C211.455392,129.038725 188.064216,130.519608 184.714706,122.684804 C179.831863,111.264706 187.94902,97.2568627 198.536275,94.0745098 C213.532353,89.5671569 228.305392,77.3333333 227.151471,63.7147059 C225.844118,48.2906863 218.862745,34.3803922 207.364216,26.1171569 C195.398529,21.2696078 182.496078,18.2720588 168.997059,17.5156863 C156.94951,17.9921569 146.357353,20.6696078 146.840686,26.1852941 C148.02549,39.7019608 186.462255,43.2127451 180.012255,55.8480392 C176.64951,62.4348039 151.412255,71.7313725 156.12549,81.5343137 C159.191176,87.9093137 166.735784,82.4455882 163.919118,94.6843137 C162.623039,100.315686 157.685294,110.896569 150.091667,111.579412 C142.326471,112.304412 135.860294,91.7328431 114.72402,91.0583333 C104.731863,90.7387255 90.654902,106.648529 102.607843,117.935784 C109.846078,124.771078 123.428922,109.720588 127.437745,121.477451 C130.262745,129.762255 127.057353,147.166176 140.242157,154.439706 C145.048529,157.091176 152.416667,159.402451 159.703922,163.105392 C148.887745,165.314216 135.597549,169.435784 119.903922,175.480882 L106.681373,171.992157 C112.216667,167.384314 121.210294,164.140686 118.947549,154.072059 C115.623529,139.279412 89.9387255,144.858333 72.2313725,127.151471 C66.7990196,121.720098 55.2122549,103.684314 55.2598039,82.0156863 C46.4333333,98.7813725 41.4098039,117.848039 41.4098039,138.075 C41.4098039,144.30098 41.8848039,150.418627 42.7980392,156.393627 C42.5897059,156.390196 42.3838235,156.353922 42.1759804,156.353922 C36.5995098,156.353922 31.1303922,157.52549 26.0617647,159.740686 C24.9421569,152.679412 24.3446078,145.447059 24.3446078,138.07549 C24.3446078,62.0779412 86.1745098,0.246078431 162.171569,0.246078431 C238.170098,0.245098039 300,62.0769608 300,138.07451 Z M196.612255,178.247059 L162.95049,193.720098 L163.472549,186.385294 L185.279412,176.541176 C182.169118,176.318627 178.946569,176.233824 175.728922,176.233824 C163.680392,176.233824 143.32402,182.332843 120.809314,191.269608 L48.6,172.223039 C41.8519608,170.442647 34.6676471,171.539216 28.7573529,175.252451 L25.2068627,177.482843 C21.7406863,179.660294 21.7039216,184.69951 25.1377451,186.927941 L68.5441176,215.088725 C58.175,220.391667 48.3372549,225.777451 39.6647059,230.921078 L17.3911765,219.128922 C13.7529412,217.202941 9.45147059,216.97451 5.63039216,218.504902 L3.52205882,219.35 C0.377941176,220.608333 -0.939215686,224.347549 0.72254902,227.29902 L12.9926471,249.09902 L12.9980392,249.097059 C8.36862745,253.079902 5.73039216,256.382843 5.73039216,258.668627 C5.73039216,265.509804 14.1490196,267.219608 21.5696078,267.219608 C34.804902,267.219608 209.592647,227.19951 209.592647,190.942647 C209.591667,183.762255 204.680882,180.171078 196.612255,178.247059 Z M122.917157,249.035784 L161.379412,235.486765 C163.073529,234.889706 164.883824,236.019118 165.092647,237.803431 L168.464706,266.634314 C169.307353,273.838725 165.432353,280.771569 158.854902,283.829412 L155.247549,285.505882 C152.994608,286.552941 150.322059,285.991667 148.680392,284.127451 L121.745098,253.529412 C120.433824,252.039216 121.044608,249.695588 122.917157,249.035784 Z" id="Shape"></path>
            </g>
        </g>
    </g>
</svg>
