<?xml version="1.0" encoding="UTF-8"?>
<svg viewBox="0 0 300 300" version="1.1" xmlns="http://www.w3.org/2000/svg" xmlns:xlink="http://www.w3.org/1999/xlink">
    <!-- Generator: Sketch 48.2 (47327) - http://www.bohemiancoding.com/sketch -->
    <title>Care Without Borders</title>
    <desc>Created with Sketch.</desc>
    <defs></defs>
    <g id="09-Service-Page-Icons" stroke="none" stroke-width="1" fill="none" fill-rule="evenodd">
        <g id="Care-Without-Borders" fill="#808080" fill-rule="nonzero">
            <g id="planet-earth">
                <path d="M227.146875,271.884961 C225.523828,269.087695 221.939648,268.134961 219.138867,269.758008 L218.913281,269.888086 C216.114844,271.511719 215.162695,275.09707 216.785742,277.896094 C217.872656,279.769336 219.838477,280.81582 221.858789,280.81582 C222.856055,280.81582 223.868555,280.559766 224.79375,280.023047 L225.019336,279.892969 C227.817773,278.269336 228.769922,274.683984 227.146875,271.884961 Z" id="Shape"></path>
                <path d="M279.898828,75.046875 C259.870313,40.3564453 227.531836,15.5425781 188.840039,5.175 C150.149414,-5.19257813 109.736133,0.128320312 75.0457031,20.15625 C40.3558594,40.1841797 15.5414063,72.5232422 5.17441406,111.214453 C-5.19257812,149.905664 0.127734375,190.319531 20.1556641,225.009375 C38.1210938,256.126758 66.675,279.775781 100.557422,291.598828 C116.618555,297.202734 133.385156,299.999414 150.125977,299.999414 C168.328125,299.999414 186.497461,296.691211 203.671875,290.090625 C206.692383,288.929883 208.199414,285.540234 207.038086,282.519727 C205.876758,279.499219 202.486523,277.99043 199.467187,279.153516 C153.752344,296.724023 104.262891,288.740625 67.2884766,260.987109 L72.5378906,233.585742 L75.0673828,232.764258 C84.6257812,229.658789 89.8757812,219.355664 86.7714844,209.79668 L84.9152344,204.084375 C84.4857422,202.7625 84.4880859,201.365039 84.9210937,200.044336 C86.5494141,195.080273 85.9675781,189.649219 83.3244141,185.142188 C80.68125,180.635742 76.2251953,177.475781 71.0976562,176.473242 L57.8730469,173.889258 L32.3566406,154.488867 C30.8279297,153.326367 28.8269531,152.987109 27,153.580078 L12.0609375,158.432812 C11.7439453,153.089648 11.7392578,147.748242 12.0404297,142.434961 C12.6298828,142.983984 13.0136719,143.357227 13.2498047,143.602148 C13.5421875,144.089063 13.9042969,144.535547 14.3285156,144.922266 C15.5484375,146.033203 16.6535156,146.537109 18.9738281,146.537109 C21.1060547,146.536523 24.2625,146.111719 29.4744141,145.341797 C34.4173828,144.611133 39.3345703,143.787891 39.3832031,143.779688 C41.3537109,143.449805 43.0195312,142.137305 43.8035156,140.300391 C44.5875,138.462891 44.3806641,136.35293 43.2550781,134.701758 L36.0708984,124.164258 L46.3611328,116.806055 C47.0466797,116.315625 47.6185547,115.683398 48.0375,114.952148 L63.9884766,87.1054688 L70.4179687,80.2160156 C76.9880859,73.1742188 78.8630859,62.8716797 75.1939453,53.9677734 C73.0294922,48.7160156 69.2490234,44.34375 64.5205078,41.3970703 C69.6416016,37.3710938 75.1019531,33.6539062 80.9050781,30.3041016 C102.196875,18.0111328 125.432812,12.0539063 148.424414,11.8259766 L137.961914,24.9503906 L99.1640625,38.5517578 C97.5884766,39.1037109 96.3228516,40.3025391 95.6865234,41.8458984 L84.8513672,68.1123047 C84.0820313,69.9785156 84.3263672,72.1078125 85.4988281,73.7507813 L101.323828,95.9179688 C99.0574219,97.9857422 96.8513672,100.997461 94.2164063,104.736914 C93.0609375,106.376953 91.9699219,107.925586 91.2158203,108.793945 C90.5601563,109.549805 89.9039063,110.288086 89.2535156,111.019336 C85.8498047,114.848438 82.3306641,118.808789 79.8304688,124.098633 C74.3332031,135.734766 75.4435547,149.259375 82.7279297,159.394922 C89.7714844,169.194727 101.383594,174.176367 113.777344,172.718555 C115.796484,172.481836 117.679102,172.016016 119.500781,171.564844 C124.524023,170.32207 126.11543,170.197852 127.726758,171.706055 C128.510742,172.440234 128.582813,172.579102 128.566992,175.06875 C128.555859,176.653125 128.543555,178.624219 129.089648,180.874805 C129.964453,184.475391 132.225586,186.963867 134.041992,188.963086 C134.944922,189.95625 135.878906,190.983984 136.166602,191.673633 C137.994141,196.05293 137.198438,198.478125 135.454688,203.792578 C135.305273,204.247266 135.15293,204.711328 135,205.187109 C132.350977,213.387305 136.043555,221.521289 139.301367,228.69668 C140.35957,231.026953 141.358594,233.226562 142.013086,235.170703 C147.28125,250.80293 151.230469,254.383008 154.399805,255.824414 C156.059766,256.579102 157.777734,256.910156 159.513281,256.90957 C167.95957,256.908984 176.773242,249.066797 180.82207,244.095117 C183.365039,240.973242 183.991406,237.847266 184.448437,235.563867 C184.676367,234.42832 184.855664,233.531836 185.197852,232.945898 C185.72168,232.049414 186.338672,231.354492 187.119727,230.474414 C188.690625,228.705469 190.645898,226.504687 191.912109,222.515039 C192.874219,219.48457 193.573242,218.741602 195.888281,216.275977 C196.291406,215.847656 196.720898,215.389453 197.182031,214.887891 C204.986133,206.395898 202.976367,199.908984 200.847656,193.040625 C199.056445,187.261523 202.189453,183.56543 209.764453,176.511328 C213.048047,173.45332 216.442969,170.291602 219.067383,166.492383 C220.21582,164.829492 223.709766,159.771094 221.547656,154.757227 C219.42832,149.841211 214.041797,149.015039 209.714062,148.351758 C208.004883,148.089258 205.42207,147.693164 204.6,147.155859 C200.974805,144.785742 198.757031,139.839258 196.611914,135.055078 C196.184766,134.10293 195.763477,133.163086 195.336328,132.250781 C194.574609,130.623047 193.813477,128.653711 193.007812,126.568945 C190.876172,121.051758 188.460352,114.798047 184.347656,110.438672 C180.650977,106.52168 173.682422,104.634961 167.53418,102.969727 C165.466406,102.410156 163.514648,101.881641 162.227344,101.406445 C161.148633,101.008008 159.97793,100.935937 158.861133,101.198437 C155.86875,101.899805 154.001953,102.672656 152.615625,103.783594 C152.249414,104.077148 151.164844,105.041016 150.529687,106.590234 C148.38457,105.560742 145.434961,103.594922 143.619727,102.384961 C143.582227,102.359766 143.544141,102.33457 143.506641,102.309375 C144.118359,99.8613281 143.564648,97.8966797 142.98457,96.6697266 C139.711523,89.7462891 128.846484,90.2882812 126.703125,90.4705078 C125.485547,90.5724609 123.945117,90.6269531 122.315625,90.684375 C119.75625,90.7751953 116.927344,90.8771484 114.12832,91.1912109 L114.272461,90.7892578 C116.39707,84.8695312 122.050195,80.8921875 128.339648,80.8921875 L131.670703,80.8921875 C134.905664,80.8921875 137.529492,78.2683594 137.529492,75.0333984 C137.529492,71.7984375 134.905664,69.1746094 131.670703,69.1746094 L128.339648,69.1746094 C119.002148,69.1746094 110.451562,74.0888672 105.65918,81.8238281 L96.9199219,69.5818359 L105.517969,48.740625 L143.429883,35.4492187 C144.469336,35.0847656 145.385742,34.434375 146.073047,33.5724609 L162.926367,12.4324219 C205.989258,16.5287109 246.524414,40.6728516 269.752148,80.9044922 C275.939062,91.6207031 280.51582,102.902344 283.558594,114.441211 L281.074805,116.656055 C277.832812,119.548828 275.933203,123.697852 275.860547,128.040234 C275.859961,128.087695 275.858789,128.13457 275.857031,128.181445 L271.810547,117.05332 C271.207617,115.392773 270.319336,113.869922 269.17207,112.527539 L261.953906,104.076563 C259.155469,100.800586 255.080859,98.9226563 250.773633,98.9226563 L241.938281,98.9226563 C238.801758,98.9226563 235.935352,100.640625 234.455859,103.404492 C232.976367,106.168945 233.138086,109.507617 234.877734,112.116211 L235.771875,113.458594 C230.0625,118.368164 223.458984,122.296875 216.427734,124.946484 L204.316406,101.747461 L204.316406,96.571875 C204.316406,94.9710938 203.661328,93.4388672 202.50293,92.334375 L191.596875,81.9228516 C190.995117,81.3486328 190.27793,80.9091797 189.493359,80.6332031 L179.675977,77.1832031 C176.621484,76.1085938 173.278125,77.7158203 172.205859,80.7679688 C171.133008,83.8212891 172.737891,87.1652344 175.790625,88.2380859 L184.417969,91.2703125 L192.598828,99.0791016 L192.598828,103.185352 C192.598828,104.129297 192.827344,105.059766 193.264453,105.89707 L208.426758,134.940234 C209.790234,137.553516 212.885156,138.747656 215.647266,137.725781 L220.062305,136.098047 C230.319141,132.315234 239.825977,126.230273 247.555664,118.501758 C249.530273,116.526562 249.837305,113.433398 248.2875,111.108984 L247.975781,110.64082 L250.773633,110.64082 C251.648438,110.64082 252.476367,111.022266 253.044727,111.687891 L260.262891,120.138867 C260.495508,120.411328 260.675391,120.719531 260.798437,121.057617 L268.764258,142.961719 C269.448633,144.84375 271.04707,146.245313 273.000586,146.678906 C273.422461,146.77207 273.847266,146.817773 274.269727,146.817773 C275.806641,146.817773 277.302539,146.2125 278.412305,145.101563 L282.203906,141.309961 C284.605078,138.908203 286.258008,135.869531 287.047852,132.500977 C292.911914,179.496094 274.484766,228.110156 235.535156,258.680859 C232.989258,260.67832 232.545117,264.360938 234.54375,266.906836 C236.541211,269.452734 240.223242,269.896875 242.769727,267.898242 C270.890039,245.827734 290.208398,214.260352 297.166406,179.010938 C304.189453,143.42168 298.057617,106.498828 279.898828,75.046875 Z M27.7042969,165.67207 L51.8642578,184.041797 C52.5785156,184.584961 53.4070313,184.956445 54.2871094,185.128125 L68.8488281,187.973437 C70.7074219,188.336719 72.2578125,189.435937 73.2158203,191.069531 C74.1738281,192.702539 74.3753906,194.592187 73.7859375,196.391602 C72.5730469,200.090625 72.5671875,204.00293 73.7701172,207.704297 L75.6263672,213.416016 C76.7355469,216.829688 74.859375,220.509961 71.4462891,221.619141 L65.6238281,223.511133 C63.5923828,224.170898 62.0818359,225.88418 61.6804687,227.980664 L56.9941406,252.442969 C46.6916016,243.013477 37.6458984,231.868945 30.3035156,219.151172 C21.3457031,203.637305 15.7488281,187.089844 13.2820313,170.357813 L27.7042969,165.67207 Z M61.8509766,72.2214844 L54.9585937,79.6060547 C54.6509766,79.9359375 54.3820313,80.3003906 54.1576172,80.6917969 L38.5060547,108.017578 L24.5953125,117.964453 C22.0042969,119.817188 21.3679688,123.399023 23.1621094,126.031055 L28.3646484,133.662305 C25.3658203,134.108789 22.6746094,134.476758 20.8851563,134.671875 C20.5412109,134.341992 20.1814453,134.007422 19.809375,133.661719 C18.4166016,132.367969 16.48125,130.640039 13.5960938,128.115234 C18.3544922,98.6642578 32.5458984,70.9189453 54.8654297,49.7402344 C59.1392578,51.0861328 62.6466797,54.2742187 64.3599609,58.4326172 C66.2876953,63.1095703 65.3021484,68.5224609 61.8509766,72.2214844 Z M109.622461,104.238867 C112.235742,102.768164 118.301367,102.553125 122.729883,102.396094 C124.504688,102.333398 126.181641,102.273633 127.679297,102.148242 C128.469727,102.082031 129.347461,102.094336 130.175391,102.158789 C129.805664,103.108008 129.685547,104.149805 129.846094,105.183398 C130.12793,107.001563 131.248828,108.580664 132.870703,109.448437 C133.969922,110.036719 135.499805,111.056836 137.119336,112.136719 C141.698438,115.189453 146.889258,118.649414 151.76543,118.959961 C156.199805,119.247656 158.667187,116.720508 159.724219,115.644141 C159.808594,115.558594 159.888281,115.473047 159.972656,115.395117 C160.567969,114.909961 161.125781,114.25957 161.540625,113.475 C162.477539,113.742773 163.461914,114.009375 164.470898,114.283008 C167.940234,115.222266 174.397852,116.970703 175.824609,118.482422 C178.358789,121.168945 180.333984,126.282422 182.077148,130.793555 C182.957812,133.073438 183.789844,135.225 184.723242,137.220117 C185.124023,138.076172 185.518359,138.958008 185.919141,139.850977 C188.622656,145.881445 191.687109,152.716992 198.188086,156.966211 C201.135938,158.893359 204.749414,159.44707 207.938086,159.936328 C208.323633,159.995508 208.76543,160.063477 209.214258,160.137305 C207.32168,162.777539 204.626953,165.286523 201.779883,167.937891 C194.526562,174.692578 185.499609,183.099609 189.656836,196.511133 C191.619141,202.843945 191.710547,203.52832 188.555273,206.960742 C188.125195,207.428906 187.724414,207.855469 187.348828,208.255078 C184.646484,211.132031 182.511914,213.404297 180.744727,218.970703 C180.231445,220.587305 179.566406,221.336133 178.358789,222.695508 C177.393164,223.783008 176.190234,225.137695 175.081055,227.036133 C173.752148,229.310742 173.312695,231.500977 172.960547,233.260547 C172.613086,234.991992 172.416211,235.860938 171.736523,236.695313 C170.189062,238.594922 167.302734,241.353516 164.339648,243.236133 C161.585742,244.98457 159.97793,245.223633 159.430078,245.19082 C158.804883,244.520508 156.540234,241.585547 153.118359,231.429492 C152.274609,228.924023 151.103906,226.345898 149.971875,223.852734 C147.476367,218.356641 144.896484,212.673047 146.151562,208.788867 C146.299805,208.330664 146.446289,207.883008 146.59043,207.445313 C148.595508,201.333984 150.488086,195.563086 146.981836,187.160742 C145.914258,184.601953 144.214453,182.732227 142.716211,181.082227 C141.746484,180.015234 140.647852,178.805859 140.478516,178.109766 C140.272266,177.260742 140.278711,176.280469 140.286328,175.145508 C140.30625,172.083984 140.336719,167.458008 135.737695,163.151367 C129.253711,157.082227 121.692773,158.951953 116.688867,160.189453 C115.151953,160.569141 113.7,160.928906 112.413281,161.080078 C104.182031,162.044531 96.8332031,158.939063 92.2453125,152.554688 C87.4458984,145.876758 86.7492187,136.890234 90.4277344,129.103125 C92.2083984,125.334961 94.8984375,122.307422 98.0132812,118.803516 C98.6935547,118.037695 99.3802734,117.26543 100.066992,116.474414 C101.20957,115.157227 102.466992,113.373633 103.796484,111.485156 C105.383789,109.232227 108.339258,105.036914 109.622461,104.238867 Z" id="Shape"></path>
                <path d="M240.247266,201.725391 L237.42832,191.1 C236.8125,188.779688 234.84375,187.069922 232.460742,186.785156 C230.074805,186.50625 227.760938,187.699219 226.61543,189.80918 C225.973242,190.992773 225.394922,192.24668 224.835938,193.458984 C223.895508,195.498633 222.922852,197.608008 221.910938,198.772266 C221.342578,199.426172 219.882422,200.131055 218.471484,200.811914 C215.098242,202.439648 210.478125,204.669141 208.713281,210.295312 C207.617578,213.785156 208.026563,216.546094 208.325391,218.561719 C208.583789,220.30957 208.643555,220.91543 208.175391,222.014648 L208.116797,222.151172 C206.251758,226.527539 202.781836,234.675 207.647461,241.601367 C211.119141,246.544336 214.769531,247.815234 217.606055,247.815234 C218.159766,247.816992 218.683594,247.768359 219.168164,247.689258 C225.144727,246.7125 229.637695,240.495703 233.30918,228.123047 L240.200977,204.895898 C240.507422,203.862891 240.523828,202.766016 240.247266,201.725391 Z M222.076172,224.789648 C220.204688,231.097852 218.548828,234.042773 217.593164,235.348242 C217.483008,235.207617 217.363477,235.048242 217.235742,234.866016 C216.116016,233.271094 217.789453,229.342969 218.896875,226.743164 L218.956055,226.606055 C220.741992,222.414258 220.264453,219.195117 219.916992,216.844336 C219.69375,215.339062 219.614062,214.692187 219.893555,213.80332 C220.123242,213.072656 221.496094,212.363672 223.564453,211.365234 C224.481445,210.922266 225.491016,210.435352 226.509961,209.845898 L222.076172,224.789648 Z" id="Shape"></path>
                <path d="M158.220703,69.6445312 L157.825195,69.50625 C154.774219,68.4375 151.428516,70.0423828 150.357422,73.0957031 C149.286328,76.1496094 150.893555,79.4923828 153.946875,80.5634766 L154.341797,80.7017578 C154.983398,80.9267578 155.637305,81.0333984 156.28125,81.0333984 C158.7,81.0333984 160.964062,79.5234375 161.810156,77.1123047 C162.88125,74.0583984 161.274023,70.7150391 158.220703,69.6445312 Z" id="Shape"></path>
            </g>
        </g>
    </g>
</svg>
