<?xml version="1.0" encoding="UTF-8"?>
<svg viewBox="0 0 584 585" version="1.1" xmlns="http://www.w3.org/2000/svg" xmlns:xlink="http://www.w3.org/1999/xlink">
    <!-- Generator: Sketch 48.2 (47327) - http://www.bohemiancoding.com/sketch -->
    <title>Transparent Prices</title>
    <desc>Created with Sketch.</desc>
    <defs></defs>
    <g id="Service-Page-Icons" stroke="none" stroke-width="1" fill="none" fill-rule="evenodd">
        <g id="Transparent-Prices">
            <g id="test" fill-rule="nonzero">
                <path d="M584,292 C584,359.529562 561.081422,421.707313 522.584187,471.169375 C516.422531,479.083031 509.867359,486.675031 502.942625,493.897469 C449.787219,549.424234 374.928,584 292,584 C269.033516,584 246.674984,581.342344 225.233516,576.324734 C178.370937,565.371313 135.857563,543.132547 100.698938,512.609422 C93.8574687,506.673609 87.3022969,500.428688 81.057375,493.886062 C78.4236719,491.145141 75.8492813,488.356312 73.3342031,485.519578 C27.6977969,433.995266 0,366.227313 0,292 C0,217.760141 27.7103437,149.992188 73.3342031,98.4815625 C75.8492813,95.6334219 78.4236719,92.8445938 81.057375,90.1025312 C88.375625,82.4512187 96.1102031,75.2048281 104.214344,68.3873125 C115.608047,58.8049219 127.753422,50.0802813 140.529562,42.3103438 C140.601422,42.2624375 140.672141,42.2270781 140.744,42.1791719 C144.140781,40.1169219 147.585469,38.1265313 151.076922,36.208 C192.851172,13.12175 240.894297,0 292,0 C343.105703,0 391.137422,13.1342969 432.923078,36.208 C436.403125,38.115125 439.835266,40.1055156 443.232047,42.166625 C465.209609,55.4914063 485.280047,71.6289687 502.942625,90.0899844 C509.867359,97.3249688 516.433937,104.916969 522.584187,112.830625 C561.081422,162.292687 584,224.470438 584,292 Z" id="Shape" fill="#FF6F34"></path>
                <g id="Group-2" transform="translate(77.000000, 29.000000)">
                    <path d="M431,44.3003731 L431,467.888293 C359.937949,526.874741 288.104616,555.911976 215.5,555 C131.070083,553.939488 59.2367497,522.439488 0,460.5 L0,44.3003731 C0,38.0865205 1.27829898,32.1653451 3.59135593,26.8038713 C9.92225689,12.0732276 23.9975289,1.4738806 40.691158,0.145755597 C41.8727398,0.0478078358 43.0531562,0 44.2592086,0 L386.729139,0 C411.178792,-4.14262323e-15 431,19.8355877 431,44.3003731 Z" id="Shape" fill="#733F17"></path>
                    <polygon id="Shape" fill="#B55D14" points="287.653895 77 373 77 373 468 59 468 59 77 142.971584 77"></polygon>
                    <polygon id="Shape" fill="#F2F2F7" points="293.586678 55 386 55 386 478 46 478 46 55 136.923721 55"></polygon>
                    <g id="Group" transform="translate(100.000000, 140.000000)" fill="#374266">
                        <path d="M84.9992769,6.89567611 C84.0144462,2.93596761 80.4255179,0 76.1683949,0 L9.12307179,0 C4.07552308,0 0,4.09379757 0,9.13787854 L0,76.2931822 C0,81.3372632 4.07435897,85.4310607 9.12307179,85.4310607 L76.169559,85.4310607 C81.2054667,85.4310607 85.2926308,81.3372632 85.2926308,76.2931822 L85.2926308,9.13787854 C85.2914667,8.35782996 85.1948462,7.61392713 84.9992769,6.89567611 Z M67.0464872,67.1541377 L18.2461436,67.1541377 L18.2461436,18.2745911 L67.0464872,18.2745911 L67.0464872,67.1541377 Z" id="Shape"></path>
                        <path d="M76.169559,101.441296 L9.12307179,101.441296 C4.07552308,101.441296 0,105.535093 0,110.579174 L0,177.734478 C0,182.790219 4.07435897,186.872356 9.12307179,186.872356 L76.169559,186.872356 C81.2054667,186.872356 85.2926308,182.791385 85.2926308,177.734478 L85.2926308,110.579174 C85.2914667,105.535093 81.2043026,101.441296 76.169559,101.441296 Z M67.0464872,168.596599 L18.2461436,168.596599 L18.2461436,119.717053 L67.0464872,119.717053 L67.0464872,168.596599 Z" id="Shape"></path>
                        <path d="M76.169559,201.716599 L9.12307179,201.716599 C4.07552308,201.716599 0,205.797571 0,210.854478 L0,278.009781 C0,283.053862 4.07435897,287.14766 9.12307179,287.14766 L76.169559,287.14766 C81.2054667,287.14766 85.2926308,283.053862 85.2926308,278.009781 L85.2926308,210.854478 C85.2914667,205.798737 81.2043026,201.716599 76.169559,201.716599 Z M67.0464872,268.871903 L18.2461436,268.871903 L18.2461436,219.992356 L67.0464872,219.992356 L67.0464872,268.871903 Z" id="Shape"></path>
                        <path d="M217.293713,52.0895223 L117.38461,52.0895223 C112.346374,52.0895223 108.261538,47.9980567 108.261538,42.9516437 C108.261538,37.9052308 112.346374,33.8137652 117.38461,33.8137652 L217.293713,33.8137652 C222.331949,33.8137652 226.416785,37.9052308 226.416785,42.9516437 C226.416785,47.9980567 222.331949,52.0895223 217.293713,52.0895223 Z" id="Shape"></path>
                        <path d="M217.293713,153.530818 L117.38461,153.530818 C112.346374,153.530818 108.261538,149.439352 108.261538,144.392939 C108.261538,139.346526 112.346374,135.255061 117.38461,135.255061 L217.293713,135.255061 C222.331949,135.255061 226.416785,139.346526 226.416785,144.392939 C226.416785,149.439352 222.331949,153.530818 217.293713,153.530818 Z" id="Shape-Copy"></path>
                        <path d="M217.293713,253.806121 L117.38461,253.806121 C112.346374,253.806121 108.261538,249.714656 108.261538,244.668243 C108.261538,239.62183 112.346374,235.530364 117.38461,235.530364 L217.293713,235.530364 C222.331949,235.530364 226.416785,239.62183 226.416785,244.668243 C226.416785,249.714656 222.331949,253.806121 217.293713,253.806121 Z" id="Shape-Copy-2"></path>
                    </g>
                    <path d="M146.031725,204 C142.979667,204 140.04311,202.722287 137.955904,200.442996 L105.894122,165.462665 C101.79321,160.989498 102.086049,154.027598 106.546301,149.914811 C111.00772,145.802025 117.948353,146.095712 122.049265,150.568879 L144.155689,174.687475 L189.606395,98.3639885 C192.713288,93.1454886 199.44975,91.4418707 204.652017,94.5589298 C209.85545,97.6748189 211.552982,104.430787 208.44609,109.648117 L155.452739,198.637582 C153.677039,201.618913 150.60048,203.585796 147.155247,203.941497 C146.78074,203.981279 146.405066,204 146.031725,204 Z" id="Shape" fill="#6AAA43"></path>
                </g>
            </g>
            <g id="worker" transform="translate(420.500000, 421.500000) scale(-1, 1) translate(-420.500000, -421.500000) translate(257.000000, 258.000000)">
                <rect id="Rectangle-path" fill="#D7DEED" fill-rule="nonzero" transform="translate(131.500000, 196.000000) rotate(45.000000) translate(-131.500000, -196.000000) " x="121" y="170" width="21" height="52"></rect>
                <path d="M129,184.219586 C133.495419,189.56043 138.439136,194.504686 143.780105,199 L157,185.780414 L142.219895,171 L129,184.219586 Z" id="Shape" fill="#C7CFE2" fill-rule="nonzero"></path>
                <path d="M219.5,0 C160.12965,0 112,48.1296505 112,107.5 C112,166.87035 160.12965,215 219.5,215 C278.87035,215 327,166.87035 327,107.5 C327,48.1296505 278.87035,0 219.5,0 Z M219.5,198.026788 C169.50395,198.026788 128.973853,157.496691 128.973853,107.500641 C128.973853,57.5039499 169.50395,16.9744938 219.5,16.9744938 C269.496691,16.9744938 310.026147,57.5039499 310.026147,107.500641 C310.026788,157.49605 269.496691,198.026788 219.5,198.026788 Z" id="Shape" fill="#D7DEED" fill-rule="nonzero"></path>
                <circle id="Oval" fill-opacity="0.5" fill="#00BAED" cx="220" cy="108" r="91"></circle>
                <path d="M15.3026908,323.689477 L3.31159064,311.700746 C-1.10311651,307.286608 -1.10439706,300.128201 3.31095037,295.712783 L98.7115234,200.310683 C103.12559,195.896546 110.282602,195.896546 114.697309,200.310043 L126.688409,212.298774 C131.103117,216.712911 131.104397,223.871318 126.68905,228.286736 L31.2884766,323.688837 C26.8744098,328.103614 19.7173979,328.103614 15.3026908,323.689477 Z" id="Shape" fill="#707487" fill-rule="nonzero"></path>
                <path d="M14.5342217,307.022177 L109.407289,211.615629 C113.796949,207.201286 120.913751,207.200645 125.304684,211.614989 L126,212.313574 C126,212.313574 125.992996,212.303969 125.987902,212.299487 L114.063105,200.310197 C109.672809,195.896494 102.556007,195.896494 98.1657106,200.310838 L3.29264286,295.718026 C-1.09765374,300.13301 -1.09765374,307.29111 3.29327959,311.706094 L14.5259442,323 C10.1451986,318.584376 10.1464721,311.433959 14.5342217,307.022177 Z" id="Shape" fill="#5B5D6E" fill-rule="nonzero"></path>
                <path d="M120.523394,236 L127.62454,228.898601 C132.125588,224.397393 132.124936,217.099495 127.623887,212.598286 L115.39827,200.374845 C110.897222,195.874943 103.600889,195.874943 99.0998406,200.375498 L92,207.476244 L120.523394,236 Z" id="Shape" fill="#C7CFE2" fill-rule="nonzero"></path>
                <g id="Group" opacity="0.97" transform="translate(92.000000, 197.000000)" fill="#AFB9D2" fill-rule="nonzero">
                    <path d="M11.4208182,21.7919429 L18.3425455,14.9549714 C22.7296364,10.6216 29.8422727,10.6209714 34.2306364,14.9543429 L34.9242727,15.6394857 C34.9198182,15.6350857 34.9179091,15.6306857 34.9134545,15.6262857 L22.9956364,3.85691429 C18.6079091,-0.475828571 11.4952727,-0.475828571 7.10754545,3.85754286 L0.186454545,10.6945143 L11.4208182,21.7919429 Z" id="Shape"></path>
                </g>
            </g>
        </g>
    </g>
</svg>
