<?xml version="1.0" encoding="UTF-8"?>
<svg viewBox="0 0 300 300" version="1.1" xmlns="http://www.w3.org/2000/svg" xmlns:xlink="http://www.w3.org/1999/xlink">
    <!-- Generator: Sketch 48.2 (47327) - http://www.bohemiancoding.com/sketch -->
    <title>360 Degree Support</title>
    <desc>Created with Sketch.</desc>
    <defs></defs>
    <g id="09-Service-Page-Icons" stroke="none" stroke-width="1" fill="none" fill-rule="evenodd">
        <g id="360-Degree-Support" fill="#FFFFFF" fill-rule="nonzero">
            <g id="Group">
                <path d="M149.61,108.773844 C128.262164,79.3960888 85.1013455,89.0417851 85.713382,127.208386 C86.2764557,164.028506 127.894942,182.879232 149.61,207.238288 C171.447465,182.756825 212.943544,163.955061 213.506618,127.11046 C214.118655,89.0417851 170.957836,79.3716073 149.61,108.773844 Z" id="Shape"></path>
                <path d="M145.028571,289.371429 C205.371429,289.371429 257.485714,252 279.085714,199.542857 C285.257143,200.228571 291.085714,200.914286 297.257143,201.6 C297.257143,201.6 297.257143,201.6 297.6,201.6 C298.285714,201.6 298.971429,201.257143 299.314286,200.914286 C299.657143,200.571429 300,199.885714 300,198.857143 C297.942857,175.542857 294.857143,151.542857 290.057143,127.2 C289.028571,122.742857 288.342857,117.942857 286.971429,112.114286 C286.628571,111.085714 285.942857,110.4 284.914286,110.057143 C283.885714,110.057143 282.857143,110.4 282.514286,111.428571 C274.971429,129.6 266.4,148.114286 256.8,165.942857 C252.685714,173.485714 248.228571,181.371429 243.771429,188.914286 C243.428571,189.6 243.428571,190.285714 243.771429,190.971429 C244.114286,191.657143 244.8,192.342857 245.485714,192.342857 C251.657143,194.057143 258.171429,195.428571 264.685714,196.457143 C243.771429,242.742857 198.171429,274.971429 145.028571,274.971429 C73.3714286,274.971429 14.7428571,216.685714 14.7428571,144.685714 C14.7428571,72.6857143 73.0285714,14.4 145.028571,14.4 C149.142857,14.4 152.228571,10.9714286 152.228571,7.2 C152.228571,3.42857143 148.8,0 145.028571,0 C65.1428571,-3.04518315e-15 0,64.8 0,144.685714 C0,224.571429 65.1428571,289.371429 145.028571,289.371429 Z" id="Shape"></path>
            </g>
        </g>
    </g>
</svg>
