<?xml version="1.0" encoding="UTF-8"?>
<svg viewBox="0 0 300 300" version="1.1" xmlns="http://www.w3.org/2000/svg" xmlns:xlink="http://www.w3.org/1999/xlink">
    <!-- Generator: Sketch 48.2 (47327) - http://www.bohemiancoding.com/sketch -->
    <title>Multi Language Support</title>
    <desc>Created with Sketch.</desc>
    <defs></defs>
    <g id="09-Service-Page-Icons" stroke="none" stroke-width="1" fill="none" fill-rule="evenodd">
        <g id="Multi-Language-Support" fill="#808080" fill-rule="nonzero">
            <g id="noun_987" transform="translate(0.000000, 37.000000)">
                <path d="M57.2832879,131.958416 L57.2832879,107.364284 L31.553667,107.364284 C21.5948784,107.364284 13.4874223,98.7453924 13.4874223,88.153212 L13.4874223,32.6972094 C13.4874223,22.10203 21.5918779,13.4801391 31.553667,13.4801391 L146.609331,13.4801391 C156.568119,13.4801391 164.669574,22.10203 164.669574,32.6972094 L164.669574,88.153212 C164.669574,98.7453924 156.568119,107.364284 146.609331,107.364284 L146.609331,120.847422 C164.003455,120.847422 178.156997,106.179712 178.156997,88.153212 L178.156997,32.6972094 C178.156997,14.6707097 164.006455,0 146.609331,0 L31.553667,0 C14.1535419,0 0,14.6707097 0,32.6972094 L0,88.153212 C0,106.179712 14.1535419,120.847422 31.553667,120.847422 L43.7958656,120.847422 L43.7958656,144.742806 C43.7958656,148.410483 46.1632908,151.736284 49.6859235,153.031817 C50.6881035,153.400684 51.7172883,153.583618 52.7284699,153.583618 C55.1919123,153.583618 57.556337,152.522001 59.2246366,150.55471 L84.3361466,120.850421 L109.399648,120.850421 L109.399648,107.367283 L78.0770225,107.367283 L57.2832879,131.958416 Z" id="Shape"></path>
                <path d="M268.447396,72.6962457 L190.55603,72.6962457 L190.55603,86.179647 L268.447396,86.179647 C278.405849,86.179647 286.513032,94.8017063 286.513032,105.397093 L286.513032,160.845181 C286.513032,171.440567 278.408849,180.062627 268.447396,180.062627 L242.721642,180.062627 L242.721642,204.669234 L221.925607,180.068625 L153.392607,180.068625 C143.437154,180.068625 135.332972,171.446565 135.332972,160.851179 L135.332972,105.397093 C135.332972,94.8017063 143.437154,86.179647 153.392607,86.179647 L153.392607,72.6962457 C135.999069,72.6962457 121.843003,87.3672419 121.843003,105.394094 L121.843003,160.84818 C121.843003,178.884029 135.996069,193.549027 153.392607,193.549027 L215.663694,193.549027 L240.783359,223.26889 C242.448602,225.224224 244.809947,226.279863 247.267305,226.279863 C248.278453,226.279863 249.307603,226.102924 250.309749,225.73405 C253.838264,224.438492 256.21161,221.106628 256.21161,217.432881 L256.21161,193.546028 L268.447396,193.546028 C285.846935,193.546028 300,178.878031 300,160.845181 L300,105.397093 C300,87.3672419 285.846935,72.6962457 268.447396,72.6962457 Z" id="Shape"></path>
                <path d="M80.1337197,22.5255973 L56.3139932,84.9829352 L70.2877135,84.9829352 L75.2122143,71.0760342 L98.6784791,71.0760342 L103.423254,84.9829352 L117.74744,84.9829352 L94.2811755,22.5255973 L80.1337197,22.5255973 Z M78.8187222,60.8418668 L86.9932737,37.9230556 L87.1670092,37.9230556 L95.0779621,60.8418668 L78.8187222,60.8418668 Z" id="Shape"></path>
                <path d="M181.228669,148.357541 C181.228669,155.303249 185.673082,159.808737 192.920986,159.808737 C201.62816,159.624284 210.24148,154.102794 213.044972,151.611169 C215.848463,149.113496 223.399121,140.444212 226.73243,133.580147 C230.949778,135.569819 232.947947,138.902065 232.947947,142.591122 C232.947947,150.570976 225.251969,155.20044 212.969283,156.606515 L218.92746,164.846416 C238.16438,162.330601 244.709898,154.263056 244.709898,142.445979 C244.709898,132.464358 238.42172,126.404629 230.35941,123.749717 C230.507759,123.017954 230.777209,122.252928 230.928585,121.512093 L219.996178,119.567778 C219.923517,120.671471 219.702508,120.874067 219.487553,121.980784 C215.560848,121.757022 211.198179,122.346666 209.793405,122.643 C209.793405,120.647281 209.866066,115.322339 209.941754,113.405239 C219.042507,113.036333 227.991882,112.301546 236.278229,111.043638 L235.315475,100.260706 C226.808118,101.960091 218.594432,102.849093 210.532122,103.293594 C210.750104,101.146684 211.052857,95.077883 211.052857,95.077883 L199.508889,94.1979522 C199.357513,97.1552454 199.290907,100.629611 199.142558,103.656452 C194.032089,103.729024 187.974004,103.729024 184.786016,103.656452 L185.303723,114.076526 L186.55712,114.076526 C189.593732,114.076526 194.552824,113.922312 198.997237,113.777168 C198.997237,116.655842 199.06687,122.863739 199.142558,125.672865 C188.703638,130.024138 181.228669,138.085635 181.228669,148.357541 Z M216.002867,131.653975 C214.446717,134.753388 212.599925,137.571586 210.529095,139.927139 C210.226342,137.486919 210.081021,134.97715 209.935699,132.319215 C210.747077,132.174072 214.001671,131.653975 216.002867,131.653975 Z M199.723844,135.941748 C200.09623,140.081354 200.541277,144.069769 201.204305,147.689278 C199.284852,148.650852 197.438059,149.24352 195.727505,149.319115 C192.024837,149.467282 192.024837,147.105681 192.024837,146.065488 C192.027865,142.143597 195.061449,138.530136 199.723844,135.941748 Z" id="Shape"></path>
            </g>
        </g>
    </g>
</svg>
