<?xml version="1.0" encoding="UTF-8"?>
<svg viewBox="0 0 300 300" version="1.1" xmlns="http://www.w3.org/2000/svg" xmlns:xlink="http://www.w3.org/1999/xlink">
    <!-- Generator: Sketch 48.2 (47327) - http://www.bohemiancoding.com/sketch -->
    <title>Care Partnership</title>
    <desc>Created with Sketch.</desc>
    <defs></defs>
    <g id="09-Service-Page-Icons" stroke="none" stroke-width="1" fill="none" fill-rule="evenodd">
        <g id="Care-Partnership" fill="#FFFFFF" fill-rule="nonzero">
            <g id="noun_customer-relationship_1271149">
                <path d="M26.4657025,169.985486 L56.2222647,200.369008 L68.4129047,216.967366 C62.7076052,222.951148 62.7376067,232.549706 68.5379112,238.472221 L76.4683276,246.569728 L91.4691151,261.886576 L106.469903,277.203424 L114.395319,285.300931 C117.230467,288.19071 120.995665,289.788768 125.005876,289.788768 C129.016086,289.788768 132.781284,288.195816 135.611432,285.300931 L140.006663,280.813095 L154.397419,295.512163 C157.232567,298.401942 160.997765,300 165.007976,300 C169.018186,300 172.783384,298.407048 175.613532,295.512163 L176.473578,294.633997 C179.19372,291.851437 180.593794,288.251977 180.778804,284.606568 C184.488998,284.412554 187.964181,282.896186 190.60932,280.195315 L191.469365,279.317149 C194.189508,276.534588 195.589581,272.935129 195.774591,269.289719 C199.484786,269.095706 202.959968,267.579338 205.605107,264.878467 L206.465152,264.000301 C209.185295,261.21774 210.585368,257.618281 210.770378,253.972871 C214.480573,253.778858 217.955755,252.26249 220.600894,249.561619 L221.460939,248.683453 C226.166186,243.873962 227.016231,236.669938 224.14608,230.915909 L243.897117,200.241367 L273.533673,169.980381 C275.488776,167.984085 275.488776,164.757336 273.533673,162.76104 L218.530786,106.599263 C216.575683,104.602967 213.415517,104.602967 211.460414,106.599263 L181.893862,136.788771 L158.62264,151.058968 L140.006663,151.058968 C139.446634,151.058968 138.896605,151.176397 138.376578,151.360199 L112.775234,141.557416 L83.543699,111.709984 C81.5885964,109.713689 78.4284305,109.713689 76.4733278,111.709984 L26.4707028,162.766145 C24.5105999,164.762441 24.5105999,167.989191 26.4657025,169.985486 Z M75.6132827,224.033538 L81.4735903,218.049756 C83.3586893,216.114728 86.6538623,216.114728 88.5439615,218.049756 L89.3990064,218.927922 C91.3491088,220.919112 91.3491088,224.156073 89.3990064,226.147263 L80.0035132,235.740716 L75.6132827,231.252879 C73.6631803,229.261689 73.6631803,226.024729 75.6132827,224.033538 Z M103.539749,233.366604 L104.394794,234.24477 C106.344896,236.235961 106.344896,239.472921 104.394794,241.464112 L95.0043007,251.057564 L87.0738843,242.960057 L96.4693776,233.366604 C98.3544765,231.431576 101.64965,231.431576 103.539749,233.366604 Z M118.540536,248.683453 L119.395581,249.561619 C121.345684,251.552809 121.345684,254.78977 119.395581,256.78096 L110.005088,266.374412 L102.074672,258.276905 L111.470165,248.683453 C113.355264,246.748424 116.650437,246.748424 118.540536,248.683453 Z M134.401369,272.097808 L128.541061,278.08159 C126.655962,280.016619 123.360789,280.016619 121.47069,278.08159 L117.075459,273.593754 L126.470953,264.000301 C128.356052,262.065272 131.651225,262.065272 133.541324,264.000301 L134.396369,264.878467 C136.346471,266.869657 136.346471,270.106618 134.401369,272.097808 Z M215.010601,117.43338 L262.943117,166.375816 L240.011913,189.790171 L192.079397,140.847735 L215.010601,117.43338 Z M160.007713,161.2702 C160.912761,161.2702 161.802807,161.020025 162.582848,160.540097 L184.233985,147.275706 L233.596576,197.678348 L217.385725,222.854141 L208.545261,213.822306 L208.535261,213.832517 L203.209981,208.405247 L173.208406,182.877167 C172.308359,182.111325 171.1783,181.692664 170.008238,181.692664 L155.007451,181.692664 C154.472423,181.692664 153.937395,181.784565 153.427368,181.958156 L138.42658,187.063772 C137.866551,187.25268 137.346524,187.5437 136.881499,187.91641 L122.385738,199.761439 C120.985665,200.905097 119.300576,201.538194 117.630488,201.645412 C117.580486,201.645412 117.525483,201.640306 117.47548,201.640306 C116.845447,201.665834 116.225415,201.573933 115.620383,201.446293 C115.37037,201.390131 115.110356,201.354392 114.870344,201.272702 C114.280313,201.083794 113.725283,200.808091 113.210256,200.460909 C112.970244,200.30774 112.745232,200.129044 112.52022,199.950347 C112.280208,199.746123 112.040195,199.536792 111.830184,199.312145 C111.675176,199.148765 111.520168,198.985386 111.37516,198.806689 C111.230152,198.627993 111.110146,198.428874 110.980139,198.239966 C109.940085,196.703175 109.495061,194.911104 109.625068,193.149667 C109.635069,193.032237 109.635069,192.909703 109.65007,192.792273 C109.755075,191.924319 109.995088,191.076786 110.375108,190.285416 C110.42511,190.178198 110.495114,190.076086 110.550117,189.968868 C110.975139,189.172392 111.505167,188.421866 112.210204,187.793875 L141.886762,161.2702 L160.007713,161.2702 Z M105.619858,180.099712 C105.589856,180.12524 105.569855,180.160979 105.544854,180.186507 C104.634806,181.008512 103.839764,181.917311 103.134727,182.882273 C102.839712,183.285616 102.6147,183.719594 102.354687,184.14336 C101.979667,184.756034 101.614648,185.363602 101.319632,186.00691 C101.059619,186.563422 100.859608,187.130145 100.659598,187.70708 C100.464587,188.273803 100.294578,188.845632 100.154571,189.427672 C100.004563,190.045452 99.8745563,190.663232 99.7945521,191.301434 C99.7095477,191.93453 99.6895466,192.567626 99.6695456,193.205828 C99.6545448,193.660228 99.5595398,194.094206 99.5795408,194.553711 C99.5845411,194.696668 99.6345437,194.829414 99.6445443,194.972372 C99.7195482,196.156874 99.8895571,197.331166 100.194573,198.490141 C100.274577,198.791372 100.419585,199.067076 100.51459,199.368307 C100.804605,200.282212 101.144623,201.185906 101.579646,202.053861 C101.769656,202.426571 102.004668,202.768647 102.219679,203.12604 C102.519695,203.631496 102.764708,204.157375 103.119727,204.637303 C103.284735,204.86195 103.494746,205.030435 103.669756,205.244871 C103.984772,205.638004 104.32979,205.995397 104.674808,206.363001 C105.204836,206.919513 105.754865,207.445392 106.349896,207.92532 C106.594909,208.124439 106.779919,208.374614 107.034932,208.563522 C107.37495,208.818802 107.75497,209.002605 108.109989,209.227252 C108.279998,209.33447 108.450007,209.446793 108.625016,209.5438 C111.56017,211.254181 114.875344,212.025129 118.210519,211.82601 C118.765548,211.800482 119.300576,211.708581 119.845605,211.626891 C120.270627,211.560518 120.695649,211.494145 121.120672,211.397138 C121.805708,211.24397 122.470743,211.049957 123.135777,210.815098 C123.430793,210.712986 123.715808,210.585346 124.005823,210.467916 C124.670858,210.187107 125.330893,209.901193 125.965926,209.538694 C126.465952,209.257885 126.930977,208.910703 127.411002,208.583944 C127.74602,208.34398 128.111039,208.170389 128.431055,207.910003 L128.651067,207.731306 C128.651067,207.731306 128.651067,207.731306 128.651067,207.731306 L142.451792,196.453 L155.817493,191.903896 L168.198143,191.903896 L196.474628,215.936031 L214.400569,234.24477 C216.350671,236.235961 216.350671,239.472921 214.400569,241.464112 L213.540524,242.342278 C211.655425,244.277306 208.360252,244.277306 206.470152,242.342278 L193.539474,229.139154 L186.469102,236.358496 L199.394781,249.561619 C201.344883,251.552809 201.344883,254.78977 199.394781,256.78096 L198.534736,257.659126 C196.649637,259.594154 193.354464,259.594154 191.464365,257.659126 L178.533686,244.456003 L171.463315,251.675344 L184.388993,264.878467 C186.339096,266.869657 186.339096,270.106618 184.388993,272.097808 L183.528948,272.975974 C181.643849,274.911003 178.348676,274.911003 176.458577,272.975974 L163.527898,259.772851 L156.457527,266.992192 L169.383205,280.195315 C171.333308,282.186505 171.333308,285.423466 169.383205,287.414656 L168.52316,288.292822 C166.638061,290.227851 163.342888,290.227851 161.452789,288.292822 L145.416947,271.919112 C146.532006,266.946241 145.236938,261.524077 141.451739,257.659126 L140.596694,256.78096 C137.956556,254.085195 134.391368,252.701573 130.776179,252.51777 C130.62117,248.816199 129.211096,245.160578 126.450952,242.342278 L125.595907,241.464112 C122.955768,238.768346 119.390581,237.384724 115.775391,237.200922 C115.620383,233.499351 114.210309,229.843729 111.450164,227.025429 L110.595119,226.147263 C107.954981,223.451498 104.389793,222.067876 100.774604,221.884074 C100.619595,218.182502 99.2095214,214.526881 96.4493765,211.708581 L95.5943316,210.830415 C90.3090542,205.438885 81.4085869,205.137653 75.6282835,209.804186 L66.5878089,197.48944 L111.250154,151.886077 L129.401106,158.834821 L105.619858,180.099712 Z M80.0035132,122.538996 L102.934717,145.953352 L60.0024631,189.790171 L37.0712593,166.375816 L80.0035132,122.538996 Z" id="Shape"></path>
                <path d="M146.953091,113.814788 C147.931375,114.807314 149.215688,115.306122 150.5,115.306122 C151.784312,115.306122 153.068625,114.807314 154.046909,113.814788 L209.232203,57.8261171 C222.255932,44.6127908 222.255932,23.123321 209.232203,9.90999472 C196.208474,-3.30333157 175.027355,-3.30333157 162.003625,9.90999472 L150.5,21.5810876 L138.996375,9.90999472 C125.972645,-3.30333157 104.791526,-3.30333157 91.767797,9.90999472 C78.7440677,23.123321 78.7440677,44.6127908 91.767797,57.8261171 L146.953091,113.814788 Z M98.8616156,17.1070839 C103.416911,12.4854736 109.402007,10.1797583 115.382086,10.1797583 C121.362165,10.1797583 127.347261,12.4854736 131.902556,17.1070839 L146.953091,32.3767213 C148.914677,34.3668641 152.085323,34.3668641 154.046909,32.3767213 L169.097444,17.1070839 C178.203017,7.8638633 193.032811,7.8638633 202.138384,17.1070839 C211.243958,26.3452145 211.243958,41.3908973 202.138384,50.629028 L150.5,103.019154 L98.8616156,50.629028 C89.7560422,41.3908973 89.7560422,26.3452145 98.8616156,17.1070839 Z" id="Shape"></path>
                <path d="M14,85.6240042 L22.7633929,89.7959184 C24.0740327,86.9308095 25.500744,84.0755633 27,81.3189439 L18.5412946,76.5306122 C16.9356399,79.4894166 15.4073661,82.5468477 14,85.6240042 Z" id="Shape"></path>
                <path d="M24,67.8947253 L32.446281,73.4693878 C34.1969098,70.7128557 36.0682716,67.9819898 38,65.3486547 L29.9561624,59.1836735 C27.8835789,62.001804 25.8763924,64.932865 24,67.8947253 Z" id="Shape"></path>
                <path d="M2,126.923478 L12.0979974,128.571429 C12.6195143,125.265098 13.258628,121.943121 14,118.688941 L4.04005113,116.326531 C3.24243715,119.815388 2.55219429,123.377256 2,126.923478 Z" id="Shape"></path>
                <path d="M7,106.12566 L16.7781275,109.183673 C17.7395751,105.984762 18.8237608,102.775414 20,99.6599978 L10.4520063,95.9183673 C9.19394178,99.2581769 8.03304485,102.691919 7,106.12566 Z" id="Shape"></path>
                <path d="M30,223.23472 C28.3204134,220.307968 26.7235142,217.296841 25.2609819,214.285714 L16,218.973791 C17.5710594,222.201129 19.2816537,225.433739 21.0801034,228.571429 L30,223.23472 Z" id="Shape"></path>
                <path d="M58.9552239,29.5918367 C56.2238806,31.7255494 53.5472637,33.9659477 51,36.2571487 L57.5771144,43.877551 C59.9502488,41.7438384 62.4477612,39.6507678 65,37.6542224 L58.9552239,29.5918367 Z" id="Shape"></path>
                <path d="M36,50.5311615 L43.5030088,57.1428571 C45.5745133,54.6995144 47.76,52.2865237 50,49.9797653 L42.9628319,42.8571429 C40.559292,45.325779 38.2152212,47.9107649 36,50.5311615 Z" id="Shape"></path>
                <path d="M0,147.730112 L10.4413859,147.959184 C10.5144756,144.555079 10.7024205,141.103029 11,137.682942 L0.600379687,136.734694 C0.281917418,140.383852 0.0783103939,144.080955 0,147.730112 Z" id="Shape"></path>
                <path d="M15,187.227777 C14.1895973,184.022737 13.4798658,180.766333 12.9010067,177.55102 L3,179.415491 C3.62416107,182.861937 4.37919463,186.354609 5.25,189.795918 L15,187.227777 Z" id="Shape"></path>
                <path d="M0,158.637686 C0.158457249,162.203665 0.439591078,165.816564 0.843401487,169.387755 L11,168.193882 C10.6217472,164.857295 10.3610595,161.484213 10.2128253,158.163265 L0,158.637686 Z" id="Shape"></path>
                <path d="M21,205.246906 C19.7611824,202.187269 18.61338,199.050239 17.5919876,195.918367 L8,199.184388 C9.09723843,202.538121 10.3259432,205.902174 11.655776,209.183673 L21,205.246906 Z" id="Shape"></path>
                <path d="M53,253.94009 C50.7302655,251.71079 48.4853097,249.355114 46.3345133,246.938776 L39,253.732831 C41.299469,256.321042 43.7030088,258.843537 46.1362832,261.22449 L53,253.94009 Z" id="Shape"></path>
                <path d="M60.401283,260.204082 L54,268.011568 C56.6243763,270.252465 59.3585175,272.432246 62.1275837,274.489796 L68,266.254502 C65.4105488,264.329368 62.8560228,262.297283 60.401283,260.204082 Z" id="Shape"></path>
                <path d="M75.4421669,272.44898 L70,281.304972 C72.9926794,283.224729 76.0827233,285.05556 79.1778917,286.734694 L84,277.507305 C81.1149341,275.938021 78.2401171,274.237963 75.4421669,272.44898 Z" id="Shape"></path>
                <path d="M26,237.395988 C27.9441661,240.298093 30.0085898,243.169542 32.1381532,245.918367 L40,239.577677 C38.015748,237.012788 36.0866142,234.345713 34.277738,231.632653 L26,237.395988 Z" id="Shape"></path>
                <path d="M239.611408,261.22449 C237.14082,263.317691 234.580392,265.349776 232,267.254538 L237.849554,275.510204 C240.614617,273.473026 243.359715,271.298338 246,269.052348 L239.611408,261.22449 Z" id="Shape"></path>
                <path d="M241.072469,29.5918367 L235,37.6332623 C237.521492,39.6182354 240.013144,41.7199716 242.410302,43.877551 L249,36.272718 C246.438721,33.9577622 243.773002,31.7138796 241.072469,29.5918367 Z" id="Shape"></path>
                <path d="M247,253.912347 L253.841472,261.22449 C256.273885,258.854486 258.681529,256.34299 261,253.750641 L253.67799,246.938776 C251.513093,249.364365 249.263977,251.709102 247,253.912347 Z" id="Shape"></path>
                <path d="M274,237.421535 L265.748212,231.632653 C263.940629,234.315056 262.002861,236.987241 260,239.572567 L267.846209,245.918367 C269.994278,243.154214 272.062232,240.292984 274,237.421535 Z" id="Shape"></path>
                <path d="M224.577501,272.44898 C221.761085,274.233386 218.877977,275.928833 216,277.482993 L220.806889,286.734694 C223.8952,285.070644 226.988641,283.249608 230,281.33438 L224.577501,272.44898 Z" id="Shape"></path>
                <path d="M262,65.3200604 C263.922358,67.9543421 265.784328,70.6964597 267.540618,73.4693878 L276,67.9029915 C274.127965,64.9400666 272.130122,62.007952 270.071891,59.1836735 L262,65.3200604 Z" id="Shape"></path>
                <path d="M281,100.665396 C282.162727,103.780496 283.238377,106.984449 284.196217,110.204082 L294,107.162156 C292.970449,103.717776 291.817967,100.273395 290.568164,96.9387755 L281,100.665396 Z" id="Shape"></path>
                <path d="M285,220.018881 L275.764749,215.306122 C274.283186,218.328607 272.677729,221.34056 271,224.231403 L279.894543,229.591837 C281.691003,226.485102 283.410029,223.262523 285,220.018881 Z" id="Shape"></path>
                <path d="M273,82.3069734 C274.500372,85.0923914 275.923306,87.9568283 277.220402,90.8163265 L286,86.6579543 C284.610946,83.6009087 283.091214,80.5339857 281.484363,77.5510204 L273,82.3069734 Z" id="Shape"></path>
                <path d="M250,50.9774246 C252.225133,53.2783096 254.405664,55.7005599 256.477168,58.1632653 L264,51.5741376 C261.779823,48.9394979 259.445664,46.3453133 257.061947,43.877551 L250,50.9774246 Z" id="Shape"></path>
                <path d="M299.424358,137.755102 L289,138.684689 C289.293054,142.093172 289.47098,145.555081 289.533777,148.979592 L300,148.781921 C299.93197,145.111657 299.738344,141.398654 299.424358,137.755102 Z" id="Shape"></path>
                <path d="M286,118.663623 C286.732707,121.920912 287.362938,125.256627 287.87532,128.571429 L298,126.945398 C297.456874,123.39009 296.775406,119.819098 295.99146,116.326531 L286,118.663623 Z" id="Shape"></path>
                <path d="M292,200.229354 L282.43301,196.938776 C281.398058,200.059418 280.241942,203.19551 279,206.249208 L288.32466,210.204082 C289.652427,206.934101 290.88932,203.576578 292,200.229354 Z" id="Shape"></path>
                <path d="M300,158.673233 L289.810848,158.163265 C289.652758,161.504073 289.377376,164.8709 289,168.180485 L299.127955,169.387755 C299.53593,165.854409 299.831711,162.248209 300,158.673233 Z" id="Shape"></path>
                <path d="M297,179.452593 L287.124738,177.55102 C286.532022,180.769855 285.818753,184.014317 285,187.202399 L294.724571,189.795918 C295.598577,186.377188 296.362076,182.896951 297,179.452593 Z" id="Shape"></path>
            </g>
        </g>
    </g>
</svg>
