<svg xmlns="http://www.w3.org/2000/svg" viewBox="0 0 24 24">
    <path fill-rule="nonzero" d="M12 0C5.385 0 0 5.385 0 12s5.385 12 12 12 12-5.385 12-12S18.615 0 12 0zm0 21.955c-5.488 0-9.955-4.467-9.955-9.955S6.512 2.045 12 2.045 21.955 6.512 21.955 12 17.488 21.955 12 21.955zm6.56-12.41l-4.133-.58-1.857-3.66c-.18-.407-.898-.407-1.078 0l-1.857 3.66-4.133.58c-.24.059-.42.175-.48.408-.06.232 0 .464.18.58l2.995 2.847-.719 4.009c-.06.232.06.464.24.58.12.059.24.117.36.117s.18 0 .299-.058l3.714-1.918 3.714 1.918c.18.116.42.058.659-.059.18-.116.3-.348.24-.58l-.72-4.009 2.996-2.847c.18-.174.24-.406.18-.58-.18-.175-.36-.35-.6-.407zm-4.26 3.087c-.1.105-.15.315-.15.473l.45 2.838-2.442-1.367c-.05-.052-.1-.052-.2-.052-.099 0-.149 0-.248.052l-2.441 1.367.448-2.838c.05-.158-.05-.368-.15-.473l-1.942-1.998 2.69-.42c.15 0 .299-.158.399-.263l1.195-2.576 1.196 2.576c.05.157.199.263.398.263l2.69.42-1.893 1.998z"/>
</svg>
