<svg width="65" height="65" viewBox="0 0 74 74" xmlns="http://www.w3.org/2000/svg"><path d="M17.2 32.3c0-1.3 1.1-2.4 2.4-2.4 1.3 0 2.4 1.1 2.4 2.4 0 1.3-1.1 2.4-2.4 2.4-1.3 0-2.4-1.1-2.4-2.4zm6.4-.5c0-4.8 3.9-8.7 8.7-8.7 4.8 0 8.7 3.9 8.7 8.7 0 4.8-3.9 8.7-8.7 8.7-4.8 0-8.7-3.8-8.7-8.7zm5.9 4.1c.5.2 1 .3 1.5.4.4.1.4.1.4.5v.6c0 .2.1.4.4.4h.8c.2 0 .3-.1.3-.4v-.8c0-.3.1-.4.4-.5.6-.2 1.1-.5 1.5-.9 1.1-1.3.6-3.2-.8-4-.5-.3-1-.5-1.5-.7-.3-.1-.6-.3-.8-.4-.5-.4-.4-1 .2-1.2.2-.1.3-.1.5-.1.6 0 1.3.1 1.8.4.3.1.4.1.5-.2.1-.3.2-.6.3-1 .1-.2 0-.4-.2-.5-.4-.2-.8-.3-1.2-.3-.6 0-.6 0-.6-.6 0-.7 0-.7-.8-.7h-.3c-.3 0-.4.1-.4.4v.5c0 .5 0 .5-.5.6-1.1.4-1.8 1.1-1.8 2.3-.1 1 .5 1.8 1.3 2.3.5.3 1.1.5 1.7.8.2.1.4.2.6.4.5.4.4 1.2-.2 1.5-.3.1-.7.2-1.1.1-.6-.1-1.1-.2-1.6-.5-.3-.2-.4-.1-.5.2-.1.3-.2.6-.2.9-.1.3 0 .4.3.5zm15.4-1.2c1.3 0 2.4-1.1 2.4-2.4 0-1.3-1.1-2.4-2.4-2.4-1.3 0-2.4 1.1-2.4 2.4 0 1.3 1.1 2.4 2.4 2.4zM13 17.7h38c2.2 0 4 1.8 4 4v20.4c0 2.2-1.8 4-4 4H13c-2.2 0-4-1.8-4-4V21.6c.1-2.2 1.9-3.9 4-3.9zm.2 8.1c-.2 0-.5 0-.7-.1V38c.2 0 .5-.1.7-.1 2.2 0 4 1.8 4 4 0 .3 0 .5-.1.7h29.4v-.5c0-2.2 1.8-4 4-4 .3 0 .7 0 1 .1V25.9c-.3.1-.7.1-1 .1-2.2 0-4-1.8-4-4 0-.3 0-.7.1-1H17.1c0 .2.1.5.1.7 0 2.3-1.8 4.1-4 4.1zM34.7 1.4l-8.5 4.9c-.4.3-.4.9 0 1.2l8.5 4.9c.4.3 1-.1 1-.6V9.1H41c3.4 0 6.2 2.8 6.2 6.2h4.5c0-5.9-4.8-10.6-10.6-10.6h-5.3V2c-.1-.5-.7-.8-1.1-.6zm3.2 55.1l-8.5-4.9c-.4-.3-1 .1-1 .6v2.7h-5.3c-3.4 0-6.2-2.8-6.2-6.2h-4.5c0 5.9 4.8 10.6 10.6 10.6h5.3V62c0 .5.6.8 1 .6l8.5-4.9c.5-.3.5-.9.1-1.2z"></path></svg>
