<svg xmlns="http://www.w3.org/2000/svg" data-name="Layer 1" viewBox="0 0 100 125" x="0px" y="0px"><g data-name="Group"><path data-name="Compound Path" d="M22.9,67.3a1,1,0,0,1-.9-.4l-6.2-8-.3-15.7a5.8,5.8,0,0,0-5.9-5.7h0A5.7,5.7,0,0,0,4,43.2V64a6.6,6.6,0,0,0,1.9,4.6L22.2,85.5l-.4,11.2,21.2-.2-1-24.6a6.5,6.5,0,0,0-1.4-3.7L30.1,54.1a5.7,5.7,0,0,0-9.5,6.2l3.1,5.5a1,1,0,0,1-.7,1.4Zm4.2-3.4L24,58.4a1.7,1.7,0,0,1,2.8-1.8L37.5,70.6a2.6,2.6,0,0,1,.6,1.4l.8,20.4H26l.3-8.7L8.7,65.8A2.6,2.6,0,0,1,8,64V43.2a1.7,1.7,0,0,1,1.7-1.7h0a1.8,1.8,0,0,1,1.8,1.7l.3,17,7,9.1a5,5,0,0,0,8.3-5.5Z"></path><path data-name="Compound Path" d="M96,43.2a5.7,5.7,0,0,0-5.7-5.7h0a5.8,5.8,0,0,0-5.8,5.7l-.2,15.7-6.2,8a1,1,0,0,1-.9.4,1,1,0,0,1-.7-1.4l3.1-5.5a5.7,5.7,0,0,0-9.5-6.2l-10.6,14a6.6,6.6,0,0,0-1.5,3.8l-1,24.6,21.2.2-.4-11.2L94.1,68.6A6.6,6.6,0,0,0,96,64ZM91.3,65.8,73.7,83.9l.3,8.7H61.1l.8-20.4a2.7,2.7,0,0,1,.6-1.5L73.1,56.5A1.7,1.7,0,0,1,76,58.4l-3.1,5.5a5,5,0,0,0,8.3,5.5l7-9.1.3-17a1.8,1.8,0,0,1,1.9-1.7h0A1.7,1.7,0,0,1,92,43.2V64A2.6,2.6,0,0,1,91.3,65.8Z"></path><path data-name="Compound Path" d="M18.2,27.4v12H36.1v4.1H62.9V39.5H80.8v-12a12.2,12.2,0,0,0-4.2-9.3A9.4,9.4,0,1,0,59.2,11a9.9,9.9,0,0,0-19.4,0,9.4,9.4,0,1,0-17.4,7.1A12.2,12.2,0,0,0,18.2,27.4Zm21.6-8.7-.6-.6a9.4,9.4,0,0,0,.8-2,9.9,9.9,0,0,0,.7,1.8Zm19,20.8H40.1V27.8A9,9,0,0,1,43.2,21a9.9,9.9,0,0,0,12.6,0,8.9,8.9,0,0,1,3.1,6.8Zm.3-20.8-.9-.8a9.9,9.9,0,0,0,.7-1.8,9.4,9.4,0,0,0,.8,2ZM76.8,35.5H62.9V27.8a13,13,0,0,0-1.3-5.7l.8-.8a9.4,9.4,0,0,0,11.7,0,8.2,8.2,0,0,1,2.8,6.2Zm-8.6-27a5.4,5.4,0,1,1-5.4,5.4A5.4,5.4,0,0,1,68.2,8.4ZM49.5,7.3a6,6,0,1,1-6,6A6,6,0,0,1,49.5,7.3ZM30.8,8.4a5.4,5.4,0,1,1-5.4,5.4A5.4,5.4,0,0,1,30.8,8.4Zm-8.6,19A8.2,8.2,0,0,1,25,21.2a9.4,9.4,0,0,0,11.7,0l.8.8a13,13,0,0,0-1.4,5.7v7.7H22.2Z"></path></g></svg>
