<svg xmlns="http://www.w3.org/2000/svg" xmlns:xlink="http://www.w3.org/1999/xlink" version="1.1" x="0px" y="0px" viewBox="0 0 52 65" enable-background="new 0 0 52 52" xml:space="preserve"><g><path d="M7.900733,21.9802799c-1.1764159-0.7829456-1.9545636-2.1185875-1.9545636-3.6349106   c0-2.4079943,1.9581609-4.3661556,4.3661561-4.3661556c0.478014,0,0.9299126,0.0962029,1.3606262,0.2386408   c3.3103266-4.0414391,8.0497656-6.4594269,13.2493658-6.7564287V2C12.5480347,2.5566955,2.5844104,12.5203199,2.027715,24.8946037   h5.4658222C7.5508327,23.9113922,7.6895404,22.9379082,7.900733,21.9802799z"></path><path d="M24.9223175,17.3296471v-7.653698c-4.451231,0.2902069-8.5024643,2.3355103-11.3852758,5.7513657   c0.7018661,0.77495,1.1414394,1.7922726,1.1414394,2.9180546c0,2.4079952-1.9581614,4.3661556-4.3661556,4.3661556   c-0.1145906,0-0.2222519-0.0250492-0.3346443-0.033844c-0.1498327,0.7297802-0.2516317,1.4702206-0.3008661,2.2169228h7.6805458   C17.8522987,20.9524326,20.9801464,17.8246498,24.9223175,17.3296471z"></path><circle cx="10.3123255" cy="18.3453693" r="2.1830781"></circle><path d="M2.0391738,27.0776825c0.1780148,3.9530964,1.3191872,7.7705536,3.3344438,11.1594925l4.9290471-2.3838768   c-1.6689539-2.646637-2.6215854-5.6406403-2.8023982-8.7756157H2.0391738z"></path><circle cx="41.1504326" cy="34.7184563" r="2.1830781"></circle><path d="M34.6703529,24.8946037h7.661293c-0.5419044-8.1569614-7.0692863-14.6843443-15.2262497-15.2262497v7.661293   C31.0475674,17.8246498,34.175415,20.9524326,34.6703529,24.8946037z"></path><path d="M41.1504326,30.3522987c0.2122574,0,0.4155884,0.0333099,0.619854,0.062624   c0.3047295-1.0875416,0.4968681-2.2029305,0.5714188-3.3372402h-7.6713524   c-0.4949379,3.9421711-3.6227856,7.0699539-7.5649567,7.5649567v7.6574287   c4.0281143-0.2691536,7.8004646-2.0113258,10.6204529-4.9056625c-0.5808144-0.7415085-0.9415703-1.6630249-0.9415703-2.6759491   C36.7842789,32.3104591,38.7424393,30.3522987,41.1504326,30.3522987z"></path><path d="M13.3830109,46.3942719c3.4832115,2.1608238,7.4321117,3.3813438,11.5393066,3.5654869v-5.461956   c-3.3166542-0.1900063-6.4595585-1.2378426-9.2085266-3.0816803L13.3830109,46.3942719z"></path><path d="M44.5147247,24.8946037H50C49.443306,12.5203199,39.4796791,2.5566955,27.1053963,2v5.4852767   C36.4653549,8.033844,43.9662209,15.5347099,44.5147247,24.8946037z"></path><path d="M43.7920723,31.2655563c1.041172,0.7986679,1.7245178,2.0419731,1.7245178,3.4528999   c0,2.4079933-1.9581642,4.3661537-4.3661575,4.3661537c-0.6013336,0-1.1745491-0.1223183-1.69627-0.3429718   c-3.2465019,3.4198532-7.6490326,5.4646225-12.3487663,5.7415047v5.4891434   C39.4796791,49.4155884,49.443306,39.4519653,50,27.0776825h-5.4752159   C44.4421043,28.5035305,44.1956024,29.9041977,43.7920723,31.2655563z"></path><polygon points="2,42.2931366 2,50 9.2847433,50 16.0812798,35.4838104  "></polygon><path d="M17.3573608,27.0776825H9.6832781c0.1832771,2.8009319,1.0739508,5.4678192,2.6031313,7.8161201l5.3351765-2.5801468   c0.4572945-0.2195854,1.007328-0.1279144,1.3676205,0.2281151c0.3602943,0.3570976,0.4572964,0.9049988,0.2409077,1.3644257   l-2.5757504,5.501133c2.4540977,1.7181854,5.2768154,2.7131233,8.2679539,2.9075279v-7.6722183   C20.9801464,34.1476364,17.8522987,31.0198536,17.3573608,27.0776825z"></path><circle cx="26.0138569" cy="25.9861431" r="6.5492339"></circle></g></svg>
