<svg xmlns="http://www.w3.org/2000/svg" xmlns:xlink="http://www.w3.org/1999/xlink" version="1.1" x="0px" y="0px" viewBox="0 0 91 113.75" style="enable-background:new 0 0 91 91;" xml:space="preserve"><g><path d="M31.6,41.7c0.3,0,0.7-0.1,1-0.4c3.9-2.8,7.1-5.4,9.8-8.2c1.5-1.5,3.2-3.4,4.5-5.8c0.5-1,1.2-2.4,1.1-4   c-0.1-3.4-1.4-6.1-4-8.3c-3.4-2.8-8.5-2.6-11.7,0.6c-0.3,0.3-0.5,0.5-0.7,0.8c-2-2.6-5.1-3.9-8.4-3.3c-2.7,0.5-4.8,2-6.3,4.4   c-2.1,3.4-2.3,6.7-0.5,9.8c0.9,1.7,2.1,3.3,3.7,4.9c2.8,3,6.2,5.9,10.6,9C30.8,41.5,31.2,41.7,31.6,41.7z"></path><path d="M83.8,63.2c-0.7,0.1-3.3,0.4-5.8,0c-0.1,0-0.2,0-0.3,0.1c-0.1,0.1-0.1,0.2,0,0.3c0.3,0.6,0.4,1,0.5,1.1   c0.2,0.5-0.1,1-0.6,1.2c-0.5,0.2-1-0.1-1.2-0.6c0-0.1-3.4-9.5-14.3-13c-9.3-2.9-17.5-3.4-18.4-3.5c0,0-2.9-0.1-3.6,1.4   c-0.4,0.9-0.3,1.9,0.1,2.7c0.4,0.7,1,1.2,1.8,1.4c8.6,1.5,13.5,6,13.7,6.1c0.3,0.3,0.4,0.7,0.2,1.1c-0.2,0.4-0.5,0.6-0.9,0.6   L36.6,61c0,0-0.1,0-0.1,0c0,0-0.1,0-0.1,0l-7.7-0.5c-0.1,0-0.2,0-0.3-0.1c-0.1-0.1-13.7-5.5-18-6.1c-0.3-0.1-3-0.5-3.7,1.1   l-0.1,0.2c-0.4,0.8-1.1,2.2,1.7,3.8c4.4,2.6,36.6,14.3,38,14.8l25.6,5.3l10.7,0.9c0,0,0,0,0,0c0.1,0,0.2,0,0.2-0.1   c4.4-5,2.4-13.6,1.4-17C84.1,63.3,84,63.2,83.8,63.2z"></path><path d="M23.3,55c-0.1,0-0.1-0.1-0.2-0.1l-4.4-3.2c-0.9-0.7-2.7-1.6-3.4-1.2C14,51,14,52.5,14.1,53.2c0,0.1,0.1,0.2,0.2,0.3   c5.5,1.6,13.6,4.9,14.6,5.2c0,0,0.1,0,0.1,0l1,0.1c0,0,0,0,0,0c0.1,0,0.3-0.1,0.3-0.2c0-0.1,0-0.3-0.2-0.4L23.3,55z"></path></g></svg>
