<svg xmlns="http://www.w3.org/2000/svg" viewBox="0 0 79 60">
    <g fill-rule="nonzero">
        <path d="M15.156 34.738v-6.474h-6.77c-2.62 0-4.753-2.269-4.753-5.057v-14.6c0-2.789 2.133-5.058 4.754-5.058h30.272c2.62 0 4.752 2.27 4.752 5.059v14.599c0 2.788-2.132 5.057-4.752 5.057v3.55c4.577 0 8.3-3.862 8.3-8.607v-14.6C46.96 3.863 43.236 0 38.66 0H8.387C3.808 0 .084 3.862.084 8.608v14.599c0 4.745 3.724 8.606 8.303 8.606h3.22v6.29c0 .966.624 1.842 1.55 2.183.264.097.535.145.8.145.65 0 1.271-.28 1.71-.797l6.607-7.82h6.595v-3.55h-8.242l-5.47 6.474z"/>
        <path d="M70.56 19.131H50.067v3.55h20.495c2.62 0 4.753 2.27 4.753 5.059v14.596c0 2.79-2.132 5.06-4.753 5.06h-6.77v6.477l-5.471-6.476H40.288c-2.62 0-4.752-2.27-4.752-5.06V27.74c0-2.79 2.132-5.06 4.752-5.06v-3.549c-4.577 0-8.302 3.862-8.302 8.608v14.598c0 4.748 3.724 8.609 8.302 8.609h16.384l6.61 7.823a2.23 2.23 0 0 0 1.706.793c.266 0 .537-.047.8-.144.929-.34 1.553-1.218 1.553-2.185v-6.288h3.22c4.578 0 8.302-3.862 8.302-8.609V27.74c0-4.747-3.724-8.609-8.302-8.609zM20.946 5.871l-6.278 16.54h3.683l1.298-3.682h6.185l1.25 3.683h3.776l-6.185-16.54h-3.729zM20.6 16.018l2.154-6.07h.046l2.085 6.07H20.6z"/>
        <path d="M47.463 38.774c0 1.814 1.16 2.99 3.05 2.99 2.27-.048 4.516-1.49 5.247-2.14.73-.652 2.7-2.916 3.569-4.708 1.1.52 1.62 1.39 1.62 2.353 0 2.083-2.006 3.292-5.209 3.659l1.554 2.151c5.016-.657 6.723-2.763 6.723-5.848 0-2.606-1.64-4.188-3.742-4.882.038-.19.109-.39.148-.584l-2.85-.507c-.02.288-.077.34-.133.63a11.468 11.468 0 0 0-2.528.173c0-.522.019-1.912.039-2.412 2.373-.097 4.706-.288 6.867-.617l-.25-2.815c-2.22.444-4.361.676-6.464.792.057-.56.136-2.145.136-2.145l-3.01-.23c-.04.772-.057 1.68-.096 2.47-1.332.018-2.912.018-3.743 0l.135 2.72h.327c.791 0 2.085-.04 3.244-.078 0 .751.018 2.372.037 3.106-2.722 1.136-4.67 3.24-4.67 5.922zm9.068-4.36c-.406.808-.887 1.544-1.427 2.16a29.177 29.177 0 0 1-.155-1.987c.212-.038 1.06-.174 1.582-.174zm-4.245 1.119c.097 1.08.213 2.122.386 3.067-.5.25-.982.406-1.428.425-.966.039-.966-.578-.966-.85.001-1.023.792-1.967 2.008-2.642z"/>
    </g>
</svg>
