<svg xmlns="http://www.w3.org/2000/svg" xmlns:xlink="http://www.w3.org/1999/xlink" version="1.1" x="0px" y="0px" viewBox="0 0 100 125" enable-background="new 0 0 100 100" xml:space="preserve"><path d="M98.299,49.957c0,26.11-21.174,47.285-47.285,47.285c-26.094,0-47.268-21.175-47.268-47.285  c0-26.092,21.174-47.267,47.268-47.267C77.125,2.689,98.299,23.865,98.299,49.957L98.299,49.957z M37.337,77.756  c-0.016,1.214,0.963,2.207,2.193,2.207c1.215,0.016,2.193-0.963,2.223-2.178c0-0.029,0-2.965,0-2.965h18.538v2.936  c0,1.229,0.99,2.207,2.207,2.207c1.215,0,2.193-0.979,2.193-2.207V74.82H65.4c2.389,0,4.359-1.955,4.359-4.34V36.311  c0-2.415-1.971-4.356-4.359-4.356h-1.199V74.82c0,0.936-0.756,1.689-1.703,1.689c-0.932,0-1.689-0.754-1.689-1.689V31.955H41.234  V74.82c0,0.936-0.756,1.689-1.689,1.689c-0.947,0-1.703-0.754-1.703-1.689V31.955H36.64c-2.414,0-4.357,1.942-4.357,4.356V70.48  c0,2.385,1.943,4.34,4.357,4.34h0.697V77.756z M56.381,20.901v8.624c0,0.593,0.486,1.082,1.094,1.082  c0.594,0,1.082-0.489,1.082-1.082v-8.624h4.83c0.119,0,0.236-0.119,0.236-0.252c0-2.401-1.941-4.342-4.355-4.342h-8.09h-8.12  c-2.387,0-4.33,1.941-4.33,4.342c0,0.133,0.09,0.252,0.223,0.252h4.834v8.624c0,0.593,0.486,1.082,1.094,1.082  c0.594,0,1.084-0.489,1.084-1.082v-8.624h5.215H56.381z"></path></svg>
