<svg xmlns="http://www.w3.org/2000/svg" viewBox="0 0 44 60">
    <g fill-rule="nonzero">
        <path d="M40.206 24.246c1.968-.288 3.327-2.108 3.033-4.057-.294-1.952-2.137-3.298-4.104-3.007-1.965.291-3.323 2.109-3.03 4.058.294 1.955 2.133 3.297 4.101 3.006zM11.844 48.571L28.852.714C19.151 11.398 0 26.346 0 26.346s2.24 4.883 3.468 10.751c1.228 5.875 8.376 11.474 8.376 11.474z"/>
        <path d="M43.768 29.181c.87-1.562-.86-3.138-2.706-3.632-1.846-.494-3.805-.371-5.144.269-1.175.567-9.607 2.527-11.664 3L33.246 0l-1.548.405-17.115 53.019-10.976-1.121 2.777 4.504L37.952 60l3.36-2.179-.068-1.675-5.487-.56-.487-6.704s-.181-5.553 1.09-7.39c1.274-1.836 6.538-10.745 7.408-12.31zM22.963 32.96l12.28-3.236-10.057 13.984-1.804 10.615-6.866-.7 6.447-20.663zm4.391 21.769l.49-7.351 3.069-5.682 2.432-.943-1.76 5.515-.259 8.866-3.972-.405z"/>
    </g>
</svg>
