<svg xmlns="http://www.w3.org/2000/svg" xmlns:xlink="http://www.w3.org/1999/xlink" version="1.1" x="0px" y="0px" viewBox="0 0 100 125" enable-background="new 0 0 100 100" xml:space="preserve"><path d="M42.745,63.845c-0.518-0.518-1.198-0.777-1.878-0.777c-0.681,0-1.361,0.259-1.879,0.777l-6.762,6.762  c-1.035,1.036-1.035,2.721,0,3.757c1.034,1.034,2.721,1.036,3.757,0l6.762-6.762C43.78,66.566,43.78,64.881,42.745,63.845z"></path><path d="M30.989,52.09c-0.499-0.499-1.166-0.773-1.879-0.773c-0.712,0-1.379,0.274-1.878,0.773l-6.762,6.762  c-1.035,1.036-1.035,2.721,0,3.756c0.999,0.998,2.76,0.997,3.757,0l6.762-6.762C32.024,54.811,32.024,53.125,30.989,52.09z"></path><path d="M36.867,57.967c-0.518-0.518-1.198-0.777-1.878-0.777c-0.681,0-1.361,0.259-1.879,0.777l-6.762,6.762  c-1.035,1.036-1.035,2.721,0,3.757c0.997,0.996,2.758,0.997,3.757,0l6.762-6.762C37.902,60.688,37.902,59.003,36.867,57.967z"></path><path d="M65.371,48.989c-0.584-0.588-0.581-1.538,0.006-2.122c0.589-0.584,1.538-0.581,2.121,0.007l9.199,9.256l16.466-16.467  L70.771,17.272l-3.064,3.064c-0.267,0.267-0.624,0.423-1.001,0.438c-4.194,0.166-10.685,0.7-11.984,1.368  c-1.38,0.796-11.012,10.597-19.732,19.781c1.344,1.321,4.112,3.482,7.141,2.604c3.191-0.922,8.718-6.267,10.577-8.248  c0.28-0.299,0.67-0.47,1.079-0.474c0.383-0.009,0.802,0.16,1.088,0.452c0.354,0.359,8.777,8.758,16.955,2.122  c0.644-0.521,1.587-0.423,2.11,0.22c0.521,0.644,0.424,1.588-0.22,2.11c-7.502,6.085-15.691,2.252-19.865-1.306  c-2.2,2.211-7.225,6.945-10.893,8.005c-6.216,1.8-11.009-4.332-11.21-4.593c-0.449-0.585-0.407-1.41,0.101-1.945  c3.364-3.553,12.542-13.192,17.849-18.257c-4.323-1.69-11.133,1.523-11.133,1.523l-9.369-9.369L6.837,37.13l15.557,15.557  l2.718-2.718c1.064-1.065,2.485-1.652,3.999-1.652c1.515,0,2.936,0.586,4,1.652c1.166,1.166,1.697,2.717,1.63,4.247  c1.531-0.067,3.082,0.464,4.248,1.631c1.166,1.166,1.697,2.717,1.63,4.247c1.53-0.067,3.082,0.465,4.248,1.631  c1.166,1.166,1.697,2.717,1.63,4.247c1.531-0.067,3.082,0.464,4.248,1.631c2.205,2.205,2.205,5.793,0,7.999l-2.718,2.718  l5.701,5.701c1.616,1.616,4.261,1.616,5.878,0s1.616-4.261,0-5.878c1.616,1.616,4.261,1.616,5.878,0s1.616-4.261,0-5.878  c1.616,1.616,4.261,1.616,5.878,0c1.616-1.616,1.616-4.261,0-5.878c1.616,1.616,4.261,1.616,5.878,0  c1.234-1.234,1.519-3.066,0.868-4.584L65.371,48.989z"></path><path d="M48.623,69.723c-1.034-1.035-2.721-1.036-3.757,0l-6.762,6.762c-1.035,1.036-1.035,2.721,0,3.757  c1.035,1.036,2.722,1.035,3.757,0l6.762-6.762C49.658,72.444,49.658,70.759,48.623,69.723z"></path></svg>
