<?xml version="1.0" encoding="utf-8"?>
<!-- Generator: Adobe Illustrator 22.0.1, SVG Export Plug-In . SVG Version: 6.00 Build 0)  -->
<svg version="1.1" id="Layer_1" xmlns="http://www.w3.org/2000/svg" xmlns:xlink="http://www.w3.org/1999/xlink" x="0px" y="0px"
	 viewBox="0 0 1045.5 268.2" style="enable-background:new 0 0 1045.5 268.2;" xml:space="preserve">
<style type="text/css">
	.st0{fill-rule:evenodd;clip-rule:evenodd;fill:#FF6F34;}
	.st1{fill:#FF6F34;}
</style>
<g>
	<path class="st0" d="M376.8,134.4l34.2,43h-10.8l-29.4-37l-16.3,16.5v20.5h-8.6V101h8.6v45.6l43.9-45.6h11.1L376.8,134.4
		L376.8,134.4z M111.8,196.1c127.6-20.9,239.7,1.5,311.7,73.3C359.1,196.4,267.6,163.3,111.8,196.1L111.8,196.1z M257,152.7
		c0,0,44.6,2.9,65,44.1c-3.2-20.8-19.9-45.1-52.1-54.2c0,0,17-46.5-20.8-81.8c-2.2,0.5-4.3,1.1-6.4,1.9c-8.3,3.2-15.8,7.6-23.3,12.2
		c-5.3,3.3-10.4,6.4-15.5,9.4C225.5,90.4,251.5,107.5,257,152.7L257,152.7z M132.3,93.3c22.5-4.1,40-11,70.5-37.1
		c28.4-23.3,63.9-30,91.5-10.3c4.4,3.2,8.1,6.9,10.9,11.3c-13-7-34.6-13.8-62.2-4.8c-1.3,0.4-2.6,0.8-3.9,1.3
		C205.8,66.8,191.4,92.4,132.3,93.3L132.3,93.3z M-1.4,68c44.8,25.4,80.1,34.6,124.2,25.6c29.6-7.5,45.9-20.7,73.9-44.6
		c24.7-21.2,59.8-31.1,89.6-18.4c30.4,12.5,46,46.9,71.6,44.7c14.6-3.2,28.4-3,44.8,1.5l3.7-1.6c0.5-3.1,0.5-6.4,0-7
		c-1.5-2.1-4.9-3.6-9-6c-2.4-1.3-4.4-7.7-7.3-8.6c-19.1-5.5,4.6-16.7-8-32.7c-12.7,7.3-14.5,16-11.1,27.1
		c3.4,11.1-11.2,28.4-47.4-4.5c-36.1-32.9-76.6-57.3-121.4-29C157.2,43.2,124.6,119.2-1.4,68L-1.4,68z M847,128.4
		c5.6,5.7,8.4,12.6,8.4,20.8c0,8.1-2.8,15.1-8.5,20.9c-5.7,5.8-12.7,8.7-21.1,8.7c-8.4,0-15.3-2.9-20.9-8.6
		c-5.6-5.7-8.3-12.6-8.3-20.8c0-8.1,2.8-15.1,8.5-20.9c5.6-5.8,12.6-8.7,21-8.7S841.4,122.7,847,128.4L847,128.4z M846.8,149.4
		c0-6.2-2-11.4-6.1-15.7c-4-4.3-9-6.4-14.9-6.4c-6,0-11,2.1-14.8,6.3c-3.9,4.2-5.8,9.4-5.8,15.6c0,6.2,2,11.4,6,15.7
		c4,4.3,8.9,6.4,14.8,6.4c6,0,11-2.1,14.9-6.3C844.9,160.7,846.8,155.5,846.8,149.4L846.8,149.4z M776.5,128.4
		c5.6,5.7,8.4,12.6,8.4,20.8c0,8.1-2.8,15.1-8.5,20.9c-5.7,5.8-12.7,8.7-21.1,8.7c-8.4,0-15.3-2.9-20.9-8.6
		c-5.6-5.7-8.3-12.6-8.3-20.8c0-8.1,2.8-15.1,8.5-20.9c5.6-5.8,12.6-8.7,21-8.7C764,119.8,770.9,122.7,776.5,128.4L776.5,128.4z
		 M776.3,149.4c0-6.2-2-11.4-6.1-15.7c-4-4.3-9-6.4-14.9-6.4c-6,0-11,2.1-14.8,6.3c-3.9,4.2-5.8,9.4-5.8,15.6c0,6.2,2,11.4,6,15.7
		c4,4.3,8.9,6.4,14.8,6.4c6,0,11-2.1,14.9-6.3C774.4,160.7,776.3,155.5,776.3,149.4L776.3,149.4z M696.2,154.9v22.5h-8.4V121h8.4
		v14.7c2.2-4.9,5.3-8.8,9.3-11.7c4-2.9,8.6-4.3,13.7-4v9.1h-0.7c-6.5,0-11.8,2.3-16,6.8C698.3,140.4,696.2,146.7,696.2,154.9
		L696.2,154.9z M657.5,131.6c-2.9-2.6-7.1-3.9-12.4-3.9c-5.4,0-11.1,1.4-17.1,4.1l-2.5-6.9c6.8-3.1,13.7-4.7,20.5-4.7
		c7.7,0,13.6,1.9,17.8,5.8c4.1,3.9,6.2,9.5,6.2,16.9v34.5h-8.1v-8.5c-4.9,6.5-11.7,9.7-20.4,9.7c-5.7,0-10.6-1.6-14.8-4.7
		c-4.2-3.1-6.3-7.5-6.3-13c0-5.9,2.2-10.4,6.5-13.6c4.4-3.2,10.2-4.7,17.6-4.7c5.9,0,11.7,0.8,17.3,2.4v-2
		C661.9,138,660.4,134.2,657.5,131.6L657.5,131.6z M645.4,148.8c-5.2,0-9.3,1.1-12.2,3.2c-2.9,2.1-4.3,5-4.3,8.6
		c0,3.5,1.4,6.3,4.1,8.3c2.7,2,6.1,3.1,10.1,3.1c5.2,0,9.7-1.4,13.4-4.3c3.7-2.9,5.5-6.5,5.5-11v-5.5
		C656.4,149.6,650.9,148.8,645.4,148.8L645.4,148.8z M605.9,167.6c0,8.9-2.6,15.8-7.7,20.5c-5.1,4.7-12.1,7-21,7
		c-9.5,0-18.1-2.6-25.6-7.9l3.8-6.5c6.6,4.8,13.9,7.2,21.7,7.2c6.3,0,11.3-1.7,15-5.2c3.7-3.5,5.5-8.4,5.5-14.9v-6.7
		c-6,7.9-13.3,11.9-22.1,11.9c-7.1,0-13.3-2.4-18.6-7.3c-5.3-4.9-7.9-11.3-7.9-19.2c0-7.9,2.7-14.4,8-19.3
		c5.3-4.9,11.5-7.4,18.5-7.4c9,0,16.4,3.8,22,11.3V121h8.4V167.6L605.9,167.6z M597.8,146.4c0-5.7-2.1-10.3-6.2-13.9
		c-4.1-3.6-9-5.3-14.6-5.3c-5.5,0-10.2,1.7-13.9,5.2c-3.7,3.5-5.6,8.1-5.6,13.9c0,5.7,1.9,10.3,5.7,13.9c3.8,3.6,8.4,5.4,13.8,5.4
		c5.5,0,10.4-1.8,14.5-5.4C595.7,156.6,597.8,152,597.8,146.4L597.8,146.4z M493.4,145.1v32.3H485V121h8.4v9.8
		c4.4-7.3,10.9-11,19.3-11c6.7,0,12,2.1,15.8,6.2c3.9,4.1,5.8,9.6,5.8,16.4v35h-8.4v-33c0-5.3-1.4-9.5-4.1-12.5
		c-2.7-3-6.6-4.5-11.5-4.5c-4.9,0-8.9,1.6-12.1,4.9C495,135.6,493.4,139.9,493.4,145.1L493.4,145.1z M454.7,131.6
		c-2.9-2.6-7.1-3.9-12.4-3.9c-5.4,0-11.1,1.4-17.1,4.1l-2.5-6.9c6.8-3.1,13.7-4.7,20.5-4.7c7.7,0,13.6,1.9,17.8,5.8
		c4.1,3.9,6.2,9.5,6.2,16.9v34.5H459v-8.5c-4.9,6.5-11.7,9.7-20.4,9.7c-5.7,0-10.6-1.6-14.8-4.7c-4.2-3.1-6.3-7.5-6.3-13
		c0-5.9,2.2-10.4,6.5-13.6c4.4-3.2,10.2-4.7,17.6-4.7c5.9,0,11.7,0.8,17.3,2.4v-2C459,138,457.6,134.2,454.7,131.6L454.7,131.6z
		 M442.6,148.8c-5.2,0-9.3,1.1-12.2,3.2c-2.9,2.1-4.3,5-4.3,8.6c0,3.5,1.4,6.3,4.1,8.3c2.7,2,6.1,3.1,10.1,3.1
		c5.2,0,9.7-1.4,13.4-4.3s5.5-6.5,5.5-11v-5.5C453.6,149.6,448.1,148.8,442.6,148.8L442.6,148.8z"/>
	<g>
		<path class="st1" d="M871.4,101h16.7l25.3,49.2l25.1-49.2h16.7v76.3h-13.4v-54.7l-23.8,46.9h-9.4l-23.9-46.9v54.7h-13.3V101z"/>
		<path class="st1" d="M1026.1,105.9c6,3.2,10.8,7.8,14.2,13.6c3.4,5.8,5.1,12.4,5.1,19.7c0,7.3-1.7,13.9-5.2,19.7
			c-3.5,5.8-8.2,10.3-14.3,13.6c-6.1,3.3-13,4.9-20.8,4.9h-31.2V101h31.7C1013.2,101,1020,102.6,1026.1,105.9z M1018.5,161.2
			c3.7-2.1,6.7-5.1,8.8-8.9c2.1-3.8,3.2-8.2,3.2-13c0-4.9-1.1-9.2-3.3-13.1c-2.2-3.9-5.2-6.9-9-9c-3.8-2.1-8.1-3.2-12.8-3.2h-16.9
			v50.6h17.4C1010.6,164.4,1014.8,163.4,1018.5,161.2z"/>
	</g>
</g>
</svg>
