<?xml version="1.0" encoding="UTF-8"?>
<svg viewBox="0 0 425 267" version="1.1" xmlns="http://www.w3.org/2000/svg" xmlns:xlink="http://www.w3.org/1999/xlink">
    <!-- Generator: Sketch 51.1 (57501) - http://www.bohemiancoding.com/sketch -->
    <title>KangarooMD (Logo Only)</title>
    <desc>Created with Sketch.</desc>
    <defs></defs>
    <g id="Page-1" stroke="none" stroke-width="1" fill="none" fill-rule="evenodd">
        <g id="KangarooMD-(Logo-Only)" fill="#FF6F34" fill-rule="nonzero">
            <path d="M113.207838,193.70798 C240.854972,172.823222 352.986564,195.251927 425,267 C360.54929,193.992785 269.092416,160.93233 113.207838,193.70798 Z M258.399976,150.339554 C258.399976,150.339554 302.974149,153.271554 323.415815,194.36753 C320.19608,173.552724 303.478264,149.288271 271.317924,140.173486 C271.317924,140.173486 288.367816,93.7121693 250.525179,58.3852596 C248.326677,58.8719277 246.179187,59.5204855 244.119717,60.3249369 C235.829825,63.5587317 228.333114,67.9017701 220.784391,72.5555965 C215.516188,75.8033818 210.428027,78.9742195 205.232841,81.9302037 C226.917791,88.1599555 252.934729,105.182348 258.399976,150.339554 Z M133.733523,91.0130099 C156.269666,86.934791 173.763659,79.9775353 204.294627,53.9452873 C232.674104,30.7041361 268.182209,23.930755 295.793511,43.6872825 C300.192515,46.8361353 303.914364,50.6185559 306.704001,54.9735861 C293.727039,48.0083359 272.115106,41.2219637 244.52681,50.1728599 C243.236515,50.5675907 241.950222,51.0082902 240.67293,51.5069501 C207.209292,64.5640461 192.793002,90.1276137 133.733523,91.0130099 Z M0,65.6832829 C44.8592385,91.0190058 80.1202863,100.271696 124.260361,91.2758307 C153.916129,83.7729471 170.170839,70.5949335 198.144224,46.7441979 C222.894872,25.5626422 257.917866,15.7033655 287.808688,28.4027055 C318.170618,40.865207 333.803186,75.314715 359.391026,73.0672476 C373.982356,69.8394487 387.830517,70.1082654 404.242262,74.5792166 L407.95811,73.0112858 C408.492232,69.9423785 408.423217,66.5856676 407.992118,65.9760832 C406.523783,63.9044959 403.097001,62.3395631 398.949054,60.0121502 C396.590516,58.6900518 394.597061,52.2794233 391.623382,51.422008 C372.530024,45.9087677 396.237435,34.7623687 383.618555,18.7792679 C370.946663,26.114266 369.087239,34.8013421 372.530024,45.9087677 C375.97281,57.0161932 361.29246,74.3393801 325.162213,41.4138329 C289.031967,8.48928493 248.573733,-15.8151413 203.777509,12.4206041 C158.600198,40.8961859 126.037766,116.857386 0,65.6832829 Z" id="Fill-1"></path>
        </g>
    </g>
</svg>
